<svg width="252" height="52" viewBox="0 0 252 52" fill="none" xmlns="http://www.w3.org/2000/svg">
<path d="M3.18811 45.7384L0.913269 42.46H3.08109L4.29873 44.2664L5.503 42.46H7.60389L5.32905 45.6982L7.88486 49.378H5.7172L4.272 47.197L2.82684 49.378H0.699219L3.18811 45.7384Z" fill="#E62B1E"/>
<path d="M16.8898 45.2829H10.1323V43.8511H16.8898V45.2829ZM16.8898 48.1465H10.1323V46.7147H16.8898V48.1465Z" fill="white"/>
<path d="M22.0676 41.3894H20.1675V39.8237H22.0676V41.3894ZM20.1675 42.4598H22.0676V49.3779H20.1675V42.4598Z" fill="white"/>
<path d="M23.2979 42.4594H25.1044V43.4228H25.1445C25.3693 43.0665 25.6817 42.7736 26.0518 42.5722C26.4219 42.3707 26.8374 42.2674 27.2587 42.2721C29.2792 42.2721 29.7877 43.4095 29.7877 45.1223V49.3775H27.8876V45.4701C27.8876 44.3328 27.5531 43.7709 26.67 43.7709C25.6396 43.7709 25.1981 44.3461 25.1981 45.7512V49.3775H23.2979V42.4594Z" fill="white"/>
<path d="M35.9024 48.4948H35.8756C35.4341 49.244 34.658 49.5652 33.7748 49.5652C31.6874 49.5652 30.6704 47.7721 30.6704 45.8586C30.6704 43.9986 31.7007 42.2725 33.7347 42.2725C34.1367 42.2595 34.5357 42.3468 34.8955 42.5267C35.2553 42.7066 35.5646 42.9734 35.7953 43.3028H35.8087V39.8237H37.7088V49.3779H35.9024V48.4948ZM34.2432 43.7043C32.9987 43.7043 32.5705 44.7747 32.5705 45.9122C32.5705 46.996 33.0656 48.1333 34.2432 48.1333C35.5009 48.1333 35.8756 47.0362 35.8756 45.8987C35.8756 44.7747 35.4742 43.7043 34.2432 43.7043Z" fill="white"/>
<path d="M40.4382 46.3799C40.4916 47.5842 41.0804 48.1328 42.1376 48.1328C42.9002 48.1328 43.5158 47.6645 43.6362 47.2363H45.3089C44.7735 48.8688 43.6362 49.5646 42.0706 49.5646C39.8895 49.5646 38.5381 48.066 38.5381 45.9251C38.5381 43.8509 39.9698 42.272 42.0706 42.272C44.4256 42.272 45.5631 44.2523 45.4293 46.3799H40.4382ZM43.5292 45.1757C43.3552 44.2123 42.9404 43.7038 42.0171 43.7038C41.8158 43.6928 41.6144 43.7225 41.4249 43.7912C41.2354 43.8599 41.0617 43.9661 40.9143 44.1036C40.7668 44.241 40.6487 44.4068 40.5668 44.5911C40.485 44.7753 40.4413 44.9741 40.4382 45.1757H43.5292Z" fill="white"/>
<path d="M46.2852 42.4597H48.0917V43.3429H48.1185C48.3362 42.9978 48.6418 42.7168 49.0039 42.5287C49.366 42.3406 49.7716 42.2521 50.1791 42.2724C52.3468 42.2724 53.3237 44.0253 53.3237 45.9922C53.3237 47.8389 52.3067 49.565 50.2861 49.565C49.8812 49.5756 49.4798 49.4859 49.118 49.3038C48.7561 49.1217 48.4449 48.8529 48.2121 48.5213H48.1854V51.813H46.2852V42.4597ZM51.4235 45.9388C51.4235 44.8415 50.9819 43.7042 49.7643 43.7042C48.5199 43.7042 48.1185 44.8148 48.1185 45.9388C48.1185 47.0628 48.5467 48.1332 49.7776 48.1332C51.0222 48.1332 51.4235 47.0628 51.4235 45.9388Z" fill="white"/>
<path d="M55.7585 46.3799C55.8119 47.5842 56.4007 48.1328 57.4579 48.1328C58.2205 48.1328 58.8361 47.6645 58.9565 47.2363H60.6292C60.0938 48.8688 58.9565 49.5646 57.3909 49.5646C55.2098 49.5646 53.8584 48.066 53.8584 45.9251C53.8584 43.8509 55.2901 42.272 57.3909 42.272C59.7459 42.272 60.8834 44.2523 60.7495 46.3799H55.7585ZM58.8495 45.1757C58.6755 44.2123 58.2607 43.7038 57.3374 43.7038C57.1361 43.6928 56.9347 43.7225 56.7452 43.7912C56.5557 43.8599 56.382 43.9661 56.2346 44.1036C56.0871 44.241 55.969 44.4068 55.8872 44.5911C55.8053 44.7753 55.7616 44.9741 55.7585 45.1757H58.8495Z" fill="white"/>
<path d="M61.605 42.4594H63.4116V43.4228H63.4516C63.6765 43.0665 63.9888 42.7736 64.3589 42.5722C64.729 42.3707 65.1445 42.2674 65.5659 42.2721C67.5863 42.2721 68.0948 43.4095 68.0948 45.1223V49.3775H66.1947V45.4701C66.1947 44.3328 65.8602 43.7709 64.9771 43.7709C63.9467 43.7709 63.5052 44.3461 63.5052 45.7512V49.3775H61.605V42.4594Z" fill="white"/>
<path d="M74.2095 48.4948H74.1828C73.7412 49.244 72.9652 49.5652 72.0819 49.5652C69.9945 49.5652 68.9775 47.7721 68.9775 45.8586C68.9775 43.9986 70.0079 42.2725 72.0418 42.2725C72.4439 42.2595 72.8428 42.3468 73.2026 42.5267C73.5624 42.7066 73.8717 42.9734 74.1025 43.3028H74.1158V39.8237H76.016V49.3779H74.2095V48.4948ZM72.5503 43.7043C71.3058 43.7043 70.8776 44.7747 70.8776 45.9122C70.8776 46.996 71.3727 48.1333 72.5503 48.1333C73.808 48.1333 74.1828 47.0362 74.1828 45.8987C74.1828 44.7747 73.7813 43.7043 72.5503 43.7043Z" fill="white"/>
<path d="M78.7448 46.3799C78.7982 47.5842 79.387 48.1328 80.4442 48.1328C81.2068 48.1328 81.8224 47.6645 81.9428 47.2363H83.6155C83.0802 48.8688 81.9428 49.5646 80.3773 49.5646C78.1961 49.5646 76.8447 48.066 76.8447 45.9251C76.8447 43.8509 78.2764 42.272 80.3773 42.272C82.7322 42.272 83.8697 44.2523 83.7359 46.3799H78.7448ZM81.8358 45.1757C81.6618 44.2123 81.247 43.7038 80.3237 43.7038C80.1224 43.6928 79.921 43.7225 79.7315 43.7912C79.542 43.8599 79.3683 43.9661 79.2209 44.1036C79.0735 44.241 78.9553 44.4068 78.8735 44.5911C78.7917 44.7753 78.7479 44.9741 78.7448 45.1757H81.8358Z" fill="white"/>
<path d="M84.5918 42.4594H86.3984V43.4228H86.4384C86.6633 43.0665 86.9756 42.7736 87.3457 42.5722C87.7158 42.3707 88.1314 42.2674 88.5527 42.2721C90.5731 42.2721 91.0816 43.4095 91.0816 45.1223V49.3775H89.1816V45.4701C89.1816 44.3328 88.847 43.7709 87.9639 43.7709C86.9336 43.7709 86.492 44.3461 86.492 45.7512V49.3775H84.5918V42.4594Z" fill="white"/>
<path d="M94.6672 42.4598H96.0588V43.731H94.6672V47.1565C94.6672 47.7989 94.8276 47.9594 95.47 47.9594C95.6675 47.9615 95.8648 47.9436 96.0588 47.9059V49.3912C95.6908 49.4418 95.3195 49.4641 94.9481 49.4581C93.7839 49.4581 92.7669 49.1905 92.7669 47.8122V43.731H91.6162V42.4598H92.7669V40.3857H94.6672V42.4598Z" fill="white"/>
<path d="M96.7544 39.8237H98.6545V49.3779H96.7544V39.8237Z" fill="white"/>
<path d="M103.298 50.2477C102.883 51.3585 102.227 51.8133 100.916 51.8133C100.527 51.811 100.138 51.7887 99.7516 51.7464V50.1808C100.12 50.2236 100.491 50.2459 100.862 50.2477C101.518 50.1808 101.732 49.4984 101.518 48.9498L99.0825 42.46H101.116L102.682 47.197H102.709L104.221 42.46H106.188L103.298 50.2477Z" fill="white"/>
<path d="M113.373 42.272C115.554 42.272 116.959 43.7171 116.959 45.9251C116.959 48.1194 115.554 49.5646 113.373 49.5646C111.205 49.5646 109.8 48.1194 109.8 45.9251C109.8 43.7171 111.205 42.272 113.373 42.272ZM113.373 48.1328C114.671 48.1328 115.058 47.0222 115.058 45.9251C115.058 44.8144 114.671 43.7038 113.373 43.7038C112.088 43.7038 111.7 44.8144 111.7 45.9251C111.7 47.0222 112.088 48.1328 113.373 48.1328Z" fill="white"/>
<path d="M117.654 42.4593H119.461V43.7439H119.488C119.675 43.3121 119.983 42.9436 120.375 42.6825C120.766 42.4214 121.225 42.2789 121.695 42.272C121.836 42.2735 121.976 42.2961 122.11 42.3389V44.1051C121.885 44.0604 121.657 44.038 121.428 44.0383C120.036 44.0383 119.555 45.0418 119.555 46.2596V49.3773H117.654V42.4593Z" fill="white"/>
<path d="M129.241 48.9357C129.241 50.0731 128.84 51.9999 125.655 51.9999C124.29 51.9999 122.698 51.3578 122.604 49.7788H124.491C124.665 50.4879 125.24 50.7289 125.91 50.7289C126.967 50.7289 127.448 50.0061 127.435 49.0161V48.1061H127.408C127.187 48.4506 126.878 48.7309 126.514 48.9188C126.15 49.1067 125.743 49.1956 125.334 49.1766C123.26 49.1766 122.377 47.5976 122.377 45.6975C122.377 43.9045 123.407 42.272 125.348 42.272C126.257 42.272 126.953 42.5798 127.408 43.3826H127.435V42.4593H129.241V48.9357ZM127.435 45.8314C127.435 44.7073 127.047 43.7038 125.816 43.7038C124.745 43.7038 124.277 44.6405 124.277 45.6708C124.277 46.6609 124.652 47.7448 125.816 47.7448C126.9 47.7448 127.435 46.8215 127.435 45.8314Z" fill="white"/>
<path d="M130.151 44.5869C130.258 42.8072 131.85 42.272 133.402 42.272C134.781 42.272 136.44 42.5798 136.44 44.239V47.8385C136.44 48.4673 136.507 49.0963 136.681 49.3773H134.754C134.682 49.1605 134.637 48.9358 134.62 48.7082C134.309 49.0001 133.943 49.2263 133.543 49.3735C133.143 49.5206 132.717 49.5856 132.292 49.5646C130.98 49.5646 129.937 48.909 129.937 47.4906C129.937 45.9251 131.114 45.5503 132.292 45.3897C133.456 45.2157 134.54 45.256 134.54 44.4799C134.54 43.6636 133.978 43.5432 133.308 43.5432C132.586 43.5432 132.118 43.8375 132.051 44.5869H130.151ZM134.54 45.9918C134.218 46.2729 133.549 46.2863 132.961 46.3933C132.372 46.5138 131.837 46.7145 131.837 47.4103C131.837 48.1195 132.385 48.2934 133.001 48.2934C134.486 48.2934 134.54 47.116 134.54 46.7011V45.9918Z" fill="white"/>
<path d="M137.644 42.4594H139.45V43.4228H139.49C139.715 43.0665 140.027 42.7736 140.397 42.5722C140.768 42.3707 141.183 42.2675 141.604 42.2721C143.625 42.2721 144.133 43.4095 144.133 45.1223V49.3775H142.233V45.4701C142.233 44.3328 141.899 43.7709 141.016 43.7709C139.985 43.7709 139.544 44.3461 139.544 45.7512V49.3775H137.644V42.4594Z" fill="white"/>
<path d="M146.997 41.3894H145.097V39.8237H146.997V41.3894ZM145.097 42.4598H146.997V49.3779H145.097V42.4598Z" fill="white"/>
<path d="M147.799 47.9462L151.399 43.8918H148.067V42.46H153.901V43.8918L150.302 47.9462H154.155V49.378H147.799V47.9462Z" fill="white"/>
<path d="M156.469 46.3799C156.523 47.5842 157.112 48.1328 158.169 48.1328C158.931 48.1328 159.547 47.6645 159.667 47.2363H161.34C160.805 48.8688 159.667 49.5646 158.102 49.5646C155.921 49.5646 154.569 48.066 154.569 45.9251C154.569 43.8509 156.001 42.272 158.102 42.272C160.457 42.272 161.594 44.2523 161.461 46.3799H156.469ZM159.56 45.1757C159.387 44.2123 158.972 43.7038 158.048 43.7038C157.847 43.6928 157.646 43.7225 157.456 43.7912C157.267 43.8599 157.093 43.9661 156.946 44.1036C156.798 44.241 156.68 44.4068 156.598 44.5911C156.516 44.7753 156.473 44.9741 156.469 45.1757H159.56Z" fill="white"/>
<path d="M167.255 48.4948H167.228C166.786 49.244 166.01 49.5652 165.127 49.5652C163.039 49.5652 162.022 47.7721 162.022 45.8586C162.022 43.9986 163.053 42.2725 165.087 42.2725C165.489 42.2595 165.888 42.3468 166.248 42.5267C166.607 42.7066 166.917 42.9734 167.148 43.3028H167.161V39.8237H169.061V49.3779H167.255V48.4948ZM165.595 43.7043C164.351 43.7043 163.923 44.7747 163.923 45.9122C163.923 46.996 164.418 48.1333 165.595 48.1333C166.853 48.1333 167.228 47.0362 167.228 45.8987C167.228 44.7747 166.826 43.7043 165.595 43.7043Z" fill="white"/>
<path d="M175.991 41.5901H173.128V39.8237H180.956V41.5901H178.092V49.3779H175.991V41.5901Z" fill="white"/>
<path d="M181.785 39.8237H188.93V41.5901H183.886V43.6374H188.515V45.2699H183.886V47.6115H189.037V49.3779H181.785V39.8237Z" fill="white"/>
<path d="M189.92 39.8237H194.041C196.517 39.8237 198.377 41.3761 198.377 44.5474C198.377 47.3172 196.958 49.3779 194.041 49.3779H189.92V39.8237ZM192.021 47.6115H193.894C195.112 47.6115 196.276 46.8623 196.276 44.748C196.276 42.8211 195.607 41.5901 193.519 41.5901H192.021V47.6115Z" fill="white"/>
<path d="M204.383 46.3799C204.437 47.5842 205.026 48.1328 206.083 48.1328C206.845 48.1328 207.461 47.6645 207.582 47.2363H209.254C208.719 48.8688 207.582 49.5646 206.016 49.5646C203.835 49.5646 202.483 48.066 202.483 45.9251C202.483 43.8509 203.915 42.272 206.016 42.272C208.371 42.272 209.508 44.2523 209.375 46.3799H204.383ZM207.474 45.1757C207.301 44.2123 206.886 43.7038 205.962 43.7038C205.761 43.6928 205.56 43.7225 205.37 43.7912C205.181 43.8599 205.007 43.9661 204.86 44.1036C204.712 44.241 204.594 44.4068 204.512 44.5911C204.43 44.7753 204.387 44.9741 204.383 45.1757H207.474Z" fill="white"/>
<path d="M213.79 49.378H211.676L209.308 42.46H211.301L212.76 47.1834H212.787L214.245 42.46H216.132L213.79 49.378Z" fill="white"/>
<path d="M217.951 46.3799C218.005 47.5842 218.594 48.1328 219.651 48.1328C220.413 48.1328 221.029 47.6645 221.149 47.2363H222.822C222.287 48.8688 221.149 49.5646 219.584 49.5646C217.403 49.5646 216.051 48.066 216.051 45.9251C216.051 43.8509 217.483 42.272 219.584 42.272C221.939 42.272 223.076 44.2523 222.942 46.3799H217.951ZM221.042 45.1757C220.868 44.2123 220.454 43.7038 219.53 43.7038C219.329 43.6928 219.128 43.7225 218.938 43.7912C218.749 43.8599 218.575 43.9661 218.427 44.1036C218.28 44.241 218.162 44.4068 218.08 44.5911C217.998 44.7753 217.954 44.9741 217.951 45.1757H221.042Z" fill="white"/>
<path d="M223.798 42.4594H225.605V43.4228H225.645C225.87 43.0665 226.182 42.7736 226.552 42.5722C226.922 42.3708 227.338 42.2675 227.759 42.2721C229.78 42.2721 230.288 43.4095 230.288 45.1223V49.3775H228.388V45.4701C228.388 44.3328 228.054 43.7709 227.17 43.7709C226.14 43.7709 225.698 44.3461 225.698 45.7512V49.3775H223.798V42.4594Z" fill="white"/>
<path d="M233.874 42.4598H235.265V43.731H233.874V47.1565C233.874 47.7989 234.034 47.9594 234.677 47.9594C234.874 47.9615 235.071 47.9436 235.265 47.9059V49.3912C234.897 49.4418 234.526 49.4642 234.155 49.4581C232.991 49.4581 231.974 49.1905 231.974 47.8122V43.731H230.823V42.4598H231.974V40.3857H233.874V42.4598Z" fill="white"/>
<path d="M8.91511 8.21447H0V0.0610352H27.6218V8.21447H18.71V31.8727H8.91511V8.21447Z" fill="#E62B1E"/>
<path d="M29.144 0.0610352H55.9579V8.21447H38.9452V12.1786H55.9579V19.7553H38.9452V23.7197H55.9624V31.8727H29.144V0.0610352Z" fill="#E62B1E"/>
<path d="M57.6074 0.0610352H73.6913C84.2934 0.0610352 88.0403 7.90284 88.0403 15.9202C88.0403 25.6804 82.872 31.8727 71.7774 31.8727H57.6074V0.0610352ZM67.408 23.7197H71.2411C77.3466 23.7197 78.2392 18.7725 78.2392 15.7841C78.2392 13.783 77.6121 8.21447 70.5274 8.21447H67.408V23.7197Z" fill="#E62B1E"/>
<path d="M102.124 19.6139L99.1338 14.656L96.2182 19.6139H89.0371L95.8545 9.58904L89.29 0H96.4735L99.1338 4.73992L101.87 0H109.052L102.489 9.58904L109.307 19.6139H102.124Z" fill="#E62B1E"/>
<path d="M116.649 0.353516H120.772V30.7567H116.649V0.353516Z" fill="white"/>
<path d="M128.321 0.353516H132.444V30.7567H128.321V0.353516Z" fill="white"/>
<path d="M160.998 0.353516V3.97546H150.844V30.7567H146.7V3.97546H136.546V0.353516H160.998Z" fill="white"/>
<path d="M165.223 0.353516H179.172C181.469 0.353516 183.363 0.691579 184.854 1.3677C187.685 2.66476 189.1 5.05865 189.1 8.54937C189.1 10.3706 188.727 11.8608 187.982 13.0198C187.203 14.2094 186.124 15.173 184.854 15.8138C185.894 16.1982 186.812 16.856 187.51 17.7179C188.105 18.5044 188.437 19.7807 188.505 21.5468L188.649 25.624C188.655 26.4939 188.751 27.3609 188.936 28.211C189.182 29.1769 189.62 29.7978 190.249 30.0737V30.7567H185.244C185.087 30.4356 184.977 30.0943 184.915 29.7425C184.798 28.9472 184.729 28.1454 184.71 27.3417L184.464 22.2711C184.368 20.2843 183.637 18.9528 182.269 18.2767C181.49 17.9042 180.266 17.7179 178.597 17.7179H169.305V30.7567H165.223V0.353516ZM178.741 14.2823C180.655 14.2823 182.17 13.896 183.284 13.1233C184.399 12.3507 184.956 10.9571 184.956 8.94262C184.956 6.77655 184.177 5.30021 182.618 4.5136C181.784 4.09964 180.669 3.89267 179.274 3.89267H169.305V14.2823H178.741Z" fill="white"/>
<path d="M203.828 0.353516H208.444L219.377 30.7567H214.905L211.849 21.6503H199.931L196.67 30.7567H192.485L203.828 0.353516ZM210.536 18.2974L205.962 4.86533L201.1 18.2974H210.536Z" fill="white"/>
<path d="M222.987 0.353516H228.833L237.49 26.0586L246.085 0.353516H251.87V30.7567H247.992V12.8128C247.992 12.192 248.006 11.1641 248.034 9.72913C248.061 8.29424 248.075 6.75576 248.075 5.11369L239.48 30.7567H235.439L226.782 5.11369V6.04508C226.782 6.7902 226.799 7.92505 226.834 9.44964C226.868 10.9744 226.885 12.0954 226.885 12.8128V30.7567H222.987V0.353516Z" fill="white"/>
</svg>
