<svg width="572" height="182" viewBox="0 0 572 182" fill="none" xmlns="http://www.w3.org/2000/svg">
<path d="M47.0781 18.2031C47.9219 18.2031 48.6875 18.2344 49.375 18.2969C50.0625 18.3281 51 18.3906 52.1875 18.4844V29.3594C51.4375 29.2656 50.1719 29.2031 48.3906 29.1719C46.6406 29.1094 45.4219 29.5 44.7344 30.3438C44.0781 31.1562 43.75 32.0625 43.75 33.0625C43.75 34.0625 43.75 35.5 43.75 37.375H52.5156V46.7969H43.75V88H30.4375V46.7969H22.9844V37.375H30.2969V34.0938C30.2969 28.625 31.2188 24.8594 33.0625 22.7969C35 19.7344 39.6719 18.2031 47.0781 18.2031ZM88.375 63.1562C87.5312 63.6875 86.6719 64.125 85.7969 64.4688C84.9531 64.7812 83.7812 65.0781 82.2812 65.3594L79.2812 65.9219C76.4688 66.4219 74.4531 67.0312 73.2344 67.75C71.1719 68.9688 70.1406 70.8594 70.1406 73.4219C70.1406 75.7031 70.7656 77.3594 72.0156 78.3906C73.2969 79.3906 74.8438 79.8906 76.6562 79.8906C79.5312 79.8906 82.1719 79.0469 84.5781 77.3594C87.0156 75.6719 88.2812 72.5938 88.375 68.125V63.1562ZM80.2656 56.9219C82.7344 56.6094 84.5 56.2188 85.5625 55.75C87.4688 54.9375 88.4219 53.6719 88.4219 51.9531C88.4219 49.8594 87.6875 48.4219 86.2188 47.6406C84.7812 46.8281 82.6562 46.4219 79.8438 46.4219C76.6875 46.4219 74.4531 47.2031 73.1406 48.7656C72.2031 49.9219 71.5781 51.4844 71.2656 53.4531H58.375C58.6562 48.9844 59.9062 45.3125 62.125 42.4375C65.6562 37.9375 71.7188 35.6875 80.3125 35.6875C85.9062 35.6875 90.875 36.7969 95.2188 39.0156C99.5625 41.2344 101.734 45.4219 101.734 51.5781V75.0156C101.734 76.6406 101.766 78.6094 101.828 80.9219C101.922 82.6719 102.188 83.8594 102.625 84.4844C103.062 85.1094 103.719 85.625 104.594 86.0312V88H90.0625C89.6562 86.9688 89.375 86 89.2188 85.0938C89.0625 84.1875 88.9375 83.1562 88.8438 82C87 84 84.875 85.7031 82.4688 87.1094C79.5938 88.7656 76.3438 89.5938 72.7188 89.5938C68.0938 89.5938 64.2656 88.2812 61.2344 85.6562C58.2344 83 56.7344 79.25 56.7344 74.4062C56.7344 68.125 59.1562 63.5781 64 60.7656C66.6562 59.2344 70.5625 58.1406 75.7188 57.4844L80.2656 56.9219ZM124.047 71.6875C124.328 74.0625 124.938 75.75 125.875 76.75C127.531 78.5312 130.594 79.4219 135.062 79.4219C137.688 79.4219 139.766 79.0312 141.297 78.25C142.859 77.4688 143.641 76.2969 143.641 74.7344C143.641 73.2344 143.016 72.0938 141.766 71.3125C140.516 70.5312 135.875 69.1875 127.844 67.2812C122.062 65.8438 117.984 64.0469 115.609 61.8906C113.234 59.7656 112.047 56.7031 112.047 52.7031C112.047 47.9844 113.891 43.9375 117.578 40.5625C121.297 37.1562 126.516 35.4531 133.234 35.4531C139.609 35.4531 144.797 36.7344 148.797 39.2969C152.828 41.8281 155.141 46.2188 155.734 52.4688H142.375C142.188 50.75 141.703 49.3906 140.922 48.3906C139.453 46.5781 136.953 45.6719 133.422 45.6719C130.516 45.6719 128.438 46.125 127.188 47.0312C125.969 47.9375 125.359 49 125.359 50.2188C125.359 51.75 126.016 52.8594 127.328 53.5469C128.641 54.2656 133.281 55.5 141.25 57.25C146.562 58.5 150.547 60.3906 153.203 62.9219C155.828 65.4844 157.141 68.6875 157.141 72.5312C157.141 77.5938 155.25 81.7344 151.469 84.9531C147.719 88.1406 141.906 89.7344 134.031 89.7344C126 89.7344 120.062 88.0469 116.219 84.6719C112.406 81.2656 110.5 76.9375 110.5 71.6875H124.047ZM161.828 46.8906V37.375H168.953V23.125H182.172V37.375H190.469V46.8906H182.172V73.8906C182.172 75.9844 182.438 77.2969 182.969 77.8281C183.5 78.3281 185.125 78.5781 187.844 78.5781C188.25 78.5781 188.672 78.5781 189.109 78.5781C189.578 78.5469 190.031 78.5156 190.469 78.4844V88.4688L184.141 88.7031C177.828 88.9219 173.516 87.8281 171.203 85.4219C169.703 83.8906 168.953 81.5312 168.953 78.3438V46.8906H161.828ZM244.609 18.2031C245.453 18.2031 246.219 18.2344 246.906 18.2969C247.594 18.3281 248.531 18.3906 249.719 18.4844V29.3594C248.969 29.2656 247.703 29.2031 245.922 29.1719C244.172 29.1094 242.953 29.5 242.266 30.3438C241.609 31.1562 241.281 32.0625 241.281 33.0625C241.281 34.0625 241.281 35.5 241.281 37.375H250.047V46.7969H241.281V88H227.969V46.7969H220.516V37.375H227.828V34.0938C227.828 28.625 228.75 24.8594 230.594 22.7969C232.531 19.7344 237.203 18.2031 244.609 18.2031ZM280.656 78.5781C284.562 78.5781 287.562 77.1875 289.656 74.4062C291.75 71.625 292.797 67.6719 292.797 62.5469C292.797 57.4219 291.75 53.4844 289.656 50.7344C287.562 47.9531 284.562 46.5625 280.656 46.5625C276.75 46.5625 273.734 47.9531 271.609 50.7344C269.516 53.4844 268.469 57.4219 268.469 62.5469C268.469 67.6719 269.516 71.625 271.609 74.4062C273.734 77.1875 276.75 78.5781 280.656 78.5781ZM306.812 62.5469C306.812 70.0469 304.656 76.4688 300.344 81.8125C296.031 87.125 289.484 89.7812 280.703 89.7812C271.922 89.7812 265.375 87.125 261.062 81.8125C256.75 76.4688 254.594 70.0469 254.594 62.5469C254.594 55.1719 256.75 48.7812 261.062 43.375C265.375 37.9688 271.922 35.2656 280.703 35.2656C289.484 35.2656 296.031 37.9688 300.344 43.375C304.656 48.7812 306.812 55.1719 306.812 62.5469ZM344.172 35.6875C344.422 35.6875 344.625 35.7031 344.781 35.7344C344.969 35.7344 345.359 35.75 345.953 35.7812V49.4688C345.109 49.375 344.359 49.3125 343.703 49.2812C343.047 49.25 342.516 49.2344 342.109 49.2344C336.734 49.2344 333.125 50.9844 331.281 54.4844C330.25 56.4531 329.734 59.4844 329.734 63.5781V88H316.281V36.9062H329.031V45.8125C331.094 42.4062 332.891 40.0781 334.422 38.8281C336.922 36.7344 340.172 35.6875 344.172 35.6875ZM377.922 36.9062H391.469L399.25 73.7031L407.219 36.9062H421.141L406.328 88H392.594L384.578 50.7812L376.469 88H362.594L348.25 36.9062H362.594L370.562 73.5625L377.922 36.9062ZM456.719 63.1562C455.875 63.6875 455.016 64.125 454.141 64.4688C453.297 64.7812 452.125 65.0781 450.625 65.3594L447.625 65.9219C444.812 66.4219 442.797 67.0312 441.578 67.75C439.516 68.9688 438.484 70.8594 438.484 73.4219C438.484 75.7031 439.109 77.3594 440.359 78.3906C441.641 79.3906 443.188 79.8906 445 79.8906C447.875 79.8906 450.516 79.0469 452.922 77.3594C455.359 75.6719 456.625 72.5938 456.719 68.125V63.1562ZM448.609 56.9219C451.078 56.6094 452.844 56.2188 453.906 55.75C455.812 54.9375 456.766 53.6719 456.766 51.9531C456.766 49.8594 456.031 48.4219 454.562 47.6406C453.125 46.8281 451 46.4219 448.188 46.4219C445.031 46.4219 442.797 47.2031 441.484 48.7656C440.547 49.9219 439.922 51.4844 439.609 53.4531H426.719C427 48.9844 428.25 45.3125 430.469 42.4375C434 37.9375 440.062 35.6875 448.656 35.6875C454.25 35.6875 459.219 36.7969 463.562 39.0156C467.906 41.2344 470.078 45.4219 470.078 51.5781V75.0156C470.078 76.6406 470.109 78.6094 470.172 80.9219C470.266 82.6719 470.531 83.8594 470.969 84.4844C471.406 85.1094 472.062 85.625 472.938 86.0312V88H458.406C458 86.9688 457.719 86 457.562 85.0938C457.406 84.1875 457.281 83.1562 457.188 82C455.344 84 453.219 85.7031 450.812 87.1094C447.938 88.7656 444.688 89.5938 441.062 89.5938C436.438 89.5938 432.609 88.2812 429.578 85.6562C426.578 83 425.078 79.25 425.078 74.4062C425.078 68.125 427.5 63.5781 432.344 60.7656C435 59.2344 438.906 58.1406 444.062 57.4844L448.609 56.9219ZM509.734 35.6875C509.984 35.6875 510.188 35.7031 510.344 35.7344C510.531 35.7344 510.922 35.75 511.516 35.7812V49.4688C510.672 49.375 509.922 49.3125 509.266 49.2812C508.609 49.25 508.078 49.2344 507.672 49.2344C502.297 49.2344 498.688 50.9844 496.844 54.4844C495.812 56.4531 495.297 59.4844 495.297 63.5781V88H481.844V36.9062H494.594V45.8125C496.656 42.4062 498.453 40.0781 499.984 38.8281C502.484 36.7344 505.734 35.6875 509.734 35.6875ZM538.234 35.6875C541.328 35.6875 544.078 36.375 546.484 37.75C548.891 39.0938 550.844 40.9688 552.344 43.375V19H565.891V88H552.906V80.9219C551 83.9531 548.828 86.1562 546.391 87.5312C543.953 88.9062 540.922 89.5938 537.297 89.5938C531.328 89.5938 526.297 87.1875 522.203 82.375C518.141 77.5312 516.109 71.3281 516.109 63.7656C516.109 55.0469 518.109 48.1875 522.109 43.1875C526.141 38.1875 531.516 35.6875 538.234 35.6875ZM541.141 78.3438C544.922 78.3438 547.797 76.9375 549.766 74.125C551.734 71.3125 552.719 67.6719 552.719 63.2031C552.719 56.9531 551.141 52.4844 547.984 49.7969C546.047 48.1719 543.797 47.3594 541.234 47.3594C537.328 47.3594 534.453 48.8438 532.609 51.8125C530.797 54.75 529.891 58.4062 529.891 62.7812C529.891 67.5 530.812 71.2812 532.656 74.125C534.531 76.9375 537.359 78.3438 541.141 78.3438Z" fill="white"/>
<path d="M302.623 136.665V139.745C302.574 141.724 301.838 143.165 300.415 144.068C298.993 145.008 297.335 145.479 295.442 145.479C294.329 145.479 293.352 145.175 292.511 144.569C291.645 143.988 291.2 143.116 291.175 141.953C291.224 139.368 293.074 137.97 296.723 137.76C297.712 137.71 298.702 137.599 299.691 137.426C300.681 137.277 301.658 137.024 302.623 136.665ZM295.628 135.941C291.039 136.572 288.744 138.551 288.744 141.879C288.769 143.771 289.443 145.175 290.767 146.091C292.028 147.056 293.544 147.538 295.312 147.538C298.232 147.513 300.681 146.425 302.66 144.272C302.685 144.953 302.809 145.571 303.031 146.128C303.266 146.685 303.749 147.037 304.479 147.186C304.812 147.26 305.153 147.297 305.499 147.297C305.858 147.297 306.216 147.235 306.575 147.111C306.897 147.037 307.138 146.975 307.299 146.926V145.145C306.359 145.466 305.722 145.503 305.388 145.256C305.029 145.021 304.868 144.477 304.905 143.623V132.898C304.868 130.647 304.182 129.051 302.846 128.111C301.497 127.233 299.803 126.794 297.762 126.794C295.572 126.794 293.735 127.283 292.251 128.26C290.754 129.299 289.888 130.975 289.653 133.288H291.973C292.232 131.593 292.857 130.412 293.847 129.744C294.861 129.113 296.147 128.81 297.706 128.835C299.487 128.86 300.755 129.231 301.51 129.948C302.252 130.678 302.623 131.637 302.623 132.824C302.623 133.183 302.586 133.566 302.512 133.975C302.4 134.37 302.159 134.674 301.788 134.884C301.38 135.032 300.897 135.168 300.341 135.292C299.759 135.391 299.24 135.471 298.782 135.533L295.628 135.941ZM336.671 137.092C336.671 139.492 336.108 141.477 334.982 143.048C333.844 144.644 332.187 145.454 330.01 145.479C328.068 145.479 326.484 144.798 325.26 143.438C324.023 142.139 323.367 140.246 323.293 137.76C323.219 135.236 323.738 133.121 324.852 131.414C325.94 129.719 327.66 128.86 330.01 128.835C332.113 128.884 333.745 129.695 334.908 131.266C336.083 132.837 336.671 134.779 336.671 137.092ZM336.671 130.468C335.904 129.256 334.902 128.334 333.665 127.703C332.416 127.097 331.074 126.794 329.639 126.794C326.645 126.843 324.437 127.876 323.015 129.893C321.58 131.896 320.862 134.333 320.862 137.203C320.838 140.16 321.53 142.603 322.94 144.532C324.363 146.487 326.633 147.489 329.75 147.538C331.061 147.513 332.366 147.155 333.665 146.462C334.927 145.806 335.898 144.835 336.578 143.549H336.671V147H338.935V119.65H336.671V130.468ZM347.321 147V127.313H345.039V147H347.321ZM347.433 123.027V119.65H344.928V123.027H347.433ZM354.112 129.225V147H356.395V129.225H360.18V127.313H356.395V124.883C356.357 123.918 356.469 123.058 356.729 122.304C356.976 121.574 357.675 121.19 358.825 121.153C359.246 121.153 359.697 121.221 360.18 121.357V119.261C359.598 119.162 358.967 119.112 358.287 119.112C355.417 119.187 354.026 120.881 354.112 124.196V127.313H351.181V129.225H354.112ZM363.983 129.225V147H366.266V129.225H370.051V127.313H366.266V124.883C366.229 123.918 366.34 123.058 366.6 122.304C366.847 121.574 367.546 121.19 368.696 121.153C369.117 121.153 369.568 121.221 370.051 121.357V119.261C369.469 119.162 368.839 119.112 368.158 119.112C365.288 119.187 363.897 120.881 363.983 124.196V127.313H361.052V129.225H363.983ZM375.005 135.793C375.24 133.863 375.902 132.23 376.99 130.895C378.079 129.546 379.625 128.86 381.629 128.835C383.67 128.86 385.222 129.534 386.286 130.857C387.325 132.144 387.845 133.789 387.845 135.793H375.005ZM390.275 137.686C390.102 130.474 387.22 126.843 381.629 126.794C378.784 126.843 376.576 127.852 375.005 129.818C373.384 131.798 372.574 134.271 372.574 137.24C372.549 140.197 373.273 142.627 374.745 144.532C376.217 146.487 378.512 147.489 381.629 147.538C384.103 147.513 386.014 146.876 387.362 145.627C388.674 144.415 389.595 142.856 390.127 140.951H387.585C386.744 143.945 384.758 145.454 381.629 145.479C379.439 145.454 377.788 144.681 376.675 143.159C375.562 141.687 375.005 139.863 375.005 137.686H390.275ZM397.141 137.352C397.116 135.076 397.561 133.152 398.477 131.581C399.417 130.035 401.142 129.262 403.653 129.262V126.794C402.033 126.794 400.715 127.097 399.701 127.703C398.687 128.334 397.864 129.435 397.233 131.006H397.141V127.313H394.877V147H397.141V137.352ZM408.106 135.793C408.341 133.863 409.003 132.23 410.092 130.895C411.18 129.546 412.727 128.86 414.73 128.835C416.771 128.86 418.324 129.534 419.388 130.857C420.427 132.144 420.946 133.789 420.946 135.793H408.106ZM423.377 137.686C423.204 130.474 420.322 126.843 414.73 126.794C411.885 126.843 409.677 127.852 408.106 129.818C406.486 131.798 405.676 134.271 405.676 137.24C405.651 140.197 406.375 142.627 407.847 144.532C409.319 146.487 411.613 147.489 414.73 147.538C417.204 147.513 419.116 146.876 420.464 145.627C421.775 144.415 422.697 142.856 423.229 140.951H420.687C419.845 143.945 417.86 145.454 414.73 145.479C412.541 145.454 410.89 144.681 409.776 143.159C408.663 141.687 408.106 139.863 408.106 137.686H423.377ZM430.131 136.405C430.106 135.106 430.273 133.863 430.632 132.676C431.04 131.612 431.696 130.715 432.599 129.985C433.514 129.243 434.683 128.86 436.105 128.835C439.544 128.835 441.239 130.61 441.189 134.16V147H443.472V134.123C443.472 133.282 443.435 132.484 443.36 131.729C443.261 130.987 442.971 130.276 442.488 129.596C440.992 127.666 438.988 126.732 436.477 126.794C435.141 126.794 433.978 127.085 432.988 127.666C431.974 128.247 431.021 129.045 430.131 130.06V127.313H427.849V147H430.131V136.405ZM455.922 145.219C455.316 145.392 454.697 145.479 454.066 145.479C453.151 145.479 452.594 145.25 452.396 144.792C452.161 144.334 452.056 143.642 452.081 142.714V129.225H455.773V127.313H452.081V121.84H449.799V127.313H447.034V129.225H449.799V143.623C449.799 145.033 450.12 146.048 450.764 146.666C451.345 147.247 452.192 147.538 453.306 147.538C453.887 147.513 454.407 147.433 454.864 147.297C455.297 147.198 455.65 147.124 455.922 147.074V145.219ZM471.118 129.225V147H473.4V129.225H477.186V127.313H473.4V124.883C473.363 123.918 473.475 123.058 473.734 122.304C473.982 121.574 474.681 121.19 475.831 121.153C476.252 121.153 476.703 121.221 477.186 121.357V119.261C476.604 119.162 475.973 119.112 475.293 119.112C472.423 119.187 471.032 120.881 471.118 124.196V127.313H468.187V129.225H471.118ZM494.07 138.038C494.07 140.24 493.551 142.009 492.512 143.345C491.473 144.743 489.994 145.454 488.077 145.479C484.651 145.454 482.962 143.703 483.012 140.228V127.313H480.729V140.283C480.705 142.349 481.224 144.056 482.288 145.404C483.327 146.802 485.139 147.513 487.725 147.538C488.59 147.513 489.364 147.383 490.044 147.148C490.7 146.951 491.269 146.697 491.751 146.388C492.258 146.041 492.703 145.676 493.087 145.293C493.47 144.934 493.798 144.594 494.07 144.272V147H496.353V127.313H494.07V138.038ZM508.803 145.219C508.197 145.392 507.578 145.479 506.947 145.479C506.032 145.479 505.475 145.25 505.277 144.792C505.042 144.334 504.937 143.642 504.962 142.714V129.225H508.654V127.313H504.962V121.84H502.68V127.313H499.915V129.225H502.68V143.623C502.68 145.033 503.001 146.048 503.645 146.666C504.226 147.247 505.073 147.538 506.187 147.538C506.768 147.513 507.287 147.433 507.745 147.297C508.178 147.198 508.531 147.124 508.803 147.074V145.219ZM525.799 138.038C525.799 140.24 525.279 142.009 524.24 143.345C523.201 144.743 521.723 145.454 519.806 145.479C516.379 145.454 514.691 143.703 514.74 140.228V127.313H512.458V140.283C512.433 142.349 512.953 144.056 514.017 145.404C515.056 146.802 516.868 147.513 519.453 147.538C520.319 147.513 521.092 147.383 521.772 147.148C522.428 146.951 522.997 146.697 523.479 146.388C523.987 146.041 524.432 145.676 524.815 145.293C525.199 144.934 525.527 144.594 525.799 144.272V147H528.081V127.313H525.799V138.038ZM536.004 137.352C535.979 135.076 536.424 133.152 537.34 131.581C538.28 130.035 540.006 129.262 542.517 129.262V126.794C540.896 126.794 539.579 127.097 538.564 127.703C537.55 128.334 536.728 129.435 536.097 131.006H536.004V127.313H533.74V147H536.004V137.352ZM546.97 135.793C547.205 133.863 547.867 132.23 548.955 130.895C550.044 129.546 551.59 128.86 553.594 128.835C555.635 128.86 557.187 129.534 558.251 130.857C559.29 132.144 559.81 133.789 559.81 135.793H546.97ZM562.24 137.686C562.067 130.474 559.185 126.843 553.594 126.794C550.749 126.843 548.541 127.852 546.97 129.818C545.349 131.798 544.539 134.271 544.539 137.24C544.514 140.197 545.238 142.627 546.71 144.532C548.182 146.487 550.477 147.489 553.594 147.538C556.068 147.513 557.979 146.876 559.327 145.627C560.638 144.415 561.56 142.856 562.092 140.951H559.55C558.709 143.945 556.723 145.454 553.594 145.479C551.404 145.454 549.753 144.681 548.64 143.159C547.526 141.687 546.97 139.863 546.97 137.686H562.24Z" fill="white"/>
<g opacity="0.2">
<path d="M27.8125 150.479L40.7917 137.5L27.8125 124.521" stroke="#E62B1E" stroke-width="1.5" stroke-linecap="round" stroke-linejoin="round"/>
<path d="M50.0625 150.479L63.0417 137.5L50.0625 124.521" stroke="#E62B1E" stroke-width="1.5" stroke-linecap="round" stroke-linejoin="round"/>
</g>
<g opacity="0.4">
<path d="M77.8125 150.479L90.7917 137.5L77.8125 124.521" stroke="#E62B1E" stroke-width="1.5" stroke-linecap="round" stroke-linejoin="round"/>
<path d="M100.063 150.479L113.042 137.5L100.063 124.521" stroke="#E62B1E" stroke-width="1.5" stroke-linecap="round" stroke-linejoin="round"/>
</g>
<g opacity="0.6">
<path d="M122.813 150.479L135.792 137.5L122.813 124.521" stroke="#E62B1E" stroke-width="1.5" stroke-linecap="round" stroke-linejoin="round"/>
<path d="M145.063 150.479L158.042 137.5L145.063 124.521" stroke="#E62B1E" stroke-width="1.5" stroke-linecap="round" stroke-linejoin="round"/>
</g>
<g opacity="0.8">
<path d="M170.813 150.479L183.792 137.5L170.813 124.521" stroke="#E62B1E" stroke-width="1.5" stroke-linecap="round" stroke-linejoin="round"/>
<path d="M193.063 150.479L206.042 137.5L193.063 124.521" stroke="#E62B1E" stroke-width="1.5" stroke-linecap="round" stroke-linejoin="round"/>
</g>
<path d="M218.812 150.479L231.792 137.5L218.812 124.521" stroke="#E62B1E" stroke-width="1.5" stroke-linecap="round" stroke-linejoin="round"/>
<path d="M241.062 150.479L254.042 137.5L241.062 124.521" stroke="#E62B1E" stroke-width="1.5" stroke-linecap="round" stroke-linejoin="round"/>
</svg>
