<svg width="1719" height="1766" viewBox="0 0 1719 1766" fill="none" xmlns="http://www.w3.org/2000/svg">
<g opacity="0.5">
<g style="mix-blend-mode:screen">
<path style="mix-blend-mode:screen" d="M1400.17 431.799L1397.76 429.388L1300.13 527.034L1304.65 1275.99L1419.29 1390.63L1421.76 1801.06L1462.95 1828.65L1464.32 2055.39L1467.7 2055.41L1466.33 1826.86L1425.14 1799.26L1422.67 1389.24L1308.04 1274.61L1303.53 528.459L1400.17 431.799Z" fill="url(#paint0_radial_127_158)"/>
<g style="mix-blend-mode:screen">
<path style="mix-blend-mode:screen" d="M1036.54 514.979L949.617 428.051L947.235 430.433L1033.17 516.363L1036.61 1087.59L873.005 1251.21L876.122 1767.55L969.54 1860.97L970.695 2052.41L974.083 2052.43L972.919 1859.59L879.502 1766.17L876.402 1252.64L1040.01 1089.01L1036.54 514.979Z" fill="url(#paint1_radial_127_158)"/>
<path style="mix-blend-mode:screen" d="M945.024 433.005C944.307 432.288 943.816 431.377 943.613 430.388C943.411 429.398 943.505 428.374 943.886 427.445C944.266 426.516 944.914 425.724 945.749 425.169C946.584 424.614 947.567 424.321 948.575 424.327C949.583 424.333 950.57 424.638 951.412 425.203C952.253 425.768 952.911 426.568 953.302 427.502C953.694 428.435 953.801 429.46 953.61 430.448C953.419 431.435 952.94 432.34 952.231 433.049C951.281 433.999 949.988 434.528 948.637 434.52C947.285 434.512 945.985 433.967 945.024 433.005Z" fill="url(#paint2_radial_127_158)"/>
</g>
<path style="mix-blend-mode:screen" d="M1340.05 226.249L1337.64 223.839L1294.06 267.417L1294.92 410.221L1235.47 469.671L1240.52 1305.39L1352.36 1417.21L1354.62 1791.47L1414.06 1850.91L1415.59 2104.25L1418.98 2104.27L1417.44 1849.53L1358 1790.08L1355.74 1415.82L1243.9 1304L1238.87 471.096L1298.32 411.643L1297.45 268.842L1340.05 226.249Z" fill="url(#paint3_radial_127_158)"/>
<path style="mix-blend-mode:screen" d="M1028.23 187.027L977.498 136.3L975.116 138.681L1024.85 188.411L1026.32 432.523L1103.46 509.662L1107.06 1106.23L929.47 1283.81L932.278 1749.52L1003.06 1820.3L1004.86 2118.66L1008.25 2118.68L1006.44 1818.92L935.658 1748.13L932.866 1285.24L1110.46 1107.65L1106.84 508.278L1029.7 431.139L1028.23 187.027Z" fill="url(#paint4_radial_127_158)"/>
<g style="mix-blend-mode:screen">
<path style="mix-blend-mode:screen" d="M1164.24 459.864L1112.91 408.548L1110.52 410.93L1160.86 461.248L1164.86 1123L996.086 1291.75L998.529 1696.45L1064.61 1762.51L1066.57 2087.16L1069.96 2087.18L1067.99 1761.13L1001.91 1695.06L999.485 1293.17L1168.25 1124.42L1164.24 459.864Z" fill="url(#paint5_radial_127_158)"/>
<path style="mix-blend-mode:screen" d="M1108.31 413.503C1107.6 412.786 1107.11 411.875 1106.9 410.886C1106.7 409.896 1106.8 408.872 1107.18 407.943C1107.56 407.014 1108.2 406.222 1109.04 405.667C1109.87 405.112 1110.86 404.818 1111.86 404.824C1112.87 404.83 1113.86 405.135 1114.7 405.7C1115.54 406.264 1116.2 407.064 1116.59 407.998C1116.98 408.931 1117.09 409.957 1116.9 410.944C1116.71 411.931 1116.23 412.837 1115.52 413.545C1114.57 414.495 1113.28 415.025 1111.93 415.017C1110.58 415.009 1109.28 414.464 1108.31 413.503Z" fill="url(#paint6_radial_127_158)"/>
</g>
<g style="mix-blend-mode:screen">
<path style="mix-blend-mode:screen" d="M1280.09 1471.56L1276.7 1471.54L1278.52 1774.13L1380.44 1876.03L1382.07 2146.25L1385.46 2146.27L1383.82 1874.64L1281.9 1772.74L1280.09 1471.56Z" fill="url(#paint7_radial_127_158)"/>
<path style="mix-blend-mode:screen" d="M1273.3 1471.78C1273.29 1470.77 1273.58 1469.79 1274.14 1468.95C1274.69 1468.12 1275.48 1467.47 1276.41 1467.09C1277.34 1466.71 1278.37 1466.61 1279.36 1466.81C1280.35 1467.02 1281.26 1467.51 1281.97 1468.23C1282.69 1468.94 1283.18 1469.85 1283.39 1470.84C1283.59 1471.83 1283.49 1472.86 1283.11 1473.79C1282.73 1474.72 1282.08 1475.51 1281.25 1476.06C1280.41 1476.62 1279.43 1476.91 1278.42 1476.9C1277.07 1476.9 1275.77 1476.35 1274.81 1475.39C1273.85 1474.43 1273.3 1473.13 1273.3 1471.78V1471.78Z" fill="url(#paint8_radial_127_158)"/>
</g>
<g style="mix-blend-mode:screen">
<path style="mix-blend-mode:screen" d="M1189.12 1317.17L1185.73 1317.15L1188.46 1770.75L1313.02 1895.3L1314.19 2088.61L1317.58 2088.63L1316.41 1893.92L1191.85 1769.36L1189.12 1317.17Z" fill="url(#paint9_radial_127_158)"/>
<path style="mix-blend-mode:screen" d="M1182.33 1317.38C1182.32 1316.37 1182.61 1315.39 1183.17 1314.56C1183.72 1313.72 1184.52 1313.07 1185.45 1312.69C1186.37 1312.31 1187.4 1312.22 1188.39 1312.42C1189.38 1312.62 1190.29 1313.11 1191.01 1313.83C1191.72 1314.55 1192.21 1315.46 1192.42 1316.45C1192.62 1317.44 1192.52 1318.46 1192.14 1319.39C1191.76 1320.32 1191.12 1321.11 1190.28 1321.67C1189.45 1322.22 1188.46 1322.51 1187.45 1322.51C1186.1 1322.5 1184.8 1321.96 1183.84 1320.99C1182.88 1320.03 1182.34 1318.73 1182.33 1317.38V1317.38Z" fill="url(#paint10_radial_127_158)"/>
</g>
<g style="mix-blend-mode:screen">
<path style="mix-blend-mode:screen" d="M1139.14 1300.71L1136.72 1298.3L1067.84 1367.18L1069.65 1666.85L1120.61 1717.81L1122.75 2072.44L1126.14 2072.46L1123.99 1716.43L1073.03 1665.47L1071.24 1368.6L1139.14 1300.71Z" fill="url(#paint11_radial_127_158)"/>
<path style="mix-blend-mode:screen" d="M1141.33 1296.1C1143.34 1298.1 1143.36 1301.33 1141.38 1303.31C1139.4 1305.28 1136.17 1305.26 1134.17 1303.26C1132.17 1301.26 1132.15 1298.03 1134.13 1296.06C1136.11 1294.08 1139.33 1294.1 1141.33 1296.1Z" fill="url(#paint12_radial_127_158)"/>
</g>
<path style="mix-blend-mode:screen" d="M1474.16 534.514L1471.75 532.103L1368.4 635.452L1372.25 1273.12L1483.69 1384.56L1485.68 1713.89L1489.07 1713.91L1487.07 1383.17L1375.63 1271.74L1371.8 636.876L1474.16 534.514Z" fill="url(#paint13_radial_127_158)"/>
<g style="mix-blend-mode:screen">
<path style="mix-blend-mode:screen" d="M1441.66 1249.96L1438.18 672.325L1441.57 672.346L1445.05 1249.98L1441.66 1249.96Z" fill="url(#paint14_radial_127_158)"/>
<path style="mix-blend-mode:screen" d="M1438.26 1249.69C1438.27 1250.7 1438.57 1251.68 1439.14 1252.53C1439.7 1253.37 1440.5 1254.02 1441.43 1254.42C1442.37 1254.81 1443.39 1254.91 1444.38 1254.72C1445.37 1254.53 1446.27 1254.05 1446.98 1253.34C1447.69 1252.64 1448.17 1251.73 1448.36 1250.74C1448.55 1249.76 1448.44 1248.73 1448.05 1247.8C1447.66 1246.86 1447 1246.06 1446.16 1245.5C1445.32 1244.93 1444.33 1244.63 1443.33 1244.62C1441.97 1244.62 1440.68 1245.14 1439.73 1246.09C1438.78 1247.04 1438.25 1248.34 1438.26 1249.69V1249.69Z" fill="url(#paint15_radial_127_158)"/>
</g>
</g>
<g style="mix-blend-mode:screen">
<g style="mix-blend-mode:screen">
<path style="mix-blend-mode:screen" d="M1286.93 663.611L1283.32 659.995L1234.25 709.071L1236.66 1108.45L1297.58 1169.37L1298.9 1387.68L1320.78 1402.34L1321.47 1517.27L1326.56 1517.3L1325.85 1399.65L1303.97 1384.99L1302.65 1167.29L1241.73 1106.37L1239.34 711.208L1286.93 663.611Z" fill="url(#paint16_radial_127_158)"/>
<path style="mix-blend-mode:screen" d="M1316.37 1516.86C1316.38 1518.37 1316.84 1519.85 1317.69 1521.11C1318.53 1522.37 1319.73 1523.36 1321.13 1523.95C1322.53 1524.53 1324.07 1524.69 1325.55 1524.41C1327.03 1524.12 1328.39 1523.4 1329.45 1522.34C1330.52 1521.28 1331.24 1519.92 1331.52 1518.44C1331.81 1516.96 1331.65 1515.42 1331.06 1514.02C1330.47 1512.62 1329.49 1511.42 1328.22 1510.57C1326.96 1509.72 1325.48 1509.27 1323.97 1509.26C1321.94 1509.25 1320 1510.04 1318.58 1511.46C1317.15 1512.89 1316.36 1514.83 1316.37 1516.86Z" fill="url(#paint17_radial_127_158)"/>
<path style="mix-blend-mode:screen" d="M1279.42 656.635C1280.48 655.573 1281.84 654.853 1283.32 654.566C1284.8 654.28 1286.34 654.441 1287.74 655.028C1289.14 655.615 1290.34 656.602 1291.19 657.864C1292.03 659.126 1292.49 660.607 1292.5 662.119C1292.51 663.63 1292.07 665.106 1291.24 666.358C1290.4 667.61 1289.22 668.583 1287.82 669.153C1286.43 669.723 1284.89 669.865 1283.41 669.562C1281.92 669.258 1280.56 668.522 1279.48 667.446C1278.04 666.004 1277.22 664.055 1277.21 662.027C1277.2 660 1277.99 658.06 1279.42 656.635Z" fill="url(#paint18_radial_127_158)"/>
</g>
<g style="mix-blend-mode:screen">
<path style="mix-blend-mode:screen" d="M1097.45 702.682L1054.11 659.338L1050.54 662.911L1092.38 704.758L1094.21 1006.96L1007.26 1093.92L1008.93 1369.67L1058.57 1419.32L1059.15 1515.68L1064.24 1515.71L1063.64 1417.24L1014 1367.6L1012.36 1096.05L1099.3 1009.1L1097.45 702.682Z" fill="url(#paint19_radial_127_158)"/>
<path style="mix-blend-mode:screen" d="M1054.05 1515.27C1054.06 1516.78 1054.51 1518.26 1055.36 1519.53C1056.21 1520.79 1057.41 1521.77 1058.81 1522.36C1060.21 1522.95 1061.75 1523.11 1063.23 1522.82C1064.71 1522.54 1066.07 1521.82 1067.13 1520.75C1068.19 1519.69 1068.91 1518.33 1069.2 1516.85C1069.48 1515.37 1069.32 1513.83 1068.74 1512.43C1068.15 1511.03 1067.16 1509.83 1065.9 1508.99C1064.64 1508.14 1063.16 1507.68 1061.65 1507.67C1059.62 1507.66 1057.68 1508.45 1056.25 1509.88C1054.83 1511.3 1054.04 1513.24 1054.05 1515.27Z" fill="url(#paint20_radial_127_158)"/>
<path style="mix-blend-mode:screen" d="M1047.22 666.769C1046.15 665.693 1045.41 664.327 1045.11 662.842C1044.8 661.357 1044.94 659.821 1045.51 658.428C1046.08 657.034 1047.06 655.846 1048.31 655.014C1049.56 654.182 1051.04 653.742 1052.55 653.751C1054.06 653.76 1055.54 654.218 1056.8 655.065C1058.07 655.913 1059.05 657.113 1059.64 658.513C1060.23 659.913 1060.39 661.451 1060.1 662.932C1059.82 664.414 1059.1 665.771 1058.03 666.834C1056.61 668.259 1054.67 669.052 1052.64 669.04C1050.61 669.028 1048.66 668.211 1047.22 666.769Z" fill="url(#paint21_radial_127_158)"/>
</g>
<g style="mix-blend-mode:screen">
<path style="mix-blend-mode:screen" d="M1254.98 554.377L1251.36 550.761L1231.02 571.101L1231.48 646.991L1199.89 678.585L1202.58 1124.07L1262.01 1183.49L1263.21 1382.38L1294.8 1413.97L1295.58 1543.24L1300.66 1543.27L1299.87 1411.9L1268.28 1380.31L1267.08 1181.42L1207.65 1121.99L1204.98 680.722L1236.58 649.128L1236.12 573.236L1254.98 554.377Z" fill="url(#paint22_radial_127_158)"/>
<path style="mix-blend-mode:screen" d="M1290.48 1542.82C1290.49 1544.34 1290.94 1545.82 1291.79 1547.08C1292.64 1548.34 1293.84 1549.33 1295.24 1549.91C1296.64 1550.5 1298.18 1550.66 1299.66 1550.38C1301.14 1550.09 1302.5 1549.37 1303.56 1548.31C1304.62 1547.25 1305.34 1545.89 1305.63 1544.41C1305.91 1542.93 1305.75 1541.39 1305.17 1539.99C1304.58 1538.59 1303.59 1537.39 1302.33 1536.54C1301.07 1535.69 1299.59 1535.23 1298.08 1535.23C1296.05 1535.21 1294.11 1536.01 1292.68 1537.43C1291.26 1538.86 1290.46 1540.8 1290.48 1542.82V1542.82Z" fill="url(#paint23_radial_127_158)"/>
<path style="mix-blend-mode:screen" d="M1247.46 547.399C1248.53 546.336 1249.88 545.616 1251.37 545.33C1252.85 545.044 1254.38 545.205 1255.79 545.792C1257.19 546.379 1258.39 547.366 1259.23 548.628C1260.08 549.89 1260.54 551.371 1260.55 552.882C1260.56 554.394 1260.12 555.87 1259.28 557.122C1258.45 558.374 1257.26 559.346 1255.87 559.917C1254.48 560.487 1252.94 560.629 1251.46 560.325C1249.97 560.021 1248.61 559.285 1247.53 558.209C1246.09 556.767 1245.27 554.818 1245.26 552.791C1245.25 550.763 1246.04 548.824 1247.46 547.399V547.399Z" fill="url(#paint24_radial_127_158)"/>
</g>
<g style="mix-blend-mode:screen">
<path style="mix-blend-mode:screen" d="M1093.03 528.399L1068.93 504.292L1065.36 507.865L1087.97 530.474L1088.75 660.202L1129.74 701.195L1131.65 1016.87L1037.27 1111.24L1038.77 1360.09L1076.39 1397.71L1077.31 1550.9L1082.39 1550.92L1081.46 1395.63L1043.84 1358.01L1042.37 1113.38L1136.74 1019L1134.81 699.122L1093.82 658.126L1093.03 528.399Z" fill="url(#paint25_radial_127_158)"/>
<path style="mix-blend-mode:screen" d="M1072.21 1550.48C1072.21 1551.99 1072.67 1553.47 1073.52 1554.73C1074.37 1556 1075.57 1556.98 1076.97 1557.57C1078.37 1558.16 1079.9 1558.32 1081.39 1558.03C1082.87 1557.75 1084.22 1557.03 1085.29 1555.97C1086.35 1554.9 1087.07 1553.54 1087.36 1552.06C1087.64 1550.58 1087.48 1549.04 1086.89 1547.64C1086.31 1546.24 1085.32 1545.04 1084.06 1544.2C1082.8 1543.35 1081.32 1542.89 1079.8 1542.88C1077.78 1542.87 1075.84 1543.66 1074.41 1545.09C1072.99 1546.51 1072.19 1548.45 1072.21 1550.48V1550.48Z" fill="url(#paint26_radial_127_158)"/>
<path style="mix-blend-mode:screen" d="M1062.04 511.724C1060.96 510.648 1060.23 509.282 1059.92 507.797C1059.62 506.313 1059.76 504.776 1060.33 503.383C1060.9 501.99 1061.88 500.802 1063.13 499.969C1064.38 499.137 1065.85 498.698 1067.37 498.707C1068.88 498.716 1070.36 499.173 1071.62 500.021C1072.88 500.868 1073.87 502.068 1074.46 503.468C1075.04 504.869 1075.2 506.407 1074.92 507.888C1074.63 509.369 1073.91 510.726 1072.85 511.789C1071.43 513.214 1069.49 514.008 1067.46 513.995C1065.43 513.983 1063.48 513.166 1062.04 511.724V511.724Z" fill="url(#paint27_radial_127_158)"/>
</g>
<g style="mix-blend-mode:screen">
<path style="mix-blend-mode:screen" d="M1165.31 673.394L1140.89 648.976L1137.31 652.549L1160.24 675.469L1162.36 1025.78L1072.67 1115.46L1073.98 1331.89L1109.09 1367L1110.11 1534.15L1115.19 1534.18L1114.17 1364.92L1079.05 1329.81L1077.77 1117.59L1167.46 1027.92L1165.31 673.394Z" fill="url(#paint28_radial_127_158)"/>
<path style="mix-blend-mode:screen" d="M1105 1533.74C1105.01 1535.25 1105.47 1536.73 1106.31 1537.99C1107.16 1539.26 1108.36 1540.24 1109.76 1540.83C1111.16 1541.42 1112.7 1541.58 1114.18 1541.29C1115.66 1541.01 1117.02 1540.29 1118.08 1539.22C1119.15 1538.16 1119.87 1536.8 1120.15 1535.32C1120.44 1533.84 1120.28 1532.3 1119.69 1530.9C1119.1 1529.5 1118.12 1528.3 1116.85 1527.45C1115.59 1526.61 1114.11 1526.15 1112.6 1526.14C1110.57 1526.13 1108.63 1526.92 1107.21 1528.35C1105.78 1529.77 1104.99 1531.71 1105 1533.74V1533.74Z" fill="url(#paint29_radial_127_158)"/>
<path style="mix-blend-mode:screen" d="M1134 656.405C1132.93 655.33 1132.19 653.964 1131.89 652.479C1131.58 650.995 1131.72 649.458 1132.29 648.065C1132.86 646.671 1133.83 645.483 1135.09 644.651C1136.34 643.818 1137.81 643.378 1139.33 643.387C1140.84 643.396 1142.32 643.853 1143.58 644.7C1144.84 645.547 1145.83 646.747 1146.42 648.147C1147.01 649.548 1147.17 651.086 1146.88 652.567C1146.59 654.048 1145.88 655.406 1144.81 656.469C1143.39 657.893 1141.45 658.687 1139.42 658.675C1137.39 658.664 1135.44 657.847 1134 656.405V656.405Z" fill="url(#paint30_radial_127_158)"/>
</g>
<g style="mix-blend-mode:screen">
<path style="mix-blend-mode:screen" d="M1226.91 1216.41L1221.83 1216.38L1222.77 1373.17L1276.94 1427.32L1277.77 1565.56L1282.85 1565.59L1282.01 1425.24L1227.84 1371.09L1226.91 1216.41Z" fill="url(#paint31_radial_127_158)"/>
<path style="mix-blend-mode:screen" d="M1272.67 1565.14C1272.68 1566.65 1273.13 1568.14 1273.98 1569.4C1274.83 1570.66 1276.03 1571.65 1277.43 1572.23C1278.83 1572.82 1280.37 1572.98 1281.85 1572.7C1283.33 1572.41 1284.69 1571.69 1285.75 1570.63C1286.81 1569.56 1287.53 1568.21 1287.82 1566.73C1288.1 1565.24 1287.94 1563.71 1287.36 1562.31C1286.77 1560.91 1285.78 1559.71 1284.52 1558.86C1283.26 1558.01 1281.78 1557.55 1280.26 1557.54C1278.24 1557.53 1276.3 1558.33 1274.87 1559.75C1273.45 1561.18 1272.65 1563.12 1272.67 1565.14V1565.14Z" fill="url(#paint32_radial_127_158)"/>
<path style="mix-blend-mode:screen" d="M1216.73 1216.73C1216.72 1215.22 1217.16 1213.74 1217.99 1212.49C1218.82 1211.24 1220.01 1210.26 1221.4 1209.69C1222.8 1209.12 1224.33 1208.98 1225.82 1209.28C1227.3 1209.59 1228.67 1210.33 1229.74 1211.4C1230.82 1212.48 1231.56 1213.84 1231.86 1215.33C1232.16 1216.81 1232.02 1218.35 1231.45 1219.74C1230.88 1221.13 1229.91 1222.32 1228.66 1223.16C1227.4 1223.99 1225.93 1224.43 1224.42 1224.42C1222.39 1224.41 1220.44 1223.59 1219 1222.15C1217.56 1220.7 1216.74 1218.75 1216.73 1216.73Z" fill="url(#paint33_radial_127_158)"/>
</g>
<g style="mix-blend-mode:screen">
<path style="mix-blend-mode:screen" d="M1178.57 1134.36L1173.49 1134.33L1174.92 1371.37L1241.11 1437.56L1241.7 1534.93L1246.78 1534.96L1246.18 1435.49L1179.99 1369.3L1178.57 1134.36Z" fill="url(#paint34_radial_127_158)"/>
<path style="mix-blend-mode:screen" d="M1236.59 1534.51C1236.6 1536.02 1237.06 1537.5 1237.9 1538.76C1238.75 1540.03 1239.95 1541.01 1241.35 1541.6C1242.75 1542.19 1244.29 1542.35 1245.77 1542.06C1247.25 1541.78 1248.61 1541.06 1249.67 1539.99C1250.74 1538.93 1251.46 1537.57 1251.74 1536.09C1252.03 1534.61 1251.87 1533.07 1251.28 1531.67C1250.69 1530.27 1249.71 1529.07 1248.44 1528.23C1247.18 1527.38 1245.7 1526.92 1244.19 1526.91C1242.16 1526.9 1240.22 1527.69 1238.8 1529.12C1237.37 1530.54 1236.58 1532.48 1236.59 1534.51V1534.51Z" fill="url(#paint35_radial_127_158)"/>
<path style="mix-blend-mode:screen" d="M1168.38 1134.68C1168.38 1133.16 1168.81 1131.69 1169.65 1130.44C1170.48 1129.19 1171.67 1128.21 1173.06 1127.64C1174.45 1127.07 1175.99 1126.93 1177.47 1127.23C1178.96 1127.54 1180.33 1128.27 1181.4 1129.35C1182.48 1130.43 1183.21 1131.79 1183.52 1133.28C1183.82 1134.76 1183.68 1136.3 1183.11 1137.69C1182.54 1139.08 1181.57 1140.27 1180.31 1141.1C1179.06 1141.94 1177.59 1142.38 1176.07 1142.37C1174.05 1142.36 1172.1 1141.54 1170.66 1140.1C1169.21 1138.65 1168.4 1136.7 1168.38 1134.68V1134.68Z" fill="url(#paint36_radial_127_158)"/>
</g>
<g style="mix-blend-mode:screen">
<path style="mix-blend-mode:screen" d="M1148.21 1125.38L1144.59 1121.76L1110.81 1155.55L1111.77 1316.16L1138.85 1343.24L1139.96 1526.33L1145.04 1526.36L1143.92 1341.17L1116.84 1314.09L1115.9 1157.68L1148.21 1125.38Z" fill="url(#paint37_radial_127_158)"/>
<path style="mix-blend-mode:screen" d="M1134.86 1525.92C1134.86 1527.43 1135.32 1528.91 1136.17 1530.17C1137.02 1531.44 1138.22 1532.42 1139.62 1533.01C1141.02 1533.6 1142.56 1533.76 1144.04 1533.47C1145.52 1533.19 1146.88 1532.47 1147.94 1531.4C1149 1530.34 1149.72 1528.98 1150.01 1527.5C1150.29 1526.02 1150.13 1524.48 1149.54 1523.08C1148.96 1521.68 1147.97 1520.48 1146.71 1519.63C1145.45 1518.79 1143.97 1518.33 1142.45 1518.32C1140.43 1518.31 1138.49 1519.1 1137.06 1520.53C1135.64 1521.95 1134.84 1523.89 1134.86 1525.92V1525.92Z" fill="url(#paint38_radial_127_158)"/>
<path style="mix-blend-mode:screen" d="M1140.69 1118.4C1141.76 1117.33 1143.11 1116.61 1144.6 1116.33C1146.08 1116.04 1147.61 1116.2 1149.01 1116.79C1150.42 1117.38 1151.61 1118.36 1152.46 1119.62C1153.31 1120.89 1153.77 1122.37 1153.78 1123.88C1153.79 1125.39 1153.35 1126.87 1152.51 1128.12C1151.68 1129.37 1150.49 1130.34 1149.1 1130.91C1147.71 1131.48 1146.17 1131.63 1144.69 1131.32C1143.2 1131.02 1141.84 1130.28 1140.76 1129.21C1139.32 1127.76 1138.5 1125.81 1138.49 1123.79C1138.48 1121.76 1139.27 1119.82 1140.69 1118.4Z" fill="url(#paint39_radial_127_158)"/>
</g>
<g style="mix-blend-mode:screen">
<path style="mix-blend-mode:screen" d="M1182.65 1413.57L1179.08 1417.15L1199.24 1437.31L1199.76 1524.7L1204.85 1524.74L1204.31 1435.24L1182.65 1413.57Z" fill="url(#paint40_radial_127_158)"/>
<path style="mix-blend-mode:screen" d="M1194.66 1524.29C1194.67 1525.8 1195.13 1527.28 1195.97 1528.55C1196.82 1529.81 1198.02 1530.8 1199.42 1531.38C1200.82 1531.97 1202.36 1532.13 1203.84 1531.84C1205.32 1531.56 1206.68 1530.84 1207.74 1529.78C1208.8 1528.71 1209.52 1527.36 1209.81 1525.87C1210.1 1524.39 1209.94 1522.86 1209.35 1521.45C1208.76 1520.05 1207.77 1518.85 1206.51 1518.01C1205.25 1517.16 1203.77 1516.7 1202.26 1516.69C1200.23 1516.68 1198.29 1517.47 1196.87 1518.9C1195.44 1520.32 1194.65 1522.26 1194.66 1524.29Z" fill="url(#paint41_radial_127_158)"/>
<path style="mix-blend-mode:screen" d="M1175.77 1421C1174.69 1419.93 1173.95 1418.56 1173.65 1417.08C1173.35 1415.59 1173.49 1414.05 1174.06 1412.66C1174.63 1411.27 1175.6 1410.08 1176.86 1409.25C1178.11 1408.42 1179.58 1407.98 1181.09 1407.99C1182.61 1408 1184.09 1408.45 1185.35 1409.3C1186.61 1410.15 1187.6 1411.35 1188.18 1412.75C1188.77 1414.15 1188.93 1415.69 1188.65 1417.17C1188.36 1418.65 1187.64 1420.01 1186.58 1421.07C1185.15 1422.5 1183.21 1423.29 1181.18 1423.28C1179.16 1423.26 1177.21 1422.45 1175.77 1421V1421Z" fill="url(#paint42_radial_127_158)"/>
</g>
<g style="mix-blend-mode:screen">
<path style="mix-blend-mode:screen" d="M1326.25 718.194L1322.64 714.578L1270.53 766.681L1272.59 1106.92L1331.81 1166.14L1332.83 1335.78L1337.91 1335.82L1336.88 1164.06L1277.66 1104.84L1275.63 768.818L1326.25 718.194Z" fill="url(#paint43_radial_127_158)"/>
<path style="mix-blend-mode:screen" d="M1327.72 1335.37C1327.73 1336.88 1328.19 1338.37 1329.04 1339.63C1329.89 1340.89 1331.09 1341.88 1332.49 1342.46C1333.89 1343.05 1335.42 1343.21 1336.91 1342.93C1338.39 1342.64 1339.74 1341.92 1340.81 1340.86C1341.87 1339.79 1342.59 1338.44 1342.88 1336.96C1343.16 1335.47 1343 1333.94 1342.41 1332.54C1341.83 1331.14 1340.84 1329.94 1339.58 1329.09C1338.32 1328.24 1336.83 1327.78 1335.32 1327.77C1333.3 1327.76 1331.36 1328.56 1329.93 1329.98C1328.51 1331.41 1327.71 1333.35 1327.72 1335.37Z" fill="url(#paint44_radial_127_158)"/>
<path style="mix-blend-mode:screen" d="M1318.74 711.218C1319.8 710.155 1321.16 709.435 1322.64 709.149C1324.12 708.863 1325.66 709.024 1327.06 709.611C1328.46 710.198 1329.66 711.185 1330.51 712.447C1331.35 713.71 1331.81 715.19 1331.82 716.702C1331.83 718.214 1331.39 719.689 1330.56 720.942C1329.72 722.194 1328.54 723.166 1327.14 723.736C1325.75 724.306 1324.21 724.448 1322.73 724.144C1321.24 723.84 1319.88 723.104 1318.8 722.029C1317.36 720.586 1316.54 718.637 1316.53 716.61C1316.52 714.582 1317.31 712.643 1318.74 711.218V711.218Z" fill="url(#paint45_radial_127_158)"/>
</g>
<g style="mix-blend-mode:screen">
<path style="mix-blend-mode:screen" d="M1309.44 1089.24L1307.64 791.65L1312.73 791.68L1314.52 1089.27L1309.44 1089.24Z" fill="url(#paint46_radial_127_158)"/>
<path style="mix-blend-mode:screen" d="M1304.33 1088.83C1304.34 1090.34 1304.8 1091.82 1305.65 1093.08C1306.5 1094.35 1307.7 1095.33 1309.1 1095.92C1310.5 1096.51 1312.03 1096.67 1313.52 1096.38C1315 1096.1 1316.35 1095.38 1317.42 1094.31C1318.48 1093.25 1319.2 1091.89 1319.49 1090.41C1319.77 1088.93 1319.61 1087.39 1319.02 1085.99C1318.44 1084.59 1317.45 1083.39 1316.19 1082.55C1314.93 1081.7 1313.44 1081.24 1311.93 1081.23C1309.91 1081.22 1307.97 1082.01 1306.54 1083.44C1305.12 1084.86 1304.32 1086.8 1304.33 1088.83V1088.83Z" fill="url(#paint47_radial_127_158)"/>
<path style="mix-blend-mode:screen" d="M1302.54 792C1302.53 790.488 1302.97 789.013 1303.8 787.761C1304.64 786.509 1305.82 785.536 1307.22 784.966C1308.61 784.396 1310.15 784.254 1311.63 784.558C1313.12 784.861 1314.48 785.598 1315.56 786.673C1316.63 787.749 1317.37 789.115 1317.67 790.6C1317.98 792.085 1317.84 793.621 1317.27 795.014C1316.7 796.408 1315.72 797.596 1314.47 798.428C1313.22 799.26 1311.74 799.7 1310.23 799.691C1308.2 799.678 1306.26 798.861 1304.81 797.419C1303.37 795.977 1302.55 794.027 1302.54 792V792Z" fill="url(#paint48_radial_127_158)"/>
</g>
</g>
</g>
<defs>
<radialGradient id="paint0_radial_127_158" cx="0" cy="0" r="1" gradientUnits="userSpaceOnUse" gradientTransform="translate(1433.11 1244.46) rotate(45) scale(582.445 575.456)">
<stop offset="0.23515" stop-color="#8C1600"/>
<stop offset="0.70253" stop-color="#560E00"/>
<stop offset="1" stop-color="#390900"/>
</radialGradient>
<radialGradient id="paint1_radial_127_158" cx="0" cy="0" r="1" gradientUnits="userSpaceOnUse" gradientTransform="translate(394491 269792) rotate(45) scale(198680 193189)">
<stop offset="0.23515" stop-color="#8C1600"/>
<stop offset="0.70253" stop-color="#560E00"/>
<stop offset="1" stop-color="#390900"/>
</radialGradient>
<radialGradient id="paint2_radial_127_158" cx="0" cy="0" r="1" gradientUnits="userSpaceOnUse" gradientTransform="translate(4417.05 2780.97) rotate(45) scale(1748.47 1727.49)">
<stop offset="0.23515" stop-color="#8C1600"/>
<stop offset="0.70253" stop-color="#560E00"/>
<stop offset="1" stop-color="#390900"/>
</radialGradient>
<radialGradient id="paint3_radial_127_158" cx="0" cy="0" r="1" gradientUnits="userSpaceOnUse" gradientTransform="translate(628884 300842) rotate(45) scale(273834 251596)">
<stop offset="0.23515" stop-color="#8C1600"/>
<stop offset="0.70253" stop-color="#560E00"/>
<stop offset="1" stop-color="#390900"/>
</radialGradient>
<radialGradient id="paint4_radial_127_158" cx="0" cy="0" r="1" gradientUnits="userSpaceOnUse" gradientTransform="translate(493812 282545) rotate(45) scale(295746 287204)">
<stop offset="0.23515" stop-color="#8C1600"/>
<stop offset="0.70253" stop-color="#560E00"/>
<stop offset="1" stop-color="#390900"/>
</radialGradient>
<radialGradient id="paint5_radial_127_158" cx="0" cy="0" r="1" gradientUnits="userSpaceOnUse" gradientTransform="translate(442081 263605) rotate(45) scale(203780 214902)">
<stop offset="0.23515" stop-color="#8C1600"/>
<stop offset="0.70253" stop-color="#560E00"/>
<stop offset="1" stop-color="#390900"/>
</radialGradient>
<radialGradient id="paint6_radial_127_158" cx="0" cy="0" r="1" gradientUnits="userSpaceOnUse" gradientTransform="translate(4970.07 2784.34) rotate(45) scale(1807.69 1786.02)">
<stop offset="0.23515" stop-color="#8C1600"/>
<stop offset="0.70253" stop-color="#560E00"/>
<stop offset="1" stop-color="#390900"/>
</radialGradient>
<radialGradient id="paint7_radial_127_158" cx="0" cy="0" r="1" gradientUnits="userSpaceOnUse" gradientTransform="translate(245420 224740) rotate(45) scale(40148.5 29346.9)">
<stop offset="0.23515" stop-color="#8C1600"/>
<stop offset="0.70253" stop-color="#560E00"/>
<stop offset="1" stop-color="#390900"/>
</radialGradient>
<radialGradient id="paint8_radial_127_158" cx="0" cy="0" r="1" gradientUnits="userSpaceOnUse" gradientTransform="translate(5865.44 5529.55) rotate(45) scale(743.184 734.233)">
<stop offset="0.23515" stop-color="#8C1600"/>
<stop offset="0.70253" stop-color="#560E00"/>
<stop offset="1" stop-color="#390900"/>
</radialGradient>
<radialGradient id="paint9_radial_127_158" cx="0" cy="0" r="1" gradientUnits="userSpaceOnUse" gradientTransform="translate(266849 239813) rotate(45) scale(52881.1 37838.4)">
<stop offset="0.23515" stop-color="#8C1600"/>
<stop offset="0.70253" stop-color="#560E00"/>
<stop offset="1" stop-color="#390900"/>
</radialGradient>
<radialGradient id="paint10_radial_127_158" cx="0" cy="0" r="1" gradientUnits="userSpaceOnUse" gradientTransform="translate(5535.17 5055.89) rotate(45) scale(848.92 838.722)">
<stop offset="0.23515" stop-color="#8C1600"/>
<stop offset="0.70253" stop-color="#560E00"/>
<stop offset="1" stop-color="#390900"/>
</radialGradient>
<radialGradient id="paint11_radial_127_158" cx="0" cy="0" r="1" gradientUnits="userSpaceOnUse" gradientTransform="translate(211511 195659) rotate(45) scale(44191.9 45612.1)">
<stop offset="0.23515" stop-color="#8C1600"/>
<stop offset="0.70253" stop-color="#560E00"/>
<stop offset="1" stop-color="#390900"/>
</radialGradient>
<radialGradient id="paint12_radial_127_158" cx="0" cy="0" r="1" gradientUnits="userSpaceOnUse" gradientTransform="translate(5126.53 4990.17) rotate(45) scale(839.262 829.188)">
<stop offset="0.23515" stop-color="#8C1600"/>
<stop offset="0.70253" stop-color="#560E00"/>
<stop offset="1" stop-color="#390900"/>
</radialGradient>
<radialGradient id="paint13_radial_127_158" cx="0" cy="0" r="1" gradientUnits="userSpaceOnUse" gradientTransform="translate(416191 168330) rotate(45) scale(105513 102762)">
<stop offset="0.23515" stop-color="#8C1600"/>
<stop offset="0.70253" stop-color="#560E00"/>
<stop offset="1" stop-color="#390900"/>
</radialGradient>
<radialGradient id="paint14_radial_127_158" cx="0" cy="0" r="1" gradientUnits="userSpaceOnUse" gradientTransform="translate(184113 182499) rotate(45.0001) scale(35814.8 207.556)">
<stop offset="0.23515" stop-color="#8C1600"/>
<stop offset="0.70253" stop-color="#560E00"/>
<stop offset="1" stop-color="#390900"/>
</radialGradient>
<radialGradient id="paint15_radial_127_158" cx="0" cy="0" r="1" gradientUnits="userSpaceOnUse" gradientTransform="translate(6362.26 2757.09) rotate(45) scale(631.925 624.359)">
<stop offset="0.23515" stop-color="#8C1600"/>
<stop offset="0.70253" stop-color="#560E00"/>
<stop offset="1" stop-color="#390900"/>
</radialGradient>
<radialGradient id="paint16_radial_127_158" cx="0" cy="0" r="1" gradientUnits="userSpaceOnUse" gradientTransform="translate(1306.25 1090.99) rotate(45) scale(310.353 306.629)">
<stop offset="0.2104" stop-color="#E42400"/>
<stop offset="0.53971" stop-color="#8F1700"/>
<stop offset="0.85525" stop-color="#440B00"/>
<stop offset="1" stop-color="#260600"/>
</radialGradient>
<radialGradient id="paint17_radial_127_158" cx="0" cy="0" r="1" gradientUnits="userSpaceOnUse" gradientTransform="translate(8091.97 4363.88) rotate(45) scale(1400.23 1383.43)">
<stop offset="0.2104" stop-color="#E42400"/>
<stop offset="0.53971" stop-color="#8F1700"/>
<stop offset="0.85525" stop-color="#440B00"/>
<stop offset="1" stop-color="#260600"/>
</radialGradient>
<radialGradient id="paint18_radial_127_158" cx="0" cy="0" r="1" gradientUnits="userSpaceOnUse" gradientTransform="translate(8052.81 3509.05) rotate(45) scale(1400.21 1383.42)">
<stop offset="0.2104" stop-color="#E42400"/>
<stop offset="0.53971" stop-color="#8F1700"/>
<stop offset="0.85525" stop-color="#440B00"/>
<stop offset="1" stop-color="#260600"/>
</radialGradient>
<radialGradient id="paint19_radial_127_158" cx="0" cy="0" r="1" gradientUnits="userSpaceOnUse" gradientTransform="translate(225254 114604) rotate(45) scale(55699.1 54722.1)">
<stop offset="0.2104" stop-color="#E42400"/>
<stop offset="0.53971" stop-color="#8F1700"/>
<stop offset="0.85525" stop-color="#440B00"/>
<stop offset="1" stop-color="#260600"/>
</radialGradient>
<radialGradient id="paint20_radial_127_158" cx="0" cy="0" r="1" gradientUnits="userSpaceOnUse" gradientTransform="translate(6697.52 4356.97) rotate(45) scale(1398.21 1381.48)">
<stop offset="0.2104" stop-color="#E42400"/>
<stop offset="0.53971" stop-color="#8F1700"/>
<stop offset="0.85525" stop-color="#440B00"/>
<stop offset="1" stop-color="#260600"/>
</radialGradient>
<radialGradient id="paint21_radial_127_158" cx="0" cy="0" r="1" gradientUnits="userSpaceOnUse" gradientTransform="translate(6688.64 3503.27) rotate(45) scale(1398.29 1381.49)">
<stop offset="0.2104" stop-color="#E42400"/>
<stop offset="0.53971" stop-color="#8F1700"/>
<stop offset="0.85525" stop-color="#440B00"/>
<stop offset="1" stop-color="#260600"/>
</radialGradient>
<radialGradient id="paint22_radial_127_158" cx="0" cy="0" r="1" gradientUnits="userSpaceOnUse" gradientTransform="translate(311668 135909) rotate(45) scale(77459.2 70503.2)">
<stop offset="0.2104" stop-color="#E42400"/>
<stop offset="0.53971" stop-color="#8F1700"/>
<stop offset="0.85525" stop-color="#440B00"/>
<stop offset="1" stop-color="#260600"/>
</radialGradient>
<radialGradient id="paint23_radial_127_158" cx="0" cy="0" r="1" gradientUnits="userSpaceOnUse" gradientTransform="translate(7935.54 4201.92) rotate(45) scale(1617.28 1597.92)">
<stop offset="0.2104" stop-color="#E42400"/>
<stop offset="0.53971" stop-color="#8F1700"/>
<stop offset="0.85525" stop-color="#440B00"/>
<stop offset="1" stop-color="#260600"/>
</radialGradient>
<radialGradient id="paint24_radial_127_158" cx="0" cy="0" r="1" gradientUnits="userSpaceOnUse" gradientTransform="translate(7890.3 3211.96) rotate(45) scale(1617.27 1597.87)">
<stop offset="0.2104" stop-color="#E42400"/>
<stop offset="0.53971" stop-color="#8F1700"/>
<stop offset="0.85525" stop-color="#440B00"/>
<stop offset="1" stop-color="#260600"/>
</radialGradient>
<radialGradient id="paint25_radial_127_158" cx="0" cy="0" r="1" gradientUnits="userSpaceOnUse" gradientTransform="translate(278699 127018) rotate(45) scale(83023.1 81309.8)">
<stop offset="0.2104" stop-color="#E42400"/>
<stop offset="0.53971" stop-color="#8F1700"/>
<stop offset="0.85525" stop-color="#440B00"/>
<stop offset="1" stop-color="#260600"/>
</radialGradient>
<radialGradient id="paint26_radial_127_158" cx="0" cy="0" r="1" gradientUnits="userSpaceOnUse" gradientTransform="translate(6790.17 4121.9) rotate(45) scale(1703.54 1683.15)">
<stop offset="0.2104" stop-color="#E42400"/>
<stop offset="0.53971" stop-color="#8F1700"/>
<stop offset="0.85525" stop-color="#440B00"/>
<stop offset="1" stop-color="#260600"/>
</radialGradient>
<radialGradient id="paint27_radial_127_158" cx="0" cy="0" r="1" gradientUnits="userSpaceOnUse" gradientTransform="translate(6777.73 3077.78) rotate(45) scale(1703.54 1683.11)">
<stop offset="0.2104" stop-color="#E42400"/>
<stop offset="0.53971" stop-color="#8F1700"/>
<stop offset="0.85525" stop-color="#440B00"/>
<stop offset="1" stop-color="#260600"/>
</radialGradient>
<radialGradient id="paint28_radial_127_158" cx="0" cy="0" r="1" gradientUnits="userSpaceOnUse" gradientTransform="translate(240896 109309) rotate(45) scale(57118.6 60870.3)">
<stop offset="0.2104" stop-color="#E42400"/>
<stop offset="0.53971" stop-color="#8F1700"/>
<stop offset="0.85525" stop-color="#440B00"/>
<stop offset="1" stop-color="#260600"/>
</radialGradient>
<radialGradient id="paint29_radial_127_158" cx="0" cy="0" r="1" gradientUnits="userSpaceOnUse" gradientTransform="translate(7059.3 4393.81) rotate(45) scale(1445.52 1428.21)">
<stop offset="0.2104" stop-color="#E42400"/>
<stop offset="0.53971" stop-color="#8F1700"/>
<stop offset="0.85525" stop-color="#440B00"/>
<stop offset="1" stop-color="#260600"/>
</radialGradient>
<radialGradient id="paint30_radial_127_158" cx="0" cy="0" r="1" gradientUnits="userSpaceOnUse" gradientTransform="translate(7086.09 3511.13) rotate(45) scale(1445.56 1428.21)">
<stop offset="0.2104" stop-color="#E42400"/>
<stop offset="0.53971" stop-color="#8F1700"/>
<stop offset="0.85525" stop-color="#440B00"/>
<stop offset="1" stop-color="#260600"/>
</radialGradient>
<radialGradient id="paint31_radial_127_158" cx="0" cy="0" r="1" gradientUnits="userSpaceOnUse" gradientTransform="translate(118518 86396.8) rotate(45) scale(11269.9 8194.47)">
<stop offset="0.2104" stop-color="#E42400"/>
<stop offset="0.53971" stop-color="#8F1700"/>
<stop offset="0.85525" stop-color="#440B00"/>
<stop offset="1" stop-color="#260600"/>
</radialGradient>
<radialGradient id="paint32_radial_127_158" cx="0" cy="0" r="1" gradientUnits="userSpaceOnUse" gradientTransform="translate(7804.96 5765.57) rotate(45) scale(597.561 590.4)">
<stop offset="0.2104" stop-color="#E42400"/>
<stop offset="0.53971" stop-color="#8F1700"/>
<stop offset="0.85525" stop-color="#440B00"/>
<stop offset="1" stop-color="#260600"/>
</radialGradient>
<radialGradient id="paint33_radial_127_158" cx="0" cy="0" r="1" gradientUnits="userSpaceOnUse" gradientTransform="translate(7749.16 5417.28) rotate(45) scale(597.572 590.398)">
<stop offset="0.2104" stop-color="#E42400"/>
<stop offset="0.53971" stop-color="#8F1700"/>
<stop offset="0.85525" stop-color="#440B00"/>
<stop offset="1" stop-color="#260600"/>
</radialGradient>
<radialGradient id="paint34_radial_127_158" cx="0" cy="0" r="1" gradientUnits="userSpaceOnUse" gradientTransform="translate(131951 94580.6) rotate(45) scale(14857 10578.3)">
<stop offset="0.2104" stop-color="#E42400"/>
<stop offset="0.53971" stop-color="#8F1700"/>
<stop offset="0.85525" stop-color="#440B00"/>
<stop offset="1" stop-color="#260600"/>
</radialGradient>
<radialGradient id="paint35_radial_127_158" cx="0" cy="0" r="1" gradientUnits="userSpaceOnUse" gradientTransform="translate(7578.57 5480.79) rotate(45) scale(681.918 673.756)">
<stop offset="0.2104" stop-color="#E42400"/>
<stop offset="0.53971" stop-color="#8F1700"/>
<stop offset="0.85525" stop-color="#440B00"/>
<stop offset="1" stop-color="#260600"/>
</radialGradient>
<radialGradient id="paint36_radial_127_158" cx="0" cy="0" r="1" gradientUnits="userSpaceOnUse" gradientTransform="translate(7510.38 5081.03) rotate(45) scale(681.917 673.731)">
<stop offset="0.2104" stop-color="#E42400"/>
<stop offset="0.53971" stop-color="#8F1700"/>
<stop offset="0.85525" stop-color="#440B00"/>
<stop offset="1" stop-color="#260600"/>
</radialGradient>
<radialGradient id="paint37_radial_127_158" cx="0" cy="0" r="1" gradientUnits="userSpaceOnUse" gradientTransform="translate(114166 73669.5) rotate(45) scale(12540.7 12669.3)">
<stop offset="0.2104" stop-color="#E42400"/>
<stop offset="0.53971" stop-color="#8F1700"/>
<stop offset="0.85525" stop-color="#440B00"/>
<stop offset="1" stop-color="#260600"/>
</radialGradient>
<radialGradient id="paint38_radial_127_158" cx="0" cy="0" r="1" gradientUnits="userSpaceOnUse" gradientTransform="translate(7187.86 5434.92) rotate(45) scale(673.441 665.371)">
<stop offset="0.2104" stop-color="#E42400"/>
<stop offset="0.53971" stop-color="#8F1700"/>
<stop offset="0.85525" stop-color="#440B00"/>
<stop offset="1" stop-color="#260600"/>
</radialGradient>
<radialGradient id="paint39_radial_127_158" cx="0" cy="0" r="1" gradientUnits="userSpaceOnUse" gradientTransform="translate(7191.67 5032.94) rotate(45) scale(673.464 665.381)">
<stop offset="0.2104" stop-color="#E42400"/>
<stop offset="0.53971" stop-color="#8F1700"/>
<stop offset="0.85525" stop-color="#440B00"/>
<stop offset="1" stop-color="#260600"/>
</radialGradient>
<radialGradient id="paint40_radial_127_158" cx="0" cy="0" r="1" gradientUnits="userSpaceOnUse" gradientTransform="translate(37992.9 30923.1) rotate(45) scale(1261.86 889.652)">
<stop offset="0.2104" stop-color="#E42400"/>
<stop offset="0.53971" stop-color="#8F1700"/>
<stop offset="0.85525" stop-color="#440B00"/>
<stop offset="1" stop-color="#260600"/>
</radialGradient>
<radialGradient id="paint41_radial_127_158" cx="0" cy="0" r="1" gradientUnits="userSpaceOnUse" gradientTransform="translate(7445.4 6087.86) rotate(45) scale(205.832 203.365)">
<stop offset="0.2104" stop-color="#E42400"/>
<stop offset="0.53971" stop-color="#8F1700"/>
<stop offset="0.85525" stop-color="#440B00"/>
<stop offset="1" stop-color="#260600"/>
</radialGradient>
<radialGradient id="paint42_radial_127_158" cx="0" cy="0" r="1" gradientUnits="userSpaceOnUse" gradientTransform="translate(7424.39 5979.29) rotate(45) scale(205.832 203.363)">
<stop offset="0.2104" stop-color="#E42400"/>
<stop offset="0.53971" stop-color="#8F1700"/>
<stop offset="0.85525" stop-color="#440B00"/>
<stop offset="1" stop-color="#260600"/>
</radialGradient>
<radialGradient id="paint43_radial_127_158" cx="0" cy="0" r="1" gradientUnits="userSpaceOnUse" gradientTransform="translate(200921 77754.9) rotate(45) scale(29871 28674)">
<stop offset="0.2104" stop-color="#E42400"/>
<stop offset="0.53971" stop-color="#8F1700"/>
<stop offset="0.85525" stop-color="#440B00"/>
<stop offset="1" stop-color="#260600"/>
</radialGradient>
<radialGradient id="paint44_radial_127_158" cx="0" cy="0" r="1" gradientUnits="userSpaceOnUse" gradientTransform="translate(8217.4 3895.99) rotate(45) scale(1020.77 1008.55)">
<stop offset="0.2104" stop-color="#E42400"/>
<stop offset="0.53971" stop-color="#8F1700"/>
<stop offset="0.85525" stop-color="#440B00"/>
<stop offset="1" stop-color="#260600"/>
</radialGradient>
<radialGradient id="paint45_radial_127_158" cx="0" cy="0" r="1" gradientUnits="userSpaceOnUse" gradientTransform="translate(8206.42 3277.4) rotate(45) scale(1020.82 1008.57)">
<stop offset="0.2104" stop-color="#E42400"/>
<stop offset="0.53971" stop-color="#8F1700"/>
<stop offset="0.85525" stop-color="#440B00"/>
<stop offset="1" stop-color="#260600"/>
</radialGradient>
<radialGradient id="paint46_radial_127_158" cx="0" cy="0" r="1" gradientUnits="userSpaceOnUse" gradientTransform="translate(89258.3 87350.8) rotate(44.9999) scale(9908.13 167.189)">
<stop offset="0.2104" stop-color="#E42400"/>
<stop offset="0.53971" stop-color="#8F1700"/>
<stop offset="0.85525" stop-color="#440B00"/>
<stop offset="1" stop-color="#260600"/>
</radialGradient>
<radialGradient id="paint47_radial_127_158" cx="0" cy="0" r="1" gradientUnits="userSpaceOnUse" gradientTransform="translate(8101.66 3256.67) rotate(45) scale(509.021 502.922)">
<stop offset="0.2104" stop-color="#E42400"/>
<stop offset="0.53971" stop-color="#8F1700"/>
<stop offset="0.85525" stop-color="#440B00"/>
<stop offset="1" stop-color="#260600"/>
</radialGradient>
<radialGradient id="paint48_radial_127_158" cx="0" cy="0" r="1" gradientUnits="userSpaceOnUse" gradientTransform="translate(8099.96 2959.97) rotate(45) scale(509.033 502.914)">
<stop offset="0.2104" stop-color="#E42400"/>
<stop offset="0.53971" stop-color="#8F1700"/>
<stop offset="0.85525" stop-color="#440B00"/>
<stop offset="1" stop-color="#260600"/>
</radialGradient>
</defs>
</svg>
