<svg width="1920" height="679" viewBox="0 0 1920 679" fill="none" xmlns="http://www.w3.org/2000/svg">
<g opacity="0.87">
<path opacity="0.57" d="M-925.081 1081.08C-542.788 1077.24 -141.11 552.423 102.214 609.959C353.369 669.346 710.671 906.6 976.62 791.254C1242.57 675.907 1369.85 392.616 2040.47 629.763" stroke="#FF3219" stroke-width="0.25" stroke-miterlimit="10"/>
<path opacity="0.57" d="M-911.19 1080.68C-518.882 1086.08 -118.413 561.551 126.474 607.592C378.821 655.397 726.358 879.57 991.133 772.994C1255.91 666.418 1392.79 388.066 2031.47 613.92" stroke="#FF3219" stroke-width="0.25" stroke-miterlimit="10"/>
<path opacity="0.57" d="M-897.299 1080.27C-494.976 1094.93 -95.7167 570.679 150.735 605.226C404.273 641.449 742.046 852.539 1005.65 754.734C1269.25 656.929 1415.73 383.516 2022.48 598.078" stroke="#FF3219" stroke-width="0.25" stroke-miterlimit="10"/>
<path opacity="0.57" d="M-883.408 1079.87C-471.07 1103.78 -73.0203 579.806 174.996 602.859C429.725 627.5 757.733 825.508 1020.16 736.474C1282.58 647.44 1438.68 378.966 2013.49 582.235" stroke="#FF3219" stroke-width="0.25" stroke-miterlimit="10"/>
<path opacity="0.57" d="M-869.517 1079.47C-447.163 1112.63 -50.2959 588.348 199.257 600.493C455.208 612.95 773.421 798.478 1034.67 718.215C1295.92 637.951 1461.62 374.416 2004.5 566.393" stroke="#FF3219" stroke-width="0.25" stroke-miterlimit="10"/>
<path opacity="0.57" d="M-855.626 1079.07C-423.257 1121.47 -27.6263 597.374 223.518 598.127C480.633 598.898 789.109 771.447 1049.19 699.955C1309.26 628.463 1484.56 369.867 1995.5 550.55" stroke="#FF3219" stroke-width="0.25" stroke-miterlimit="10"/>
<path opacity="0.57" d="M-841.734 1078.67C-399.351 1130.32 -4.96456 606.42 247.778 595.76C506.05 584.868 804.796 744.417 1063.7 681.695C1322.6 618.974 1507.5 365.317 1986.51 534.708" stroke="#FF3219" stroke-width="0.25" stroke-miterlimit="10"/>
<path opacity="0.57" d="M-827.843 1078.27C-375.445 1139.17 17.6921 615.488 272.039 593.394C531.462 570.859 820.484 717.386 1078.21 663.435C1335.94 609.485 1530.44 360.767 1977.52 518.865" stroke="#FF3219" stroke-width="0.25" stroke-miterlimit="10"/>
<path opacity="0.57" d="M-813.952 1077.87C-351.539 1148.01 40.3467 624.577 296.3 591.027C556.872 556.873 836.171 690.355 1092.72 645.176C1349.28 599.996 1553.38 356.217 1968.53 503.022" stroke="#FF3219" stroke-width="0.25" stroke-miterlimit="10"/>
<path opacity="0.57" d="M-800.061 1077.47C-327.633 1156.86 63.002 633.687 320.561 588.661C582.282 542.908 851.859 663.325 1107.24 626.916C1362.62 590.508 1576.33 351.667 1959.53 487.18" stroke="#FF3219" stroke-width="0.25" stroke-miterlimit="10"/>
<path opacity="0.57" d="M-786.17 1077.07C-303.727 1165.71 85.6606 642.817 344.821 586.295C607.696 528.963 867.546 636.294 1121.75 608.657C1375.96 581.019 1599.27 347.117 1950.54 471.337" stroke="#FF3219" stroke-width="0.25" stroke-miterlimit="10"/>
<path opacity="0.57" d="M-772.279 1076.66C-279.82 1174.56 108.325 651.966 369.082 583.929C633.116 515.037 883.233 609.264 1136.26 590.397C1389.3 571.53 1622.21 342.568 1941.55 455.495" stroke="#FF3219" stroke-width="0.25" stroke-miterlimit="10"/>
<path opacity="0.57" d="M-758.388 1076.26C-255.914 1183.4 130.996 661.131 393.343 581.562C658.543 501.128 898.921 582.233 1150.78 572.137C1402.63 562.041 1645.15 338.018 1932.56 439.652" stroke="#FF3219" stroke-width="0.25" stroke-miterlimit="10"/>
<path opacity="0.57" d="M-744.497 1075.86C-232.008 1192.25 153.677 670.312 417.604 579.195C683.979 487.234 914.609 555.202 1165.29 553.877C1415.97 552.552 1668.09 333.467 1923.56 423.809" stroke="#FF3219" stroke-width="0.25" stroke-miterlimit="10"/>
<path opacity="0.57" d="M-730.606 1075.46C-208.102 1201.1 176.367 679.507 441.865 576.829C709.425 473.354 930.296 528.172 1179.8 535.618C1429.31 543.064 1691.03 328.918 1914.57 407.967" stroke="#FF3219" stroke-width="0.25" stroke-miterlimit="10"/>
<path opacity="0.57" d="M-716.715 1075.06C-184.196 1209.94 199.069 688.713 466.125 574.463C734.882 459.486 945.983 501.142 1194.32 517.358C1442.65 533.575 1713.98 324.368 1905.58 392.124" stroke="#FF3219" stroke-width="0.25" stroke-miterlimit="10"/>
<path opacity="0.57" d="M-702.824 1074.66C-160.29 1218.79 221.781 697.93 490.386 572.097C760.351 445.627 961.671 474.111 1208.83 499.099C1455.99 524.086 1736.92 319.819 1896.59 376.282" stroke="#FF3219" stroke-width="0.25" stroke-miterlimit="10"/>
<path opacity="0.57" d="M-688.933 1074.26C-136.384 1227.64 244.73 707.594 514.647 569.73C786.055 432.219 977.358 447.081 1223.34 480.839C1469.33 514.597 1759.86 315.269 1887.59 360.44" stroke="#FF3219" stroke-width="0.25" stroke-miterlimit="10"/>
<path opacity="0.57" d="M-675.042 1073.86C-112.478 1236.49 267.427 716.722 538.908 567.364C811.508 418.27 993.046 420.05 1237.86 462.579C1482.67 505.109 1782.8 310.719 1878.6 344.597" stroke="#FF3219" stroke-width="0.25" stroke-miterlimit="10"/>
<path opacity="0.57" d="M-661.151 1073.45C-88.5715 1245.33 290.123 725.85 563.169 564.998C836.96 404.322 1008.73 393.019 1252.37 444.319C1496.01 495.62 1805.74 306.169 1869.61 328.754" stroke="#FF3219" stroke-width="0.25" stroke-miterlimit="10"/>
<path opacity="0.57" d="M-647.26 1073.05C-64.6655 1254.18 312.819 734.977 587.429 562.631C862.412 390.373 1024.42 365.989 1266.88 426.06C1509.34 486.131 1828.68 301.619 1860.62 312.912" stroke="#FF3219" stroke-width="0.25" stroke-miterlimit="10"/>
<path opacity="0.57" d="M-633.368 1072.65C-40.7593 1263.03 335.516 744.105 611.69 560.265C887.864 376.424 1040.11 338.958 1281.4 407.8C1522.68 476.642 1851.62 297.069 1851.62 297.069" stroke="#FF3219" stroke-width="0.25" stroke-miterlimit="10"/>
<path opacity="0.57" d="M-636.725 1065.33C-515.523 1100.37 -402.45 1111.83 -297.584 1102.76C-161.391 1090.59 -38.0202 1043.64 74.2792 980.072C136.807 944.36 196.512 903.918 252.873 859.101C315.712 809.441 372.944 756.719 426.49 707.782C489.609 650.096 547.797 597.403 603.023 558.261C661.886 516.699 716.491 480.559 768.213 455.075C864.546 407.612 946.58 389.216 1031.12 385.997C1104.41 383.4 1180.14 393.053 1265.05 412.519C1269.27 413.486 1273.51 414.468 1277.78 415.465C1365.36 436.095 1461.74 422.956 1551.73 400.583C1708.99 361.486 1843.98 289.054 1850.56 288.149" stroke="#FF3219" stroke-width="0.25" stroke-miterlimit="10"/>
<path opacity="0.57" d="M-640.081 1058.01C-519.361 1088.99 -405.759 1103.02 -300.49 1096.27C-164.541 1087.55 -40.4333 1044.16 73.1639 983.35C136.651 949.268 196.945 909.547 253.318 864.667C315.926 814.799 371.551 760.494 423.443 710.123C484.163 651.181 540.143 597.105 594.356 556.258C652.024 513.112 707.021 473.877 759.955 449.468C857.21 404.622 939.013 394.563 1024.14 394.823C1098.23 395.049 1175.96 404.889 1261.3 420.758C1265.57 421.551 1269.86 422.322 1274.16 423.129C1362.56 439.636 1457.22 420.772 1547.16 395.561C1701.26 352.37 1836.33 281.039 1849.49 279.23" stroke="#FF3219" stroke-width="0.25" stroke-miterlimit="10"/>
<path opacity="0.57" d="M-643.437 1050.68C-523.199 1077.62 -409.087 1094.05 -303.396 1089.78C-167.718 1084.3 -42.8463 1044.68 72.0486 986.627C136.471 954.196 197.366 915.191 253.764 870.232C316.14 820.156 370.163 764.287 420.396 712.463C478.723 652.287 532.388 596.679 585.689 554.254C642.055 509.39 697.535 467.182 751.697 443.86C849.844 401.599 931.458 400.035 1017.16 403.649C1092.05 406.807 1171.79 416.703 1257.56 428.997C1261.87 429.615 1266.2 430.186 1270.54 430.794C1359.77 443.178 1452.67 418.641 1542.59 390.539C1693.51 343.374 1828.69 273.024 1848.42 270.31" stroke="#FF3219" stroke-width="0.25" stroke-miterlimit="10"/>
<path opacity="0.57" d="M-646.793 1043.36C-527.036 1066.24 -412.421 1085.06 -306.302 1083.28C-170.901 1081.02 -45.2595 1045.2 70.9331 989.904C135.898 958.767 198.412 921.062 254.209 875.797C316.354 825.513 368.779 768.097 417.349 714.803C473.293 653.416 524.703 596.351 577.022 552.251C632.161 505.772 688.035 460.472 743.439 438.252C842.451 398.543 923.908 405.521 1010.18 412.475C1085.88 418.576 1167.65 428.495 1253.81 437.235C1258.17 437.677 1262.55 438.049 1266.92 438.458C1356.97 446.719 1448.12 416.565 1538.02 385.516C1685.75 334.497 1821.04 265.009 1847.35 261.39" stroke="#FF3219" stroke-width="0.25" stroke-miterlimit="10"/>
<path opacity="0.57" d="M-650.149 1036.04C-530.874 1054.87 -415.76 1076.05 -309.208 1076.79C-174.091 1077.73 -47.6725 1045.73 69.8181 993.181C135.383 963.605 198.806 927.047 254.655 881.362C316.569 830.871 367.404 771.925 414.302 717.143C467.873 654.566 517.021 596.03 568.355 550.247C622.27 502.161 678.524 453.746 735.181 432.645C835.035 395.455 916.362 411.022 1003.2 421.301C1079.71 430.357 1163.51 440.264 1250.06 445.474C1254.47 445.739 1258.89 445.913 1263.3 446.123C1354.17 450.261 1443.56 414.546 1533.45 380.494C1678 325.738 1813.39 256.994 1846.28 252.47" stroke="#FF3219" stroke-width="0.25" stroke-miterlimit="10"/>
<path opacity="0.57" d="M-653.506 1028.71C-534.711 1043.49 -419.103 1067.04 -312.114 1070.3C-177.285 1074.42 -50.0854 1046.25 68.7027 996.459C134.867 968.444 199.2 933.032 255.101 886.928C316.783 836.228 366.037 775.77 411.255 719.483C462.466 655.736 509.342 595.715 559.688 548.244C612.383 498.557 669 447.005 726.923 427.037C827.597 392.332 908.818 416.536 996.226 430.127C1073.55 442.15 1159.39 452.008 1246.31 453.712C1250.78 453.8 1255.23 453.777 1259.68 453.788C1351.38 453.803 1439 412.586 1528.88 375.472C1670.27 317.093 1805.75 248.979 1845.22 243.55" stroke="#FF3219" stroke-width="0.25" stroke-miterlimit="10"/>
<path opacity="0.77" d="M-656.862 1021.39C-538.549 1032.12 -422.448 1058 -315.02 1063.81C-180.482 1071.09 -52.4985 1046.77 67.5873 999.735C134.352 973.282 199.594 939.016 255.546 892.493C316.997 841.585 364.682 779.631 408.208 721.823C457.072 656.925 501.667 595.405 551.021 546.24C602.499 494.958 659.467 440.245 718.665 421.429C820.141 389.175 901.274 422.063 989.248 438.953C1067.38 453.954 1155.27 463.727 1242.56 461.951C1247.08 461.859 1251.58 461.64 1256.06 461.452C1348.58 457.344 1434.44 410.685 1524.31 370.449C1662.55 308.557 1798.1 240.964 1844.15 234.63" stroke="#E62B1E" stroke-width="0.25" stroke-miterlimit="10"/>
<path opacity="0.57" d="M-660.218 1014.07C-542.387 1020.75 -425.795 1048.95 -317.926 1057.32C-183.681 1067.74 -54.8189 1047.54 66.472 1003.01C133.889 978.261 199.988 945.001 255.992 898.058C317.212 846.943 363.339 783.507 405.161 724.163C451.694 658.133 493.995 595.101 542.353 544.237C592.619 491.366 649.924 433.467 710.407 415.821C812.67 385.985 893.729 427.602 982.269 447.779C1061.21 465.769 1151.16 475.421 1238.82 470.189C1243.38 469.917 1247.92 469.504 1252.44 469.117C1345.78 460.886 1429.9 408.844 1519.74 365.427C1654.86 300.125 1790.46 232.949 1843.08 225.711" stroke="#FF3219" stroke-width="0.25" stroke-miterlimit="10"/>
<path opacity="0.57" d="M-663.574 1006.75C-546.224 1009.37 -429.141 1039.89 -320.832 1050.83C-190.396 1064.1 -58.633 1048.91 65.3567 1006.29C133.372 983.105 200.382 950.986 256.437 903.624C317.426 852.3 362.012 787.398 402.114 726.504C446.334 659.356 486.328 594.802 533.686 542.234C582.744 487.779 640.928 428.62 702.149 410.213C804.265 379.511 886.182 433.154 975.29 456.605C1055.05 477.595 1147.05 487.091 1235.07 478.428C1239.69 477.974 1244.26 477.368 1248.83 476.782C1342.99 464.427 1425.38 407.063 1515.17 360.405C1647.21 291.792 1782.81 224.934 1842.01 216.791" stroke="#FF3219" stroke-width="0.25" stroke-miterlimit="10"/>
<path opacity="0.57" d="M-666.93 999.423C-550.062 997.996 -432.488 1030.81 -323.738 1044.34C-193.419 1060.93 -61.0504 1049.07 64.2412 1009.57C132.854 987.947 200.776 956.971 256.883 909.189C317.64 857.658 360.7 791.301 399.067 728.844C440.992 660.594 478.665 594.507 525.019 540.23C572.874 484.196 630.821 419.856 693.891 404.606C797.694 379.507 878.632 438.716 968.312 465.431C1048.87 489.43 1142.93 498.738 1231.32 486.667C1235.99 486.029 1240.61 485.232 1245.21 484.446C1340.19 467.969 1420.89 405.341 1510.6 355.383C1639.59 283.549 1775.16 216.919 1840.94 207.871" stroke="#FF3219" stroke-width="0.25" stroke-miterlimit="10"/>
<path opacity="0.57" d="M-670.287 992.1C-553.899 986.621 -435.832 1021.71 -326.644 1037.85C-193.274 1057.56 -62.0718 1049.13 63.126 1012.84C132.335 992.786 201.17 962.955 257.329 914.754C317.854 863.015 359.407 795.215 396.02 731.184C435.669 661.844 471.008 594.216 516.352 538.226C563.009 480.617 621.262 413.021 685.633 398.998C790.194 376.22 871.078 444.288 961.333 474.257C1042.7 501.274 1138.81 510.363 1227.57 494.905C1232.29 494.083 1236.95 493.096 1241.59 492.111C1337.39 471.51 1416.43 403.676 1506.03 350.361C1632.03 275.389 1767.52 208.904 1839.88 198.951" stroke="#FF3219" stroke-width="0.25" stroke-miterlimit="10"/>
<path opacity="0.57" d="M-673.643 984.777C-557.737 975.246 -439.173 1012.6 -329.55 1031.36C-196.467 1054.13 -64.4926 1049.65 62.0108 1016.12C131.815 997.622 201.564 968.94 257.774 920.319C318.069 868.372 358.131 799.138 392.973 733.524C430.366 663.105 463.355 593.929 507.685 536.223C553.149 477.042 611.7 406.166 677.375 393.39C782.689 372.902 863.519 449.869 954.355 483.083C1036.52 513.127 1134.69 521.968 1223.83 503.143C1228.59 502.137 1233.3 500.959 1237.97 499.775C1334.6 475.052 1412 402.067 1501.46 345.338C1624.51 267.305 1759.87 200.889 1838.81 190.031" stroke="#FF3219" stroke-width="0.25" stroke-miterlimit="10"/>
<path opacity="0.57" d="M-676.999 977.454C-561.575 963.871 -442.511 1003.47 -332.456 1024.87C-199.654 1050.68 -66.9144 1050.16 60.8956 1019.4C131.295 1002.45 201.958 974.924 258.22 925.884C318.283 873.73 356.876 803.07 389.926 735.864C425.084 664.373 455.707 593.644 499.018 534.219C543.294 473.469 602.136 399.293 669.117 387.782C775.182 369.555 855.956 455.458 947.376 491.909C1030.34 524.987 1130.55 533.554 1220.08 511.382C1224.9 510.189 1229.64 508.823 1234.35 507.44C1331.8 478.593 1407.62 400.513 1496.89 340.316C1617.05 259.289 1752.22 192.874 1837.74 181.111" stroke="#FF3219" stroke-width="0.25" stroke-miterlimit="10"/>
<path opacity="0.57" d="M-680.355 970.131C-565.412 952.497 -445.844 994.331 -335.363 1018.37C-202.837 1047.22 -69.3899 1050.42 59.78 1022.68C130.745 1007.15 202.352 980.909 258.665 931.45C318.497 879.087 355.64 807.009 386.879 738.204C419.821 665.648 448.065 593.363 490.351 532.216C533.445 469.901 592.572 392.4 660.858 382.175C767.675 366.18 848.387 461.054 940.398 500.735C1024.15 536.854 1126.41 545.125 1216.33 519.621C1221.2 518.24 1225.98 516.687 1230.73 515.105C1329 482.135 1403.29 399.01 1492.32 335.294C1609.64 251.332 1744.58 184.859 1836.67 172.192" stroke="#FF3219" stroke-width="0.25" stroke-miterlimit="10"/>
<path opacity="0.57" d="M-683.711 962.808C-569.25 941.122 -449.17 985.175 -338.269 1011.88C-206.012 1043.74 -71.8029 1050.94 58.6647 1025.95C130.23 1011.99 202.746 986.894 259.111 937.015C318.712 884.445 354.425 810.951 383.832 740.544C414.58 666.927 440.428 593.084 481.684 530.213C523.601 466.333 583.008 385.488 652.6 376.567C760.17 362.778 840.812 466.657 933.419 509.561C1017.96 548.726 1122.26 556.681 1212.58 527.859C1217.5 526.291 1222.33 524.551 1227.11 522.769C1326.21 485.677 1399 397.555 1487.75 330.272C1602.3 243.425 1736.93 176.844 1835.6 163.272" stroke="#FF3219" stroke-width="0.25" stroke-miterlimit="10"/>
<path opacity="0.57" d="M-687.067 955.485C-573.088 929.747 -452.491 976.006 -341.175 1005.39C-209.179 1040.24 -74.2161 1051.46 57.5494 1029.23C129.714 1016.83 203.14 992.879 259.556 942.58C318.926 889.802 353.231 814.896 380.785 742.884C409.359 668.207 432.797 592.806 473.017 528.209C513.762 462.768 573.446 378.557 644.342 370.959C752.668 359.35 833.232 472.264 926.44 518.387C1011.76 560.604 1118.09 568.224 1208.84 536.098C1213.8 534.34 1218.67 532.414 1223.49 530.434C1323.41 489.218 1394.78 396.144 1483.18 325.25C1595.02 235.562 1729.29 168.829 1834.54 154.352" stroke="#FF3219" stroke-width="0.25" stroke-miterlimit="10"/>
<path opacity="0.57" d="M-690.424 948.163C-576.925 918.373 -455.804 966.824 -344.081 998.902C-212.338 1036.73 -76.6291 1051.99 56.4341 1032.51C129.199 1021.66 203.534 998.864 260.002 948.146C319.14 895.16 352.058 818.842 377.738 745.225C404.158 669.487 425.171 592.53 464.35 526.206C503.928 459.204 563.887 371.607 636.084 365.351C745.171 355.899 825.646 477.877 919.462 527.213C1005.55 572.487 1113.92 579.756 1205.09 544.337C1210.1 542.39 1215.01 540.278 1219.87 538.098C1320.61 492.76 1390.61 394.775 1478.61 320.227C1587.8 227.733 1721.64 160.814 1833.47 145.433" stroke="#FF3219" stroke-width="0.25" stroke-miterlimit="10"/>
<path opacity="0.57" d="M-693.78 940.84C-580.763 906.998 -459.109 957.629 -346.987 992.411C-215.487 1033.2 -79.042 1052.51 55.3189 1035.78C128.684 1026.5 203.928 1004.85 260.447 953.711C319.354 900.517 350.905 822.786 374.691 747.565C398.976 670.765 417.68 592.327 455.683 524.202C494.231 455.714 554.331 364.64 627.826 359.744C737.68 352.425 818.055 483.493 912.483 536.039C999.343 584.373 1109.73 591.279 1201.34 552.575C1206.4 550.438 1211.36 548.142 1216.25 545.763C1317.82 496.301 1386.49 393.442 1474.04 315.205C1580.65 219.931 1713.99 152.799 1832.4 136.513" stroke="#FF3219" stroke-width="0.25" stroke-miterlimit="10"/>
<path opacity="0.57" d="M-697.136 933.516C-584.6 895.623 -462.405 948.422 -349.893 985.919C-218.627 1029.67 -81.4551 1053.03 54.2036 1039.06C128.169 1031.34 204.322 1010.83 260.893 959.276C319.569 905.874 349.772 826.729 371.644 749.905C393.813 672.039 410.026 592.029 447.015 522.198C484.369 452.126 544.779 357.656 619.568 354.136C730.197 348.929 810.38 489.245 905.505 544.865C993.056 596.384 1105.53 602.795 1197.59 560.814C1202.7 558.486 1207.7 556.005 1212.64 553.428C1315.02 499.843 1382.45 392.143 1469.47 310.183C1573.56 212.15 1706.35 144.784 1831.33 127.593" stroke="#FF3219" stroke-width="0.25" stroke-miterlimit="10"/>
<path opacity="0.57" d="M-700.492 926.194C-588.438 884.249 -465.644 939.07 -352.799 979.429C-221.7 1025.96 -83.8681 1053.55 53.0882 1042.34C127.653 1036.18 204.716 1016.82 261.338 964.842C319.783 911.232 348.658 830.667 368.597 752.245C388.667 673.309 402.372 591.73 438.348 520.195C474.507 448.539 535.233 350.655 611.31 348.528C722.723 345.414 802.813 494.803 898.526 553.691C986.87 608.217 1101.25 614.162 1193.85 569.052C1198.99 566.526 1204.05 563.872 1209.02 561.092C1312.23 503.385 1378.46 390.872 1464.9 305.161C1566.53 204.381 1698.7 136.769 1830.26 118.673" stroke="#FF3219" stroke-width="0.25" stroke-miterlimit="10"/>
<path opacity="0.57" d="M-703.848 918.871C-592.276 872.874 -468.97 929.977 -355.705 972.938C-224.875 1022.56 -86.2811 1054.07 51.973 1045.62C127.138 1041.02 205.11 1022.8 261.784 970.407C319.997 916.589 347.563 834.6 365.55 754.585C383.537 674.571 394.718 591.432 429.681 518.192C464.644 444.952 525.692 343.637 603.052 342.92C715.259 341.88 795.246 500.36 891.548 562.517C980.683 620.049 1097.09 625.81 1190.1 577.291C1303.21 518.283 1370.41 393.933 1460.33 300.139C1559.57 196.618 1691.05 128.754 1829.2 109.753" stroke="#FF3219" stroke-width="0.25" stroke-miterlimit="10"/>
</g>
</svg>
