<svg width="1019" height="170" viewBox="0 0 1019 170" fill="none" xmlns="http://www.w3.org/2000/svg">
<g opacity="0.47">
<path opacity="0.57" d="M4.375 3.9375C144.043 45.0704 348.732 -101.393 430.955 -53.3662C515.825 -3.794 619.569 122.371 729.266 109.946C838.964 97.5218 916.841 8.5007 1134.71 169.484" stroke="#FF3219" stroke-width="0.25" stroke-miterlimit="10"/>
<path opacity="0.57" d="M9.4792 5.33678C151.766 50.9523 355.983 -95.5429 440.055 -51.529C526.648 -6.04278 628.29 114.271 736.584 104.91C844.878 95.5497 925.703 9.39586 1133.2 162.713" stroke="#FF3219" stroke-width="0.25" stroke-miterlimit="10"/>
<path opacity="0.57" d="M14.5832 6.73609C159.489 56.8343 363.234 -89.6933 449.155 -49.6917C537.47 -8.29163 637.011 106.171 743.901 99.8744C850.792 93.5776 934.565 10.291 1131.69 155.942" stroke="#FF3219" stroke-width="0.25" stroke-miterlimit="10"/>
<path opacity="0.57" d="M19.6874 8.1354C167.212 62.7163 370.485 -83.8437 458.254 -47.8545C548.292 -10.5404 645.732 98.0712 751.219 94.8384C856.706 91.6055 943.428 11.1861 1130.17 149.172" stroke="#FF3219" stroke-width="0.25" stroke-miterlimit="10"/>
<path opacity="0.57" d="M24.7915 9.53476C174.935 68.5983 377.812 -78.2045 467.354 -46.0173C559.192 -13.0049 654.453 89.9713 758.537 89.8024C862.62 89.6335 952.29 12.0813 1128.66 142.401" stroke="#FF3219" stroke-width="0.25" stroke-miterlimit="10"/>
<path opacity="0.57" d="M29.8956 10.9341C182.658 74.4803 385.064 -72.3951 476.454 -44.1802C570.016 -15.2944 663.174 81.8714 765.854 84.7664C868.534 87.6614 961.152 12.9765 1127.15 135.63" stroke="#FF3219" stroke-width="0.25" stroke-miterlimit="10"/>
<path opacity="0.57" d="M34.9997 12.3333C190.381 80.3623 392.312 -66.5789 485.553 -42.343C580.834 -17.5768 671.895 73.7714 773.171 79.7303C874.448 85.6893 970.014 13.8717 1125.64 128.86" stroke="#FF3219" stroke-width="0.25" stroke-miterlimit="10"/>
<path opacity="0.57" d="M40.1038 13.7326C198.104 86.2442 399.555 -60.7556 494.653 -40.5058C591.648 -19.8519 680.616 65.6714 780.489 74.6943C880.362 83.7172 978.876 14.7667 1124.12 122.089" stroke="#FF3219" stroke-width="0.25" stroke-miterlimit="10"/>
<path opacity="0.57" d="M45.208 15.1319C205.827 92.1262 406.795 -54.9247 503.753 -38.6686C602.459 -22.1192 689.337 57.5715 787.807 69.6583C886.276 81.7451 987.738 15.6618 1122.61 115.318" stroke="#FF3219" stroke-width="0.25" stroke-miterlimit="10"/>
<path opacity="0.57" d="M50.3121 16.5312C213.55 98.0082 414.034 -49.0861 512.852 -36.8314C613.268 -24.3787 698.058 49.4716 795.124 64.6223C892.19 79.7731 996.6 16.5571 1121.1 108.547" stroke="#FF3219" stroke-width="0.25" stroke-miterlimit="10"/>
<path opacity="0.57" d="M55.4161 17.9305C221.272 103.89 421.271 -43.2399 521.952 -34.9942C624.076 -26.6303 706.779 41.3716 802.442 59.5863C898.104 77.801 1005.46 17.4522 1119.59 101.777" stroke="#FF3219" stroke-width="0.25" stroke-miterlimit="10"/>
<path opacity="0.57" d="M60.5204 19.3298C228.996 109.772 428.508 -37.3864 531.052 -33.1571C634.884 -28.8746 715.5 33.2716 809.759 54.5503C904.019 75.8289 1014.32 18.3473 1118.07 95.006" stroke="#FF3219" stroke-width="0.25" stroke-miterlimit="10"/>
<path opacity="0.57" d="M65.6244 20.7291C236.718 115.654 435.746 -31.5257 540.151 -31.3198C645.692 -31.1117 724.221 25.1717 817.077 49.5143C909.932 73.8569 1023.19 19.2425 1116.56 88.2353" stroke="#FF3219" stroke-width="0.25" stroke-miterlimit="10"/>
<path opacity="0.57" d="M70.7286 22.1284C244.441 121.536 442.985 -25.6585 549.251 -29.4827C656.503 -33.3423 732.942 17.0718 824.394 44.4783C915.847 71.8848 1032.05 20.1376 1115.05 81.4646" stroke="#FF3219" stroke-width="0.25" stroke-miterlimit="10"/>
<path opacity="0.57" d="M75.8327 23.5278C252.164 127.418 450.227 -19.7851 558.351 -27.6454C667.315 -35.5667 741.663 8.9719 831.712 39.4424C921.761 69.9128 1040.91 21.0329 1113.53 74.694" stroke="#FF3219" stroke-width="0.25" stroke-miterlimit="10"/>
<path opacity="0.57" d="M80.9368 24.927C259.887 133.3 457.471 -13.9064 567.45 -25.8083C678.13 -37.7858 750.384 0.871879 839.029 34.4063C927.674 67.9407 1049.77 21.9279 1112.02 67.9231" stroke="#FF3219" stroke-width="0.25" stroke-miterlimit="10"/>
<path opacity="0.57" d="M86.0408 26.3264C267.61 139.182 464.718 -8.02276 576.55 -23.971C688.948 -40.0001 759.105 -7.22799 846.346 29.3703C933.588 65.9686 1058.63 22.8232 1110.51 61.1525" stroke="#FF3219" stroke-width="0.25" stroke-miterlimit="10"/>
<path opacity="0.57" d="M91.1449 27.7257C275.333 145.064 472.001 -1.9494 585.649 -22.1339C699.802 -42.024 767.826 -15.328 853.664 24.3342C939.502 63.9965 1067.5 23.7183 1109 54.3817" stroke="#FF3219" stroke-width="0.25" stroke-miterlimit="10"/>
<path opacity="0.57" d="M96.2491 29.125C283.056 150.946 479.252 3.90023 594.749 -20.2966C710.624 -44.2727 776.547 -23.4279 860.982 19.2983C945.416 62.0245 1076.36 24.6135 1107.48 47.6111" stroke="#FF3219" stroke-width="0.25" stroke-miterlimit="10"/>
<path opacity="0.57" d="M101.353 30.5243C290.779 156.828 486.503 9.74979 603.849 -18.4594C721.446 -46.5215 785.268 -31.5278 868.299 14.2623C951.33 60.0524 1085.22 25.5086 1105.97 40.8404" stroke="#FF3219" stroke-width="0.25" stroke-miterlimit="10"/>
<path opacity="0.57" d="M106.457 31.9236C298.502 162.71 493.755 15.5993 612.948 -16.6223C732.268 -48.7704 793.989 -39.6278 875.617 9.22628C957.244 58.0803 1094.08 26.4038 1104.46 34.0696" stroke="#FF3219" stroke-width="0.25" stroke-miterlimit="10"/>
<path opacity="0.57" d="M111.561 33.3229C306.225 168.592 501.006 21.449 622.048 -14.7851C743.091 -51.0192 802.71 -47.7277 882.934 4.19027C963.158 56.1083 1102.95 27.2989 1102.95 27.2989" stroke="#FF3219" stroke-width="0.25" stroke-miterlimit="10"/>
<path opacity="0.57" d="M111.154 30.2823C151.4 56.5283 191.308 73.2846 230.513 81.6453C281.472 92.365 331.63 88.9901 379.604 78.331C406.352 72.28 432.597 64.1925 458.111 54.1392C486.523 43.0429 513.234 30.2074 538.182 18.3405C567.589 4.35189 594.645 -8.36668 619.114 -16.479C645.177 -25.0684 669.087 -32.1564 690.76 -35.6839C731.127 -42.2539 763.053 -39.8278 794.202 -31.5951C821.188 -24.3866 847.693 -12.4465 876.456 4.09071C877.885 4.91237 879.321 5.7419 880.763 6.5793C910.367 23.837 946.935 29.7744 982.2 31.6374C1043.83 34.8929 1101.05 23.529 1103.55 23.9313" stroke="#FF3219" stroke-width="0.25" stroke-miterlimit="10"/>
<path opacity="0.57" d="M110.746 27.2418C151.268 51.9584 191.084 69.7057 230.177 78.9578C280.663 90.9062 330.693 88.9116 378.834 79.4005C405.749 74.05 432.129 66.2905 457.654 56.2158C486.006 45.018 512.307 31.4274 536.812 18.8538C565.485 4.14098 591.89 -9.32696 616.18 -18.173C641.985 -27.4723 666.381 -35.6439 688.377 -38.6452C728.789 -44.1594 759.702 -38.7222 790.679 -29.1568C817.639 -20.8318 844.854 -8.60081 874.174 6.67446C875.64 7.43805 877.116 8.19577 878.593 8.96833C908.955 24.8158 945.529 28.4754 981.095 29.2997C1042.02 30.7117 1099.16 19.7591 1104.15 20.5637" stroke="#FF3219" stroke-width="0.25" stroke-miterlimit="10"/>
<path opacity="0.57" d="M110.338 24.2011C151.136 47.3885 190.87 66.0669 229.841 76.2703C279.868 89.3686 329.756 88.8331 378.063 80.47C405.135 75.8252 431.654 68.3931 457.198 58.2924C485.488 46.9931 511.38 32.6543 535.441 19.3671C563.381 3.93891 589.113 -10.3447 613.246 -19.867C638.768 -29.9368 663.671 -39.1378 685.993 -41.6064C726.442 -46.0798 756.342 -37.5696 787.155 -26.7186C814.081 -17.2365 842.023 -4.76071 871.893 9.2582C873.395 9.96349 874.909 10.6531 876.422 11.3573C907.542 25.7946 944.111 27.1937 979.989 26.962C1040.2 26.5731 1097.27 15.9891 1104.76 17.196" stroke="#FF3219" stroke-width="0.25" stroke-miterlimit="10"/>
<path opacity="0.57" d="M109.931 21.1605C151.003 42.8186 190.656 62.4221 229.505 73.5827C279.072 87.823 328.819 88.7546 377.292 81.5396C404.418 77.4261 431.382 70.6481 456.741 60.3689C484.97 48.9682 510.452 33.8883 534.071 19.8805C561.277 3.74582 586.351 -11.3189 610.313 -21.5609C635.567 -32.3552 660.957 -42.6386 683.609 -44.5676C724.089 -48.0152 752.982 -36.4113 783.632 -24.2803C810.524 -13.6364 839.201 -0.926961 869.611 11.8419C871.151 12.4887 872.703 13.1106 874.251 13.7464C906.13 26.7734 942.683 25.9308 978.883 24.6243C1038.37 22.4774 1095.37 12.2192 1105.36 13.8284" stroke="#FF3219" stroke-width="0.25" stroke-miterlimit="10"/>
<path opacity="0.57" d="M109.523 18.12C150.871 38.2487 190.442 58.7714 229.168 70.8952C278.277 86.2693 327.882 88.6762 376.521 82.6091C403.692 79.131 430.86 72.8717 456.284 62.4455C484.452 50.9434 509.525 35.1294 532.701 20.3939C559.175 3.56169 583.588 -12.2906 607.379 -23.2549C632.366 -34.7707 658.241 -46.1464 681.225 -47.5289C721.732 -49.9654 749.621 -35.2475 780.108 -21.842C806.967 -10.0317 836.386 2.89959 867.33 14.4257C868.908 15.0135 870.496 15.568 872.08 16.1354C904.717 27.7522 941.246 24.6881 977.777 22.2866C1036.52 18.425 1093.48 8.44928 1105.96 10.4607" stroke="#FF3219" stroke-width="0.25" stroke-miterlimit="10"/>
<path opacity="0.57" d="M109.115 15.0793C150.739 33.6788 190.227 55.1148 228.832 68.2077C277.482 84.7077 326.945 88.5977 375.75 83.6787C402.966 80.8359 430.337 75.0953 455.827 64.5221C483.934 52.9185 508.599 36.3777 531.331 20.9072C557.075 3.38632 580.826 -13.2597 604.445 -24.9489C629.166 -37.1836 655.522 -49.6615 678.841 -50.4901C719.37 -51.9303 746.26 -34.0786 776.584 -19.4038C803.409 -6.42252 833.577 6.71817 865.048 17.0095C866.664 17.538 868.29 18.0254 869.909 18.5244C903.305 28.731 939.804 23.4668 976.671 19.9489C1034.66 14.4155 1091.59 4.67936 1106.57 7.0931" stroke="#FF3219" stroke-width="0.25" stroke-miterlimit="10"/>
<path opacity="0.77" d="M108.708 12.0388C150.606 29.1089 190.014 51.4524 228.496 65.5203C276.688 83.1383 326.009 88.5193 374.98 84.7482C402.24 82.5409 429.815 77.319 455.37 66.5988C483.416 54.8937 507.676 37.6333 529.961 21.4206C554.979 3.21956 578.065 -14.2264 601.511 -26.6428C625.966 -39.5937 652.802 -53.1841 676.457 -53.4513C717.006 -53.9094 742.897 -32.9047 773.061 -16.9655C799.85 -2.8091 830.774 10.5285 862.767 19.5933C864.421 20.0621 866.084 20.4829 867.739 20.9135C901.892 29.7099 938.357 22.268 975.565 17.6113C1032.8 10.4482 1089.69 0.909493 1107.17 3.72552" stroke="#E62B1E" stroke-width="0.25" stroke-miterlimit="10"/>
<path opacity="0.57" d="M108.3 8.99815C150.474 24.5389 189.802 47.784 228.159 62.8327C275.896 81.5612 325.077 88.5433 374.209 85.8177C401.517 84.3027 429.293 79.5425 454.913 68.6753C482.898 56.8687 506.756 38.8957 528.591 21.9339C552.886 3.06094 575.305 -15.1907 598.577 -28.3368C622.767 -42.0015 650.081 -56.7143 674.073 -56.4126C714.639 -55.9025 739.533 -31.7265 769.537 -14.5273C796.289 0.808198 827.975 14.3301 860.485 22.177C862.178 22.5857 863.877 22.9402 865.568 23.3024C900.48 30.6886 936.908 21.0924 974.459 15.2736C1030.94 6.52173 1087.8 -2.86051 1107.77 0.357809" stroke="#FF3219" stroke-width="0.25" stroke-miterlimit="10"/>
<path opacity="0.57" d="M107.892 5.9576C150.342 19.9691 189.591 44.11 227.823 60.1452C273.854 79.4916 323.536 88.6157 373.438 86.8873C400.79 86.0098 428.77 81.7662 454.456 70.7519C482.38 58.8439 505.84 40.1649 527.221 22.4473C550.797 2.91019 572.546 -16.1528 595.643 -30.0307C619.57 -44.4068 647.343 -59.4806 671.689 -59.3738C712.298 -59.1957 736.167 -30.5442 766.013 -12.089C792.727 4.42913 825.179 18.1231 858.203 24.7608C859.935 25.1089 861.67 25.3977 863.397 25.6915C899.067 31.6674 935.46 19.9408 973.354 12.9359C1029.08 2.63478 1085.91 -6.63041 1108.38 -3.00981" stroke="#FF3219" stroke-width="0.25" stroke-miterlimit="10"/>
<path opacity="0.57" d="M107.484 2.91694C150.21 15.3991 189.383 40.4301 227.487 57.4576C273.106 78.0007 322.638 88.4062 372.667 87.9568C400.063 87.7156 428.248 83.9897 453.999 72.8285C481.862 60.819 504.928 41.4406 525.85 22.9606C548.713 2.76666 569.788 -17.1127 592.709 -31.7247C616.373 -46.8099 644.637 -63.7974 669.305 -62.3351C709.905 -59.9283 732.798 -29.3583 762.489 -9.6507C789.162 8.05327 822.384 21.9073 855.922 27.3445C857.693 27.6316 859.464 27.8551 861.226 28.0805C897.654 32.6462 934.015 18.8135 972.248 10.5982C1027.22 -1.21459 1084.01 -10.4003 1108.98 -6.3775" stroke="#FF3219" stroke-width="0.25" stroke-miterlimit="10"/>
<path opacity="0.57" d="M107.077 -0.123596C150.077 10.8292 189.177 36.745 227.15 54.7702C273.534 76.7874 322.259 88.3136 371.896 89.0263C399.336 89.4203 427.726 86.2134 453.543 74.9051C481.344 62.7941 504.021 42.7223 524.48 23.474C546.636 2.62981 567.031 -18.0706 589.776 -33.4187C613.178 -49.2109 641.916 -67.3502 666.921 -65.2963C707.539 -61.9599 729.427 -28.1692 758.966 -7.21244C785.596 11.6803 819.591 25.6833 853.64 29.9283C855.45 30.1539 857.257 30.3125 859.055 30.4695C896.242 33.6251 932.575 17.7109 971.142 8.26058C1025.37 -5.0284 1082.12 -14.1703 1109.58 -9.7451" stroke="#FF3219" stroke-width="0.25" stroke-miterlimit="10"/>
<path opacity="0.57" d="M106.669 -3.16419C149.945 6.2593 188.973 33.0546 226.814 52.0827C272.753 75.1829 321.32 88.2329 371.126 90.0959C398.608 91.1239 427.203 88.437 453.086 76.9817C480.826 64.7693 503.12 44.0096 523.11 23.9873C544.564 2.49893 564.275 -19.0266 586.842 -35.1126C609.985 -51.6099 639.196 -70.9105 664.537 -68.2575C705.175 -64.0032 726.053 -26.9773 755.442 -4.77418C782.027 15.3099 816.798 29.4513 851.359 32.512C853.208 32.6757 855.051 32.7699 856.884 32.8585C894.83 34.6039 931.143 16.6329 970.036 5.92291C1023.54 -8.80906 1080.23 -17.9402 1110.19 -13.1128" stroke="#FF3219" stroke-width="0.25" stroke-miterlimit="10"/>
<path opacity="0.57" d="M106.261 -6.20477C149.813 1.68941 188.773 29.3592 226.478 49.3952C271.975 73.5724 320.381 88.1501 370.355 91.1654C397.881 92.8263 426.681 90.6606 452.629 79.0583C480.308 66.7444 502.225 45.302 521.74 24.5007C542.499 2.37331 561.522 -19.9809 583.908 -36.8066C606.793 -54.0073 636.477 -74.4781 662.153 -71.2187C702.813 -66.0574 722.676 -25.7831 751.918 -2.3359C778.455 18.9417 814.003 33.2116 849.077 35.0958C850.965 35.1972 852.844 35.2274 854.714 35.2476C893.417 35.5827 929.72 15.5792 968.93 3.58525C1021.71 -12.5591 1078.33 -21.7101 1110.79 -16.4804" stroke="#FF3219" stroke-width="0.25" stroke-miterlimit="10"/>
<path opacity="0.57" d="M105.854 -9.24535C149.68 -2.88049 188.576 25.6589 226.141 46.7077C271.202 71.9564 319.45 87.9699 369.584 92.235C397.158 94.4752 426.159 92.8843 452.172 81.1349C479.79 68.7196 501.337 46.5989 520.37 25.0141C540.441 2.25218 558.769 -20.9337 580.974 -38.5005C603.602 -56.4031 633.76 -78.0528 659.77 -74.18C700.454 -68.1219 719.297 -24.5868 748.395 0.102392C774.881 22.5753 811.207 36.965 846.796 37.6796C848.722 37.7182 850.638 37.6848 852.543 37.6366C892.004 36.5615 928.308 14.5494 967.824 1.24761C1019.9 -16.2811 1076.44 -25.48 1111.39 -19.848" stroke="#FF3219" stroke-width="0.25" stroke-miterlimit="10"/>
<path opacity="0.57" d="M105.446 -12.2859C149.548 -7.4504 188.383 21.9541 225.805 44.0201C270.433 70.3353 318.513 87.8914 368.813 93.3045C396.432 96.18 425.636 95.1078 451.715 83.2114C479.272 70.6946 500.456 47.8996 519 25.5274C538.389 2.1347 556.019 -21.8851 578.04 -40.1946C600.414 -58.7976 631.046 -81.6344 657.386 -77.1412C698.099 -70.1961 715.914 -23.3891 744.871 2.54059C771.304 26.2105 808.409 40.7118 844.514 40.2633C846.479 40.2388 848.431 40.1421 850.372 40.0255C890.592 37.5403 926.91 13.5428 966.718 -1.09015C1018.1 -19.9779 1074.55 -29.25 1112 -23.2157" stroke="#FF3219" stroke-width="0.25" stroke-miterlimit="10"/>
<path opacity="0.57" d="M105.038 -15.3265C149.416 -12.0203 188.194 18.245 225.469 41.3326C269.668 68.7094 317.576 87.8129 368.042 94.374C395.707 97.885 425.114 97.3315 451.258 85.288C478.754 72.6697 499.582 49.2036 517.63 26.0407C536.345 2.02019 553.27 -22.8351 575.106 -41.8885C597.227 -61.1908 628.334 -85.2226 655.002 -80.1024C695.748 -72.2791 712.53 -22.1898 741.347 4.97888C767.725 29.8471 805.608 44.4528 842.233 42.847C844.236 42.7592 846.225 42.5995 848.201 42.4146C889.179 38.5191 925.527 12.5586 965.613 -3.42781C1016.32 -23.6521 1072.65 -33.02 1112.6 -26.5833" stroke="#FF3219" stroke-width="0.25" stroke-miterlimit="10"/>
<path opacity="0.57" d="M104.631 -18.3671C149.284 -16.5902 188.009 14.5319 225.132 38.6451C268.908 67.0792 316.639 87.7345 367.271 95.4436C394.981 99.5899 424.592 99.5551 450.801 87.3646C478.236 74.6449 498.716 50.5102 516.259 26.5541C534.308 1.90787 550.524 -23.7841 572.172 -43.5824C594.042 -63.5829 625.626 -88.8172 652.618 -83.0637C693.402 -74.3703 709.142 -20.9896 737.824 7.41712C764.143 33.4847 802.804 48.1885 839.951 45.4308C841.993 45.2792 844.018 45.0569 846.03 44.8036C887.767 39.4979 924.16 11.5959 964.507 -5.76552C1014.57 -27.3065 1070.76 -36.7899 1113.2 -29.951" stroke="#FF3219" stroke-width="0.25" stroke-miterlimit="10"/>
<path opacity="0.57" d="M104.223 -21.4077C149.151 -21.1601 187.828 10.8153 224.796 35.9577C268.153 65.4452 315.702 87.6561 366.501 96.5131C394.255 101.295 424.069 101.779 450.344 89.4412C477.718 76.62 497.857 51.8188 514.889 27.0675C532.279 1.7969 547.818 -24.6913 569.238 -45.2764C590.898 -65.933 622.92 -92.418 650.234 -86.0248C691.06 -76.469 705.752 -19.7886 734.3 9.85544C760.559 37.1231 799.996 51.9196 837.669 48.0146C839.75 47.7989 841.811 47.5144 843.859 47.1927C886.354 40.4767 922.811 10.6533 963.401 -8.10312C1012.83 -30.9439 1068.87 -40.5598 1113.81 -33.3186" stroke="#FF3219" stroke-width="0.25" stroke-miterlimit="10"/>
<path opacity="0.57" d="M103.815 -24.4483C149.019 -25.73 187.652 7.09526 224.46 33.2701C267.403 63.8078 314.766 87.5775 365.73 97.5826C393.529 103 423.547 104.002 449.888 91.5177C477.2 78.5951 497.006 53.1286 513.519 27.5808C530.256 1.68655 545.063 -25.6516 566.304 -46.9704C587.705 -68.3368 620.218 -96.0245 647.85 -88.9861C688.723 -78.5746 702.317 -18.5473 730.776 12.2937C756.933 40.7987 797.185 55.6467 835.388 50.5983C837.506 50.3184 839.605 49.9718 841.689 49.5817C884.942 41.4556 921.481 9.72957 962.295 -10.4408C1011.11 -34.5669 1066.97 -44.3297 1114.41 -36.6862" stroke="#FF3219" stroke-width="0.25" stroke-miterlimit="10"/>
<path opacity="0.57" d="M103.407 -27.4889C148.887 -30.2999 187.512 3.32841 224.123 30.5826C266.696 62.1165 313.828 87.499 364.959 98.6522C392.803 104.705 423.025 106.226 449.431 93.5944C476.682 80.5703 496.162 54.4392 512.149 28.0942C528.241 1.57625 542.308 -26.6119 563.37 -48.6644C584.512 -70.7406 617.52 -99.6366 645.466 -91.9473C686.392 -80.6865 698.943 -17.3651 727.252 14.732C753.363 44.4201 794.361 59.3102 833.106 53.1821C835.262 52.8343 837.399 52.4306 839.518 51.9707C883.529 42.4344 920.171 8.82328 961.189 -12.7784C1009.42 -38.1781 1065.08 -48.0996 1115.01 -40.0539" stroke="#FF3219" stroke-width="0.25" stroke-miterlimit="10"/>
<path opacity="0.57" d="M103 -30.5295C148.755 -34.8698 187.313 -0.353487 223.787 27.8951C265.918 60.5245 312.892 87.4206 364.188 99.7217C392.077 106.409 422.503 108.449 448.974 95.6709C476.164 82.5454 495.326 55.7498 510.779 28.6075C526.232 1.46525 539.554 -27.5721 560.437 -50.3583C581.319 -73.1444 614.826 -103.254 643.082 -94.9086C684.067 -82.8041 695.569 -16.1829 723.729 17.1702C749.794 48.0415 791.552 63.0905 830.825 55.7658C878.588 46.8577 916.898 9.04241 960.083 -15.1161C1007.75 -41.7799 1063.19 -51.8696 1115.62 -43.4215" stroke="#FF3219" stroke-width="0.25" stroke-miterlimit="10"/>
</g>
</svg>
