<svg width="180" height="37" viewBox="0 0 180 37" fill="none" xmlns="http://www.w3.org/2000/svg">
<path d="M2.26856 32.5445L0.649925 30.2117H2.19241L3.0588 31.4971L3.91568 30.2117H5.41055L3.79191 32.5159L5.61047 35.1342H4.06809L3.03979 33.5823L2.0115 35.1342H0.49762L2.26856 32.5445Z" fill="#E62B1E"/>
<path d="M12.0176 32.2203H7.20947V31.2015H12.0176V32.2203ZM12.0176 34.2579H7.20947V33.2391H12.0176V34.2579Z" fill="white"/>
<path d="M15.7018 29.4499H14.3499V28.3359H15.7018V29.4499ZM14.3499 30.2115H15.7018V35.134H14.3499V30.2115Z" fill="white"/>
<path d="M16.5776 30.2116H17.863V30.8971H17.8915C18.0515 30.6436 18.2738 30.4352 18.5371 30.2919C18.8004 30.1485 19.0961 30.075 19.3959 30.0784C20.8335 30.0784 21.1953 30.8876 21.1953 32.1063V35.1341H19.8434V32.3539C19.8434 31.5446 19.6053 31.1448 18.977 31.1448C18.2438 31.1448 17.9297 31.5541 17.9297 32.5539V35.1341H16.5776V30.2116Z" fill="white"/>
<path d="M25.5461 34.5056H25.5271C25.2129 35.0387 24.6607 35.2673 24.0322 35.2673C22.547 35.2673 21.8234 33.9914 21.8234 32.6299C21.8234 31.3065 22.5565 30.0783 24.0037 30.0783C24.2898 30.069 24.5737 30.1312 24.8297 30.2592C25.0857 30.3872 25.3057 30.577 25.4699 30.8114H25.4795V28.3359H26.8314V35.134H25.5461V34.5056ZM24.3655 31.0971C23.48 31.0971 23.1753 31.8587 23.1753 32.6681C23.1753 33.4392 23.5276 34.2485 24.3655 34.2485C25.2604 34.2485 25.5271 33.4678 25.5271 32.6585C25.5271 31.8587 25.2414 31.0971 24.3655 31.0971Z" fill="white"/>
<path d="M28.7733 33.0012C28.8113 33.8581 29.2303 34.2484 29.9825 34.2484C30.5251 34.2484 30.9632 33.9152 31.0488 33.6106H32.239C31.8581 34.7721 31.0488 35.2672 29.9349 35.2672C28.3829 35.2672 27.4213 34.2009 27.4213 32.6775C27.4213 31.2017 28.44 30.0782 29.9349 30.0782C31.6105 30.0782 32.4199 31.4874 32.3246 33.0012H28.7733ZM30.9727 32.1443C30.8489 31.4588 30.5537 31.097 29.8968 31.097C29.7535 31.0892 29.6102 31.1103 29.4754 31.1592C29.3406 31.2081 29.217 31.2837 29.1121 31.3815C29.0072 31.4793 28.9231 31.5973 28.8649 31.7284C28.8067 31.8594 28.7755 32.0009 28.7733 32.1443H30.9727Z" fill="white"/>
<path d="M32.9336 30.2116H34.219V30.8401H34.2381C34.393 30.5945 34.6104 30.3946 34.8681 30.2607C35.1257 30.1269 35.4143 30.0639 35.7043 30.0783C37.2467 30.0783 37.9418 31.3257 37.9418 32.7252C37.9418 34.0391 37.2182 35.2673 35.7804 35.2673C35.4923 35.2749 35.2067 35.211 34.9492 35.0815C34.6917 34.9519 34.4703 34.7606 34.3047 34.5247H34.2857V36.8668H32.9336V30.2116ZM36.5897 32.6871C36.5897 31.9064 36.2755 31.0971 35.4091 31.0971C34.5237 31.0971 34.2381 31.8874 34.2381 32.6871C34.2381 33.4869 34.5427 34.2485 35.4186 34.2485C36.3042 34.2485 36.5897 33.4869 36.5897 32.6871Z" fill="white"/>
<path d="M39.6741 33.0012C39.7121 33.8581 40.1311 34.2484 40.8833 34.2484C41.4259 34.2484 41.864 33.9152 41.9496 33.6106H43.1398C42.7589 34.7721 41.9496 35.2672 40.8357 35.2672C39.2837 35.2672 38.3221 34.2009 38.3221 32.6775C38.3221 31.2017 39.3408 30.0782 40.8357 30.0782C42.5113 30.0782 43.3207 31.4874 43.2254 33.0012H39.6741ZM41.8735 32.1443C41.7497 31.4588 41.4545 31.097 40.7976 31.097C40.6543 31.0892 40.511 31.1103 40.3762 31.1592C40.2414 31.2081 40.1178 31.2837 40.0129 31.3815C39.908 31.4793 39.8239 31.5973 39.7657 31.7284C39.7075 31.8594 39.6763 32.0009 39.6741 32.1443H41.8735Z" fill="white"/>
<path d="M43.8344 30.2116H45.1199V30.8971H45.1484C45.3084 30.6436 45.5306 30.4352 45.7939 30.2919C46.0573 30.1485 46.3529 30.075 46.6527 30.0784C48.0904 30.0784 48.4522 30.8876 48.4522 32.1063V35.1341H47.1002V32.3539C47.1002 31.5446 46.8622 31.1448 46.2338 31.1448C45.5007 31.1448 45.1865 31.5541 45.1865 32.5539V35.1341H43.8344V30.2116Z" fill="white"/>
<path d="M52.803 34.5056H52.7839C52.4697 35.0387 51.9175 35.2673 51.2891 35.2673C49.8038 35.2673 49.0802 33.9914 49.0802 32.6299C49.0802 31.3065 49.8133 30.0783 51.2606 30.0783C51.5466 30.069 51.8305 30.1312 52.0865 30.2592C52.3425 30.3872 52.5626 30.577 52.7268 30.8114H52.7363V28.3359H54.0883V35.134H52.803V34.5056ZM51.6224 31.0971C50.7369 31.0971 50.4322 31.8587 50.4322 32.6681C50.4322 33.4392 50.7845 34.2485 51.6224 34.2485C52.5173 34.2485 52.7839 33.4678 52.7839 32.6585C52.7839 31.8587 52.4983 31.0971 51.6224 31.0971Z" fill="white"/>
<path d="M56.0301 33.0012C56.0681 33.8581 56.487 34.2484 57.2393 34.2484C57.7819 34.2484 58.2199 33.9152 58.3056 33.6106H59.4957C59.1148 34.7721 58.3056 35.2672 57.1916 35.2672C55.6396 35.2672 54.6781 34.2009 54.6781 32.6775C54.6781 31.2017 55.6968 30.0782 57.1916 30.0782C58.8673 30.0782 59.6767 31.4874 59.5814 33.0012H56.0301ZM58.2294 32.1443C58.1057 31.4588 57.8105 31.097 57.1535 31.097C57.0103 31.0892 56.867 31.1103 56.7321 31.1592C56.5973 31.2081 56.4737 31.2837 56.3688 31.3815C56.2639 31.4793 56.1798 31.5973 56.1216 31.7284C56.0634 31.8594 56.0323 32.0009 56.0301 32.1443H58.2294Z" fill="white"/>
<path d="M60.1904 30.2116H61.4758V30.8971H61.5043C61.6643 30.6436 61.8866 30.4352 62.1499 30.2919C62.4132 30.1485 62.7089 30.075 63.0087 30.0784C64.4463 30.0784 64.8081 30.8876 64.8081 32.1063V35.1341H63.4561V32.3539C63.4561 31.5446 63.2181 31.1448 62.5898 31.1448C61.8566 31.1448 61.5424 31.5541 61.5424 32.5539V35.1341H60.1904V30.2116Z" fill="white"/>
<path d="M67.3594 30.2116H68.3496V31.1161H67.3594V33.5535C67.3594 34.0106 67.4736 34.1247 67.9306 34.1247C68.0712 34.1262 68.2116 34.1135 68.3496 34.0867V35.1435C68.0877 35.1795 67.8235 35.1955 67.5593 35.1911C66.7309 35.1911 66.0073 35.0007 66.0073 34.0201V31.1161H65.1885V30.2116H66.0073V28.7358H67.3594V30.2116Z" fill="white"/>
<path d="M68.8444 28.3359H70.1964V35.134H68.8444V28.3359Z" fill="white"/>
<path d="M73.5001 35.753C73.2049 36.5434 72.7385 36.867 71.8053 36.867C71.5286 36.8654 71.2521 36.8495 70.9771 36.8193V35.7054C71.2394 35.7358 71.5032 35.7517 71.7673 35.753C72.2338 35.7054 72.3862 35.2198 72.2338 34.8295L70.501 30.2117H71.9482L73.0621 33.5823H73.0812L74.1571 30.2117H75.5567L73.5001 35.753Z" fill="white"/>
<path d="M80.6689 30.0782C82.2208 30.0782 83.2206 31.1065 83.2206 32.6775C83.2206 34.2389 82.2208 35.2672 80.6689 35.2672C79.1264 35.2672 78.1268 34.2389 78.1268 32.6775C78.1268 31.1065 79.1264 30.0782 80.6689 30.0782ZM80.6689 34.2484C81.5925 34.2484 81.8685 33.4582 81.8685 32.6775C81.8685 31.8873 81.5925 31.097 80.6689 31.097C79.7549 31.097 79.4787 31.8873 79.4787 32.6775C79.4787 33.4582 79.7549 34.2484 80.6689 34.2484Z" fill="white"/>
<path d="M83.7152 30.2115H85.0007V31.1255H85.0196C85.153 30.8183 85.3722 30.5561 85.6508 30.3704C85.9295 30.1846 86.2558 30.0832 86.5907 30.0782C86.6908 30.0793 86.7903 30.0954 86.8857 30.1259V31.3826C86.7258 31.3508 86.5632 31.3349 86.4002 31.3351C85.41 31.3351 85.0673 32.0491 85.0673 32.9156V35.134H83.7152V30.2115Z" fill="white"/>
<path d="M91.9602 34.8198C91.9602 35.629 91.6746 37 89.4086 37C88.4374 37 87.3045 36.5432 87.2378 35.4196H88.5803C88.7041 35.9242 89.1134 36.0957 89.5895 36.0957C90.3417 36.0957 90.6844 35.5814 90.6749 34.8769V34.2294H90.6559C90.4982 34.4746 90.2789 34.674 90.0199 34.8077C89.7608 34.9414 89.4712 35.0047 89.18 34.9912C87.7043 34.9912 87.0759 33.8676 87.0759 32.5156C87.0759 31.2398 87.8091 30.0782 89.1897 30.0782C89.837 30.0782 90.3321 30.2973 90.6559 30.8685H90.6749V30.2115H91.9602V34.8198ZM90.6749 32.6109C90.6749 31.811 90.3987 31.097 89.5228 31.097C88.7612 31.097 88.4279 31.7635 88.4279 32.4966C88.4279 33.2011 88.6945 33.9724 89.5228 33.9724C90.2941 33.9724 90.6749 33.3154 90.6749 32.6109Z" fill="white"/>
<path d="M92.6072 31.7254C92.6834 30.4591 93.8163 30.0782 94.9208 30.0782C95.9015 30.0782 97.0821 30.2973 97.0821 31.4779V34.039C97.0821 34.4865 97.1297 34.934 97.2535 35.134H95.8824C95.8316 34.9797 95.7996 34.8198 95.7872 34.6579C95.5662 34.8655 95.3056 35.0265 95.0209 35.1312C94.7363 35.2359 94.4334 35.2822 94.1305 35.2672C93.1975 35.2672 92.4548 34.8007 92.4548 33.7915C92.4548 32.6775 93.2927 32.4109 94.1305 32.2966C94.9589 32.1729 95.7301 32.2015 95.7301 31.6492C95.7301 31.0684 95.3302 30.9828 94.8541 30.9828C94.34 30.9828 94.0067 31.1922 93.9592 31.7254H92.6072ZM95.7301 32.7251C95.5016 32.9251 95.0255 32.9346 94.6066 33.0107C94.1876 33.0965 93.8068 33.2393 93.8068 33.7343C93.8068 34.2389 94.1972 34.3627 94.6352 34.3627C95.692 34.3627 95.7301 33.5249 95.7301 33.2298V32.7251Z" fill="white"/>
<path d="M97.9387 30.2116H99.2241V30.8971H99.2526C99.4126 30.6436 99.6348 30.4352 99.8982 30.2919C100.162 30.1485 100.457 30.075 100.757 30.0784C102.195 30.0784 102.556 30.8876 102.556 32.1063V35.1341H101.204V32.3539C101.204 31.5446 100.966 31.1448 100.338 31.1448C99.6049 31.1448 99.2907 31.5541 99.2907 32.5539V35.1341H97.9387V30.2116Z" fill="white"/>
<path d="M104.593 29.4499H103.242V28.3359H104.593V29.4499ZM103.242 30.2115H104.593V35.134H103.242V30.2115Z" fill="white"/>
<path d="M105.165 34.1154L107.726 31.2305H105.355V30.2117H109.506V31.2305L106.945 34.1154H109.687V35.1342H105.165V34.1154Z" fill="white"/>
<path d="M111.334 33.0012C111.372 33.8581 111.791 34.2484 112.543 34.2484C113.086 34.2484 113.524 33.9152 113.609 33.6106H114.8C114.419 34.7721 113.609 35.2672 112.495 35.2672C110.944 35.2672 109.982 34.2009 109.982 32.6775C109.982 31.2017 111.001 30.0782 112.495 30.0782C114.171 30.0782 114.98 31.4874 114.885 33.0012H111.334ZM113.533 32.1443C113.41 31.4588 113.114 31.097 112.457 31.097C112.314 31.0892 112.171 31.1103 112.036 31.1592C111.901 31.2081 111.778 31.2837 111.673 31.3815C111.568 31.4793 111.484 31.5973 111.426 31.7284C111.367 31.8594 111.336 32.0009 111.334 32.1443H113.533Z" fill="white"/>
<path d="M119.008 34.5056H118.989C118.674 35.0387 118.122 35.2673 117.494 35.2673C116.008 35.2673 115.285 33.9914 115.285 32.6299C115.285 31.3065 116.018 30.0783 117.465 30.0783C117.751 30.069 118.035 30.1312 118.291 30.2592C118.547 30.3872 118.767 30.577 118.932 30.8114H118.941V28.3359H120.293V35.134H119.008V34.5056ZM117.827 31.0971C116.942 31.0971 116.637 31.8587 116.637 32.6681C116.637 33.4392 116.989 34.2485 117.827 34.2485C118.722 34.2485 118.989 33.4678 118.989 32.6585C118.989 31.8587 118.703 31.0971 117.827 31.0971Z" fill="white"/>
<path d="M125.224 29.5927H123.187V28.3359H128.757V29.5927H126.719V35.134H125.224V29.5927Z" fill="white"/>
<path d="M129.346 28.3359H134.431V29.5927H130.841V31.0494H134.136V32.211H130.841V33.8772H134.507V35.134H129.346V28.3359Z" fill="white"/>
<path d="M135.135 28.3359H138.068C139.829 28.3359 141.152 29.4404 141.152 31.6969C141.152 33.6677 140.143 35.134 138.068 35.134H135.135V28.3359ZM136.63 33.8772H137.963C138.829 33.8772 139.658 33.3441 139.658 31.8397C139.658 30.4686 139.182 29.5927 137.696 29.5927H136.63V33.8772Z" fill="white"/>
<path d="M145.427 33.0012C145.465 33.8581 145.884 34.2484 146.636 34.2484C147.178 34.2484 147.616 33.9152 147.702 33.6106H148.892C148.511 34.7721 147.702 35.2672 146.588 35.2672C145.036 35.2672 144.075 34.2009 144.075 32.6775C144.075 31.2017 145.093 30.0782 146.588 30.0782C148.264 30.0782 149.073 31.4874 148.978 33.0012H145.427ZM147.626 32.1443C147.502 31.4588 147.207 31.097 146.55 31.097C146.407 31.0892 146.264 31.1103 146.129 31.1592C145.994 31.2081 145.87 31.2837 145.765 31.3815C145.66 31.4793 145.576 31.5973 145.518 31.7284C145.46 31.8594 145.429 32.0009 145.427 32.1443H147.626Z" fill="white"/>
<path d="M152.12 35.1342H150.615L148.93 30.2117H150.349L151.386 33.5727H151.405L152.443 30.2117H153.786L152.12 35.1342Z" fill="white"/>
<path d="M155.08 33.0012C155.118 33.8581 155.537 34.2484 156.289 34.2484C156.832 34.2484 157.27 33.9152 157.356 33.6106H158.546C158.165 34.7721 157.356 35.2672 156.242 35.2672C154.69 35.2672 153.728 34.2009 153.728 32.6775C153.728 31.2017 154.747 30.0782 156.242 30.0782C157.918 30.0782 158.727 31.4874 158.632 33.0012H155.08ZM157.28 32.1443C157.156 31.4588 156.861 31.097 156.204 31.097C156.061 31.0892 155.917 31.1103 155.782 31.1592C155.648 31.2081 155.524 31.2837 155.419 31.3815C155.314 31.4793 155.23 31.5973 155.172 31.7284C155.114 31.8594 155.083 32.0009 155.08 32.1443H157.28Z" fill="white"/>
<path d="M159.241 30.2116H160.526V30.8971H160.555C160.715 30.6436 160.937 30.4352 161.2 30.2919C161.464 30.1486 161.759 30.0751 162.059 30.0784C163.497 30.0784 163.859 30.8876 163.859 32.1063V35.1341H162.507V32.3539C162.507 31.5446 162.269 31.1448 161.64 31.1448C160.907 31.1448 160.593 31.5541 160.593 32.5539V35.1341H159.241V30.2116Z" fill="white"/>
<path d="M166.41 30.2116H167.4V31.1161H166.41V33.5535C166.41 34.0106 166.524 34.1247 166.981 34.1247C167.122 34.1263 167.262 34.1135 167.4 34.0867V35.1435C167.138 35.1795 166.874 35.1955 166.61 35.1911C165.781 35.1911 165.058 35.0007 165.058 34.0201V31.1161H164.239V30.2116H165.058V28.7358H166.41V30.2116Z" fill="white"/>
<path d="M6.34343 5.84474H0V0.0432739H19.6539V5.84474H13.3128V22.6784H6.34343V5.84474Z" fill="#E62B1E"/>
<path d="M20.7371 0.0432739H39.8161V5.84474H27.711V8.66536H39.8161V14.0564H27.711V16.8773H39.8194V22.6784H20.7371V0.0432739Z" fill="#E62B1E"/>
<path d="M40.9897 0.0432739H52.434C59.9777 0.0432739 62.6438 5.623 62.6438 11.3276C62.6438 18.2724 58.9664 22.6784 51.0722 22.6784H40.9897V0.0432739ZM47.9632 16.8773H50.6905C55.0348 16.8773 55.67 13.3572 55.67 11.2308C55.67 9.80697 55.2238 5.84474 50.1827 5.84474H47.9632V16.8773Z" fill="#E62B1E"/>
<path d="M72.6647 13.956L70.5373 10.4283L68.4628 13.956H63.3531L68.2039 6.82295L63.5331 0H68.6444L70.5373 3.37263L72.4844 0H77.5943L72.9249 6.82295L77.7757 13.956H72.6647Z" fill="#E62B1E"/>
<path d="M83 0.251465H85.9337V21.8844H83V0.251465Z" fill="white"/>
<path d="M91.3049 0.251465H94.2386V21.8844H91.3049V0.251465Z" fill="white"/>
<path d="M114.556 0.251465V2.82861H107.331V21.8844H104.383V2.82861H97.1577V0.251465H114.556Z" fill="white"/>
<path d="M117.562 0.251465H127.487C129.122 0.251465 130.47 0.49201 131.53 0.973097C133.545 1.896 134.552 3.59934 134.552 6.08312C134.552 7.379 134.287 8.43929 133.756 9.26398C133.202 10.1105 132.434 10.7961 131.53 11.252C132.271 11.5256 132.924 11.9936 133.421 12.6068C133.844 13.1665 134.08 14.0746 134.128 15.3313L134.231 18.2323C134.235 18.8513 134.304 19.4682 134.435 20.0731C134.61 20.7604 134.921 21.2022 135.369 21.3984V21.8844H131.808C131.697 21.656 131.618 21.4131 131.574 21.1628C131.491 20.5969 131.442 20.0264 131.428 19.4546L131.253 15.8466C131.185 14.4329 130.664 13.4855 129.691 13.0045C129.137 12.7394 128.266 12.6068 127.079 12.6068H120.467V21.8844H117.562V0.251465ZM127.181 10.1623C128.543 10.1623 129.621 9.88742 130.414 9.33761C131.207 8.78789 131.603 7.79633 131.603 6.36293C131.603 4.82169 131.049 3.77122 129.94 3.21152C129.346 2.91697 128.553 2.7697 127.56 2.7697H120.467V10.1623H127.181Z" fill="white"/>
<path d="M145.031 0.251465H148.315L156.095 21.8844H152.913L150.738 15.4049H142.258L139.938 21.8844H136.96L145.031 0.251465ZM149.804 13.0192L146.549 3.46178L143.09 13.0192H149.804Z" fill="white"/>
<path d="M158.664 0.251465H162.823L168.983 18.5416L175.098 0.251465H179.214V21.8844H176.456V9.1167C176.456 8.67499 176.465 7.94361 176.485 6.92256C176.504 5.90158 176.514 4.8069 176.514 3.6385L170.398 21.8844H167.523L161.364 3.6385V4.30122C161.364 4.8314 161.376 5.63889 161.4 6.72369C161.424 7.80859 161.437 8.60626 161.437 9.1167V21.8844H158.664V0.251465Z" fill="white"/>
</svg>
