<svg width="1795" height="1789" viewBox="0 0 1795 1789" fill="none" xmlns="http://www.w3.org/2000/svg">
<g opacity="0.2">
<path d="M940.735 889.31L940.74 913.965L919.386 901.636L940.735 889.31Z" fill="#E62B1E"/>
<path d="M901.953 846.785L922.694 858.765L901.957 870.737L901.953 846.785Z" fill="#E62B1E"/>
<path d="M865.563 848.024L865.565 869.497L846.97 858.759L865.563 848.024Z" fill="#E62B1E"/>
<path d="M829.04 891.966L845.775 901.631L829.039 911.294L829.04 891.966Z" fill="#E62B1E"/>
<path d="M864.949 934.843L864.952 954.169L848.213 944.505L864.949 934.843Z" fill="#E62B1E"/>
<path d="M902.453 933.39L921.709 944.506L902.458 955.62L902.453 933.39Z" fill="#E62B1E"/>
<path d="M974.607 886.887L1000.15 901.641L974.604 916.391L974.607 886.887Z" fill="#E62B1E"/>
<path d="M941.457 802.309L941.459 829.476L917.929 815.893L941.457 802.309Z" fill="#E62B1E"/>
<path d="M828.085 804.58L847.67 815.889L828.09 827.193L828.085 804.58Z" fill="#E62B1E"/>
<path d="M790.192 892.836L790.196 910.416L774.974 901.623L790.192 892.836Z" fill="#E62B1E"/>
<path d="M829.572 978.615L844.741 987.373L829.572 996.131L829.572 978.615Z" fill="#E62B1E"/>
<path d="M940.703 975.123L940.705 999.643L919.471 987.382L940.703 975.123Z" fill="#E62B1E"/>
<path d="M1017.22 842.569L1017.22 874.968L989.164 858.769L1017.22 842.569Z" fill="#E62B1E"/>
<path d="M974.127 800.323L1001.1 815.895L974.124 831.469L974.127 800.323Z" fill="#E62B1E"/>
<path d="M900.592 758.69L925.407 773.021L900.592 787.348L900.592 758.69Z" fill="#E62B1E"/>
<path d="M866.832 760.08L866.831 785.951L844.426 773.016L866.832 760.08Z" fill="#E62B1E"/>
<path d="M791.125 805.465L791.127 826.301L773.084 815.881L791.125 805.465Z" fill="#E62B1E"/>
<path d="M755.077 849.59L770.942 858.753L755.076 867.913L755.077 849.59Z" fill="#E62B1E"/>
<path d="M755.833 936.638L769.445 944.497L755.833 952.356L755.833 936.638Z" fill="#E62B1E"/>
<path d="M789.663 979.513L789.664 995.231L776.051 987.372L789.663 979.513Z" fill="#E62B1E"/>
<path d="M864.759 1020.93L864.762 1039.57L848.621 1030.25L864.759 1020.93Z" fill="#E62B1E"/>
<path d="M902.533 1019.26L921.565 1030.25L902.537 1041.24L902.533 1019.26Z" fill="#E62B1E"/>
<path d="M974.442 972.339L1000.5 987.388L974.443 1002.43L974.442 972.339Z" fill="#E62B1E"/>
<path d="M1017.42 927.985L1017.42 961.037L988.793 944.509L1017.42 927.985Z" fill="#E62B1E"/>
<path d="M1094.17 880.766L1094.18 922.527L1058.02 901.641L1094.17 880.766Z" fill="#E62B1E"/>
<path d="M1046.47 839.9L1079.16 858.772L1046.48 877.642L1046.47 839.9Z" fill="#E62B1E"/>
<path d="M1017.82 755.766L1017.83 790.29L987.928 773.026L1017.82 755.766Z" fill="#E62B1E"/>
<path d="M972.895 712.46L1003.54 730.151L972.896 747.844L972.895 712.46Z" fill="#E62B1E"/>
<path d="M942.868 714.116L942.867 746.18L915.098 730.148L942.868 714.116Z" fill="#E62B1E"/>
<path d="M827.123 717.175L849.582 730.145L827.126 743.11L827.123 717.175Z" fill="#E62B1E"/>
<path d="M791.877 718.42L791.874 741.862L771.578 730.139L791.877 718.42Z" fill="#E62B1E"/>
<path d="M754.345 762.591L772.388 773.01L754.347 783.426L754.345 762.591Z" fill="#E62B1E"/>
<path d="M715.635 850.492L715.636 867.012L701.333 858.75L715.635 850.492Z" fill="#E62B1E"/>
<path d="M681.885 894.287L694.585 901.621L681.886 908.953L681.885 894.287Z" fill="#E62B1E"/>
<path d="M714.999 937.343L715 951.641L702.618 944.492L714.999 937.343Z" fill="#E62B1E"/>
<path d="M756.25 1023.09L768.634 1030.24L756.253 1037.39L756.25 1023.09Z" fill="#E62B1E"/>
<path d="M789.474 1065.6L789.473 1080.64L776.449 1073.12L789.474 1065.6Z" fill="#E62B1E"/>
<path d="M829.646 1064.49L844.597 1073.12L829.647 1081.75L829.646 1064.49Z" fill="#E62B1E"/>
<path d="M940.435 1061.34L940.436 1084.91L920.03 1073.12L940.435 1061.34Z" fill="#E62B1E"/>
<path d="M975.033 1059.1L999.334 1073.13L975.035 1087.16L975.033 1059.1Z" fill="#E62B1E"/>
<path d="M1017.15 1014.2L1017.15 1046.32L989.338 1030.25L1017.15 1014.2Z" fill="#E62B1E"/>
<path d="M1045.95 924.731L1080.22 944.517L1045.95 964.3L1045.95 924.731Z" fill="#E62B1E"/>
<path d="M1118.07 878.162L1158.74 901.649L1118.06 925.134L1118.07 878.162Z" fill="#E62B1E"/>
<path d="M1093.77 795.707L1093.78 836.099L1058.8 815.9L1093.77 795.707Z" fill="#E62B1E"/>
<path d="M1046.18 753.649L1079.74 773.032L1046.18 792.412L1046.18 753.649Z" fill="#E62B1E"/>
<path d="M1019.06 667.868L1019.07 706.695L985.441 687.281L1019.06 667.868Z" fill="#E62B1E"/>
<path d="M899.372 670.844L927.826 687.277L899.374 703.704L899.372 670.844Z" fill="#E62B1E"/>
<path d="M867.908 672.456L867.914 702.088L842.251 687.27L867.908 672.456Z" fill="#E62B1E"/>
<path d="M753.459 675.325L774.14 687.265L753.463 699.203L753.459 675.325Z" fill="#E62B1E"/>
<path d="M716.256 763.659L716.259 782.357L700.065 773.007L716.256 763.659Z" fill="#E62B1E"/>
<path d="M681.344 807.619L695.649 815.876L681.347 824.133L681.344 807.619Z" fill="#E62B1E"/>
<path d="M640.424 895.019L640.429 908.215L628.997 901.616L640.424 895.019Z" fill="#E62B1E"/>
<path d="M682.44 980.979L693.495 987.366L682.437 993.75L682.44 980.979Z" fill="#E62B1E"/>
<path d="M714.561 1023.85L714.565 1036.62L703.503 1030.24L714.561 1023.85Z" fill="#E62B1E"/>
<path d="M756.275 1108.86L768.605 1115.99L756.276 1123.11L756.275 1108.86Z" fill="#E62B1E"/>
<path d="M864.693 1106.8L864.693 1125.19L848.771 1115.99L864.693 1106.8Z" fill="#E62B1E"/>
<path d="M902.727 1105.33L921.203 1116L902.727 1126.66L902.727 1105.33Z" fill="#E62B1E"/>
<path d="M1015.78 1102.33L1015.78 1129.68L992.099 1116L1015.78 1102.33Z" fill="#E62B1E"/>
<path d="M1046.57 1011.53L1079.01 1030.26L1046.57 1048.99L1046.57 1011.53Z" fill="#E62B1E"/>
<path d="M1094.16 966.553L1094.16 1008.23L1058.07 987.391L1094.16 966.553Z" fill="#E62B1E"/>
<path d="M1170.25 834.729L1170.26 882.834L1128.6 858.778L1170.25 834.729Z" fill="#E62B1E"/>
<path d="M1118.68 793.502L1157.49 815.907L1118.69 838.31L1118.68 793.502Z" fill="#E62B1E"/>
<path d="M1093.97 709.617L1093.97 750.698L1058.39 730.155L1093.97 709.617Z" fill="#E62B1E"/>
<path d="M1045.26 666.333L1081.55 687.287L1045.26 708.237L1045.26 666.333Z" fill="#E62B1E"/>
<path d="M971.527 624.35L1006.27 644.41L971.529 664.466L971.527 624.35Z" fill="#E62B1E"/>
<path d="M944.302 625.873L944.302 662.938L912.206 644.404L944.302 625.873Z" fill="#E62B1E"/>
<path d="M826.033 629.551L851.744 644.403L826.033 659.247L826.033 629.551Z" fill="#E62B1E"/>
<path d="M792.736 631.171L792.739 657.62L769.835 644.393L792.736 631.171Z" fill="#E62B1E"/>
<path d="M717.014 676.592L717.015 697.933L698.534 687.261L717.014 676.592Z" fill="#E62B1E"/>
<path d="M680.601 720.593L697.118 730.134L680.602 739.67L680.601 720.593Z" fill="#E62B1E"/>
<path d="M640.846 808.542L640.845 823.204L628.146 815.874L640.846 808.542Z" fill="#E62B1E"/>
<path d="M608.058 852.144L619.481 858.744L608.055 865.341L608.058 852.144Z" fill="#E62B1E"/>
<path d="M608.488 938.62L618.644 944.489L608.484 950.354L608.488 938.62Z" fill="#E62B1E"/>
<path d="M639.992 981.526L639.997 993.194L629.889 987.36L639.992 981.526Z" fill="#E62B1E"/>
<path d="M682.765 1067.27L692.867 1073.11L682.764 1078.94L682.765 1067.27Z" fill="#E62B1E"/>
<path d="M714.463 1109.78L714.467 1122.18L703.724 1115.98L714.463 1109.78Z" fill="#E62B1E"/>
<path d="M789.476 1151.34L789.479 1166.38L776.455 1158.86L789.476 1151.34Z" fill="#E62B1E"/>
<path d="M829.743 1150.38L844.427 1158.87L829.746 1167.34L829.743 1150.38Z" fill="#E62B1E"/>
<path d="M939.923 1147.98L939.927 1169.76L921.065 1158.87L939.923 1147.98Z" fill="#E62B1E"/>
<path d="M976.318 1147.06L996.775 1158.87L976.321 1170.68L976.318 1147.06Z" fill="#E62B1E"/>
<path d="M1048.98 1101.45L1074.19 1116.01L1048.99 1130.56L1048.98 1101.45Z" fill="#E62B1E"/>
<path d="M1092.17 1055.75L1092.18 1090.52L1062.06 1073.13L1092.17 1055.75Z" fill="#E62B1E"/>
<path d="M1118.58 964.786L1157.73 987.396L1118.58 1010L1118.58 964.786Z" fill="#E62B1E"/>
<path d="M1170.32 920.372L1170.32 968.676L1128.49 944.523L1170.32 920.372Z" fill="#E62B1E"/>
<path d="M1245.8 875.357L1245.81 927.959L1200.26 901.653L1245.8 875.357Z" fill="#E62B1E"/>
<path d="M1190.79 832.665L1236.03 858.783L1190.79 884.899L1190.79 832.665Z" fill="#E62B1E"/>
<path d="M1169.85 749.688L1169.85 796.385L1129.41 773.035L1169.85 749.688Z" fill="#E62B1E"/>
<path d="M1118.72 707.829L1157.4 730.163L1118.72 752.496L1118.72 707.829Z" fill="#E62B1E"/>
<path d="M1095.24 621.662L1095.24 667.173L1055.83 644.412L1095.24 621.662Z" fill="#E62B1E"/>
<path d="M1043.81 578.088L1084.43 601.542L1043.82 624.99L1043.81 578.088Z" fill="#E62B1E"/>
<path d="M1020.7 579.278L1020.71 623.803L982.151 601.536L1020.7 579.278Z" fill="#E62B1E"/>
<path d="M897.897 582.56L930.751 601.534L897.898 620.502L897.897 582.56Z" fill="#E62B1E"/>
<path d="M868.913 584.968L868.911 618.085L840.231 601.528L868.913 584.968Z" fill="#E62B1E"/>
<path d="M753.013 588.811L775.024 601.52L753.014 614.228L753.013 588.811Z" fill="#E62B1E"/>
<path d="M717.445 590.09L717.446 612.95L697.653 601.517L717.445 590.09Z" fill="#E62B1E"/>
<path d="M679.924 633.688L698.456 644.392L679.927 655.089L679.924 633.688Z" fill="#E62B1E"/>
<path d="M641.479 721.683L641.482 738.574L626.855 730.126L641.479 721.683Z" fill="#E62B1E"/>
<path d="M607.519 765.48L620.542 772.996L607.517 780.516L607.519 765.48Z" fill="#E62B1E"/>
<path d="M565.733 852.908L565.737 864.572L555.63 858.741L565.733 852.908Z" fill="#E62B1E"/>
<path d="M534.563 896.326L543.721 901.61L534.566 906.896L534.563 896.326Z" fill="#E62B1E"/>
<path d="M565.424 939.198L565.423 949.776L556.269 944.484L565.424 939.198Z" fill="#E62B1E"/>
<path d="M608.925 1025.13L617.771 1030.24L608.928 1035.34L608.925 1025.13Z" fill="#E62B1E"/>
<path d="M639.664 1067.85L639.663 1078.37L630.555 1073.1L639.664 1067.85Z" fill="#E62B1E"/>
<path d="M682.868 1153.2L692.66 1158.85L682.872 1164.5L682.868 1153.2Z" fill="#E62B1E"/>
<path d="M714.363 1195.71L714.362 1207.75L703.941 1201.72L714.363 1195.71Z" fill="#E62B1E"/>
<path d="M756.388 1194.79L768.397 1201.73L756.384 1208.66L756.388 1194.79Z" fill="#E62B1E"/>
<path d="M864.392 1193.07L864.395 1210.4L849.393 1201.73L864.392 1193.07Z" fill="#E62B1E"/>
<path d="M903.347 1192.14L919.976 1201.74L903.35 1211.34L903.347 1192.14Z" fill="#E62B1E"/>
<path d="M1014.18 1190.85L1014.18 1212.63L995.316 1201.74L1014.18 1190.85Z" fill="#E62B1E"/>
<path d="M1051.12 1190.89L1069.93 1201.75L1051.12 1212.61L1051.12 1190.89Z" fill="#E62B1E"/>
<path d="M1089.35 1146.4L1089.35 1171.36L1067.73 1158.88L1089.35 1146.4Z" fill="#E62B1E"/>
<path d="M1121.4 1055.41L1152.1 1073.14L1121.4 1090.86L1121.4 1055.41Z" fill="#E62B1E"/>
<path d="M1168.39 1009.46L1168.39 1051.08L1132.35 1030.27L1168.39 1009.46Z" fill="#E62B1E"/>
<path d="M1191.38 919.41L1234.88 944.526L1191.38 969.637L1191.38 919.41Z" fill="#E62B1E"/>
<path d="M1264.71 874.961L1310.95 901.659L1264.71 928.357L1264.71 874.961Z" fill="#E62B1E"/>
<path d="M1246.14 789.031L1246.14 842.793L1199.58 815.909L1246.14 789.031Z" fill="#E62B1E"/>
<path d="M1191.2 747.634L1235.2 773.043L1191.2 798.442L1191.2 747.634Z" fill="#E62B1E"/>
<path d="M1169.92 663.797L1169.92 710.782L1129.24 687.286L1169.92 663.797Z" fill="#E62B1E"/>
<path d="M1117.66 620.258L1159.5 644.419L1117.66 668.578L1117.66 620.258Z" fill="#E62B1E"/>
<path d="M1097.05 532.769L1097.06 584.573L1052.19 558.669L1097.05 532.769Z" fill="#E62B1E"/>
<path d="M969.844 535.705L1009.61 558.663L969.845 581.619L969.844 535.705Z" fill="#E62B1E"/>
<path d="M945.591 537.886L945.595 579.435L909.612 558.659L945.591 537.886Z" fill="#E62B1E"/>
<path d="M825.572 543.018L852.649 558.652L825.573 574.284L825.572 543.018Z" fill="#E62B1E"/>
<path d="M792.938 545.07L792.941 572.231L769.417 558.65L792.938 545.07Z" fill="#E62B1E"/>
<path d="M680.041 548.165L698.196 558.647L680.045 569.127L680.041 548.165Z" fill="#E62B1E"/>
<path d="M642.143 634.783L642.145 653.986L625.516 644.382L642.143 634.783Z" fill="#E62B1E"/>
<path d="M606.871 678.626L621.82 687.256L606.87 695.887L606.871 678.626Z" fill="#E62B1E"/>
<path d="M566.166 766.401L566.17 779.593L554.74 772.998L566.166 766.401Z" fill="#E62B1E"/>
<path d="M534.247 810.03L544.346 815.865L534.243 821.698L534.247 810.03Z" fill="#E62B1E"/>
<path d="M490.84 896.889L490.837 906.321L482.672 901.605L490.84 896.889Z" fill="#E62B1E"/>
<path d="M534.884 982.611L543.099 987.355L534.885 992.098L534.884 982.611Z" fill="#E62B1E"/>
<path d="M565.101 1025.51L565.099 1034.95L556.933 1030.23L565.101 1025.51Z" fill="#E62B1E"/>
<path d="M609.142 1111.23L617.359 1115.98L609.145 1120.72L609.142 1111.23Z" fill="#E62B1E"/>
<path d="M639.568 1153.77L639.569 1163.93L630.774 1158.85L639.568 1153.77Z" fill="#E62B1E"/>
<path d="M682.982 1239.13L692.456 1244.6L682.982 1250.07L682.982 1239.13Z" fill="#E62B1E"/>
<path d="M789.165 1237.64L789.167 1251.56L777.102 1244.6L789.165 1237.64Z" fill="#E62B1E"/>
<path d="M830.198 1236.9L843.537 1244.6L830.197 1252.31L830.198 1236.9Z" fill="#E62B1E"/>
<path d="M939.06 1235.23L939.059 1253.99L922.813 1244.61L939.06 1235.23Z" fill="#E62B1E"/>
<path d="M977.494 1234.83L994.447 1244.62L977.495 1254.4L977.494 1234.83Z" fill="#E62B1E"/>
<path d="M1087.54 1235.28L1087.54 1253.98L1071.35 1244.63L1087.54 1235.28Z" fill="#E62B1E"/>
<path d="M1124.68 1146.81L1145.58 1158.88L1124.68 1170.95L1124.68 1146.81Z" fill="#E62B1E"/>
<path d="M1164.73 1101.55L1164.74 1130.47L1139.7 1116.01L1164.73 1101.55Z" fill="#E62B1E"/>
<path d="M1194.03 1009.73L1229.59 1030.28L1194.03 1050.81L1194.03 1009.73Z" fill="#E62B1E"/>
<path d="M1243.96 964.301L1243.97 1010.5L1203.96 987.396L1243.96 964.301Z" fill="#E62B1E"/>
<path d="M1321.47 830.046L1321.47 887.534L1271.68 858.788L1321.47 830.046Z" fill="#E62B1E"/>
<path d="M1263.14 786.501L1314.08 815.92L1263.14 845.326L1263.14 786.501Z" fill="#E62B1E"/>
<path d="M1245.86 703.76L1245.86 756.577L1200.12 730.166L1245.86 703.76Z" fill="#E62B1E"/>
<path d="M1191.24 661.959L1235.11 687.297L1191.23 712.63L1191.24 661.959Z" fill="#E62B1E"/>
<path d="M1171.47 575.356L1171.48 627.743L1126.11 601.545L1171.47 575.356Z" fill="#E62B1E"/>
<path d="M1115.96 531.571L1162.89 558.678L1115.96 585.77L1115.96 531.571Z" fill="#E62B1E"/>
<path d="M1042.23 489.608L1087.59 515.797L1042.23 541.985L1042.23 489.608Z" fill="#E62B1E"/>
<path d="M1021.81 491.603L1021.81 539.984L979.916 515.791L1021.81 491.603Z" fill="#E62B1E"/>
<path d="M897.74 496.549L931.058 515.788L897.738 535.025L897.74 496.549Z" fill="#E62B1E"/>
<path d="M868.886 499.259L868.884 532.31L840.264 515.783L868.886 499.259Z" fill="#E62B1E"/>
<path d="M753.47 503.865L774.095 515.775L753.472 527.682L753.47 503.865Z" fill="#E62B1E"/>
<path d="M716.764 505.518L716.765 526.033L698.999 515.775L716.764 505.518Z" fill="#E62B1E"/>
<path d="M641.9 549.448L641.901 567.831L625.981 558.639L641.9 549.448Z" fill="#E62B1E"/>
<path d="M606.65 592.505L622.245 601.512L606.648 610.517L606.65 592.505Z" fill="#E62B1E"/>
<path d="M566.696 679.733L566.696 694.772L553.671 687.253L566.696 679.733Z" fill="#E62B1E"/>
<path d="M533.799 723.525L545.222 730.125L533.796 736.722L533.799 723.525Z" fill="#E62B1E"/>
<path d="M491.057 810.76L491.058 820.973L482.213 815.866L491.057 810.76Z" fill="#E62B1E"/>
<path d="M460.726 854.17L468.63 858.734L460.728 863.297L460.726 854.17Z" fill="#E62B1E"/>
<path d="M460.959 940.302L468.188 944.474L460.961 948.646L460.959 940.302Z" fill="#E62B1E"/>
<path d="M490.547 983.15L490.548 991.551L483.27 987.351L490.547 983.15Z" fill="#E62B1E"/>
<path d="M535.22 1068.92L542.449 1073.1L535.222 1077.27L535.22 1068.92Z" fill="#E62B1E"/>
<path d="M564.807 1111.77L564.808 1120.17L557.53 1115.97L564.807 1111.77Z" fill="#E62B1E"/>
<path d="M609.255 1197.16L617.153 1201.72L609.254 1206.28L609.255 1197.16Z" fill="#E62B1E"/>
<path d="M639.38 1239.85L639.38 1249.34L631.166 1244.59L639.38 1239.85Z" fill="#E62B1E"/>
<path d="M714.05 1282L714.052 1292.94L704.576 1287.47L714.05 1282Z" fill="#E62B1E"/>
<path d="M756.919 1281.46L767.346 1287.48L756.925 1293.49L756.919 1281.46Z" fill="#E62B1E"/>
<path d="M863.737 1279.96L863.74 1295L850.715 1287.48L863.737 1279.96Z" fill="#E62B1E"/>
<path d="M904.128 1279.22L918.431 1287.49L904.129 1295.74L904.128 1279.22Z" fill="#E62B1E"/>
<path d="M1012.99 1278.67L1012.99 1296.31L997.714 1287.49L1012.99 1278.67Z" fill="#E62B1E"/>
<path d="M1052.41 1278.86L1067.37 1287.49L1052.41 1296.12L1052.41 1278.86Z" fill="#E62B1E"/>
<path d="M1126.37 1235.5L1142.19 1244.62L1126.37 1253.76L1126.37 1235.5Z" fill="#E62B1E"/>
<path d="M1162.28 1191.56L1162.29 1211.96L1144.62 1201.75L1162.28 1191.56Z" fill="#E62B1E"/>
<path d="M1197.69 1101.81L1222.28 1116.02L1197.7 1130.21L1197.69 1101.81Z" fill="#E62B1E"/>
<path d="M1240.35 1056.32L1240.35 1089.97L1211.21 1073.14L1240.35 1056.32Z" fill="#E62B1E"/>
<path d="M1267.3 965.175L1305.8 987.406L1267.3 1009.63L1267.3 965.175Z" fill="#E62B1E"/>
<path d="M1318.99 920.093L1318.99 968.977L1276.66 944.532L1318.99 920.093Z" fill="#E62B1E"/>
<path d="M1394.52 875.006L1394.52 928.329L1348.34 901.665L1394.52 875.006Z" fill="#E62B1E"/>
<path d="M1337.43 829.451L1388.25 858.794L1337.44 888.129L1337.43 829.451Z" fill="#E62B1E"/>
<path d="M1322.54 742.44L1322.54 803.652L1269.53 773.043L1322.54 742.44Z" fill="#E62B1E"/>
<path d="M1263.43 701.278L1313.47 730.175L1263.43 759.067L1263.43 701.278Z" fill="#E62B1E"/>
<path d="M1245.92 617.906L1245.92 670.947L1199.99 644.424L1245.92 617.906Z" fill="#E62B1E"/>
<path d="M1189.93 573.972L1237.69 601.553L1189.94 629.125L1189.93 573.972Z" fill="#E62B1E"/>
<path d="M1173.09 486.806L1173.09 544.805L1122.86 515.805L1173.09 486.806Z" fill="#E62B1E"/>
<path d="M1115.17 444.48L1164.44 472.929L1115.17 501.375L1115.17 444.48Z" fill="#E62B1E"/>
<path d="M1097.34 446.521L1097.34 499.333L1051.61 472.923L1097.34 446.521Z" fill="#E62B1E"/>
<path d="M970.381 450.907L1008.51 472.919L970.382 494.934L970.381 450.907Z" fill="#E62B1E"/>
<path d="M944.795 453.508L944.798 492.326L911.182 472.915L944.795 453.508Z" fill="#E62B1E"/>
<path d="M826.673 459.2L850.419 472.912L826.676 486.621L826.673 459.2Z" fill="#E62B1E"/>
<path d="M791.838 461.217L791.841 484.594L771.593 472.905L791.838 461.217Z" fill="#E62B1E"/>
<path d="M681.016 464.11L696.242 472.901L681.017 481.691L681.016 464.11Z" fill="#E62B1E"/>
<path d="M641.02 465.223L641.017 480.57L627.729 472.896L641.02 465.223Z" fill="#E62B1E"/>
<path d="M607.394 508.063L620.737 515.766L607.397 523.468L607.394 508.063Z" fill="#E62B1E"/>
<path d="M566.793 593.807L566.793 609.214L553.45 601.51L566.793 593.807Z" fill="#E62B1E"/>
<path d="M533.474 637.229L545.854 644.375L533.473 651.524L533.474 637.229Z" fill="#E62B1E"/>
<path d="M491.471 724.282L491.477 735.95L481.368 730.116L491.471 724.282Z" fill="#E62B1E"/>
<path d="M460.407 767.885L469.251 772.992L460.407 778.098L460.407 767.885Z" fill="#E62B1E"/>
<path d="M416.167 854.739L416.167 862.72L409.255 858.729L416.167 854.739Z" fill="#E62B1E"/>
<path d="M387.12 898.148L393.103 901.6L387.121 905.054L387.12 898.148Z" fill="#E62B1E"/>
<path d="M415.966 940.839L415.965 948.109L409.672 944.472L415.966 940.839Z" fill="#E62B1E"/>
<path d="M461.173 1026.41L467.778 1030.22L461.174 1034.03L461.173 1026.41Z" fill="#E62B1E"/>
<path d="M490.331 1069.28L490.33 1076.91L483.726 1073.1L490.331 1069.28Z" fill="#E62B1E"/>
<path d="M535.433 1155.03L542.038 1158.84L535.434 1162.65L535.433 1155.03Z" fill="#E62B1E"/>
<path d="M564.695 1197.72L564.693 1205.71L557.779 1201.72L564.695 1197.72Z" fill="#E62B1E"/>
<path d="M609.484 1283.29L616.711 1287.46L609.483 1291.63L609.484 1283.29Z" fill="#E62B1E"/>
<path d="M639.055 1326.16L639.053 1334.51L631.828 1330.34L639.055 1326.16Z" fill="#E62B1E"/>
<path d="M683.425 1325.62L691.587 1330.34L683.426 1335.05L683.425 1325.62Z" fill="#E62B1E"/>
<path d="M788.516 1324.51L788.515 1336.18L778.413 1330.34L788.516 1324.51Z" fill="#E62B1E"/>
<path d="M830.967 1323.96L842.022 1330.35L830.964 1336.73L830.967 1323.96Z" fill="#E62B1E"/>
<path d="M937.994 1322.84L937.992 1337.88L924.969 1330.36L937.994 1322.84Z" fill="#E62B1E"/>
<path d="M978.7 1322.66L992.046 1330.36L978.702 1338.07L978.7 1322.66Z" fill="#E62B1E"/>
<path d="M1086.58 1322.69L1086.58 1338.04L1073.29 1330.37L1086.58 1322.69Z" fill="#E62B1E"/>
<path d="M1127.31 1322.85L1140.33 1330.37L1127.32 1337.89L1127.31 1322.85Z" fill="#E62B1E"/>
<path d="M1161.15 1279.27L1161.15 1295.73L1146.9 1287.5L1161.15 1279.27Z" fill="#E62B1E"/>
<path d="M1200.01 1191.56L1217.67 1201.76L1200.01 1211.96L1200.01 1191.56Z" fill="#E62B1E"/>
<path d="M1237.56 1146.91L1237.56 1170.87L1216.81 1158.89L1237.56 1146.91Z" fill="#E62B1E"/>
<path d="M1270.54 1056.52L1299.34 1073.15L1270.54 1089.78L1270.54 1056.52Z" fill="#E62B1E"/>
<path d="M1315.91 1011.17L1315.92 1049.39L1282.82 1030.27L1315.91 1011.17Z" fill="#E62B1E"/>
<path d="M1340.51 920.516L1382.11 944.542L1340.52 968.554L1340.51 920.516Z" fill="#E62B1E"/>
<path d="M1413.58 875.62L1458.7 901.67L1413.59 927.716L1413.58 875.62Z" fill="#E62B1E"/>
<path d="M1397.4 784.259L1397.4 847.588L1342.56 815.92L1397.4 784.259Z" fill="#E62B1E"/>
<path d="M1335.47 740.318L1392.16 773.05L1335.47 805.781L1335.47 740.318Z" fill="#E62B1E"/>
<path d="M1321.86 657.849L1321.87 716.758L1270.86 687.298L1321.86 657.849Z" fill="#E62B1E"/>
<path d="M1263.98 616.49L1312.37 644.429L1263.98 672.368L1263.98 616.49Z" fill="#E62B1E"/>
<path d="M1247.34 529.675L1247.35 587.69L1197.11 558.679L1247.34 529.675Z" fill="#E62B1E"/>
<path d="M1188.69 486.095L1240.15 515.81L1188.7 545.518L1188.69 486.095Z" fill="#E62B1E"/>
<path d="M1172 402.925L1172.01 457.193L1125.01 430.056L1172 402.925Z" fill="#E62B1E"/>
<path d="M1043.72 406.459L1084.58 430.056L1043.73 453.641L1043.72 406.459Z" fill="#E62B1E"/>
<path d="M1019.97 409.034L1019.98 451.064L983.578 430.046L1019.97 409.034Z" fill="#E62B1E"/>
<path d="M899.755 414.308L927.008 430.043L899.759 445.776L899.755 414.308Z" fill="#E62B1E"/>
<path d="M867.011 416.749L867.016 443.334L843.992 430.039L867.011 416.749Z" fill="#E62B1E"/>
<path d="M754.649 420.177L771.716 430.033L754.651 439.885L754.649 420.177Z" fill="#E62B1E"/>
<path d="M715.801 421.425L715.806 438.631L700.901 430.028L715.801 421.425Z" fill="#E62B1E"/>
<path d="M607.937 423.275L619.631 430.025L607.939 436.775L607.937 423.275Z" fill="#E62B1E"/>
<path d="M566.149 509.167L566.152 522.359L554.726 515.762L566.149 509.167Z" fill="#E62B1E"/>
<path d="M533.782 552.034L545.211 558.635L533.788 565.23L533.782 552.034Z" fill="#E62B1E"/>
<path d="M491.678 638.174L491.682 650.574L480.938 644.375L491.678 638.174Z" fill="#E62B1E"/>
<path d="M460.092 681.592L469.875 687.247L460.091 692.896L460.092 681.592Z" fill="#E62B1E"/>
<path d="M416.474 768.454L416.474 777.521L408.625 772.986L416.474 768.454Z" fill="#E62B1E"/>
<path d="M386.892 812.013L393.549 815.855L386.895 819.696L386.892 812.013Z" fill="#E62B1E"/>
<path d="M341.299 898.681L341.3 904.516L336.248 901.597L341.299 898.681Z" fill="#E62B1E"/>
<path d="M387.248 984.101L392.868 987.348L387.25 990.591L387.248 984.101Z" fill="#E62B1E"/>
<path d="M415.765 1026.94L415.763 1033.49L410.091 1030.22L415.765 1026.94Z" fill="#E62B1E"/>
<path d="M461.489 1112.69L467.161 1115.96L461.487 1119.24L461.489 1112.69Z" fill="#E62B1E"/>
<path d="M490.024 1155.56L490.025 1162.11L484.35 1158.84L490.024 1155.56Z" fill="#E62B1E"/>
<path d="M535.644 1241.13L541.627 1244.58L535.646 1248.04L535.644 1241.13Z" fill="#E62B1E"/>
<path d="M564.472 1283.86L564.472 1291.06L558.232 1287.46L564.472 1283.86Z" fill="#E62B1E"/>
<path d="M609.922 1369.78L615.853 1373.21L609.924 1376.63L609.922 1369.78Z" fill="#E62B1E"/>
<path d="M713.426 1368.83L713.431 1377.6L705.838 1373.21L713.426 1368.83Z" fill="#E62B1E"/>
<path d="M757.556 1368.29L766.089 1373.22L757.557 1378.14L757.556 1368.29Z" fill="#E62B1E"/>
<path d="M862.77 1367.39L862.778 1379.06L852.667 1373.22L862.77 1367.39Z" fill="#E62B1E"/>
<path d="M905.306 1366.99L916.1 1373.23L905.307 1379.46L905.306 1366.99Z" fill="#E62B1E"/>
<path d="M1011.82 1366.45L1011.82 1380.01L1000.08 1373.23L1011.82 1366.45Z" fill="#E62B1E"/>
<path d="M1053.4 1366.3L1065.41 1373.24L1053.4 1380.17L1053.4 1366.3Z" fill="#E62B1E"/>
<path d="M1160.53 1366.1L1160.53 1380.39L1148.15 1373.24L1160.53 1366.1Z" fill="#E62B1E"/>
<path d="M1200.95 1278.93L1215.8 1287.5L1200.95 1296.08L1200.95 1278.93Z" fill="#E62B1E"/>
<path d="M1236.11 1235.16L1236.12 1254.11L1219.7 1244.63L1236.11 1235.16Z" fill="#E62B1E"/>
<path d="M1273.12 1146.72L1294.19 1158.89L1273.12 1171.06L1273.12 1146.72Z" fill="#E62B1E"/>
<path d="M1313.18 1101.66L1313.18 1130.38L1288.31 1116.02L1313.18 1101.66Z" fill="#E62B1E"/>
<path d="M1343.25 1011L1376.64 1030.29L1343.26 1049.56L1343.25 1011Z" fill="#E62B1E"/>
<path d="M1391.52 965.947L1391.53 1008.88L1354.35 987.409L1391.52 965.947Z" fill="#E62B1E"/>
<path d="M1469.69 830.533L1469.7 887.068L1420.74 858.797L1469.69 830.533Z" fill="#E62B1E"/>
<path d="M1410.49 784.521L1464.88 815.929L1410.49 847.326L1410.49 784.521Z" fill="#E62B1E"/>
<path d="M1398.34 696.872L1398.35 763.491L1340.66 730.177L1398.34 696.872Z" fill="#E62B1E"/>
<path d="M1336.17 655.786L1390.75 687.31L1336.17 718.821L1336.17 655.786Z" fill="#E62B1E"/>
<path d="M1321.17 573.287L1321.18 629.831L1272.21 601.556L1321.17 573.287Z" fill="#E62B1E"/>
<path d="M1263.18 529.375L1313.94 558.687L1263.18 587.993L1263.18 529.375Z" fill="#E62B1E"/>
<path d="M1247.85 443.04L1247.86 502.832L1196.08 472.93L1247.85 443.04Z" fill="#E62B1E"/>
<path d="M1189.4 401.574L1238.73 430.065L1189.4 458.55L1189.4 401.574Z" fill="#E62B1E"/>
<path d="M1117.68 363.102L1159.4 387.19L1117.69 411.274L1117.68 363.102Z" fill="#E62B1E"/>
<path d="M1094.86 365.062L1094.86 409.302L1056.55 387.181L1094.86 365.062Z" fill="#E62B1E"/>
<path d="M973.236 370.114L1002.78 387.182L973.244 404.235L973.236 370.114Z" fill="#E62B1E"/>
<path d="M942.008 372.581L942.008 401.763L916.74 387.17L942.008 372.581Z" fill="#E62B1E"/>
<path d="M828.28 376.242L847.201 387.169L828.279 398.094L828.28 376.242Z" fill="#E62B1E"/>
<path d="M790.645 377.53L790.648 396.799L773.962 387.162L790.645 377.53Z" fill="#E62B1E"/>
<path d="M681.638 379.45L694.978 387.156L681.638 394.857L681.638 379.45Z" fill="#E62B1E"/>
<path d="M640.603 380.187L640.604 394.117L628.544 387.149L640.603 380.187Z" fill="#E62B1E"/>
<path d="M565.811 424.005L565.809 436.035L555.39 430.022L565.811 424.005Z" fill="#E62B1E"/>
<path d="M534.22 467.053L544.325 472.89L534.219 478.725L534.22 467.053Z" fill="#E62B1E"/>
<path d="M491.358 552.978L491.357 564.282L481.567 558.632L491.358 552.978Z" fill="#E62B1E"/>
<path d="M460.19 596.028L469.666 601.502L460.192 606.971L460.19 596.028Z" fill="#E62B1E"/>
<path d="M416.677 682.345L416.678 692.142L408.198 687.241L416.677 682.345Z" fill="#E62B1E"/>
<path d="M386.59 725.76L394.132 730.114L386.594 734.466L386.59 725.76Z" fill="#E62B1E"/>
<path d="M341.501 812.58L341.498 819.126L335.831 815.854L341.501 812.58Z" fill="#E62B1E"/>
<path d="M313.193 855.836L318.194 858.723L313.192 861.611L313.193 855.836Z" fill="#E62B1E"/>
<path d="M313.409 941.937L317.789 944.465L313.409 946.994L313.409 941.937Z" fill="#E62B1E"/>
<path d="M341.186 984.631L341.188 990.05L336.496 987.339L341.186 984.631Z" fill="#E62B1E"/>
<path d="M387.463 1070.2L392.46 1073.09L387.462 1075.98L387.463 1070.2Z" fill="#E62B1E"/>
<path d="M415.546 1113.08L415.549 1118.85L410.548 1115.96L415.546 1113.08Z" fill="#E62B1E"/>
<path d="M461.72 1198.82L466.717 1201.71L461.719 1204.59L461.72 1198.82Z" fill="#E62B1E"/>
<path d="M489.804 1241.7L489.807 1247.47L484.805 1244.58L489.804 1241.7Z" fill="#E62B1E"/>
<path d="M535.964 1327.41L541.016 1330.33L535.965 1333.25L535.964 1327.41Z" fill="#E62B1E"/>
<path d="M564.064 1370.32L564.066 1376.09L559.065 1373.2L564.064 1370.32Z" fill="#E62B1E"/>
<path d="M638.425 1413.02L638.422 1419.15L633.115 1416.08L638.425 1413.02Z" fill="#E62B1E"/>
<path d="M684.055 1412.45L690.349 1416.08L684.056 1419.72L684.055 1412.45Z" fill="#E62B1E"/>
<path d="M787.769 1411.55L787.771 1420.63L779.92 1416.09L787.769 1411.55Z" fill="#E62B1E"/>
<path d="M831.826 1411.2L840.306 1416.09L831.826 1420.99L831.826 1411.2Z" fill="#E62B1E"/>
<path d="M936.814 1410.63L936.817 1421.57L927.341 1416.1L936.814 1410.63Z" fill="#E62B1E"/>
<path d="M979.788 1410.27L989.899 1416.11L979.789 1421.94L979.788 1410.27Z" fill="#E62B1E"/>
<path d="M1085.76 1409.88L1085.76 1422.34L1074.97 1416.11L1085.76 1409.88Z" fill="#E62B1E"/>
<path d="M1127.87 1409.55L1139.24 1416.11L1127.87 1422.68L1127.87 1409.55Z" fill="#E62B1E"/>
<path d="M1201.58 1365.76L1214.55 1373.25L1201.58 1380.74L1201.58 1365.76Z" fill="#E62B1E"/>
<path d="M1235.4 1322.15L1235.41 1338.61L1221.15 1330.38L1235.4 1322.15Z" fill="#E62B1E"/>
<path d="M1274.36 1234.62L1291.71 1244.64L1274.37 1254.65L1274.36 1234.62Z" fill="#E62B1E"/>
<path d="M1311.31 1190.65L1311.31 1212.88L1292.06 1201.77L1311.31 1190.65Z" fill="#E62B1E"/>
<path d="M1345.76 1101.08L1371.65 1116.03L1345.76 1130.97L1345.76 1101.08Z" fill="#E62B1E"/>
<path d="M1389.17 1055.76L1389.18 1090.55L1359.06 1073.15L1389.17 1055.76Z" fill="#E62B1E"/>
<path d="M1416.12 965.74L1453.65 987.415L1416.12 1009.08L1416.12 965.74Z" fill="#E62B1E"/>
<path d="M1466.79 921.302L1466.8 967.785L1426.54 944.541L1466.79 921.302Z" fill="#E62B1E"/>
<path d="M1540.88 878.713L1540.89 924.643L1501.11 901.673L1540.88 878.713Z" fill="#E62B1E"/>
<path d="M1487.89 832.855L1532.83 858.802L1487.9 884.742L1487.89 832.855Z" fill="#E62B1E"/>
<path d="M1472.07 740.667L1472.07 805.449L1415.97 773.055L1472.07 740.667Z" fill="#E62B1E"/>
<path d="M1409.16 696.481L1467.52 730.182L1409.16 763.877L1409.16 696.481Z" fill="#E62B1E"/>
<path d="M1396.74 613.897L1396.74 674.973L1343.85 644.433L1396.74 613.897Z" fill="#E62B1E"/>
<path d="M1337.84 572.954L1387.38 601.563L1337.84 630.164L1337.84 572.954Z" fill="#E62B1E"/>
<path d="M1321.51 486.951L1321.51 544.677L1271.53 515.811L1321.51 486.951Z" fill="#E62B1E"/>
<path d="M1263.28 443.815L1313.72 472.945L1263.29 502.063L1263.28 443.815Z" fill="#E62B1E"/>
<path d="M1245.44 361.465L1245.45 412.925L1200.88 387.191L1245.44 361.465Z" fill="#E62B1E"/>
<path d="M1192.7 321.562L1232.1 344.323L1192.7 367.073L1192.7 321.562Z" fill="#E62B1E"/>
<path d="M1168.95 322.469L1168.95 366.161L1131.11 344.317L1168.95 322.469Z" fill="#E62B1E"/>
<path d="M1046.85 326.147L1078.31 344.313L1046.85 362.476L1046.85 326.147Z" fill="#E62B1E"/>
<path d="M1017.01 328.409L1017.02 360.206L989.477 344.307L1017.01 328.409Z" fill="#E62B1E"/>
<path d="M901.806 332.131L922.882 344.299L901.81 356.466L901.806 332.131Z" fill="#E62B1E"/>
<path d="M865.53 333.559L865.532 355.031L846.937 344.294L865.53 333.559Z" fill="#E62B1E"/>
<path d="M755.256 335.499L770.478 344.292L755.26 353.078L755.256 335.499Z" fill="#E62B1E"/>
<path d="M715.476 336.243L715.478 352.332L701.545 344.285L715.476 336.243Z" fill="#E62B1E"/>
<path d="M607.931 337.526L619.625 344.276L607.93 351.028L607.931 337.526Z" fill="#E62B1E"/>
<path d="M565.928 338.044L565.927 350.508L555.135 344.275L565.928 338.044Z" fill="#E62B1E"/>
<path d="M534.215 381.313L544.321 387.144L534.215 392.979L534.215 381.313Z" fill="#E62B1E"/>
<path d="M491.018 467.81L491.019 477.966L482.227 472.885L491.018 467.81Z" fill="#E62B1E"/>
<path d="M460.516 510.861L468.992 515.756L460.517 520.649L460.516 510.861Z" fill="#E62B1E"/>
<path d="M416.567 596.782L416.571 606.21L408.402 601.496L416.567 596.782Z" fill="#E62B1E"/>
<path d="M386.563 639.984L394.16 644.368L386.568 648.751L386.563 639.984Z" fill="#E62B1E"/>
<path d="M341.7 726.477L341.701 733.741L335.41 730.108L341.7 726.477Z" fill="#E62B1E"/>
<path d="M313.066 769.884L318.43 772.981L313.07 776.075L313.066 769.884Z" fill="#E62B1E"/>
<path d="M266.719 856.369L266.721 861.071L262.647 858.72L266.719 856.369Z" fill="#E62B1E"/>
<path d="M239.466 899.592L242.921 901.589L239.461 903.586L239.466 899.592Z" fill="#E62B1E"/>
<path d="M266.623 942.291L266.628 946.638L262.859 944.464L266.623 942.291Z" fill="#E62B1E"/>
<path d="M313.519 1027.86L317.59 1030.21L313.515 1032.57L313.519 1027.86Z" fill="#E62B1E"/>
<path d="M340.986 1070.74L340.988 1075.44L336.911 1073.09L340.986 1070.74Z" fill="#E62B1E"/>
<path d="M387.777 1156.48L391.848 1158.83L387.772 1161.19L387.777 1156.48Z" fill="#E62B1E"/>
<path d="M415.243 1199.35L415.245 1204.06L411.168 1201.71L415.243 1199.35Z" fill="#E62B1E"/>
<path d="M462.037 1285.1L466.107 1287.46L462.032 1289.81L462.037 1285.1Z" fill="#E62B1E"/>
<path d="M489.503 1327.98L489.506 1332.68L485.428 1330.33L489.503 1327.98Z" fill="#E62B1E"/>
<path d="M536.402 1413.9L540.161 1416.07L536.397 1418.25L536.402 1413.9Z" fill="#E62B1E"/>
<path d="M563.559 1456.95L563.561 1460.94L560.099 1458.95L563.559 1456.95Z" fill="#E62B1E"/>
<path d="M610.549 1456.6L614.619 1458.95L610.548 1461.3L610.549 1456.6Z" fill="#E62B1E"/>
<path d="M712.78 1455.71L712.779 1462.2L707.159 1458.96L712.78 1455.71Z" fill="#E62B1E"/>
<path d="M758.31 1455.33L764.6 1458.96L758.311 1462.59L758.31 1455.33Z" fill="#E62B1E"/>
<path d="M861.831 1454.76L861.831 1463.17L854.554 1458.97L861.831 1454.76Z" fill="#E62B1E"/>
<path d="M906.295 1454.44L914.144 1458.97L906.291 1463.5L906.295 1454.44Z" fill="#E62B1E"/>
<path d="M1010.86 1453.87L1010.86 1464.08L1002.02 1458.98L1010.86 1453.87Z" fill="#E62B1E"/>
<path d="M1054.25 1453.51L1063.73 1458.98L1054.25 1464.45L1054.25 1453.51Z" fill="#E62B1E"/>
<path d="M1160.01 1452.76L1160.01 1465.22L1149.22 1458.99L1160.01 1452.76Z" fill="#E62B1E"/>
<path d="M1202.12 1452.42L1213.5 1458.99L1202.12 1465.56L1202.12 1452.42Z" fill="#E62B1E"/>
<path d="M1234.68 1409.16L1234.68 1423.09L1222.62 1416.12L1234.68 1409.16Z" fill="#E62B1E"/>
<path d="M1275.29 1321.96L1289.87 1330.38L1275.29 1338.8L1275.29 1321.96Z" fill="#E62B1E"/>
<path d="M1310.28 1278.19L1310.28 1296.83L1294.14 1287.51L1310.28 1278.19Z" fill="#E62B1E"/>
<path d="M1347.67 1190.11L1367.85 1201.77L1347.67 1213.42L1347.67 1190.11Z" fill="#E62B1E"/>
<path d="M1386.91 1145.45L1386.91 1172.36L1363.61 1158.9L1386.91 1145.45Z" fill="#E62B1E"/>
<path d="M1418.35 1055.33L1449.22 1073.16L1418.35 1090.99L1418.35 1055.33Z" fill="#E62B1E"/>
<path d="M1464.9 1010.34L1464.91 1050.24L1430.34 1030.29L1464.9 1010.34Z" fill="#E62B1E"/>
<path d="M1489.93 922.109L1528.79 944.55L1489.93 966.985L1489.93 922.109Z" fill="#E62B1E"/>
<path d="M1565.05 880.761L1601.28 901.681L1565.05 922.597L1565.05 880.761Z" fill="#E62B1E"/>
<path d="M1542.89 789.484L1542.89 842.384L1497.08 815.931L1542.89 789.484Z" fill="#E62B1E"/>
<path d="M1485.58 743.12L1537.44 773.06L1485.58 802.997L1485.58 743.12Z" fill="#E62B1E"/>
<path d="M1472.22 654.652L1472.22 719.978L1415.65 687.312L1472.22 654.652Z" fill="#E62B1E"/>
<path d="M1410.65 613.33L1464.53 644.437L1410.65 675.541L1410.65 613.33Z" fill="#E62B1E"/>
<path d="M1395.07 531.035L1395.07 586.349L1347.17 558.687L1395.07 531.035Z" fill="#E62B1E"/>
<path d="M1338.23 487.907L1386.58 515.823L1338.24 543.73L1338.23 487.907Z" fill="#E62B1E"/>
<path d="M1320.8 402.419L1320.81 457.72L1272.92 430.067L1320.8 402.419Z" fill="#E62B1E"/>
<path d="M1265.17 361.358L1309.92 387.196L1265.17 413.032L1265.17 361.358Z" fill="#E62B1E"/>
<path d="M1242.2 281.318L1242.21 321.58L1207.34 301.446L1242.2 281.318Z" fill="#E62B1E"/>
<path d="M1120.81 282.769L1153.14 301.445L1120.81 320.11L1120.81 282.769Z" fill="#E62B1E"/>
<path d="M1092.01 284.243L1092.01 318.632L1062.23 301.434L1092.01 284.243Z" fill="#E62B1E"/>
<path d="M975.111 287.619L999.027 301.431L975.11 315.24L975.111 287.619Z" fill="#E62B1E"/>
<path d="M940.602 289.259L940.607 313.598L919.529 301.425L940.602 289.259Z" fill="#E62B1E"/>
<path d="M828.893 291.569L845.956 301.418L828.891 311.27L828.893 291.569Z" fill="#E62B1E"/>
<path d="M790.352 292.286L790.355 310.55L774.536 301.418L790.352 292.286Z" fill="#E62B1E"/>
<path d="M681.738 293.89L694.764 301.413L681.739 308.933L681.738 293.89Z" fill="#E62B1E"/>
<path d="M640.603 294.444L640.602 308.371L628.54 301.408L640.603 294.444Z" fill="#E62B1E"/>
<path d="M491.133 381.854L491.138 392.432L481.975 387.141L491.133 381.854Z" fill="#E62B1E"/>
<path d="M460.594 425.27L468.809 430.014L460.595 434.756L460.594 425.27Z" fill="#E62B1E"/>
<path d="M416.248 511.577L416.252 519.925L409.021 515.75L416.248 511.577Z" fill="#E62B1E"/>
<path d="M386.791 554.629L393.702 558.625L386.79 562.616L386.791 554.629Z" fill="#E62B1E"/>
<path d="M341.692 640.733L341.693 647.997L335.402 644.364L341.692 640.733Z" fill="#E62B1E"/>
<path d="M312.979 683.992L318.597 687.235L312.976 690.481L312.979 683.992Z" fill="#E62B1E"/>
<path d="M266.815 770.443L266.819 775.507L262.435 772.972L266.815 770.443Z" fill="#E62B1E"/>
<path d="M239.354 813.672L243.119 815.848L239.355 818.021L239.354 813.672Z" fill="#E62B1E"/>
<path d="M192.061 899.944L192.057 903.229L189.217 901.586L192.061 899.944Z" fill="#E62B1E"/>
<path d="M239.568 985.517L242.72 987.334L239.568 989.154L239.568 985.517Z" fill="#E62B1E"/>
<path d="M266.424 1028.39L266.421 1032.03L263.272 1030.21L266.424 1028.39Z" fill="#E62B1E"/>
<path d="M313.724 1113.96L317.187 1115.95L313.728 1117.95L313.724 1113.96Z" fill="#E62B1E"/>
<path d="M340.786 1156.83L340.783 1160.83L337.326 1158.83L340.786 1156.83Z" fill="#E62B1E"/>
<path d="M387.984 1242.58L391.445 1244.57L387.985 1246.57L387.984 1242.58Z" fill="#E62B1E"/>
<path d="M415.046 1285.45L415.043 1289.45L411.586 1287.45L415.046 1285.45Z" fill="#E62B1E"/>
<path d="M462.244 1371.2L465.708 1373.2L462.248 1375.2L462.244 1371.2Z" fill="#E62B1E"/>
<path d="M489.202 1414.25L489.199 1417.89L486.05 1416.07L489.202 1414.25Z" fill="#E62B1E"/>
<path d="M536.708 1500.18L539.555 1501.82L536.711 1503.46L536.708 1500.18Z" fill="#E62B1E"/>
<path d="M637.915 1499.65L637.914 1504L634.151 1501.83L637.915 1499.65Z" fill="#E62B1E"/>
<path d="M684.7 1499.3L689.08 1501.83L684.7 1504.36L684.7 1499.3Z" fill="#E62B1E"/>
<path d="M787.033 1498.59L787.033 1505.08L781.412 1501.84L787.033 1498.59Z" fill="#E62B1E"/>
<path d="M832.666 1498.39L838.646 1501.84L832.671 1505.29L832.666 1498.39Z" fill="#E62B1E"/>
<path d="M935.966 1497.85L935.971 1505.84L929.053 1501.84L935.966 1497.85Z" fill="#E62B1E"/>
<path d="M980.651 1497.49L988.187 1501.85L980.648 1506.2L980.651 1497.49Z" fill="#E62B1E"/>
<path d="M1085.21 1496.56L1085.21 1507.14L1076.05 1501.85L1085.21 1496.56Z" fill="#E62B1E"/>
<path d="M1128.3 1496.02L1138.4 1501.86L1128.29 1507.69L1128.3 1496.02Z" fill="#E62B1E"/>
<path d="M1276.16 1409.19L1288.17 1416.12L1276.15 1423.06L1276.16 1409.19Z" fill="#E62B1E"/>
<path d="M1309.34 1365.58L1309.34 1380.93L1296.04 1373.25L1309.34 1365.58Z" fill="#E62B1E"/>
<path d="M1349.04 1278.22L1365.12 1287.51L1349.04 1296.8L1349.04 1278.22Z" fill="#E62B1E"/>
<path d="M1385.15 1234.25L1385.15 1255.03L1367.15 1244.64L1385.15 1234.25Z" fill="#E62B1E"/>
<path d="M1420.75 1145.22L1444.43 1158.9L1420.75 1172.58L1420.75 1145.22Z" fill="#E62B1E"/>
<path d="M1462.47 1100.3L1462.48 1131.77L1435.22 1116.03L1462.47 1100.3Z" fill="#E62B1E"/>
<path d="M1491.72 1010.95L1525.22 1030.29L1491.72 1049.63L1491.72 1010.95Z" fill="#E62B1E"/>
<path d="M1539.47 966.917L1539.47 1007.92L1503.96 987.418L1539.47 966.917Z" fill="#E62B1E"/>
<path d="M1613.91 837.959L1613.91 879.665L1577.8 858.807L1613.91 837.959Z" fill="#E62B1E"/>
<path d="M1563.62 792.548L1604.13 815.94L1563.62 839.325L1563.62 792.548Z" fill="#E62B1E"/>
<path d="M1544.83 700.36L1544.84 760.019L1493.17 730.185L1544.83 700.36Z" fill="#E62B1E"/>
<path d="M1484.66 655.795L1539.26 687.318L1484.67 718.834L1484.66 655.795Z" fill="#E62B1E"/>
<path d="M1470.17 572.443L1470.17 630.696L1419.73 601.565L1470.17 572.443Z" fill="#E62B1E"/>
<path d="M1412.91 531.514L1459.99 558.695L1412.91 585.876L1412.91 531.514Z" fill="#E62B1E"/>
<path d="M1394.47 446.309L1394.47 499.586L1348.34 472.942L1394.47 446.309Z" fill="#E62B1E"/>
<path d="M1339.05 403.582L1384.93 430.075L1339.05 456.564L1339.05 403.582Z" fill="#E62B1E"/>
<path d="M1318.09 321.358L1318.09 367.296L1278.32 344.325L1318.09 321.358Z" fill="#E62B1E"/>
<path d="M1268.28 281.014L1303.68 301.454L1268.29 321.89L1268.28 281.014Z" fill="#E62B1E"/>
<path d="M1195.52 240.715L1226.46 258.577L1195.52 276.44L1195.52 240.715Z" fill="#E62B1E"/>
<path d="M1166.33 241.247L1166.34 275.9L1136.33 258.571L1166.33 241.247Z" fill="#E62B1E"/>
<path d="M1048.49 243.254L1075 258.567L1048.49 273.872L1048.49 243.254Z" fill="#E62B1E"/>
<path d="M1015.8 244.753L1015.8 272.368L991.887 258.559L1015.8 244.753Z" fill="#E62B1E"/>
<path d="M902.413 247.439L921.663 258.553L902.412 269.667L902.413 247.439Z" fill="#E62B1E"/>
<path d="M865.231 248.324L865.232 268.782L847.519 258.55L865.231 248.324Z" fill="#E62B1E"/>
<path d="M755.254 249.757L770.471 258.548L755.256 267.333L755.254 249.757Z" fill="#E62B1E"/>
<path d="M715.381 250.652L715.38 266.433L701.716 258.542L715.381 250.652Z" fill="#E62B1E"/>
<path d="M416.242 425.837L416.244 434.181L409.015 430.01L416.242 425.837Z" fill="#E62B1E"/>
<path d="M386.887 469.066L393.487 472.884L386.886 476.695L386.887 469.066Z" fill="#E62B1E"/>
<path d="M341.479 555.344L341.479 561.896L335.812 558.615L341.479 555.344Z" fill="#E62B1E"/>
<path d="M313.058 598.397L318.418 601.487L313.055 604.584L313.058 598.397Z" fill="#E62B1E"/>
<path d="M266.811 684.707L266.811 689.764L262.431 687.235L266.811 684.707Z" fill="#E62B1E"/>
<path d="M239.26 727.777L243.283 730.105L239.265 732.425L239.26 727.777Z" fill="#E62B1E"/>
<path d="M192.157 814.027L192.162 817.662L189.009 815.845L192.157 814.027Z" fill="#E62B1E"/>
<path d="M165.411 857.076L168.256 858.711L165.412 860.354L165.411 857.076Z" fill="#E62B1E"/>
<path d="M165.52 942.992L168.059 944.456L165.522 945.921L165.52 942.992Z" fill="#E62B1E"/>
<path d="M192.048 985.718L192.048 988.945L189.257 987.33L192.048 985.718Z" fill="#E62B1E"/>
<path d="M239.677 1071.44L242.52 1073.08L239.68 1074.72L239.677 1071.44Z" fill="#E62B1E"/>
<path d="M266.324 1114.31L266.326 1117.6L263.483 1115.95L266.324 1114.31Z" fill="#E62B1E"/>
<path d="M313.934 1200.06L316.78 1201.7L313.939 1203.34L313.934 1200.06Z" fill="#E62B1E"/>
<path d="M340.585 1242.93L340.585 1246.21L337.744 1244.57L340.585 1242.93Z" fill="#E62B1E"/>
<path d="M388.195 1328.68L391.039 1330.32L388.198 1331.96L388.195 1328.68Z" fill="#E62B1E"/>
<path d="M414.845 1371.55L414.844 1374.84L412.004 1373.19L414.845 1371.55Z" fill="#E62B1E"/>
<path d="M462.469 1457.33L465.264 1458.94L462.473 1460.55L462.469 1457.33Z" fill="#E62B1E"/>
<path d="M489.003 1500.35L489.002 1503.28L486.467 1501.82L489.003 1500.35Z" fill="#E62B1E"/>
<path d="M563.361 1543.05L563.357 1546.34L560.517 1544.69L563.361 1543.05Z" fill="#E62B1E"/>
<path d="M610.88 1542.91L613.977 1544.7L610.878 1546.49L610.88 1542.91Z" fill="#E62B1E"/>
<path d="M712.25 1542.38L712.252 1547.03L708.231 1544.7L712.25 1542.38Z" fill="#E62B1E"/>
<path d="M758.952 1542.18L763.332 1544.71L758.952 1547.24L758.952 1542.18Z" fill="#E62B1E"/>
<path d="M861.2 1541.62L861.199 1547.81L855.838 1544.71L861.2 1541.62Z" fill="#E62B1E"/>
<path d="M907.022 1541.44L912.694 1544.72L907.027 1547.99L907.022 1541.44Z" fill="#E62B1E"/>
<path d="M1010.33 1540.55L1010.33 1548.89L1003.1 1544.72L1010.33 1540.55Z" fill="#E62B1E"/>
<path d="M1054.7 1540.01L1062.86 1544.73L1054.7 1549.44L1054.7 1540.01Z" fill="#E62B1E"/>
<path d="M1350.08 1365.77L1363.05 1373.26L1350.08 1380.75L1350.08 1365.77Z" fill="#E62B1E"/>
<path d="M1383.91 1322.16L1383.91 1338.62L1369.65 1330.39L1383.91 1322.16Z" fill="#E62B1E"/>
<path d="M1422.76 1234.45L1440.43 1244.65L1422.76 1254.85L1422.76 1234.45Z" fill="#E62B1E"/>
<path d="M1460.12 1190.12L1460.13 1213.44L1439.94 1201.77L1460.12 1190.12Z" fill="#E62B1E"/>
<path d="M1494.04 1100.69L1520.6 1116.03L1494.04 1131.37L1494.04 1100.69Z" fill="#E62B1E"/>
<path d="M1537.37 1056.31L1537.37 1090.03L1508.17 1073.16L1537.37 1056.31Z" fill="#E62B1E"/>
<path d="M1566.34 968.723L1598.73 987.426L1566.34 1006.13L1566.34 968.723Z" fill="#E62B1E"/>
<path d="M1612.86 925.547L1612.85 963.562L1579.94 944.553L1612.86 925.547Z" fill="#E62B1E"/>
<path d="M1240.22 199.01L1240.22 232.408L1211.3 215.706L1240.22 199.01Z" fill="#E62B1E"/>
<path d="M1122.42 199.827L1149.9 215.699L1122.42 231.566L1122.42 199.827Z" fill="#E62B1E"/>
<path d="M1090.7 200.749L1090.71 230.644L1064.82 215.693L1090.7 200.749Z" fill="#E62B1E"/>
<path d="M975.83 203.135L997.566 215.687L975.828 228.238L975.83 203.135Z" fill="#E62B1E"/>
<path d="M940.189 204.22L940.198 227.151L920.337 215.682L940.189 204.22Z" fill="#E62B1E"/>
<path d="M828.865 205.794L845.983 215.682L828.869 225.563L828.865 205.794Z" fill="#E62B1E"/>
<path d="M790.38 206.484L790.381 224.867L774.458 215.677L790.38 206.484Z" fill="#E62B1E"/>
<path d="M341.46 469.635L341.464 476.12L335.843 472.878L341.46 469.635Z" fill="#E62B1E"/>
<path d="M313.171 512.861L318.17 515.744L313.172 518.63L313.171 512.861Z" fill="#E62B1E"/>
<path d="M266.805 598.957L266.807 604.018L262.425 601.486L266.805 598.957Z" fill="#E62B1E"/>
<path d="M239.257 642.039L243.276 644.361L239.258 646.681L239.257 642.039Z" fill="#E62B1E"/>
<path d="M192.151 728.278L192.154 731.918L188.999 730.097L192.151 728.278Z" fill="#E62B1E"/>
<path d="M165.412 771.327L168.25 772.967L165.406 774.609L165.412 771.327Z" fill="#E62B1E"/>
<path d="M117.707 857.247L117.706 860.177L115.171 858.711L117.707 857.247Z" fill="#E62B1E"/>
<path d="M536.818 1586.1L539.357 1587.56L536.82 1589.03L536.818 1586.1Z" fill="#E62B1E"/>
<path d="M637.612 1585.93L637.617 1589.21L634.768 1587.57L637.612 1585.93Z" fill="#E62B1E"/>
<path d="M685.117 1585.75L688.264 1587.57L685.112 1589.39L685.117 1585.75Z" fill="#E62B1E"/>
<path d="M786.522 1585.23L786.521 1589.93L782.451 1587.58L786.522 1585.23Z" fill="#E62B1E"/>
<path d="M833.206 1585.05L837.587 1587.58L833.208 1590.11L833.206 1585.05Z" fill="#E62B1E"/>
<path d="M935.452 1584.5L935.449 1590.68L930.096 1587.59L935.452 1584.5Z" fill="#E62B1E"/>
<path d="M981.09 1583.98L987.33 1587.59L981.09 1591.2L981.09 1583.98Z" fill="#E62B1E"/>
<path d="M1423.81 1322L1438.34 1330.39L1423.82 1338.78L1423.81 1322Z" fill="#E62B1E"/>
<path d="M1458.77 1278.23L1458.76 1296.81L1442.68 1287.52L1458.77 1278.23Z" fill="#E62B1E"/>
<path d="M1496.17 1190.12L1516.35 1201.78L1496.17 1213.44L1496.17 1190.12Z" fill="#E62B1E"/>
<path d="M1535.32 1145.62L1535.32 1172.2L1512.3 1158.91L1535.32 1145.62Z" fill="#E62B1E"/>
<path d="M1567.86 1057.1L1595.69 1073.17L1567.86 1089.23L1567.86 1057.1Z" fill="#E62B1E"/>
<path d="M1611.58 1013.5L1611.58 1047.09L1582.49 1030.3L1611.58 1013.5Z" fill="#E62B1E"/>
<path d="M1641.18 926.897L1671.78 944.557L1641.19 962.219L1641.18 926.897Z" fill="#E62B1E"/>
<path d="M1196.79 157.193L1223.88 172.833L1196.8 188.47L1196.79 157.193Z" fill="#E62B1E"/>
<path d="M1165.16 157.521L1165.16 188.136L1138.65 172.826L1165.16 157.521Z" fill="#E62B1E"/>
<path d="M1049.31 158.945L1073.34 172.826L1049.32 186.696L1049.31 158.945Z" fill="#E62B1E"/>
<path d="M1015.2 160.043L1015.2 185.595L993.072 172.816L1015.2 160.043Z" fill="#E62B1E"/>
<path d="M902.7 162.199L921.071 172.811L902.701 183.417L902.7 162.199Z" fill="#E62B1E"/>
<path d="M865.136 162.739L865.138 182.881L847.696 172.808L865.136 162.739Z" fill="#E62B1E"/>
<path d="M266.786 513.244L266.783 518.246L262.453 515.745L266.786 513.244Z" fill="#E62B1E"/>
<path d="M239.339 556.442L243.099 558.616L239.339 560.787L239.339 556.442Z" fill="#E62B1E"/>
<path d="M192.147 642.538L192.147 646.175L188.998 644.356L192.147 642.538Z" fill="#E62B1E"/>
<path d="M165.401 685.581L168.243 687.228L165.402 688.868L165.401 685.581Z" fill="#E62B1E"/>
<path d="M117.698 771.5L117.696 774.43L115.161 772.964L117.698 771.5Z" fill="#E62B1E"/>
<path d="M91.2615 814.374L93.8001 815.838L91.2637 817.302L91.2615 814.374Z" fill="#E62B1E"/>
<path d="M563.263 1628.97L563.262 1631.9L560.727 1630.44L563.263 1628.97Z" fill="#E62B1E"/>
<path d="M611.067 1628.97L613.608 1630.44L611.071 1631.91L611.067 1628.97Z" fill="#E62B1E"/>
<path d="M711.862 1628.8L711.867 1632.09L709.022 1630.44L711.862 1628.8Z" fill="#E62B1E"/>
<path d="M759.37 1628.63L762.518 1630.45L759.369 1632.27L759.37 1628.63Z" fill="#E62B1E"/>
<path d="M860.774 1628.1L860.777 1632.8L856.703 1630.45L860.774 1628.1Z" fill="#E62B1E"/>
<path d="M907.357 1627.75L912.047 1630.46L907.356 1633.17L907.357 1627.75Z" fill="#E62B1E"/>
<path d="M1497.21 1277.67L1514.28 1287.52L1497.22 1297.38L1497.21 1277.67Z" fill="#E62B1E"/>
<path d="M1533.97 1233.7L1533.98 1255.61L1515 1244.65L1533.97 1233.7Z" fill="#E62B1E"/>
<path d="M1569.45 1145.59L1592.53 1158.91L1569.46 1172.23L1569.45 1145.59Z" fill="#E62B1E"/>
<path d="M1610.33 1101.42L1610.33 1130.66L1585.01 1116.04L1610.33 1101.42Z" fill="#E62B1E"/>
<path d="M1642 1014.04L1670.17 1030.3L1642 1046.56L1642 1014.04Z" fill="#E62B1E"/>
<path d="M1685.81 970.67L1685.81 1004.19L1656.78 987.43L1685.81 970.67Z" fill="#E62B1E"/>
<path d="M1123.13 115.333L1148.45 129.956L1123.13 144.575L1123.13 115.333Z" fill="#E62B1E"/>
<path d="M1090.1 116.043L1090.1 143.856L1066.02 129.946L1090.1 116.043Z" fill="#E62B1E"/>
<path d="M976.212 118.068L996.781 129.945L976.214 141.819L976.212 118.068Z" fill="#E62B1E"/>
<path d="M939.8 119.14L939.802 140.735L921.098 129.938L939.8 119.14Z" fill="#E62B1E"/>
<path d="M192.138 556.794L192.139 560.431L188.99 558.612L192.138 556.794Z" fill="#E62B1E"/>
<path d="M165.394 599.837L168.236 601.484L165.399 603.122L165.394 599.837Z" fill="#E62B1E"/>
<path d="M117.695 685.757L117.695 688.682L115.155 687.224L117.695 685.757Z" fill="#E62B1E"/>
<path d="M91.2538 728.63L93.7922 730.094L91.2559 731.559L91.2538 728.63Z" fill="#E62B1E"/>
<path d="M637.516 1671.85L637.513 1674.78L634.98 1673.32L637.516 1671.85Z" fill="#E62B1E"/>
<path d="M685.327 1671.85L687.862 1673.31L685.322 1674.78L685.327 1671.85Z" fill="#E62B1E"/>
<path d="M786.203 1671.53L786.204 1675.11L783.101 1673.32L786.203 1671.53Z" fill="#E62B1E"/>
<path d="M833.534 1671.36L836.939 1673.33L833.536 1675.29L833.534 1671.36Z" fill="#E62B1E"/>
<path d="M1570.05 1232.36L1591.34 1244.66L1570.05 1256.95L1570.05 1232.36Z" fill="#E62B1E"/>
<path d="M1609.53 1188.56L1609.53 1215.01L1586.63 1201.78L1609.53 1188.56Z" fill="#E62B1E"/>
<path d="M1642.82 1101.2L1668.54 1116.05L1642.82 1130.89L1642.82 1101.2Z" fill="#E62B1E"/>
<path d="M1685.13 1057.6L1685.13 1088.75L1658.17 1073.17L1685.13 1057.6Z" fill="#E62B1E"/>
<path d="M1164.78 72.4328L1164.78 101.737L1139.4 87.0806L1164.78 72.4328Z" fill="#E62B1E"/>
<path d="M1049.57 73.658L1072.81 87.0787L1049.57 100.493L1049.57 73.658Z" fill="#E62B1E"/>
<path d="M1015.03 74.5905L1015.03 99.559L993.403 87.0755L1015.03 74.5905Z" fill="#E62B1E"/>
<path d="M117.688 600.014L117.69 602.943L115.151 601.479L117.688 600.014Z" fill="#E62B1E"/>
<path d="M91.2541 642.882L93.787 644.345L91.2471 645.811L91.2541 642.882Z" fill="#E62B1E"/>
<path d="M43.4466 728.625L43.4432 731.552L40.9103 730.089L43.4466 728.625Z" fill="#E62B1E"/>
<path d="M611.092 1714.75L613.58 1716.18L611.093 1717.62L611.092 1714.75Z" fill="#E62B1E"/>
<path d="M711.77 1714.72L711.773 1717.65L709.231 1716.19L711.77 1714.72Z" fill="#E62B1E"/>
<path d="M759.58 1714.73L762.115 1716.19L759.578 1717.66L759.58 1714.73Z" fill="#E62B1E"/>
<path d="M1643.21 1187.59L1667.79 1201.79L1643.21 1215.98L1643.21 1187.59Z" fill="#E62B1E"/>
<path d="M1684.64 1144.2L1684.64 1173.64L1659.15 1158.92L1684.64 1144.2Z" fill="#E62B1E"/>
<path d="M1716.51 1057.38L1743.88 1073.18L1716.52 1088.98L1716.51 1057.38Z" fill="#E62B1E"/>
<path d="M1123.26 29.8226L1148.18 44.2093L1123.26 58.5958L1123.26 29.8226Z" fill="#E62B1E"/>
<path d="M1090.16 30.1763L1090.16 58.2362L1065.87 44.2054L1090.16 30.1763Z" fill="#E62B1E"/>
<path d="M43.4397 642.881L43.4383 645.812L40.9033 644.346L43.4397 642.881Z" fill="#E62B1E"/>
<path d="M17.0019 685.752L19.5383 687.212L17.002 688.676L17.0019 685.752Z" fill="#E62B1E"/>
<path d="M637.42 1757.77L637.42 1760.35L635.188 1759.06L637.42 1757.77Z" fill="#E62B1E"/>
<path d="M685.328 1757.6L687.866 1759.06L685.33 1760.53L685.328 1757.6Z" fill="#E62B1E"/>
<path d="M1717.13 1144.17L1742.68 1158.92L1717.13 1173.67L1717.13 1144.17Z" fill="#E62B1E"/>
<path d="M1759.1 1100.98L1759.1 1131.13L1732.99 1116.05L1759.1 1100.98Z" fill="#E62B1E"/>
</g>
</svg>
