<svg width="1053" height="1677" viewBox="0 0 1053 1677" fill="none" xmlns="http://www.w3.org/2000/svg">
<g opacity="0.2">
<path d="M111.585 787.352L111.581 762.697L132.934 775.027L111.585 787.352Z" fill="#E62B1E"/>
<path d="M150.368 829.877L129.627 817.897L150.363 805.925L150.368 829.877Z" fill="#E62B1E"/>
<path d="M186.757 828.638L186.755 807.166L205.35 817.903L186.757 828.638Z" fill="#E62B1E"/>
<path d="M223.28 784.696L206.545 775.031L223.281 765.368L223.28 784.696Z" fill="#E62B1E"/>
<path d="M187.371 741.819L187.369 722.494L204.107 732.157L187.371 741.819Z" fill="#E62B1E"/>
<path d="M149.868 743.272L130.611 732.156L149.862 721.042L149.868 743.272Z" fill="#E62B1E"/>
<path d="M77.7133 789.775L52.1679 775.021L77.7158 760.271L77.7133 789.775Z" fill="#E62B1E"/>
<path d="M110.863 874.353L110.861 847.186L134.391 860.769L110.863 874.353Z" fill="#E62B1E"/>
<path d="M224.235 872.082L204.651 860.773L224.23 849.469L224.235 872.082Z" fill="#E62B1E"/>
<path d="M262.128 783.826L262.124 766.246L277.347 775.039L262.128 783.826Z" fill="#E62B1E"/>
<path d="M222.748 698.047L207.579 689.289L222.748 680.531L222.748 698.047Z" fill="#E62B1E"/>
<path d="M111.617 701.539L111.615 677.019L132.849 689.28L111.617 701.539Z" fill="#E62B1E"/>
<path d="M35.0967 834.094L35.0973 801.694L63.1561 817.894L35.0967 834.094Z" fill="#E62B1E"/>
<path d="M78.1937 876.339L51.2229 860.767L78.1963 845.194L78.1937 876.339Z" fill="#E62B1E"/>
<path d="M151.728 917.972L126.913 903.641L151.729 889.314L151.728 917.972Z" fill="#E62B1E"/>
<path d="M185.488 916.582L185.489 890.711L207.895 903.646L185.488 916.582Z" fill="#E62B1E"/>
<path d="M261.195 871.197L261.193 850.362L279.236 860.781L261.195 871.197Z" fill="#E62B1E"/>
<path d="M297.243 827.072L281.379 817.909L297.244 808.749L297.243 827.072Z" fill="#E62B1E"/>
<path d="M296.487 740.025L282.875 732.165L296.487 724.306L296.487 740.025Z" fill="#E62B1E"/>
<path d="M262.657 697.149L262.657 681.431L276.269 689.29L262.657 697.149Z" fill="#E62B1E"/>
<path d="M187.562 655.734L187.558 637.093L203.7 646.417L187.562 655.734Z" fill="#E62B1E"/>
<path d="M149.788 657.4L130.755 646.41L149.783 635.424L149.788 657.4Z" fill="#E62B1E"/>
<path d="M77.8787 704.323L51.8232 689.274L77.877 674.232L77.8787 704.323Z" fill="#E62B1E"/>
<path d="M34.9052 748.678L34.9012 715.625L63.527 732.153L34.9052 748.678Z" fill="#E62B1E"/>
<path d="M5.84764 836.762L-26.8391 817.89L5.84375 799.02L5.84764 836.762Z" fill="#E62B1E"/>
<path d="M34.4965 920.896L34.492 886.372L64.3919 903.636L34.4965 920.896Z" fill="#E62B1E"/>
<path d="M79.4252 964.202L48.7786 946.511L79.4238 928.818L79.4252 964.202Z" fill="#E62B1E"/>
<path d="M109.453 962.547L109.453 930.482L137.222 946.514L109.453 962.547Z" fill="#E62B1E"/>
<path d="M225.197 959.487L202.738 946.517L225.194 933.552L225.197 959.487Z" fill="#E62B1E"/>
<path d="M260.444 958.242L260.446 934.8L280.742 946.523L260.444 958.242Z" fill="#E62B1E"/>
<path d="M297.976 914.071L279.932 903.652L297.974 893.236L297.976 914.071Z" fill="#E62B1E"/>
<path d="M336.685 826.17L336.685 809.65L350.987 817.913L336.685 826.17Z" fill="#E62B1E"/>
<path d="M370.436 782.375L357.735 775.042L370.435 767.71L370.436 782.375Z" fill="#E62B1E"/>
<path d="M337.321 739.319L337.32 725.021L349.702 732.171L337.321 739.319Z" fill="#E62B1E"/>
<path d="M296.07 653.573L283.686 646.42L296.067 639.272L296.07 653.573Z" fill="#E62B1E"/>
<path d="M262.846 611.066L262.847 596.027L275.871 603.546L262.846 611.066Z" fill="#E62B1E"/>
<path d="M222.674 612.177L207.723 603.543L222.673 594.912L222.674 612.177Z" fill="#E62B1E"/>
<path d="M111.886 615.319L111.885 591.756L132.29 603.539L111.886 615.319Z" fill="#E62B1E"/>
<path d="M77.2873 617.562L52.9861 603.533L77.2852 589.504L77.2873 617.562Z" fill="#E62B1E"/>
<path d="M35.1703 662.465L35.1654 630.343L62.982 646.408L35.1703 662.465Z" fill="#E62B1E"/>
<path d="M6.36824 751.931L-27.898 732.145L6.36621 712.362L6.36824 751.931Z" fill="#E62B1E"/>
<path d="M6.14391 923.013L-27.4228 903.63L6.14453 884.25L6.14391 923.013Z" fill="#E62B1E"/>
<path d="M33.2557 1008.79L33.2527 969.967L66.8798 989.381L33.2557 1008.79Z" fill="#E62B1E"/>
<path d="M152.948 1005.82L124.494 989.385L152.946 972.958L152.948 1005.82Z" fill="#E62B1E"/>
<path d="M184.412 1004.21L184.407 974.574L210.069 989.392L184.412 1004.21Z" fill="#E62B1E"/>
<path d="M298.861 1001.34L278.181 989.397L298.857 977.459L298.861 1001.34Z" fill="#E62B1E"/>
<path d="M336.064 913.003L336.061 894.305L352.255 903.655L336.064 913.003Z" fill="#E62B1E"/>
<path d="M370.976 869.043L356.672 860.786L370.974 852.529L370.976 869.043Z" fill="#E62B1E"/>
<path d="M411.897 781.643L411.891 768.447L423.323 775.046L411.897 781.643Z" fill="#E62B1E"/>
<path d="M369.881 695.683L358.826 689.296L369.884 682.912L369.881 695.683Z" fill="#E62B1E"/>
<path d="M337.759 652.808L337.755 640.041L348.818 646.424L337.759 652.808Z" fill="#E62B1E"/>
<path d="M296.045 567.798L283.716 560.674L296.044 553.556L296.045 567.798Z" fill="#E62B1E"/>
<path d="M187.627 569.864L187.628 551.475L203.549 560.671L187.627 569.864Z" fill="#E62B1E"/>
<path d="M149.593 571.335L131.117 560.665L149.594 549.998L149.593 571.335Z" fill="#E62B1E"/>
<path d="M36.5451 574.334L36.5415 546.985L60.2215 560.665L36.5451 574.334Z" fill="#E62B1E"/>
<path d="M5.74964 665.134L-26.6908 646.402L5.74805 627.674L5.74964 665.134Z" fill="#E62B1E"/>
<path d="M7.05808 1010.33L-29.231 989.376L7.05664 968.425L7.05808 1010.33Z" fill="#E62B1E"/>
<path d="M80.7931 1052.31L46.0529 1032.25L80.791 1012.2L80.7931 1052.31Z" fill="#E62B1E"/>
<path d="M108.018 1050.79L108.018 1013.72L140.114 1032.26L108.018 1050.79Z" fill="#E62B1E"/>
<path d="M226.287 1047.11L200.577 1032.26L226.287 1017.42L226.287 1047.11Z" fill="#E62B1E"/>
<path d="M259.584 1045.49L259.581 1019.04L282.486 1032.27L259.584 1045.49Z" fill="#E62B1E"/>
<path d="M335.306 1000.07L335.305 978.729L353.786 989.401L335.306 1000.07Z" fill="#E62B1E"/>
<path d="M371.719 956.069L355.202 946.528L371.719 936.993L371.719 956.069Z" fill="#E62B1E"/>
<path d="M411.474 868.121L411.475 853.458L424.174 860.789L411.474 868.121Z" fill="#E62B1E"/>
<path d="M444.262 824.518L432.84 817.919L444.266 811.322L444.262 824.518Z" fill="#E62B1E"/>
<path d="M443.833 738.042L433.676 732.174L443.836 726.308L443.833 738.042Z" fill="#E62B1E"/>
<path d="M412.328 695.136L412.323 683.468L422.432 689.303L412.328 695.136Z" fill="#E62B1E"/>
<path d="M369.555 609.392L359.454 603.553L369.557 597.72L369.555 609.392Z" fill="#E62B1E"/>
<path d="M337.857 566.881L337.853 554.482L348.597 560.681L337.857 566.881Z" fill="#E62B1E"/>
<path d="M262.844 525.323L262.841 510.286L275.866 517.805L262.844 525.323Z" fill="#E62B1E"/>
<path d="M222.577 526.278L207.894 517.797L222.574 509.321L222.577 526.278Z" fill="#E62B1E"/>
<path d="M112.397 528.682L112.393 506.904L131.255 517.794L112.397 528.682Z" fill="#E62B1E"/>
<path d="M76.0019 529.603L55.5452 517.789L75.999 505.98L76.0019 529.603Z" fill="#E62B1E"/>
<path d="M3.33674 575.208L-21.8673 560.654L3.33398 546.104L3.33674 575.208Z" fill="#E62B1E"/>
<path d="M8.50909 1098.57L-32.1102 1075.12L8.50391 1051.67L8.50909 1098.57Z" fill="#E62B1E"/>
<path d="M31.618 1097.38L31.6129 1052.86L70.1696 1075.13L31.618 1097.38Z" fill="#E62B1E"/>
<path d="M154.423 1094.1L121.569 1075.13L154.422 1056.16L154.423 1094.1Z" fill="#E62B1E"/>
<path d="M183.408 1091.69L183.409 1058.58L212.09 1075.13L183.408 1091.69Z" fill="#E62B1E"/>
<path d="M299.308 1087.85L277.296 1075.14L299.307 1062.43L299.308 1087.85Z" fill="#E62B1E"/>
<path d="M334.875 1086.57L334.874 1063.71L354.667 1075.15L334.875 1086.57Z" fill="#E62B1E"/>
<path d="M372.397 1042.97L353.864 1032.27L372.394 1021.57L372.397 1042.97Z" fill="#E62B1E"/>
<path d="M410.841 954.979L410.838 938.088L425.465 946.536L410.841 954.979Z" fill="#E62B1E"/>
<path d="M444.801 911.182L431.779 903.666L444.804 896.146L444.801 911.182Z" fill="#E62B1E"/>
<path d="M486.587 823.754L486.584 812.09L496.69 817.921L486.587 823.754Z" fill="#E62B1E"/>
<path d="M517.758 780.336L508.599 775.052L517.754 769.766L517.758 780.336Z" fill="#E62B1E"/>
<path d="M486.896 737.464L486.898 726.887L496.051 732.178L486.896 737.464Z" fill="#E62B1E"/>
<path d="M443.395 651.537L434.549 646.426L443.393 641.32L443.395 651.537Z" fill="#E62B1E"/>
<path d="M412.656 608.816L412.657 598.296L421.765 603.557L412.656 608.816Z" fill="#E62B1E"/>
<path d="M369.452 523.463L359.66 517.809L369.448 512.157L369.452 523.463Z" fill="#E62B1E"/>
<path d="M337.957 480.957L337.959 468.917L348.379 474.94L337.957 480.957Z" fill="#E62B1E"/>
<path d="M295.932 481.869L283.923 474.933L295.937 467.997L295.932 481.869Z" fill="#E62B1E"/>
<path d="M187.929 483.587L187.925 466.262L202.928 474.928L187.929 483.587Z" fill="#E62B1E"/>
<path d="M148.973 484.524L132.344 474.921L148.971 465.321L148.973 484.524Z" fill="#E62B1E"/>
<path d="M38.1424 485.809L38.1423 464.029L57.0043 474.919L38.1424 485.809Z" fill="#E62B1E"/>
<path d="M1.19904 485.769L-17.6097 474.914L1.19922 464.055L1.19904 485.769Z" fill="#E62B1E"/>
<path d="M-44.7298 1143.89L-44.7349 1092.09L0.12913 1117.99L-44.7298 1143.89Z" fill="#E62B1E"/>
<path d="M82.4764 1140.96L42.7141 1118L82.4756 1095.04L82.4764 1140.96Z" fill="#E62B1E"/>
<path d="M106.729 1138.78L106.725 1097.23L142.709 1118L106.729 1138.78Z" fill="#E62B1E"/>
<path d="M226.748 1133.64L199.671 1118.01L226.747 1102.38L226.748 1133.64Z" fill="#E62B1E"/>
<path d="M259.383 1131.59L259.379 1104.43L282.903 1118.01L259.383 1131.59Z" fill="#E62B1E"/>
<path d="M372.279 1128.5L354.125 1118.01L372.275 1107.54L372.279 1128.5Z" fill="#E62B1E"/>
<path d="M410.178 1041.88L410.175 1022.68L426.804 1032.28L410.178 1041.88Z" fill="#E62B1E"/>
<path d="M445.45 998.036L430.501 989.406L445.45 980.775L445.45 998.036Z" fill="#E62B1E"/>
<path d="M486.154 910.262L486.151 897.069L497.581 903.665L486.154 910.262Z" fill="#E62B1E"/>
<path d="M518.074 866.633L507.974 860.797L518.077 854.964L518.074 866.633Z" fill="#E62B1E"/>
<path d="M561.481 779.773L561.483 770.342L569.649 775.057L561.481 779.773Z" fill="#E62B1E"/>
<path d="M517.436 694.051L509.221 689.307L517.436 684.565L517.436 694.051Z" fill="#E62B1E"/>
<path d="M487.219 651.147L487.221 641.716L495.387 646.432L487.219 651.147Z" fill="#E62B1E"/>
<path d="M443.179 565.432L434.962 560.685L443.176 555.943L443.179 565.432Z" fill="#E62B1E"/>
<path d="M412.752 522.89L412.751 512.734L421.546 517.813L412.752 522.89Z" fill="#E62B1E"/>
<path d="M369.338 437.535L359.865 432.065L369.338 426.596L369.338 437.535Z" fill="#E62B1E"/>
<path d="M263.156 439.023L263.154 425.098L275.219 432.058L263.156 439.023Z" fill="#E62B1E"/>
<path d="M222.123 439.763L208.783 432.058L222.123 424.356L222.123 439.763Z" fill="#E62B1E"/>
<path d="M113.26 441.431L113.262 422.669L129.508 432.05L113.26 441.431Z" fill="#E62B1E"/>
<path d="M74.8265 441.835L57.8735 432.046L74.8252 422.259L74.8265 441.835Z" fill="#E62B1E"/>
<path d="M10.0939 1187.05L-35.2652 1160.86L10.0928 1134.68L10.0939 1187.05Z" fill="#E62B1E"/>
<path d="M30.5095 1185.06L30.5086 1136.68L72.404 1160.87L30.5095 1185.06Z" fill="#E62B1E"/>
<path d="M154.581 1180.11L121.263 1160.87L154.582 1141.64L154.581 1180.11Z" fill="#E62B1E"/>
<path d="M183.434 1177.4L183.436 1144.35L212.056 1160.88L183.434 1177.4Z" fill="#E62B1E"/>
<path d="M298.85 1172.8L278.225 1160.89L298.849 1148.98L298.85 1172.8Z" fill="#E62B1E"/>
<path d="M335.556 1171.14L335.555 1150.63L353.321 1160.89L335.556 1171.14Z" fill="#E62B1E"/>
<path d="M410.42 1127.21L410.42 1108.83L426.339 1118.02L410.42 1127.21Z" fill="#E62B1E"/>
<path d="M445.671 1084.16L430.075 1075.15L445.672 1066.15L445.671 1084.16Z" fill="#E62B1E"/>
<path d="M485.624 996.929L485.624 981.89L498.649 989.409L485.624 996.929Z" fill="#E62B1E"/>
<path d="M518.521 953.137L507.098 946.537L518.524 939.94L518.521 953.137Z" fill="#E62B1E"/>
<path d="M561.263 865.902L561.263 855.689L570.107 860.796L561.263 865.902Z" fill="#E62B1E"/>
<path d="M591.594 822.492L583.69 817.928L591.593 813.365L591.594 822.492Z" fill="#E62B1E"/>
<path d="M591.361 736.36L584.132 732.188L591.359 728.016L591.361 736.36Z" fill="#E62B1E"/>
<path d="M561.773 693.512L561.772 685.111L569.05 689.311L561.773 693.512Z" fill="#E62B1E"/>
<path d="M517.1 607.738L509.872 603.566L517.099 599.394L517.1 607.738Z" fill="#E62B1E"/>
<path d="M487.514 564.89L487.512 556.489L494.79 560.689L487.514 564.89Z" fill="#E62B1E"/>
<path d="M443.066 479.505L435.167 474.941L443.066 470.381L443.066 479.505Z" fill="#E62B1E"/>
<path d="M412.941 436.812L412.94 427.326L421.155 432.069L412.941 436.812Z" fill="#E62B1E"/>
<path d="M338.271 394.665L338.268 383.722L347.744 389.195L338.271 394.665Z" fill="#E62B1E"/>
<path d="M295.401 395.205L284.974 389.187L295.396 383.17L295.401 395.205Z" fill="#E62B1E"/>
<path d="M188.583 396.702L188.58 381.664L201.605 389.184L188.583 396.702Z" fill="#E62B1E"/>
<path d="M148.192 397.44L133.889 389.177L148.191 380.92L148.192 397.44Z" fill="#E62B1E"/>
<path d="M39.335 397.991L39.3313 380.355L54.6064 389.174L39.335 397.991Z" fill="#E62B1E"/>
<path d="M-0.0912254 397.804L-15.0457 389.172L-0.0927734 380.539L-0.0912254 397.804Z" fill="#E62B1E"/>
<path d="M-45.0164 1230.14L-45.0236 1177.33L0.712706 1203.74L-45.0164 1230.14Z" fill="#E62B1E"/>
<path d="M81.9393 1225.76L43.8078 1203.74L81.9385 1181.73L81.9393 1225.76Z" fill="#E62B1E"/>
<path d="M107.525 1223.15L107.523 1184.34L141.138 1203.75L107.525 1223.15Z" fill="#E62B1E"/>
<path d="M225.647 1217.46L201.901 1203.75L225.645 1190.04L225.647 1217.46Z" fill="#E62B1E"/>
<path d="M260.482 1215.45L260.479 1192.07L280.727 1203.76L260.482 1215.45Z" fill="#E62B1E"/>
<path d="M371.304 1212.55L356.078 1203.76L371.304 1194.97L371.304 1212.55Z" fill="#E62B1E"/>
<path d="M411.301 1211.44L411.303 1196.09L424.591 1203.77L411.301 1211.44Z" fill="#E62B1E"/>
<path d="M444.926 1168.6L431.583 1160.9L444.923 1153.19L444.926 1168.6Z" fill="#E62B1E"/>
<path d="M485.527 1082.86L485.527 1067.45L498.871 1075.15L485.527 1082.86Z" fill="#E62B1E"/>
<path d="M518.846 1039.43L506.466 1032.29L518.848 1025.14L518.846 1039.43Z" fill="#E62B1E"/>
<path d="M560.849 952.38L560.843 940.712L570.952 946.547L560.849 952.38Z" fill="#E62B1E"/>
<path d="M591.914 908.777L583.069 903.671L591.913 898.565L591.914 908.777Z" fill="#E62B1E"/>
<path d="M636.153 821.923L636.153 813.942L643.066 817.933L636.153 821.923Z" fill="#E62B1E"/>
<path d="M665.201 778.514L659.217 775.062L665.199 771.609L665.201 778.514Z" fill="#E62B1E"/>
<path d="M636.355 735.823L636.355 728.553L642.648 732.19L636.355 735.823Z" fill="#E62B1E"/>
<path d="M591.147 650.253L584.542 646.443L591.146 642.63L591.147 650.253Z" fill="#E62B1E"/>
<path d="M561.989 607.38L561.991 599.751L568.594 603.567L561.989 607.38Z" fill="#E62B1E"/>
<path d="M516.887 521.631L510.282 517.821L516.887 514.008L516.887 521.631Z" fill="#E62B1E"/>
<path d="M487.625 478.94L487.627 470.952L494.541 474.947L487.625 478.94Z" fill="#E62B1E"/>
<path d="M442.837 393.369L435.61 389.201L442.837 385.029L442.837 393.369Z" fill="#E62B1E"/>
<path d="M413.265 350.498L413.267 342.152L420.492 346.326L413.265 350.498Z" fill="#E62B1E"/>
<path d="M368.896 351.038L360.734 346.32L368.895 341.608L368.896 351.038Z" fill="#E62B1E"/>
<path d="M263.804 352.151L263.805 340.479L273.907 346.318L263.804 352.151Z" fill="#E62B1E"/>
<path d="M221.353 352.7L210.298 346.312L221.356 339.928L221.353 352.7Z" fill="#E62B1E"/>
<path d="M114.326 353.822L114.328 338.786L127.351 346.302L114.326 353.822Z" fill="#E62B1E"/>
<path d="M73.6199 354.006L60.2747 346.299L73.6182 338.595L73.6199 354.006Z" fill="#E62B1E"/>
<path d="M8.59675 1270.2L-32.2562 1246.61L8.59473 1223.02L8.59675 1270.2Z" fill="#E62B1E"/>
<path d="M32.3485 1267.63L32.3451 1225.6L68.7423 1246.62L32.3485 1267.63Z" fill="#E62B1E"/>
<path d="M152.565 1262.35L125.312 1246.62L152.562 1230.89L152.565 1262.35Z" fill="#E62B1E"/>
<path d="M185.31 1259.91L185.304 1233.33L208.328 1246.62L185.31 1259.91Z" fill="#E62B1E"/>
<path d="M297.671 1256.49L280.604 1246.63L297.669 1236.78L297.671 1256.49Z" fill="#E62B1E"/>
<path d="M336.52 1255.24L336.514 1238.03L351.419 1246.63L336.52 1255.24Z" fill="#E62B1E"/>
<path d="M444.383 1253.39L432.689 1246.64L444.381 1239.89L444.383 1253.39Z" fill="#E62B1E"/>
<path d="M486.172 1167.5L486.168 1154.3L497.594 1160.9L486.172 1167.5Z" fill="#E62B1E"/>
<path d="M518.538 1124.63L507.11 1118.03L518.532 1111.43L518.538 1124.63Z" fill="#E62B1E"/>
<path d="M560.642 1038.49L560.638 1026.09L571.382 1032.29L560.642 1038.49Z" fill="#E62B1E"/>
<path d="M592.228 995.07L582.445 989.415L592.229 983.766L592.228 995.07Z" fill="#E62B1E"/>
<path d="M635.846 908.208L635.846 899.141L643.696 903.676L635.846 908.208Z" fill="#E62B1E"/>
<path d="M665.428 864.649L658.772 860.808L665.426 856.966L665.428 864.649Z" fill="#E62B1E"/>
<path d="M711.021 777.982L711.02 772.147L716.073 775.065L711.021 777.982Z" fill="#E62B1E"/>
<path d="M665.072 692.561L659.453 689.315L665.07 686.071L665.072 692.561Z" fill="#E62B1E"/>
<path d="M636.556 649.719L636.557 643.17L642.23 646.443L636.556 649.719Z" fill="#E62B1E"/>
<path d="M590.831 563.971L585.159 560.698L590.833 557.422L590.831 563.971Z" fill="#E62B1E"/>
<path d="M562.296 521.1L562.296 514.548L567.97 517.824L562.296 521.1Z" fill="#E62B1E"/>
<path d="M516.676 435.529L510.693 432.077L516.675 428.624L516.676 435.529Z" fill="#E62B1E"/>
<path d="M487.848 392.805L487.849 385.601L494.088 389.202L487.848 392.805Z" fill="#E62B1E"/>
<path d="M442.398 306.879L436.468 303.454L442.396 300.031L442.398 306.879Z" fill="#E62B1E"/>
<path d="M338.894 307.831L338.889 299.064L346.482 303.45L338.894 307.831Z" fill="#E62B1E"/>
<path d="M294.765 308.372L286.231 303.445L294.764 298.518L294.765 308.372Z" fill="#E62B1E"/>
<path d="M189.55 309.273L189.543 297.602L199.653 303.44L189.55 309.273Z" fill="#E62B1E"/>
<path d="M147.014 309.669L136.221 303.432L147.014 297.201L147.014 309.669Z" fill="#E62B1E"/>
<path d="M40.5038 310.21L40.5034 296.647L52.2448 303.431L40.5038 310.21Z" fill="#E62B1E"/>
<path d="M-1.08113 310.362L-13.0918 303.423L-1.08203 296.489L-1.08113 310.362Z" fill="#E62B1E"/>
<path d="M79.084 1306.55L49.5381 1289.48L79.0762 1272.43L79.084 1306.55Z" fill="#E62B1E"/>
<path d="M110.312 1304.08L110.312 1274.9L135.58 1289.49L110.312 1304.08Z" fill="#E62B1E"/>
<path d="M224.04 1300.42L205.119 1289.49L224.041 1278.57L224.04 1300.42Z" fill="#E62B1E"/>
<path d="M261.675 1299.13L261.672 1279.86L278.358 1289.5L261.675 1299.13Z" fill="#E62B1E"/>
<path d="M370.682 1297.21L357.343 1289.51L370.683 1281.8L370.682 1297.21Z" fill="#E62B1E"/>
<path d="M411.717 1296.48L411.716 1282.55L423.776 1289.51L411.717 1296.48Z" fill="#E62B1E"/>
<path d="M486.509 1252.66L486.511 1240.63L496.931 1246.64L486.509 1252.66Z" fill="#E62B1E"/>
<path d="M518.1 1209.61L507.995 1203.77L518.102 1197.94L518.1 1209.61Z" fill="#E62B1E"/>
<path d="M560.962 1123.68L560.963 1112.38L570.754 1118.03L560.962 1123.68Z" fill="#E62B1E"/>
<path d="M592.13 1080.63L582.655 1075.16L592.128 1069.69L592.13 1080.63Z" fill="#E62B1E"/>
<path d="M635.643 994.317L635.642 984.52L644.123 989.422L635.643 994.317Z" fill="#E62B1E"/>
<path d="M665.73 950.902L658.188 946.548L665.727 942.196L665.73 950.902Z" fill="#E62B1E"/>
<path d="M710.819 864.082L710.823 857.536L716.489 860.808L710.819 864.082Z" fill="#E62B1E"/>
<path d="M739.127 820.826L734.126 817.94L739.128 815.052L739.127 820.826Z" fill="#E62B1E"/>
<path d="M738.911 734.725L734.532 732.197L738.911 729.668L738.911 734.725Z" fill="#E62B1E"/>
<path d="M711.134 692.031L711.132 686.612L715.825 689.323L711.134 692.031Z" fill="#E62B1E"/>
<path d="M664.858 606.46L659.86 603.572L664.858 600.686L664.858 606.46Z" fill="#E62B1E"/>
<path d="M636.774 563.585L636.771 557.812L641.773 560.699L636.774 563.585Z" fill="#E62B1E"/>
<path d="M590.601 477.842L585.603 474.953L590.602 472.067L590.601 477.842Z" fill="#E62B1E"/>
<path d="M562.516 434.966L562.514 429.194L567.515 432.08L562.516 434.966Z" fill="#E62B1E"/>
<path d="M516.357 349.248L511.304 346.33L516.355 343.413L516.357 349.248Z" fill="#E62B1E"/>
<path d="M488.257 306.344L488.254 300.572L493.255 303.458L488.257 306.344Z" fill="#E62B1E"/>
<path d="M413.895 263.646L413.899 257.516L419.205 260.58L413.895 263.646Z" fill="#E62B1E"/>
<path d="M368.266 264.21L361.971 260.579L368.265 256.945L368.266 264.21Z" fill="#E62B1E"/>
<path d="M264.551 265.108L264.55 256.037L272.401 260.576L264.551 265.108Z" fill="#E62B1E"/>
<path d="M220.495 265.462L212.015 260.569L220.494 255.674L220.495 265.462Z" fill="#E62B1E"/>
<path d="M115.506 266.034L115.504 255.091L124.979 260.565L115.506 266.034Z" fill="#E62B1E"/>
<path d="M72.5319 266.394L62.4212 260.556L72.5312 254.719L72.5319 266.394Z" fill="#E62B1E"/>
<path d="M5.47124 1350.52L-25.9872 1332.35L5.47168 1314.19L5.47124 1350.52Z" fill="#E62B1E"/>
<path d="M35.3073 1348.25L35.3018 1316.46L62.843 1332.36L35.3073 1348.25Z" fill="#E62B1E"/>
<path d="M150.514 1344.53L129.438 1332.36L150.511 1320.2L150.514 1344.53Z" fill="#E62B1E"/>
<path d="M186.79 1343.1L186.788 1321.63L205.383 1332.37L186.79 1343.1Z" fill="#E62B1E"/>
<path d="M297.064 1341.16L281.842 1332.37L297.061 1323.58L297.064 1341.16Z" fill="#E62B1E"/>
<path d="M336.845 1340.42L336.842 1324.33L350.775 1332.38L336.845 1340.42Z" fill="#E62B1E"/>
<path d="M444.389 1339.14L432.696 1332.39L444.391 1325.63L444.389 1339.14Z" fill="#E62B1E"/>
<path d="M486.392 1338.62L486.393 1326.15L497.185 1332.39L486.392 1338.62Z" fill="#E62B1E"/>
<path d="M518.106 1295.35L507.999 1289.52L518.105 1283.68L518.106 1295.35Z" fill="#E62B1E"/>
<path d="M561.303 1208.85L561.302 1198.7L570.093 1203.78L561.303 1208.85Z" fill="#E62B1E"/>
<path d="M591.804 1165.8L583.328 1160.91L591.804 1156.01L591.804 1165.8Z" fill="#E62B1E"/>
<path d="M635.754 1079.88L635.749 1070.45L643.918 1075.17L635.754 1079.88Z" fill="#E62B1E"/>
<path d="M665.757 1036.68L658.16 1032.29L665.752 1027.91L665.757 1036.68Z" fill="#E62B1E"/>
<path d="M710.621 950.185L710.62 942.921L716.91 946.554L710.621 950.185Z" fill="#E62B1E"/>
<path d="M739.254 906.779L733.891 903.681L739.25 900.587L739.254 906.779Z" fill="#E62B1E"/>
<path d="M785.602 820.293L785.599 815.591L789.673 817.942L785.602 820.293Z" fill="#E62B1E"/>
<path d="M812.854 777.07L809.4 775.074L812.859 773.076L812.854 777.07Z" fill="#E62B1E"/>
<path d="M785.698 734.371L785.693 730.024L789.462 732.198L785.698 734.371Z" fill="#E62B1E"/>
<path d="M738.801 648.801L734.73 646.448L738.806 644.095L738.801 648.801Z" fill="#E62B1E"/>
<path d="M711.334 605.927L711.332 601.225L715.41 603.574L711.334 605.927Z" fill="#E62B1E"/>
<path d="M664.543 520.182L660.473 517.829L664.548 515.476L664.543 520.182Z" fill="#E62B1E"/>
<path d="M637.078 477.308L637.075 472.606L641.153 474.955L637.078 477.308Z" fill="#E62B1E"/>
<path d="M590.283 391.56L586.213 389.207L590.288 386.854L590.283 391.56Z" fill="#E62B1E"/>
<path d="M562.817 348.686L562.814 343.984L566.892 346.333L562.817 348.686Z" fill="#E62B1E"/>
<path d="M515.919 262.762L512.159 260.588L515.923 258.415L515.919 262.762Z" fill="#E62B1E"/>
<path d="M488.762 219.71L488.76 215.72L492.221 217.713L488.762 219.71Z" fill="#E62B1E"/>
<path d="M441.771 220.064L437.701 217.711L441.772 215.36L441.771 220.064Z" fill="#E62B1E"/>
<path d="M339.54 220.95L339.542 214.458L345.161 217.705L339.54 220.95Z" fill="#E62B1E"/>
<path d="M294.011 221.333L287.72 217.7L294.01 214.069L294.011 221.333Z" fill="#E62B1E"/>
<path d="M190.489 221.898L190.489 213.491L197.766 217.697L190.489 221.898Z" fill="#E62B1E"/>
<path d="M146.025 222.227L138.176 217.692L146.029 213.158L146.025 222.227Z" fill="#E62B1E"/>
<path d="M41.4615 222.79L41.4609 212.577L50.3053 217.684L41.4615 222.79Z" fill="#E62B1E"/>
<path d="M-1.93023 223.152L-11.4095 217.68L-1.93262 212.209L-1.93023 223.152Z" fill="#E62B1E"/>
<path d="M77.2096 1389.04L53.2929 1375.23L77.21 1361.42L77.2096 1389.04Z" fill="#E62B1E"/>
<path d="M111.718 1387.4L111.713 1363.06L132.791 1375.24L111.718 1387.4Z" fill="#E62B1E"/>
<path d="M223.428 1385.09L206.365 1375.24L223.43 1365.39L223.428 1385.09Z" fill="#E62B1E"/>
<path d="M261.968 1384.38L261.965 1366.11L277.784 1375.24L261.968 1384.38Z" fill="#E62B1E"/>
<path d="M370.583 1382.77L357.556 1375.25L370.581 1367.73L370.583 1382.77Z" fill="#E62B1E"/>
<path d="M411.717 1382.22L411.719 1368.29L423.78 1375.25L411.717 1382.22Z" fill="#E62B1E"/>
<path d="M561.187 1294.81L561.183 1284.23L570.345 1289.52L561.187 1294.81Z" fill="#E62B1E"/>
<path d="M591.726 1251.39L583.512 1246.65L591.726 1241.91L591.726 1251.39Z" fill="#E62B1E"/>
<path d="M636.072 1165.09L636.068 1156.74L643.299 1160.91L636.072 1165.09Z" fill="#E62B1E"/>
<path d="M665.529 1122.03L658.618 1118.04L665.53 1114.05L665.529 1122.03Z" fill="#E62B1E"/>
<path d="M710.629 1035.93L710.628 1028.67L716.918 1032.3L710.629 1035.93Z" fill="#E62B1E"/>
<path d="M739.341 992.67L733.724 989.427L739.345 986.182L739.341 992.67Z" fill="#E62B1E"/>
<path d="M785.506 906.219L785.502 901.155L789.885 903.69L785.506 906.219Z" fill="#E62B1E"/>
<path d="M812.966 862.99L809.201 860.815L812.965 858.642L812.966 862.99Z" fill="#E62B1E"/>
<path d="M860.259 776.718L860.263 773.433L863.103 775.076L860.259 776.718Z" fill="#E62B1E"/>
<path d="M812.753 691.145L809.6 689.328L812.752 687.508L812.753 691.145Z" fill="#E62B1E"/>
<path d="M785.897 648.273L785.899 644.634L789.048 646.453L785.897 648.273Z" fill="#E62B1E"/>
<path d="M738.597 562.703L735.133 560.707L738.593 558.71L738.597 562.703Z" fill="#E62B1E"/>
<path d="M711.534 519.832L711.537 515.835L714.994 517.835L711.534 519.832Z" fill="#E62B1E"/>
<path d="M664.337 434.081L660.875 432.089L664.335 430.091L664.337 434.081Z" fill="#E62B1E"/>
<path d="M637.274 391.21L637.278 387.213L640.734 389.213L637.274 391.21Z" fill="#E62B1E"/>
<path d="M590.076 305.459L586.613 303.463L590.072 301.465L590.076 305.459Z" fill="#E62B1E"/>
<path d="M563.118 262.41L563.121 258.771L566.27 260.59L563.118 262.41Z" fill="#E62B1E"/>
<path d="M515.613 176.483L512.765 174.843L515.609 173.201L515.613 176.483Z" fill="#E62B1E"/>
<path d="M414.406 177.009L414.406 172.664L418.169 174.836L414.406 177.009Z" fill="#E62B1E"/>
<path d="M367.62 177.363L363.241 174.834L367.62 172.306L367.62 177.363Z" fill="#E62B1E"/>
<path d="M265.287 178.071L265.287 171.585L270.908 174.826L265.287 178.071Z" fill="#E62B1E"/>
<path d="M219.654 178.274L213.675 174.82L219.649 171.371L219.654 178.274Z" fill="#E62B1E"/>
<path d="M116.355 178.81L116.349 170.826L123.267 174.819L116.355 178.81Z" fill="#E62B1E"/>
<path d="M71.6697 179.167L64.1335 174.815L71.6719 170.463L71.6697 179.167Z" fill="#E62B1E"/>
<path d="M3.83016 1433.41L-22.684 1418.1L3.82617 1402.79L3.83016 1433.41Z" fill="#E62B1E"/>
<path d="M36.52 1431.91L36.5189 1404.29L60.4335 1418.1L36.52 1431.91Z" fill="#E62B1E"/>
<path d="M149.908 1429.22L130.657 1418.11L149.908 1406.99L149.908 1429.22Z" fill="#E62B1E"/>
<path d="M187.089 1428.34L187.088 1407.88L204.802 1418.11L187.089 1428.34Z" fill="#E62B1E"/>
<path d="M297.066 1426.91L281.85 1418.11L297.064 1409.33L297.066 1426.91Z" fill="#E62B1E"/>
<path d="M336.939 1426.01L336.941 1410.23L350.604 1418.12L336.939 1426.01Z" fill="#E62B1E"/>
<path d="M636.078 1250.83L636.076 1242.48L643.305 1246.65L636.078 1250.83Z" fill="#E62B1E"/>
<path d="M665.434 1207.6L658.834 1203.78L665.435 1199.97L665.434 1207.6Z" fill="#E62B1E"/>
<path d="M710.841 1121.32L710.841 1114.77L716.508 1118.05L710.841 1121.32Z" fill="#E62B1E"/>
<path d="M739.262 1078.27L733.903 1075.17L739.266 1072.08L739.262 1078.27Z" fill="#E62B1E"/>
<path d="M785.51 991.955L785.51 986.898L789.889 989.427L785.51 991.955Z" fill="#E62B1E"/>
<path d="M813.06 948.886L809.037 946.557L813.056 944.237L813.06 948.886Z" fill="#E62B1E"/>
<path d="M860.163 862.635L860.159 859.001L863.311 860.817L860.163 862.635Z" fill="#E62B1E"/>
<path d="M886.909 819.587L884.064 817.951L886.908 816.309L886.909 819.587Z" fill="#E62B1E"/>
<path d="M886.8 733.67L884.261 732.206L886.798 730.741L886.8 733.67Z" fill="#E62B1E"/>
<path d="M860.272 690.944L860.272 687.717L863.063 689.332L860.272 690.944Z" fill="#E62B1E"/>
<path d="M812.644 605.224L809.8 603.583L812.641 601.943L812.644 605.224Z" fill="#E62B1E"/>
<path d="M785.996 562.354L785.995 559.067L788.837 560.714L785.996 562.354Z" fill="#E62B1E"/>
<path d="M738.386 476.606L735.54 474.961L738.381 473.321L738.386 476.606Z" fill="#E62B1E"/>
<path d="M711.735 433.732L711.736 430.448L714.576 432.092L711.735 433.732Z" fill="#E62B1E"/>
<path d="M664.125 347.984L661.281 346.342L664.122 344.702L664.125 347.984Z" fill="#E62B1E"/>
<path d="M637.476 305.11L637.476 301.826L640.316 303.47L637.476 305.11Z" fill="#E62B1E"/>
<path d="M589.851 219.333L587.057 217.719L589.848 216.108L589.851 219.333Z" fill="#E62B1E"/>
<path d="M563.317 176.312L563.319 173.381L565.853 174.847L563.317 176.312Z" fill="#E62B1E"/>
<path d="M488.959 133.611L488.963 130.326L491.804 131.969L488.959 133.611Z" fill="#E62B1E"/>
<path d="M441.44 133.757L438.344 131.964L441.442 130.175L441.44 133.757Z" fill="#E62B1E"/>
<path d="M340.071 134.282L340.068 129.637L344.089 131.962L340.071 134.282Z" fill="#E62B1E"/>
<path d="M293.368 134.484L288.989 131.956L293.368 129.427L293.368 134.484Z" fill="#E62B1E"/>
<path d="M191.12 135.045L191.121 128.855L196.483 131.949L191.12 135.045Z" fill="#E62B1E"/>
<path d="M145.298 135.219L139.626 131.947L145.293 128.675L145.298 135.219Z" fill="#E62B1E"/>
<path d="M41.9938 136.112L41.9941 127.771L49.2209 131.939L41.9938 136.112Z" fill="#E62B1E"/>
<path d="M-2.37487 136.651L-10.5405 131.935L-2.37598 127.221L-2.37487 136.651Z" fill="#E62B1E"/>
<path d="M76.4905 1473.53L54.754 1460.98L76.4922 1448.42L76.4905 1473.53Z" fill="#E62B1E"/>
<path d="M112.131 1472.44L112.122 1449.51L131.983 1460.98L112.131 1472.44Z" fill="#E62B1E"/>
<path d="M223.455 1470.87L206.337 1460.98L223.451 1451.1L223.455 1470.87Z" fill="#E62B1E"/>
<path d="M261.94 1470.18L261.939 1451.8L277.863 1460.99L261.94 1470.18Z" fill="#E62B1E"/>
<path d="M710.86 1207.03L710.857 1200.54L716.478 1203.78L710.86 1207.03Z" fill="#E62B1E"/>
<path d="M739.149 1163.8L734.15 1160.92L739.148 1158.03L739.149 1163.8Z" fill="#E62B1E"/>
<path d="M785.516 1077.7L785.513 1072.64L789.895 1075.18L785.516 1077.7Z" fill="#E62B1E"/>
<path d="M813.063 1034.62L809.044 1032.3L813.062 1029.98L813.063 1034.62Z" fill="#E62B1E"/>
<path d="M860.169 948.384L860.166 944.744L863.321 946.565L860.169 948.384Z" fill="#E62B1E"/>
<path d="M886.908 905.335L884.07 903.695L886.914 902.053L886.908 905.335Z" fill="#E62B1E"/>
<path d="M934.613 819.415L934.614 816.485L937.149 817.951L934.613 819.415Z" fill="#E62B1E"/>
<path d="M515.502 90.5626L512.964 89.0987L515.5 87.6343L515.502 90.5626Z" fill="#E62B1E"/>
<path d="M414.709 90.7369L414.703 87.4519L417.553 89.0948L414.709 90.7369Z" fill="#E62B1E"/>
<path d="M367.203 90.9073L364.056 89.0919L367.208 87.2722L367.203 90.9073Z" fill="#E62B1E"/>
<path d="M265.798 91.4346L265.799 86.7307L269.87 89.0838L265.798 91.4346Z" fill="#E62B1E"/>
<path d="M219.114 91.6113L214.733 89.0792L219.112 86.5508L219.114 91.6113Z" fill="#E62B1E"/>
<path d="M116.868 92.1666L116.872 85.9801L122.224 89.0744L116.868 92.1666Z" fill="#E62B1E"/>
<path d="M71.2302 92.6783L64.9904 89.0679L71.2305 85.4652L71.2302 92.6783Z" fill="#E62B1E"/>
<path d="M3.00578 1517.72L-21.0212 1503.84L3.00195 1489.97L3.00578 1517.72Z" fill="#E62B1E"/>
<path d="M37.1244 1516.62L37.1208 1491.07L59.2479 1503.85L37.1244 1516.62Z" fill="#E62B1E"/>
<path d="M149.62 1514.46L131.249 1503.85L149.619 1493.24L149.62 1514.46Z" fill="#E62B1E"/>
<path d="M187.185 1513.92L187.182 1493.78L204.625 1503.85L187.185 1513.92Z" fill="#E62B1E"/>
<path d="M785.534 1163.42L785.537 1158.42L789.868 1160.92L785.534 1163.42Z" fill="#E62B1E"/>
<path d="M812.981 1120.22L809.221 1118.05L812.981 1115.87L812.981 1120.22Z" fill="#E62B1E"/>
<path d="M860.174 1034.12L860.173 1030.49L863.322 1032.31L860.174 1034.12Z" fill="#E62B1E"/>
<path d="M886.92 991.082L884.077 989.434L886.918 987.794L886.92 991.082Z" fill="#E62B1E"/>
<path d="M934.623 905.162L934.624 902.232L937.159 903.698L934.623 905.162Z" fill="#E62B1E"/>
<path d="M961.059 862.288L958.52 860.824L961.057 859.36L961.059 862.288Z" fill="#E62B1E"/>
<path d="M489.057 47.6894L489.059 44.7591L491.594 46.225L489.057 47.6894Z" fill="#E62B1E"/>
<path d="M441.253 47.6875L438.713 46.2201L441.249 44.7557L441.253 47.6875Z" fill="#E62B1E"/>
<path d="M340.458 47.8578L340.453 44.5728L343.299 46.2178L340.458 47.8578Z" fill="#E62B1E"/>
<path d="M292.95 48.029L289.803 46.2136L292.951 44.3959L292.95 48.029Z" fill="#E62B1E"/>
<path d="M191.546 48.5604L191.543 43.8585L195.618 46.2096L191.546 48.5604Z" fill="#E62B1E"/>
<path d="M144.964 48.9099L140.273 46.2024L144.964 43.4942L144.964 48.9099Z" fill="#E62B1E"/>
<path d="M76.1079 1558.59L55.5395 1546.72L76.1064 1534.84L76.1079 1558.59Z" fill="#E62B1E"/>
<path d="M112.52 1557.52L112.518 1535.93L131.222 1546.72L112.52 1557.52Z" fill="#E62B1E"/>
<path d="M860.182 1119.87L860.182 1116.23L863.331 1118.05L860.182 1119.87Z" fill="#E62B1E"/>
<path d="M886.926 1076.83L884.084 1075.18L886.921 1073.54L886.926 1076.83Z" fill="#E62B1E"/>
<path d="M934.625 990.905L934.625 987.98L937.165 989.438L934.625 990.905Z" fill="#E62B1E"/>
<path d="M961.067 948.032L958.528 946.568L961.064 945.104L961.067 948.032Z" fill="#E62B1E"/>
<path d="M414.804 4.81085L414.808 1.88405L417.341 3.34647L414.804 4.81085Z" fill="#E62B1E"/>
<path d="M366.993 4.81347L364.458 3.34751L366.998 1.88109L366.993 4.81347Z" fill="#E62B1E"/>
<path d="M266.117 5.12957L266.116 1.54961L269.219 3.33839L266.117 5.12957Z" fill="#E62B1E"/>
<path d="M218.786 5.30261L215.381 3.33425L218.784 1.36948L218.786 5.30261Z" fill="#E62B1E"/>
<path d="M2.74982 1603L-20.4881 1589.58L2.74609 1576.17L2.74982 1603Z" fill="#E62B1E"/>
<path d="M37.2928 1602.07L37.2913 1577.1L58.9175 1589.59L37.2928 1602.07Z" fill="#E62B1E"/>
<path d="M934.633 1076.65L934.63 1073.72L937.169 1075.18L934.633 1076.65Z" fill="#E62B1E"/>
<path d="M961.066 1033.78L958.533 1032.32L961.073 1030.85L961.066 1033.78Z" fill="#E62B1E"/>
<path d="M1008.87 948.037L1008.88 945.11L1011.41 946.573L1008.87 948.037Z" fill="#E62B1E"/>
<path d="M1008.88 1033.78L1008.88 1030.85L1011.42 1032.32L1008.88 1033.78Z" fill="#E62B1E"/>
<path d="M1035.32 990.911L1032.78 989.45L1035.32 987.986L1035.32 990.911Z" fill="#E62B1E"/>
</g>
</svg>
