<svg width="1920" height="596" viewBox="0 0 1920 596" fill="none" xmlns="http://www.w3.org/2000/svg">
<g opacity="0.87">
<path opacity="0.57" d="M-1021.08 1081.08C-638.788 1077.24 -237.11 552.423 6.21367 609.959C257.369 669.346 614.671 906.6 880.62 791.254C1146.57 675.907 1273.85 392.616 1944.47 629.763" stroke="#FF3219" stroke-width="0.25" stroke-miterlimit="10"/>
<path opacity="0.57" d="M-1007.19 1080.68C-614.882 1086.08 -214.413 561.551 30.4744 607.592C282.821 655.397 630.358 879.57 895.133 772.994C1159.91 666.418 1296.79 388.066 1935.47 613.921" stroke="#FF3219" stroke-width="0.25" stroke-miterlimit="10"/>
<path opacity="0.57" d="M-993.299 1080.27C-590.976 1094.93 -191.717 570.679 54.735 605.226C308.273 641.449 646.046 852.539 909.646 754.734C1173.25 656.929 1319.73 383.516 1926.48 598.078" stroke="#FF3219" stroke-width="0.25" stroke-miterlimit="10"/>
<path opacity="0.57" d="M-979.408 1079.87C-567.069 1103.78 -169.02 579.806 78.996 602.859C333.726 627.5 661.733 825.508 924.159 736.474C1186.58 647.44 1342.68 378.966 1917.49 582.235" stroke="#FF3219" stroke-width="0.25" stroke-miterlimit="10"/>
<path opacity="0.57" d="M-965.517 1079.47C-543.163 1112.63 -146.296 588.348 103.257 600.493C359.208 612.95 677.421 798.478 938.672 718.215C1199.92 637.952 1365.62 374.416 1908.5 566.393" stroke="#FF3219" stroke-width="0.25" stroke-miterlimit="10"/>
<path opacity="0.57" d="M-951.626 1079.07C-519.257 1121.47 -123.626 597.374 127.518 598.127C384.633 598.898 693.109 771.447 953.185 699.955C1213.26 628.463 1388.56 369.867 1899.51 550.55" stroke="#FF3219" stroke-width="0.25" stroke-miterlimit="10"/>
<path opacity="0.57" d="M-937.734 1078.67C-495.351 1130.32 -100.965 606.42 151.778 595.76C410.05 584.868 708.796 744.417 967.698 681.695C1226.6 618.974 1411.5 365.317 1890.51 534.708" stroke="#FF3219" stroke-width="0.25" stroke-miterlimit="10"/>
<path opacity="0.57" d="M-923.843 1078.27C-471.445 1139.17 -78.3078 615.488 176.039 593.394C435.462 570.859 724.484 717.386 982.212 663.436C1239.94 609.485 1434.44 360.767 1881.52 518.865" stroke="#FF3219" stroke-width="0.25" stroke-miterlimit="10"/>
<path opacity="0.57" d="M-909.952 1077.87C-447.539 1148.01 -55.6532 624.577 200.3 591.028C460.872 556.873 740.171 690.356 996.725 645.176C1253.28 599.996 1457.38 356.217 1872.53 503.022" stroke="#FF3219" stroke-width="0.25" stroke-miterlimit="10"/>
<path opacity="0.57" d="M-896.061 1077.47C-423.633 1156.86 -32.998 633.687 224.561 588.661C486.283 542.908 755.859 663.325 1011.24 626.916C1266.62 590.508 1480.33 351.667 1863.53 487.18" stroke="#FF3219" stroke-width="0.25" stroke-miterlimit="10"/>
<path opacity="0.57" d="M-882.17 1077.07C-399.727 1165.71 -10.3395 642.817 248.821 586.295C511.696 528.963 771.546 636.294 1025.75 608.657C1279.96 581.019 1503.27 347.117 1854.54 471.337" stroke="#FF3219" stroke-width="0.25" stroke-miterlimit="10"/>
<path opacity="0.57" d="M-868.279 1076.66C-375.82 1174.56 12.3248 651.965 273.082 583.928C537.116 515.037 787.233 609.264 1040.26 590.397C1293.3 571.53 1526.21 342.567 1845.55 455.495" stroke="#FF3219" stroke-width="0.25" stroke-miterlimit="10"/>
<path opacity="0.57" d="M-854.388 1076.26C-351.914 1183.4 34.9963 661.131 297.343 581.562C562.543 501.128 802.921 582.233 1054.78 572.137C1306.63 562.041 1549.15 338.018 1836.56 439.652" stroke="#FF3219" stroke-width="0.25" stroke-miterlimit="10"/>
<path opacity="0.57" d="M-840.497 1075.86C-328.008 1192.25 57.6766 670.312 321.604 579.196C587.979 487.234 818.609 555.203 1069.29 553.877C1319.97 552.552 1572.09 333.468 1827.56 423.81" stroke="#FF3219" stroke-width="0.25" stroke-miterlimit="10"/>
<path opacity="0.57" d="M-826.606 1075.46C-304.102 1201.1 80.3673 679.507 345.865 576.829C613.425 473.354 834.296 528.172 1083.8 535.618C1333.31 543.064 1595.03 328.918 1818.57 407.967" stroke="#FF3219" stroke-width="0.25" stroke-miterlimit="10"/>
<path opacity="0.57" d="M-812.715 1075.06C-280.196 1209.94 103.069 688.713 370.125 574.463C638.882 459.486 849.983 501.142 1098.32 517.358C1346.65 533.575 1617.98 324.368 1809.58 392.124" stroke="#FF3219" stroke-width="0.25" stroke-miterlimit="10"/>
<path opacity="0.57" d="M-798.824 1074.66C-256.29 1218.79 125.781 697.929 394.386 572.097C664.351 445.627 865.671 474.111 1112.83 499.099C1359.99 524.086 1640.92 319.818 1800.59 376.282" stroke="#FF3219" stroke-width="0.25" stroke-miterlimit="10"/>
<path opacity="0.57" d="M-784.933 1074.26C-232.384 1227.64 148.73 707.594 418.647 569.73C690.056 432.219 881.358 447.08 1127.34 480.839C1373.33 514.597 1663.86 315.268 1791.59 360.439" stroke="#FF3219" stroke-width="0.25" stroke-miterlimit="10"/>
<path opacity="0.57" d="M-771.042 1073.86C-208.478 1236.49 171.427 716.722 442.908 567.364C715.508 418.27 897.046 420.05 1141.86 462.579C1386.67 505.109 1686.8 310.719 1782.6 344.597" stroke="#FF3219" stroke-width="0.25" stroke-miterlimit="10"/>
<path opacity="0.57" d="M-757.151 1073.45C-184.572 1245.33 194.123 725.85 467.168 564.998C740.96 404.322 912.733 393.019 1156.37 444.319C1400.01 495.62 1709.74 306.169 1773.61 328.754" stroke="#FF3219" stroke-width="0.25" stroke-miterlimit="10"/>
<path opacity="0.57" d="M-743.26 1073.05C-160.666 1254.18 216.819 734.977 491.429 562.631C766.412 390.373 928.421 365.989 1170.88 426.06C1413.34 486.131 1732.68 301.619 1764.62 312.912" stroke="#FF3219" stroke-width="0.25" stroke-miterlimit="10"/>
<path opacity="0.57" d="M-729.368 1072.65C-136.759 1263.03 239.516 744.105 515.69 560.265C791.864 376.424 944.109 338.958 1185.4 407.8C1426.68 476.642 1755.62 297.069 1755.62 297.069" stroke="#FF3219" stroke-width="0.25" stroke-miterlimit="10"/>
<path opacity="0.57" d="M-732.725 1065.33C-611.524 1100.37 -498.45 1111.84 -393.584 1102.76C-257.391 1090.59 -134.02 1043.64 -21.7209 980.073C40.8068 944.36 100.512 903.918 156.873 859.101C219.711 809.442 276.944 756.719 330.49 707.782C393.609 650.096 451.796 597.403 507.023 558.261C565.886 516.699 620.491 480.559 672.213 455.076C768.545 407.613 850.58 389.216 935.119 385.997C1008.41 383.4 1084.14 393.053 1169.05 412.52C1173.27 413.487 1177.51 414.468 1181.78 415.465C1269.36 436.095 1365.74 422.956 1455.73 400.583C1612.99 361.486 1747.98 289.054 1754.56 288.149" stroke="#FF3219" stroke-width="0.25" stroke-miterlimit="10"/>
<path opacity="0.57" d="M-736.081 1058.01C-615.361 1088.99 -501.759 1103.02 -396.49 1096.27C-260.541 1087.55 -136.433 1044.16 -22.8361 983.35C40.6507 949.268 100.945 909.547 157.318 864.667C219.926 814.799 275.551 760.494 327.443 710.123C388.163 651.181 444.143 597.105 498.356 556.258C556.024 513.112 611.021 473.877 663.955 449.468C761.21 404.622 843.013 394.563 928.14 394.823C1002.23 395.049 1079.96 404.889 1165.3 420.758C1169.57 421.551 1173.86 422.322 1178.16 423.129C1266.56 439.636 1361.22 420.772 1451.16 395.561C1605.26 352.37 1740.33 281.039 1753.49 279.23" stroke="#FF3219" stroke-width="0.25" stroke-miterlimit="10"/>
<path opacity="0.57" d="M-739.437 1050.68C-619.199 1077.62 -505.087 1094.05 -399.396 1089.78C-263.717 1084.3 -138.846 1044.68 -23.9513 986.627C40.4709 954.196 101.367 915.191 157.764 870.232C220.14 820.156 274.163 764.287 324.396 712.463C382.724 652.287 436.388 596.679 489.689 554.254C546.055 509.39 601.535 467.182 655.697 443.86C753.844 401.599 835.459 400.035 921.162 403.649C996.053 406.807 1075.79 416.703 1161.56 428.997C1165.87 429.615 1170.2 430.186 1174.54 430.794C1263.77 443.178 1356.67 418.641 1446.59 390.539C1597.51 343.374 1732.69 273.024 1752.42 270.31" stroke="#FF3219" stroke-width="0.25" stroke-miterlimit="10"/>
<path opacity="0.57" d="M-742.793 1043.36C-623.036 1066.24 -508.421 1085.06 -402.302 1083.29C-266.901 1081.02 -141.259 1045.2 -25.0668 989.904C39.8978 958.767 102.412 921.062 158.209 875.797C220.354 825.514 272.779 768.097 321.349 714.803C377.293 653.416 428.703 596.352 481.022 552.251C536.161 505.772 592.036 460.472 647.439 438.252C746.451 398.544 827.908 405.521 914.183 412.475C989.882 418.576 1071.65 428.496 1157.81 437.235C1162.17 437.678 1166.55 438.049 1170.92 438.458C1260.97 446.719 1352.12 416.565 1442.02 385.516C1589.75 334.497 1725.04 265.009 1751.35 261.39" stroke="#FF3219" stroke-width="0.25" stroke-miterlimit="10"/>
<path opacity="0.57" d="M-746.149 1036.04C-626.874 1054.87 -511.76 1076.05 -405.208 1076.79C-270.091 1077.73 -143.673 1045.73 -26.182 993.181C39.3826 963.605 102.806 927.047 158.655 881.362C220.569 830.871 271.403 771.925 318.302 717.143C371.873 654.566 421.021 596.03 472.355 550.247C526.27 502.161 582.523 453.746 639.181 432.645C739.035 395.455 820.362 411.022 907.205 421.301C983.713 430.357 1067.51 440.264 1154.06 445.474C1158.47 445.739 1162.89 445.913 1167.3 446.123C1258.17 450.261 1347.56 414.546 1437.45 380.494C1582 325.738 1717.39 256.994 1750.28 252.47" stroke="#FF3219" stroke-width="0.25" stroke-miterlimit="10"/>
<path opacity="0.57" d="M-749.506 1028.71C-630.711 1043.49 -515.103 1067.04 -408.114 1070.3C-273.285 1074.42 -146.085 1046.25 -27.2973 996.458C38.8674 968.443 103.2 933.032 159.101 886.928C220.783 836.228 270.037 775.77 315.255 719.483C366.466 655.736 413.342 595.715 463.688 548.244C516.383 498.557 573 447.004 630.923 427.037C731.597 392.332 812.818 416.535 900.226 430.127C977.547 442.15 1063.39 452.008 1150.31 453.712C1154.78 453.8 1159.23 453.777 1163.68 453.788C1255.38 453.802 1343 412.586 1432.88 375.472C1574.27 317.092 1709.75 248.979 1749.22 243.55" stroke="#FF3219" stroke-width="0.25" stroke-miterlimit="10"/>
<path opacity="0.77" d="M-752.862 1021.39C-634.549 1032.12 -518.448 1058 -411.02 1063.81C-276.482 1071.09 -148.498 1046.77 -28.4126 999.736C38.3521 973.282 103.594 939.017 159.546 892.493C220.997 841.586 268.682 779.631 312.208 721.823C361.072 656.926 405.667 595.405 455.021 546.24C506.499 494.959 563.467 440.245 622.665 421.429C724.141 389.175 805.274 422.063 893.248 438.953C971.381 453.954 1059.27 463.727 1146.56 461.951C1151.08 461.859 1155.58 461.641 1160.06 461.452C1252.58 457.344 1338.44 410.685 1428.31 370.45C1566.55 308.557 1702.1 240.964 1748.15 234.631" stroke="#E62B1E" stroke-width="0.25" stroke-miterlimit="10"/>
<path opacity="0.57" d="M-756.218 1014.07C-638.387 1020.75 -521.795 1048.95 -413.926 1057.32C-279.681 1067.74 -150.819 1047.54 -29.5281 1003.01C37.8885 978.261 103.988 945.001 159.992 898.058C221.212 846.943 267.339 783.507 309.161 724.163C355.694 658.133 397.995 595.101 446.353 544.237C496.619 491.366 553.924 433.467 614.407 415.821C716.67 385.985 797.729 427.602 886.269 447.779C965.214 465.769 1055.16 475.421 1142.82 470.189C1147.38 469.917 1151.92 469.504 1156.44 469.117C1249.78 460.886 1333.9 408.844 1423.74 365.427C1558.86 300.125 1694.45 232.949 1747.08 225.711" stroke="#FF3219" stroke-width="0.25" stroke-miterlimit="10"/>
<path opacity="0.57" d="M-759.574 1006.75C-642.224 1009.37 -525.141 1039.89 -416.832 1050.83C-286.396 1064.1 -154.633 1048.91 -30.6433 1006.29C37.3719 983.105 104.382 950.986 160.437 903.624C221.426 852.3 266.012 787.398 306.114 726.504C350.334 659.356 390.328 594.802 437.686 542.234C486.744 487.779 544.928 428.62 606.149 410.213C708.265 379.511 790.182 433.154 879.29 456.605C959.046 477.595 1051.05 487.091 1139.07 478.428C1143.69 477.974 1148.26 477.368 1152.83 476.782C1246.99 464.427 1329.38 407.063 1419.17 360.405C1551.21 291.792 1686.81 224.934 1746.01 216.791" stroke="#FF3219" stroke-width="0.25" stroke-miterlimit="10"/>
<path opacity="0.57" d="M-762.93 999.423C-646.062 997.995 -528.488 1030.81 -419.738 1044.34C-289.419 1060.93 -157.05 1049.07 -31.7587 1009.57C36.8538 987.947 104.776 956.97 160.883 909.189C221.64 857.658 264.7 791.3 303.067 728.844C344.992 660.594 382.665 594.507 429.019 540.23C476.874 484.195 534.821 419.855 597.891 404.605C701.694 379.506 782.632 438.716 872.312 465.431C952.875 489.43 1046.93 498.738 1135.32 486.666C1139.99 486.029 1144.61 485.232 1149.21 484.446C1244.19 467.969 1324.89 405.34 1414.6 355.383C1543.59 283.549 1679.16 216.919 1744.94 207.871" stroke="#FF3219" stroke-width="0.25" stroke-miterlimit="10"/>
<path opacity="0.57" d="M-766.286 992.1C-649.899 986.621 -531.832 1021.71 -422.644 1037.85C-289.274 1057.56 -158.072 1049.13 -32.8739 1012.84C36.3349 992.786 105.17 962.955 161.329 914.754C221.855 863.015 263.407 795.214 300.02 731.184C339.669 661.844 375.008 594.216 420.352 538.226C467.009 480.617 525.262 413.021 589.633 398.998C694.194 376.219 775.078 444.288 865.333 474.257C946.7 501.274 1042.81 510.363 1131.57 494.905C1136.29 494.083 1140.95 493.095 1145.59 492.11C1241.39 471.51 1320.43 403.676 1410.03 350.36C1536.03 275.389 1671.52 208.904 1743.88 198.951" stroke="#FF3219" stroke-width="0.25" stroke-miterlimit="10"/>
<path opacity="0.57" d="M-769.642 984.777C-653.737 975.246 -535.173 1012.6 -425.55 1031.36C-292.467 1054.13 -160.492 1049.65 -33.9891 1016.12C35.8154 997.622 105.564 968.94 161.774 920.319C222.069 868.373 262.131 799.139 296.973 733.524C334.366 663.105 367.355 593.929 411.685 536.223C457.149 477.042 515.7 406.167 581.375 393.39C686.689 372.902 767.519 449.869 858.355 483.083C940.521 513.127 1038.69 521.968 1127.83 503.144C1132.6 502.137 1137.3 500.959 1141.97 499.775C1238.6 475.052 1316 402.068 1405.46 345.339C1528.51 267.306 1663.87 200.889 1742.81 190.031" stroke="#FF3219" stroke-width="0.25" stroke-miterlimit="10"/>
<path opacity="0.57" d="M-772.999 977.454C-657.575 963.872 -538.511 1003.47 -428.456 1024.87C-295.654 1050.68 -162.914 1050.16 -35.1044 1019.4C35.2953 1002.45 105.958 974.925 162.22 925.885C222.283 873.73 260.876 803.07 293.926 735.864C329.084 664.373 359.708 593.644 403.018 534.219C447.294 473.47 506.136 399.293 573.117 387.782C679.182 369.555 759.956 455.458 851.376 491.909C934.338 524.987 1034.55 533.554 1124.08 511.382C1128.9 510.189 1133.64 508.823 1138.35 507.44C1235.8 478.593 1311.62 400.513 1400.89 340.316C1521.05 259.289 1656.22 192.874 1741.74 181.112" stroke="#FF3219" stroke-width="0.25" stroke-miterlimit="10"/>
<path opacity="0.57" d="M-776.355 970.131C-661.413 952.497 -541.844 994.331 -431.363 1018.37C-298.837 1047.22 -165.39 1050.42 -36.2201 1022.68C34.7449 1007.15 106.352 980.909 162.665 931.45C222.497 879.087 259.64 807.009 290.879 738.204C323.821 665.648 352.065 593.363 394.351 532.216C437.444 469.901 496.572 392.4 564.858 382.175C671.675 366.18 752.387 461.054 844.398 500.735C928.149 536.854 1030.41 545.125 1120.33 519.621C1125.2 518.24 1129.98 516.687 1134.73 515.105C1233 482.135 1307.29 399.01 1396.32 335.294C1513.64 251.332 1648.58 184.859 1740.67 172.192" stroke="#FF3219" stroke-width="0.25" stroke-miterlimit="10"/>
<path opacity="0.57" d="M-779.711 962.808C-665.25 941.122 -545.171 985.175 -434.269 1011.88C-302.012 1043.74 -167.803 1050.94 -37.3353 1025.95C34.2297 1011.99 106.746 986.894 163.111 937.015C222.711 884.444 258.425 810.951 287.832 740.544C318.58 666.926 344.428 593.083 385.684 530.212C427.6 466.333 487.008 385.487 556.6 376.567C664.17 362.778 744.812 466.656 837.419 509.561C921.955 548.726 1026.26 556.68 1116.58 527.859C1121.5 526.291 1126.33 524.55 1131.11 522.769C1230.21 485.676 1303 397.554 1391.75 330.272C1506.3 243.425 1640.93 176.844 1739.6 163.272" stroke="#FF3219" stroke-width="0.25" stroke-miterlimit="10"/>
<path opacity="0.57" d="M-783.067 955.485C-669.088 929.747 -548.491 976.006 -437.175 1005.39C-305.179 1040.24 -170.216 1051.46 -38.4506 1029.23C33.7144 1016.83 107.14 992.879 163.556 942.58C222.926 889.802 257.231 814.896 284.785 742.884C313.359 668.207 336.797 592.806 377.016 528.209C417.762 462.768 477.446 378.557 548.342 370.959C656.667 359.35 737.232 472.264 830.44 518.387C915.756 560.604 1022.09 568.224 1112.84 536.098C1117.8 534.34 1122.67 532.414 1127.49 530.434C1227.41 489.218 1298.78 396.144 1387.18 325.25C1499.02 235.562 1633.29 168.829 1738.54 154.352" stroke="#FF3219" stroke-width="0.25" stroke-miterlimit="10"/>
<path opacity="0.57" d="M-786.424 948.162C-672.925 918.373 -551.804 966.823 -440.081 998.902C-308.338 1036.73 -172.629 1051.99 -39.5658 1032.51C33.1993 1021.66 107.534 998.863 164.002 948.146C223.14 895.159 256.058 818.842 281.738 745.225C308.158 669.487 329.171 592.53 368.35 526.205C407.928 459.204 467.887 371.607 540.084 365.351C649.171 355.899 729.646 477.877 823.462 527.213C909.552 572.486 1017.92 579.756 1109.09 544.336C1114.1 542.389 1119.02 540.278 1123.87 538.098C1224.61 492.76 1294.61 394.774 1382.61 320.227C1491.8 227.733 1625.64 160.814 1737.47 145.432" stroke="#FF3219" stroke-width="0.25" stroke-miterlimit="10"/>
<path opacity="0.57" d="M-789.78 940.84C-676.763 906.998 -555.109 957.629 -442.987 992.411C-311.487 1033.2 -175.042 1052.51 -40.6811 1035.78C32.684 1026.5 107.928 1004.85 164.447 953.711C223.354 900.517 254.905 822.786 278.691 747.565C302.976 670.765 321.68 592.327 359.683 524.202C398.231 455.714 458.331 364.64 531.826 359.744C641.68 352.425 722.055 483.493 816.483 536.039C903.343 584.373 1013.73 591.279 1105.34 552.575C1110.4 550.438 1115.36 548.142 1120.25 545.763C1221.82 496.301 1290.49 393.442 1378.04 315.205C1484.65 219.931 1617.99 152.799 1736.4 136.513" stroke="#FF3219" stroke-width="0.25" stroke-miterlimit="10"/>
<path opacity="0.57" d="M-793.136 933.516C-680.6 895.623 -558.405 948.422 -445.893 985.919C-314.627 1029.67 -177.455 1053.03 -41.7964 1039.06C32.1688 1031.34 108.322 1010.83 164.893 959.276C223.569 905.874 253.772 826.729 275.644 749.905C297.813 672.039 314.026 592.029 351.016 522.198C388.369 452.126 448.779 357.656 523.568 354.136C634.198 348.929 714.38 489.245 809.505 544.865C897.056 596.384 1009.53 602.795 1101.59 560.814C1106.7 558.486 1111.7 556.005 1116.64 553.428C1219.02 499.843 1286.45 392.143 1373.47 310.183C1477.56 212.15 1610.35 144.784 1735.33 127.593" stroke="#FF3219" stroke-width="0.25" stroke-miterlimit="10"/>
<path opacity="0.57" d="M-796.492 926.193C-684.438 884.248 -561.644 939.069 -448.799 979.428C-317.701 1025.96 -179.868 1053.55 -42.9119 1042.34C31.6533 1036.18 108.716 1016.82 165.338 964.842C223.783 911.231 252.658 830.667 272.597 752.245C292.666 673.308 306.372 591.73 342.348 520.195C378.506 448.539 439.233 350.654 515.31 348.528C626.723 345.414 706.813 494.802 802.526 553.691C890.87 608.217 1005.25 614.161 1097.85 569.052C1102.99 566.526 1108.05 563.872 1113.02 561.092C1216.23 503.384 1282.46 390.872 1368.9 305.161C1470.53 204.38 1602.7 136.769 1734.26 118.673" stroke="#FF3219" stroke-width="0.25" stroke-miterlimit="10"/>
<path opacity="0.57" d="M-799.848 918.87C-688.276 872.874 -564.97 929.976 -451.705 972.937C-320.875 1022.56 -182.281 1054.07 -44.0271 1045.62C31.1382 1041.02 109.11 1022.8 165.784 970.407C223.997 916.589 251.563 834.6 269.55 754.585C287.537 674.571 298.718 591.432 333.681 518.191C368.644 444.951 429.692 343.637 507.052 342.92C619.259 341.88 699.246 500.359 795.548 562.517C884.683 620.049 1001.09 625.809 1094.1 577.291C1207.21 518.283 1274.41 393.932 1364.33 300.138C1463.57 196.618 1595.05 128.754 1733.2 109.753" stroke="#FF3219" stroke-width="0.25" stroke-miterlimit="10"/>
</g>
</svg>
