<svg width="1920" height="1443" viewBox="0 0 1920 1443" fill="none" xmlns="http://www.w3.org/2000/svg">
<g opacity="0.87">
<path opacity="0.57" d="M-688.198 -335.548C-415.161 -67.9404 239.969 -155.011 371.34 57.7283C506.941 277.315 591.827 697.73 861.444 804.221C1131.06 910.713 1421.38 800.399 1727.89 1442.28" stroke="#FF3219" stroke-width="0.25" stroke-miterlimit="10"/>
<path opacity="0.57" d="M-678.092 -326.009C-404.513 -44.7803 249.563 -132.508 390.168 73.21C534.801 285.449 622.033 689.709 884.618 801.572C1147.2 913.435 1440.82 813.404 1732.73 1424.72" stroke="#FF3219" stroke-width="0.25" stroke-miterlimit="10"/>
<path opacity="0.57" d="M-667.986 -316.47C-393.864 -21.6204 259.157 -110.005 408.997 88.6917C562.662 293.584 652.24 681.688 907.791 798.923C1163.34 916.158 1460.26 826.409 1737.58 1407.16" stroke="#FF3219" stroke-width="0.25" stroke-miterlimit="10"/>
<path opacity="0.57" d="M-657.879 -306.931C-383.216 1.53974 268.752 -87.5017 427.825 104.173C590.522 301.718 682.446 673.668 930.965 796.274C1179.48 918.88 1479.7 839.414 1742.42 1389.6" stroke="#FF3219" stroke-width="0.25" stroke-miterlimit="10"/>
<path opacity="0.57" d="M-647.773 -297.392C-372.568 24.7 278.781 -65.3934 446.653 119.655C618.83 309.448 712.652 665.647 954.14 793.625C1195.63 921.603 1499.14 852.419 1747.26 1372.04" stroke="#FF3219" stroke-width="0.25" stroke-miterlimit="10"/>
<path opacity="0.57" d="M-637.667 -287.854C-361.919 47.86 288.429 -42.9814 465.481 135.137C646.744 317.49 742.859 657.626 977.313 790.976C1211.77 924.325 1518.58 865.424 1752.11 1354.48" stroke="#FF3219" stroke-width="0.25" stroke-miterlimit="10"/>
<path opacity="0.57" d="M-627.561 -278.315C-351.271 71.02 298.056 -20.5603 484.31 150.618C674.638 325.542 773.065 649.605 1000.49 788.326C1227.91 927.047 1538.02 878.429 1756.95 1336.92" stroke="#FF3219" stroke-width="0.25" stroke-miterlimit="10"/>
<path opacity="0.57" d="M-617.455 -268.776C-340.623 94.1801 307.665 1.87232 503.138 166.1C702.512 333.605 803.271 641.585 1023.66 785.677C1244.05 929.769 1557.46 891.433 1761.79 1319.36" stroke="#FF3219" stroke-width="0.25" stroke-miterlimit="10"/>
<path opacity="0.57" d="M-607.348 -259.237C-329.974 117.34 317.257 24.3185 521.966 181.582C730.37 341.683 833.478 633.564 1046.84 783.028C1260.19 932.492 1576.9 904.438 1766.64 1301.8" stroke="#FF3219" stroke-width="0.25" stroke-miterlimit="10"/>
<path opacity="0.57" d="M-597.243 -249.698C-319.326 140.5 326.835 46.78 540.794 197.063C758.212 349.776 863.683 625.543 1070.01 780.379C1276.33 935.214 1596.33 917.443 1771.48 1284.23" stroke="#FF3219" stroke-width="0.25" stroke-miterlimit="10"/>
<path opacity="0.57" d="M-587.136 -240.16C-308.678 163.66 336.401 69.2579 559.623 212.545C786.043 357.886 893.89 617.522 1093.18 777.729C1292.48 937.937 1615.77 930.448 1776.33 1266.67" stroke="#FF3219" stroke-width="0.25" stroke-miterlimit="10"/>
<path opacity="0.57" d="M-577.03 -230.621C-298.029 186.82 345.958 91.7528 578.451 228.027C813.865 366.013 924.096 609.501 1116.36 775.08C1308.62 940.659 1635.21 943.453 1781.17 1249.11" stroke="#FF3219" stroke-width="0.25" stroke-miterlimit="10"/>
<path opacity="0.57" d="M-566.924 -221.082C-287.381 209.98 355.508 114.265 597.279 243.509C841.68 374.158 954.302 601.481 1139.53 772.431C1324.76 943.382 1654.65 956.458 1786.01 1231.55" stroke="#FF3219" stroke-width="0.25" stroke-miterlimit="10"/>
<path opacity="0.57" d="M-556.818 -211.543C-276.733 233.14 365.054 136.794 616.108 258.99C869.49 382.32 984.509 593.46 1162.7 769.782C1340.9 946.104 1674.09 969.463 1790.86 1213.99" stroke="#FF3219" stroke-width="0.25" stroke-miterlimit="10"/>
<path opacity="0.57" d="M-546.712 -202.004C-266.085 256.301 374.597 159.341 634.936 274.472C897.298 390.498 1014.71 585.439 1185.88 767.133C1357.04 948.827 1693.53 982.468 1795.7 1196.43" stroke="#FF3219" stroke-width="0.25" stroke-miterlimit="10"/>
<path opacity="0.57" d="M-536.605 -192.466C-255.436 279.46 384.139 181.903 653.764 289.954C925.105 398.692 1044.92 577.418 1209.05 764.484C1373.18 951.549 1712.97 995.473 1800.54 1178.87" stroke="#FF3219" stroke-width="0.25" stroke-miterlimit="10"/>
<path opacity="0.57" d="M-526.499 -182.927C-244.788 302.621 393.683 204.48 672.592 305.435C952.913 406.902 1075.13 569.398 1232.23 761.834C1389.33 954.271 1732.41 1008.48 1805.39 1161.31" stroke="#FF3219" stroke-width="0.25" stroke-miterlimit="10"/>
<path opacity="0.57" d="M-516.393 -173.388C-234.14 325.781 403.076 227.542 691.42 320.917C980.57 415.597 1105.33 561.377 1255.4 759.185C1405.47 956.994 1751.85 1021.48 1810.23 1143.75" stroke="#FF3219" stroke-width="0.25" stroke-miterlimit="10"/>
<path opacity="0.57" d="M-506.287 -163.849C-223.491 348.941 412.67 250.045 710.249 336.399C1008.43 423.731 1135.54 553.356 1278.57 756.536C1421.61 959.716 1771.29 1034.49 1815.08 1126.19" stroke="#FF3219" stroke-width="0.25" stroke-miterlimit="10"/>
<path opacity="0.57" d="M-496.181 -154.31C-212.843 372.101 422.265 272.548 729.077 351.881C1036.29 431.865 1165.75 545.335 1301.75 753.887C1437.75 962.439 1790.73 1047.49 1819.92 1108.62" stroke="#FF3219" stroke-width="0.25" stroke-miterlimit="10"/>
<path opacity="0.57" d="M-486.075 -144.772C-202.195 395.261 431.859 295.051 747.905 367.362C1064.15 439.999 1195.95 537.315 1324.92 751.238C1453.89 965.161 1810.17 1060.5 1824.76 1091.06" stroke="#FF3219" stroke-width="0.25" stroke-miterlimit="10"/>
<path opacity="0.57" d="M-475.969 -135.233C-191.547 418.421 441.454 317.554 766.733 382.844C1092.01 448.133 1226.16 529.294 1348.1 748.588C1470.03 967.883 1829.61 1073.5 1829.61 1073.5" stroke="#FF3219" stroke-width="0.25" stroke-miterlimit="10"/>
<path opacity="0.57" d="M-473.164 -142.784C-412.238 -32.3059 -340.391 55.7573 -259.821 123.491C-154.913 211.189 -34.4787 265.227 89.8777 299.686C159.344 318.647 230.159 332.268 301.702 340.431C381.251 349.75 459 352.939 531.466 356.198C616.889 360.04 695.293 363.925 762.022 375.299C833.033 387.532 897.199 400.589 951.792 419.143C1053.47 453.698 1124.49 498.697 1186.54 556.199C1240.2 606.19 1286.92 666.559 1333.2 740.368C1335.5 744.035 1337.81 747.729 1340.12 751.449C1387.46 827.966 1464.9 886.829 1544.36 934.642C1683.2 1018.2 1829.87 1062.43 1835.16 1066.44" stroke="#FF3219" stroke-width="0.25" stroke-miterlimit="10"/>
<path opacity="0.57" d="M-470.359 -150.335C-406.908 -43.0626 -336.497 47.1844 -257.286 116.846C-154.99 206.81 -36.5541 263.889 86.7715 301.214C155.763 322.007 226.485 336.554 298.082 344.681C377.614 353.69 455.346 354.624 527.657 355.698C612.271 356.956 690.092 358.302 757.31 367.753C828.596 378.022 895.228 389.167 949.918 409.338C1050.4 446.396 1115.35 497.127 1175.36 557.505C1227.59 610.054 1275.6 671.972 1324.73 743.543C1327.18 747.121 1329.67 750.698 1332.14 754.31C1382.98 828.493 1463.25 882.084 1544.68 927.859C1684.18 1006.28 1830.13 1051.35 1840.71 1059.38" stroke="#FF3219" stroke-width="0.25" stroke-miterlimit="10"/>
<path opacity="0.57" d="M-467.554 -157.887C-401.579 -53.8193 -332.505 38.4854 -254.751 110.201C-154.937 202.265 -38.6291 262.552 83.6657 302.743C152.151 325.365 222.792 340.843 294.462 348.931C373.977 357.629 451.682 356.323 523.848 355.198C607.642 353.892 684.909 352.517 752.598 360.208C824.179 368.341 893.255 377.726 948.044 399.533C1047.33 439.051 1106.14 495.655 1164.19 558.811C1214.91 614 1264.3 677.383 1316.25 746.719C1318.86 750.207 1321.52 753.673 1324.16 757.171C1378.5 829.02 1461.54 877.365 1544.99 921.076C1685.06 994.438 1830.39 1040.28 1846.26 1052.32" stroke="#FF3219" stroke-width="0.25" stroke-miterlimit="10"/>
<path opacity="0.57" d="M-464.749 -165.438C-396.249 -64.5761 -328.507 29.772 -252.216 103.557C-154.875 197.701 -40.7042 261.214 80.5597 304.272C148.514 328.191 219.379 345.734 290.841 353.182C370.34 361.569 448.01 358.04 520.038 354.698C603.004 350.85 679.707 346.852 747.886 352.663C819.741 358.787 891.282 366.264 946.17 389.728C1044.26 431.662 1096.93 494.195 1153.01 560.118C1202.23 617.959 1253.03 682.789 1307.77 749.894C1310.55 753.293 1313.38 756.648 1316.18 760.031C1374.01 829.547 1459.79 872.676 1545.31 914.293C1685.85 982.679 1830.65 1029.21 1851.82 1045.25" stroke="#FF3219" stroke-width="0.25" stroke-miterlimit="10"/>
<path opacity="0.57" d="M-461.944 -172.989C-390.92 -75.3327 -324.501 21.0448 -249.681 96.9119C-154.802 193.118 -42.7794 259.877 77.4539 305.8C144.729 331.248 215.426 350.245 287.221 357.432C366.704 365.509 444.33 359.774 516.229 354.199C598.358 347.831 674.502 341.193 743.174 345.118C815.3 349.24 889.312 354.782 944.296 379.924C1041.2 424.234 1087.7 492.749 1141.84 561.424C1189.53 621.928 1241.78 688.188 1299.3 753.07C1302.23 756.379 1305.23 759.624 1308.2 762.892C1369.53 830.074 1457.99 868.023 1545.63 907.51C1686.57 971.006 1830.91 1018.13 1857.37 1038.19" stroke="#FF3219" stroke-width="0.25" stroke-miterlimit="10"/>
<path opacity="0.57" d="M-459.139 -180.541C-385.59 -86.0895 -320.488 12.3043 -247.146 90.2671C-154.719 188.517 -44.8544 258.54 74.348 307.329C140.943 334.305 211.473 354.755 283.601 361.682C363.067 369.449 440.645 361.526 512.42 353.699C593.707 344.835 669.296 335.54 738.462 337.572C810.857 339.7 887.345 343.281 942.422 370.119C1038.15 416.766 1078.47 491.313 1130.66 562.73C1176.84 625.906 1230.56 693.576 1290.82 756.246C1293.92 759.464 1297.09 762.599 1300.22 765.753C1365.05 830.601 1456.15 863.412 1545.95 900.727C1687.21 959.423 1831.17 1007.06 1862.92 1031.13" stroke="#FF3219" stroke-width="0.25" stroke-miterlimit="10"/>
<path opacity="0.77" d="M-456.334 -188.092C-380.26 -96.8462 -316.466 3.5511 -244.611 83.6224C-154.623 183.9 -46.9295 257.202 71.242 308.858C137.157 337.362 207.52 359.266 279.981 365.933C359.43 373.388 436.957 363.298 508.611 353.199C589.053 341.862 664.087 329.894 733.75 330.027C806.413 330.166 885.383 331.76 940.548 360.315C1035.11 409.262 1069.22 489.887 1119.49 564.037C1164.13 629.893 1219.37 698.951 1282.35 759.421C1285.61 762.548 1288.94 765.574 1292.25 768.614C1360.57 831.127 1454.28 858.849 1546.27 893.945C1687.79 947.931 1831.43 995.984 1868.47 1024.07" stroke="#E62B1E" stroke-width="0.25" stroke-miterlimit="10"/>
<path opacity="0.57" d="M-453.529 -195.643C-374.931 -107.603 -312.433 -5.21432 -242.076 76.9776C-154.515 179.268 -49.1183 256.109 68.136 310.386C133.309 340.555 203.566 363.776 276.361 370.183C355.794 377.328 433.267 365.09 504.801 352.699C584.396 338.913 658.878 324.254 729.038 322.482C801.967 320.64 883.429 320.22 938.674 350.51C1032.08 401.724 1059.97 488.468 1108.31 565.343C1151.41 633.887 1208.19 704.311 1273.87 762.597C1277.29 765.632 1280.79 768.549 1284.27 771.474C1356.09 831.654 1452.37 854.337 1546.59 887.161C1688.31 936.532 1831.69 984.909 1874.02 1017" stroke="#FF3219" stroke-width="0.25" stroke-miterlimit="10"/>
<path opacity="0.57" d="M-450.724 -203.194C-369.601 -118.36 -308.39 -13.9908 -239.541 70.333C-156.696 171.952 -52.7796 254.377 65.03 311.915C129.518 343.615 199.613 368.287 272.74 374.433C352.157 381.268 429.577 366.902 500.992 352.2C579.741 335.988 653.667 318.621 724.326 314.937C797.521 311.12 880.494 310.431 936.8 340.705C1030.72 391.202 1050.71 487.057 1097.14 566.649C1138.69 637.887 1197.03 709.655 1265.4 765.772C1268.98 768.715 1272.65 771.524 1276.29 774.335C1351.61 832.181 1450.43 849.882 1546.91 880.379C1688.79 925.227 1831.95 973.835 1879.58 1009.94" stroke="#FF3219" stroke-width="0.25" stroke-miterlimit="10"/>
<path opacity="0.57" d="M-447.919 -210.746C-364.272 -129.117 -304.335 -22.7783 -237.006 63.6879C-156.592 167.573 -54.6043 252.783 61.9241 313.443C125.728 346.672 195.66 372.797 269.12 378.684C348.52 385.207 425.89 368.734 497.183 351.7C575.088 333.085 648.458 312.994 719.615 307.391C793.075 301.608 879.545 297.087 934.926 330.901C1026.07 386.553 1041.44 485.652 1085.96 567.956C1125.96 641.892 1185.88 714.981 1256.92 768.948C1260.67 771.797 1264.5 774.5 1268.31 777.195C1347.12 832.708 1448.47 845.486 1547.23 873.596C1689.24 914.014 1832.21 962.761 1885.13 1002.88" stroke="#FF3219" stroke-width="0.25" stroke-miterlimit="10"/>
<path opacity="0.57" d="M-445.114 -218.297C-358.942 -139.873 -300.268 -31.5751 -234.471 57.0433C-154.102 165.288 -55.3673 252.101 58.8184 314.972C121.94 349.727 191.707 377.307 265.5 382.934C344.884 389.147 422.208 370.587 493.374 351.2C570.44 330.205 643.249 307.373 714.903 299.846C788.631 292.101 877.619 285.495 933.052 321.096C1023.09 378.925 1032.16 484.25 1074.79 569.262C1113.22 645.901 1174.75 720.289 1248.45 772.123C1252.36 774.878 1256.36 777.475 1260.33 780.056C1342.64 833.235 1446.49 841.155 1547.55 866.813C1689.66 902.893 1832.48 951.687 1890.68 995.816" stroke="#FF3219" stroke-width="0.25" stroke-miterlimit="10"/>
<path opacity="0.57" d="M-442.31 -225.848C-353.613 -150.63 -296.188 -40.3805 -231.936 50.3987C-153.935 160.605 -57.4453 250.756 55.7123 316.501C118.153 352.779 187.754 381.818 261.88 387.184C341.247 393.087 418.531 372.46 489.564 350.7C565.799 327.347 638.041 301.759 710.191 292.301C784.186 282.601 875.704 273.887 931.178 311.292C1020.13 371.273 1022.87 482.852 1063.61 570.569C1100.47 649.913 1163.63 725.579 1239.97 775.299C1244.05 777.959 1248.21 780.45 1252.35 782.917C1338.16 833.762 1444.5 836.889 1547.87 860.03C1690.06 891.862 1832.74 940.613 1896.23 988.753" stroke="#FF3219" stroke-width="0.25" stroke-miterlimit="10"/>
<path opacity="0.57" d="M-439.505 -233.4C-348.283 -161.387 -292.094 -49.1941 -229.402 43.7538C-153.751 155.913 -59.5202 249.406 52.6064 318.03C114.367 355.829 183.8 386.328 258.26 391.435C337.61 397.027 414.863 374.352 485.755 350.2C561.167 324.509 632.834 296.15 705.479 284.756C779.744 273.107 873.802 262.264 929.304 301.487C1017.19 363.598 1013.56 481.456 1052.43 571.875C1087.71 653.927 1152.51 730.849 1231.49 778.475C1235.75 781.038 1240.06 783.425 1244.37 785.778C1333.68 834.289 1442.5 832.691 1548.19 853.247C1690.45 880.916 1833 929.539 1901.78 981.691" stroke="#FF3219" stroke-width="0.25" stroke-miterlimit="10"/>
<path opacity="0.57" d="M-436.7 -240.951C-342.954 -172.143 -287.987 -58.0146 -226.867 37.109C-153.551 151.213 -61.4555 247.84 49.5002 319.558C110.658 358.76 179.847 390.839 254.639 395.685C333.973 400.967 411.204 376.263 481.946 349.7C556.545 321.689 627.629 290.547 700.767 277.21C775.303 263.619 871.913 250.627 927.429 291.682C1014.27 355.903 1004.26 480.061 1041.26 573.181C1074.94 657.942 1141.4 736.101 1223.02 781.65C1227.44 784.116 1231.92 786.4 1236.39 788.638C1329.2 834.815 1440.5 828.563 1548.51 846.464C1690.84 870.054 1833.26 918.465 1907.34 974.628" stroke="#FF3219" stroke-width="0.25" stroke-miterlimit="10"/>
<path opacity="0.57" d="M-433.895 -248.502C-337.624 -182.9 -283.865 -66.8409 -224.332 30.4643C-153.334 146.507 -63.5305 246.503 46.3945 321.087C106.873 361.816 175.894 395.349 251.02 399.935C330.337 404.906 407.558 378.192 478.137 349.201C551.935 318.887 622.427 284.95 696.055 269.665C770.864 254.135 870.039 238.976 925.556 281.877C1011.37 348.19 994.938 478.667 1030.08 574.487C1062.17 661.958 1130.29 741.336 1214.54 784.825C1219.13 787.192 1223.77 789.376 1228.42 791.499C1324.72 835.342 1438.5 824.505 1548.83 839.681C1691.24 859.27 1833.52 907.39 1912.89 967.566" stroke="#FF3219" stroke-width="0.25" stroke-miterlimit="10"/>
<path opacity="0.57" d="M-431.09 -256.053C-332.295 -193.657 -279.729 -75.6724 -221.797 23.8195C-153.101 141.794 -65.6056 245.165 43.2885 322.615C103.087 364.873 171.941 399.859 247.399 404.185C326.7 408.846 403.924 380.137 474.327 348.701C547.337 316.101 617.227 279.357 691.343 262.12C766.428 244.657 868.178 227.314 923.681 272.073C1008.49 340.462 985.613 477.272 1018.91 575.794C1049.38 665.973 1119.19 746.553 1206.07 788.001C1210.82 790.268 1215.63 792.351 1220.44 794.36C1320.23 835.869 1436.51 820.518 1549.15 832.898C1691.65 848.561 1833.78 896.316 1918.44 960.503" stroke="#FF3219" stroke-width="0.25" stroke-miterlimit="10"/>
<path opacity="0.57" d="M-428.285 -263.605C-326.965 -204.414 -275.579 -84.508 -219.262 17.1747C-152.852 137.078 -67.6807 243.828 40.1826 324.144C99.3019 367.93 167.987 404.37 243.779 408.436C323.063 412.786 400.304 382.097 470.518 348.201C542.754 313.328 612.03 273.77 686.632 254.575C761.995 235.184 866.332 215.641 921.807 262.268C1005.63 332.72 976.28 475.876 1007.73 577.1C1036.59 669.988 1108.08 751.755 1197.59 791.177C1202.51 793.344 1207.48 795.326 1212.46 797.22C1315.75 836.396 1434.53 816.601 1549.47 826.115C1692.08 837.921 1834.04 885.242 1923.99 953.441" stroke="#FF3219" stroke-width="0.25" stroke-miterlimit="10"/>
<path opacity="0.57" d="M-425.48 -271.156C-321.636 -215.17 -271.414 -93.3465 -216.727 10.5301C-152.588 132.359 -69.7559 242.49 37.0766 325.673C95.5163 370.987 164.034 408.88 240.159 412.686C319.426 416.725 396.7 384.071 466.709 347.701C538.186 310.568 606.876 268.33 681.92 247.03C757.606 225.859 864.502 203.957 919.933 252.464C1002.79 324.967 966.941 474.48 996.557 578.406C1023.8 674.002 1096.97 756.942 1189.12 794.352C1194.2 796.418 1199.34 798.301 1204.48 800.081C1311.27 836.923 1432.56 812.752 1549.79 819.333C1692.54 827.346 1834.3 874.168 1929.54 946.378" stroke="#FF3219" stroke-width="0.25" stroke-miterlimit="10"/>
<path opacity="0.57" d="M-422.675 -278.707C-316.306 -225.927 -267.235 -102.188 -214.192 3.88529C-152.307 127.638 -71.8309 241.153 33.9707 327.201C91.7309 374.044 160.081 413.391 236.539 416.936C315.79 420.665 393.111 386.058 462.899 347.201C533.634 307.818 601.675 262.706 677.208 239.484C753.169 216.348 862.687 192.264 918.059 242.659C999.968 317.204 957.447 473.12 985.381 579.713C1010.86 678.051 1085.86 762.114 1180.64 797.528C1185.9 799.491 1191.19 801.277 1196.5 802.942C1306.79 837.45 1430.62 808.97 1550.11 812.55C1693.03 816.831 1834.56 863.094 1935.1 939.316" stroke="#FF3219" stroke-width="0.25" stroke-miterlimit="10"/>
<path opacity="0.57" d="M-419.87 -286.258C-310.976 -236.684 -262.912 -111.091 -211.657 -2.75944C-151.861 122.846 -73.9061 239.815 30.8647 328.73C87.9452 377.101 156.128 417.901 232.918 421.187C312.153 424.605 389.539 388.055 459.09 346.702C529.098 305.076 596.474 257.083 672.496 231.939C748.732 206.838 860.887 180.564 916.185 232.854C997.169 309.434 948.167 471.699 974.206 581.019C998.118 682.043 1074.79 767.124 1172.17 800.703C1177.59 802.556 1183.04 804.255 1188.52 805.803C1302.31 837.977 1428.7 805.254 1550.43 805.767C1693.56 806.37 1834.82 852.02 1940.65 932.253" stroke="#FF3219" stroke-width="0.25" stroke-miterlimit="10"/>
<path opacity="0.57" d="M-417.065 -293.81C-305.647 -247.441 -258.834 -119.873 -209.122 -9.40417C-151.7 118.196 -75.9812 238.478 27.7588 330.259C84.1597 380.158 152.175 422.412 229.298 425.437C308.516 428.545 385.983 390.062 455.281 346.202C524.578 302.341 591.273 251.46 667.784 224.394C744.295 197.328 859.103 168.855 914.311 223.05C994.389 301.657 938.887 470.278 963.03 582.326C985.377 686.035 1063.62 772.422 1163.69 803.879C1285.4 842.136 1420.84 801.725 1550.75 798.984C1694.12 795.959 1835.08 840.946 1946.2 925.191" stroke="#FF3219" stroke-width="0.25" stroke-miterlimit="10"/>
</g>
</svg>
