<svg width="258" height="75" viewBox="0 0 258 75" fill="none" xmlns="http://www.w3.org/2000/svg">
<path d="M12.217 31.9325V26.8807V21.7747H27.318C31.7229 21.7747 35.917 21.8956 39.2522 22.098C40.92 22.1992 42.3709 22.3207 43.525 22.4573C44.6857 22.5946 45.5274 22.7453 45.9886 22.8998L46.068 22.6627L45.9886 22.8998C50.9155 24.5494 55.6758 28.4277 57.4904 32.2314C58.2653 33.8574 58.7513 34.8029 59.8079 35.2861C60.328 35.5239 60.9697 35.6432 61.8181 35.7056C62.6674 35.768 63.7471 35.7747 65.152 35.7747H70.967H71.217V35.5247V29.0247V22.7747H82.467H93.717V46.5247V70.2747H82.467H71.217V58.5247V46.5247V46.2747H70.967H63.544C60.3798 46.2747 58.3927 46.3603 56.8918 46.7057C55.3727 47.0554 54.3592 47.6691 53.1338 48.6918L53.294 48.8837L53.1338 48.6918C49.1188 52.0432 44.1259 54.4685 38.4087 55.8386L33.4087 57.0366L32.7126 57.2034L33.3612 57.5063L37.8612 59.6073L37.8613 59.6073C42.7176 61.8734 50.6551 62.3876 57.1516 60.8772C57.1516 60.8772 57.1516 60.8772 57.1516 60.8772L12.217 31.9325ZM12.217 31.9325L16.8975 31.0075C16.8975 31.0075 16.8975 31.0075 16.8975 31.0075C20.346 30.3254 22.9328 30.4634 24.6639 31.5469C26.4153 32.6432 27.217 34.6561 27.217 37.5247C27.217 40.4298 26.4019 42.4581 24.6057 43.5554C22.8321 44.639 20.1735 44.7658 16.6071 44.0701L16.655 43.8247L16.6071 44.0701C15.1759 43.7908 13.6956 43.4593 12.4625 43.1498C11.2373 42.8423 10.2361 42.5516 9.77659 42.3521C9.33463 42.1606 8.78398 42.2847 7.89865 43.1504C7.02144 44.008 5.89768 45.5171 4.35184 47.8662L0.33392 53.9721L2.38942 55.6207C19.4214 69.2783 35.1398 74.8391 49.4421 72.3484L49.485 72.5947L49.4421 72.3484C52.4047 71.8328 56.0093 70.7612 58.8729 69.6624C60.305 69.113 61.5439 68.5597 62.4209 68.0696C62.8606 67.8239 63.2 67.5992 63.4261 67.4042C63.5392 67.3066 63.6165 67.2227 63.6639 67.1539C63.7092 67.088 63.7162 67.0519 63.7169 67.0408C63.7168 67.0411 63.7165 67.0398 63.7159 67.0366C63.714 67.0269 63.7086 67.0002 63.6939 66.9494C63.6743 66.8823 63.6444 66.793 63.6041 66.6824C63.5237 66.4618 63.4064 66.1682 63.2601 65.8214C62.9679 65.1283 62.564 64.2316 62.1194 63.2994L62.345 63.1917L12.217 31.9325ZM75.4174 14.3671L75.314 14.5947L75.4174 14.3671C71.2013 12.4531 69.6247 9.62369 70.1997 7.04144C70.7812 4.42966 73.591 1.90135 78.5273 0.674344C81.653 -0.102292 85.5616 0.239346 88.8497 1.27468C90.4917 1.79175 91.9676 2.47834 93.1062 3.27498C94.2489 4.0745 95.028 4.96769 95.3207 5.88936C95.8935 7.69391 95.7624 9.31515 94.9781 10.7227C94.1901 12.1369 92.726 13.3648 90.5786 14.3401C85.3147 16.7295 80.6361 16.737 75.4174 14.3671ZM124.701 10.1481L124.494 10.2877L124.701 10.1481C123.734 8.71139 122.855 7.32077 122.219 6.23854C121.9 5.69702 121.644 5.2355 121.469 4.88536C121.381 4.70995 121.315 4.56617 121.272 4.45629C121.259 4.4252 121.25 4.39896 121.242 4.37715C121.248 4.37482 121.255 4.37241 121.262 4.36993C121.379 4.3278 121.565 4.28289 121.823 4.23803C122.334 4.14897 123.081 4.0674 124.012 3.99842C125.871 3.86062 128.441 3.77473 131.27 3.77473H141.443L145.601 9.6688L149.554 15.2747H139.028H128.153L124.701 10.1481ZM225.999 68.7267L226.114 68.9487L166.426 52.5571C166.426 52.5571 166.426 52.5571 166.426 52.5569C166.425 52.5557 166.423 52.5485 166.422 52.533C166.421 52.5155 166.422 52.4912 166.426 52.4591C166.433 52.3942 166.453 52.3094 166.486 52.2046C166.554 51.9951 166.671 51.7294 166.832 51.4241C167.154 50.8147 167.639 50.0725 168.209 49.3482L170.174 46.8509L174.163 49.1669C182.501 54.0064 191.844 53.3751 197.33 47.5024C198.134 46.6414 198.772 45.8684 199.235 45.2084C199.694 44.5541 199.995 43.9918 200.103 43.5552C200.158 43.3373 200.172 43.1217 200.106 42.9344C200.034 42.7315 199.881 42.5945 199.676 42.5311C199.485 42.4717 199.255 42.4778 199.006 42.5252C198.753 42.5732 198.457 42.668 198.121 42.8079L198.217 43.0387L198.121 42.8079C196.479 43.4913 193.752 43.9168 190.993 44.0272C188.234 44.1376 185.495 43.9306 183.827 43.3803C181.384 42.5738 179.125 41.0031 177.479 39.1454C175.829 37.2838 174.819 35.1624 174.822 33.2621C174.828 29.7908 176.572 26.7103 179.656 24.3571C182.742 22.0014 187.165 20.3807 192.492 19.8525C198.78 19.2285 204.83 19.658 209.963 20.9645C215.101 22.272 219.3 24.4525 221.911 27.3133C226.433 32.2659 227.284 38.1453 225.117 43.439C222.946 48.7429 217.731 53.4898 210.062 56.1102C208.646 56.5939 207.577 56.9593 206.818 57.2516C206.438 57.3978 206.13 57.528 205.891 57.6479C205.658 57.7649 205.469 57.8831 205.348 58.0126C205.286 58.0794 205.23 58.1605 205.204 58.2574C205.176 58.3596 205.186 58.4613 205.225 58.5544C205.296 58.7211 205.455 58.8443 205.614 58.9414C205.94 59.141 206.484 59.3574 207.165 59.6282L207.19 59.638L207.282 59.4057L207.19 59.6381C208.091 59.9962 209.437 60.2637 210.973 60.4459C212.513 60.6288 214.263 60.7277 215.979 60.7413C217.695 60.755 219.384 60.6833 220.804 60.5236C222.211 60.3653 223.39 60.117 224.061 59.7582C224.455 59.5472 224.741 59.4402 224.971 59.4282C225.177 59.4173 225.357 59.4825 225.552 59.6858C225.76 59.9014 225.977 60.2645 226.228 60.8357C226.477 61.4028 226.751 62.1525 227.081 63.1233L227.318 63.0427L227.081 63.1234L228.543 67.4116L225.999 68.7267ZM114.87 23.9381L114.805 23.6967L114.87 23.9381C115.347 23.8098 116.365 23.6859 117.819 23.5757C119.264 23.4662 121.12 23.3716 123.257 23.2966C127.53 23.1465 132.923 23.0747 138.402 23.1177L158.104 23.2729L158.321 27.5175L158.571 27.5047L158.321 27.5176C158.385 28.7438 158.397 29.9287 158.368 30.8487C158.353 31.3092 158.327 31.6996 158.292 31.994C158.275 32.1415 158.256 32.2608 158.236 32.351C158.226 32.3959 158.216 32.4309 158.207 32.4569C158.206 32.4598 158.205 32.4626 158.205 32.4651C158.191 32.4693 158.173 32.4743 158.148 32.4793C158.061 32.4967 157.931 32.5076 157.755 32.5087C157.405 32.5107 156.914 32.4735 156.314 32.3993C155.116 32.251 153.513 31.9583 151.795 31.5563C146.394 30.2924 140.914 30.2606 136.773 31.1594C134.704 31.6085 132.953 32.2935 131.713 33.1871C130.471 34.0819 129.717 35.2064 129.717 36.5247C129.717 38.3298 130.941 39.7221 133.185 40.713C135.426 41.7033 138.745 42.3247 143.087 42.5763L150.799 43.0227L150.517 47.1938L150.766 47.2107L150.517 47.1939L150.233 51.3902L142.888 51.5978C138.733 51.7152 135.464 52.2822 133.225 53.2596C130.985 54.237 129.717 55.6566 129.717 57.4907C129.717 58.9244 130.617 60.0752 132.076 60.9269C133.533 61.7777 135.584 62.3555 137.993 62.6472C142.814 63.2309 149.14 62.6767 155.203 60.7763L155.128 60.5377L155.203 60.7763C156.945 60.2299 158.552 59.7318 159.737 59.3696C160.33 59.1884 160.817 59.0413 161.162 58.9392C161.334 58.8881 161.471 58.8485 161.567 58.8216C161.574 58.8197 161.581 58.8178 161.587 58.816C161.606 58.8517 161.628 58.8981 161.653 58.9563C161.738 59.1518 161.842 59.4415 161.957 59.8038C162.188 60.5261 162.46 61.5123 162.721 62.5535C162.981 63.5942 163.229 64.6859 163.412 65.6183C163.596 66.5591 163.71 67.3151 163.711 67.6975C163.712 68.1092 163.552 68.4862 163.114 68.8658C162.665 69.255 161.933 69.639 160.812 70.0375C158.572 70.8337 154.876 71.6559 149.062 72.7319C142.995 73.8541 136.084 74.3666 129.861 74.2876C123.63 74.2086 118.12 73.5368 114.843 72.3076L114.755 72.5417L114.843 72.3076C108.731 70.016 104.822 66.5947 103.367 62.905C101.922 59.2379 102.877 55.2404 106.64 51.7049L109.084 49.4089L109.26 49.2434L109.101 49.0618L106.216 45.7768C104.433 43.7467 103.352 42.1157 102.809 40.4726C102.268 38.8354 102.255 37.1616 102.655 35.0309L102.655 35.0308C103.024 33.0601 104.747 30.641 107.075 28.5217C109.395 26.4088 112.268 24.6383 114.87 23.9381ZM234.448 48.0438C234.373 41.7261 234.363 35.8364 234.404 31.4372C234.425 29.2374 234.46 27.4117 234.506 26.0919C234.529 25.4318 234.555 24.9004 234.583 24.513C234.598 24.3191 234.612 24.1639 234.627 24.0478C234.635 23.9897 234.642 23.9437 234.649 23.9087C234.652 23.8914 234.656 23.8779 234.658 23.8679C234.661 23.8574 234.662 23.8532 234.662 23.8533C234.718 23.7081 234.881 23.5421 235.309 23.392C235.732 23.2435 236.364 23.1287 237.271 23.0499C239.081 22.8927 241.915 22.8841 246.192 22.9916L257.217 23.2685V47.0247V70.7747H245.967H234.714L234.448 48.0438Z" fill="#FCFCFC" stroke="#1D1D1D" stroke-width="0.5"/>
</svg>
