<svg width="1282" height="1612" viewBox="0 0 1282 1612" fill="none" xmlns="http://www.w3.org/2000/svg">
<g opacity="0.2">
<path d="M827.642 840.201L845.079 822.77L821.262 816.389L827.642 840.201Z" fill="#E62B1E"/>
<path d="M770.149 842.847L793.286 849.042L787.089 825.913L770.149 842.847Z" fill="#E62B1E"/>
<path d="M745.293 816.239L760.478 801.057L739.736 795.501L745.293 816.239Z" fill="#E62B1E"/>
<path d="M750.539 759.342L769.207 764.341L764.205 745.674L750.539 759.342Z" fill="#E62B1E"/>
<path d="M806.249 754.415L819.916 740.752L801.248 735.749L806.249 754.415Z" fill="#E62B1E"/>
<path d="M831.741 781.961L853.217 787.718L847.464 766.246L831.741 781.961Z" fill="#E62B1E"/>
<path d="M849.88 865.865L878.375 873.496L870.74 845.001L849.88 865.865Z" fill="#E62B1E"/>
<path d="M766.634 902.23L785.844 883.022L759.602 875.988L766.634 902.23Z" fill="#E62B1E"/>
<path d="M688.074 820.458L709.918 826.31L704.066 804.472L688.074 820.458Z" fill="#E62B1E"/>
<path d="M723.685 731.257L736.119 718.829L719.137 714.283L723.685 731.257Z" fill="#E62B1E"/>
<path d="M812.186 698.448L829.105 702.981L824.571 686.062L812.186 698.448Z" fill="#E62B1E"/>
<path d="M888.298 779.498L905.638 762.161L881.953 755.817L888.298 779.498Z" fill="#E62B1E"/>
<path d="M848.676 927.337L871.585 904.427L840.29 896.041L848.676 927.337Z" fill="#E62B1E"/>
<path d="M788.329 926.735L818.412 934.795L810.351 904.71L788.329 926.735Z" fill="#E62B1E"/>
<path d="M706.894 904.177L734.575 911.59L727.158 883.912L706.894 904.177Z" fill="#E62B1E"/>
<path d="M684.006 879.323L702.298 861.029L677.309 854.332L684.006 879.323Z" fill="#E62B1E"/>
<path d="M662.564 793.698L677.298 778.966L657.172 773.575L662.564 793.698Z" fill="#E62B1E"/>
<path d="M668.276 737.007L685.973 741.746L681.231 724.05L668.276 737.007Z" fill="#E62B1E"/>
<path d="M730.362 675.99L745.545 680.058L741.477 664.875L730.362 675.99Z" fill="#E62B1E"/>
<path d="M784.6 669.593L795.715 658.479L780.532 654.411L784.6 669.593Z" fill="#E62B1E"/>
<path d="M866.986 693.409L880.169 680.23L862.163 675.409L866.986 693.409Z" fill="#E62B1E"/>
<path d="M892.518 721.297L913.747 726.985L908.061 705.761L892.518 721.297Z" fill="#E62B1E"/>
<path d="M910.186 805.324L939.251 813.107L931.465 784.047L910.186 805.324Z" fill="#E62B1E"/>
<path d="M909.21 867.074L932.584 843.705L900.656 835.151L909.21 867.074Z" fill="#E62B1E"/>
<path d="M930.098 954.74L959.63 925.213L919.292 914.412L930.098 954.74Z" fill="#E62B1E"/>
<path d="M867.471 949.906L903.929 959.675L894.161 923.222L867.471 949.906Z" fill="#E62B1E"/>
<path d="M787.722 989.141L812.138 964.732L778.788 955.797L787.722 989.141Z" fill="#E62B1E"/>
<path d="M725.33 987.993L759.51 997.154L750.352 962.973L725.33 987.993Z" fill="#E62B1E"/>
<path d="M705.268 965.589L727.941 942.916L696.969 934.617L705.268 965.589Z" fill="#E62B1E"/>
<path d="M625.588 881.582L650.64 888.292L643.929 863.245L625.588 881.582Z" fill="#E62B1E"/>
<path d="M601.545 855.779L618.119 839.201L595.478 833.139L601.545 855.779Z" fill="#E62B1E"/>
<path d="M606.239 798.006L626.365 803.397L620.974 783.275L606.239 798.006Z" fill="#E62B1E"/>
<path d="M641.024 708.479L652.706 696.798L636.75 692.527L641.024 708.479Z" fill="#E62B1E"/>
<path d="M648.126 653.646L662.292 657.441L658.497 643.277L648.126 653.646Z" fill="#E62B1E"/>
<path d="M701.987 646.617L712.098 636.507L698.287 632.807L701.987 646.617Z" fill="#E62B1E"/>
<path d="M791.787 615.154L805.602 618.853L801.901 605.044L791.787 615.154Z" fill="#E62B1E"/>
<path d="M845.337 608.59L855.971 597.955L841.444 594.063L845.337 608.59Z" fill="#E62B1E"/>
<path d="M872.957 637.781L889.634 642.248L885.166 625.574L872.957 637.781Z" fill="#E62B1E"/>
<path d="M949.074 718.342L965.737 701.681L942.976 695.584L949.074 718.342Z" fill="#E62B1E"/>
<path d="M971.954 744.393L999.057 751.657L991.795 724.555L971.954 744.393Z" fill="#E62B1E"/>
<path d="M969.983 805.926L992.701 783.215L961.671 774.906L969.983 805.926Z" fill="#E62B1E"/>
<path d="M927.088 889.554L965.309 899.793L955.068 861.576L927.088 889.554Z" fill="#E62B1E"/>
<path d="M945.151 973.475L990.521 985.63L978.364 940.26L945.151 973.475Z" fill="#E62B1E"/>
<path d="M869.669 1014.6L898.235 986.045L859.217 975.593L869.669 1014.6Z" fill="#E62B1E"/>
<path d="M806.272 1010.69L843.714 1020.71L833.682 983.275L806.272 1010.69Z" fill="#E62B1E"/>
<path d="M726.446 1052.17L753.903 1024.72L716.397 1014.67L726.446 1052.17Z" fill="#E62B1E"/>
<path d="M643.915 965.432L675.656 973.931L667.152 942.197L643.915 965.432Z" fill="#E62B1E"/>
<path d="M622.807 942.043L643.763 921.094L615.139 913.426L622.807 942.043Z" fill="#E62B1E"/>
<path d="M543.908 859.086L566.973 865.267L560.794 842.205L543.908 859.086Z" fill="#E62B1E"/>
<path d="M580.062 770.318L593.286 757.1L575.224 752.26L580.062 770.318Z" fill="#E62B1E"/>
<path d="M586.461 714.548L602.414 718.824L598.14 702.872L586.461 714.548Z" fill="#E62B1E"/>
<path d="M619.327 623.811L628.662 614.485L615.912 611.067L619.327 623.811Z" fill="#E62B1E"/>
<path d="M709.819 592.739L722.152 596.039L718.848 583.705L709.819 592.739Z" fill="#E62B1E"/>
<path d="M762.849 585.135L771.88 576.109L759.544 572.801L762.849 585.135Z" fill="#E62B1E"/>
<path d="M852.458 554.519L866.213 558.2L862.528 544.45L852.458 554.519Z" fill="#E62B1E"/>
<path d="M927.659 632.643L940.662 619.64L922.901 614.884L927.659 632.643Z" fill="#E62B1E"/>
<path d="M953.513 660.578L974.122 666.097L968.601 645.489L953.513 660.578Z" fill="#E62B1E"/>
<path d="M1031.33 742.636L1050.67 723.299L1024.25 716.228L1031.33 742.636Z" fill="#E62B1E"/>
<path d="M988.9 828.616L1025.08 838.31L1015.39 802.129L988.9 828.616Z" fill="#E62B1E"/>
<path d="M990.746 894.068L1020.22 864.599L979.96 853.812L990.746 894.068Z" fill="#E62B1E"/>
<path d="M951.34 1041.09L985.36 1007.08L938.892 994.629L951.34 1041.09Z" fill="#E62B1E"/>
<path d="M885.722 1033.77L929.006 1045.37L917.409 1002.09L885.722 1033.77Z" fill="#E62B1E"/>
<path d="M808.93 1075.61L837.982 1046.57L798.299 1035.94L808.93 1075.61Z" fill="#E62B1E"/>
<path d="M743.885 1071.78L784.361 1082.62L773.517 1042.15L743.885 1071.78Z" fill="#E62B1E"/>
<path d="M662.06 1049.33L700.81 1059.71L690.428 1020.96L662.06 1049.33Z" fill="#E62B1E"/>
<path d="M643.886 1029L670.094 1002.79L634.294 993.203L643.886 1029Z" fill="#E62B1E"/>
<path d="M562.858 942.771L591.54 950.449L583.856 921.773L562.858 942.771Z" fill="#E62B1E"/>
<path d="M540.458 918.082L559.162 899.381L533.614 892.538L540.458 918.082Z" fill="#E62B1E"/>
<path d="M519.033 832.42L534.124 817.331L513.51 811.809L519.033 832.42Z" fill="#E62B1E"/>
<path d="M524.398 775.559L542.824 780.492L537.888 762.07L524.398 775.559Z" fill="#E62B1E"/>
<path d="M558.476 685.259L568.843 674.89L554.681 671.095L558.476 685.259Z" fill="#E62B1E"/>
<path d="M566.123 631.242L578.867 634.653L575.452 621.909L566.123 631.242Z" fill="#E62B1E"/>
<path d="M627.575 570.399L638.906 573.431L635.87 562.099L627.575 570.399Z" fill="#E62B1E"/>
<path d="M680.191 562.336L688.445 554.09L677.172 551.068L680.191 562.336Z" fill="#E62B1E"/>
<path d="M771.066 531.951L782.338 534.966L779.318 523.697L771.066 531.951Z" fill="#E62B1E"/>
<path d="M823.54 524.306L832.311 515.541L820.331 512.327L823.54 524.306Z" fill="#E62B1E"/>
<path d="M905.967 547.962L916.603 537.331L902.076 533.438L905.967 547.962Z" fill="#E62B1E"/>
<path d="M933.766 577.11L950.146 581.496L945.759 565.122L933.766 577.11Z" fill="#E62B1E"/>
<path d="M1009.98 656.72L1025.38 641.323L1004.34 635.686L1009.98 656.72Z" fill="#E62B1E"/>
<path d="M1035.06 683.106L1057.88 689.217L1051.76 666.404L1035.06 683.106Z" fill="#E62B1E"/>
<path d="M1054.19 766.736L1082.31 774.266L1074.78 746.157L1054.19 766.736Z" fill="#E62B1E"/>
<path d="M1052.41 829.59L1077.01 805.007L1043.42 796.009L1052.41 829.59Z" fill="#E62B1E"/>
<path d="M1006.76 912.583L1050.44 924.283L1038.74 880.613L1006.76 912.583Z" fill="#E62B1E"/>
<path d="M1011.95 980.577L1046.1 946.423L999.445 933.921L1011.95 980.577Z" fill="#E62B1E"/>
<path d="M1033.49 1065.78L1070.69 1028.59L1019.88 1014.98L1033.49 1065.78Z" fill="#E62B1E"/>
<path d="M964.403 1057.07L1014.86 1070.59L1001.34 1020.14L964.403 1057.07Z" fill="#E62B1E"/>
<path d="M890.919 1100.93L923.939 1067.91L878.834 1055.83L890.919 1100.93Z" fill="#E62B1E"/>
<path d="M825.166 1094.38L868.314 1105.94L856.753 1062.8L825.166 1094.38Z" fill="#E62B1E"/>
<path d="M747.636 1138.71L779.82 1106.53L735.86 1094.76L747.636 1138.71Z" fill="#E62B1E"/>
<path d="M680.46 1133.15L725.767 1145.29L713.629 1099.99L680.46 1133.15Z" fill="#E62B1E"/>
<path d="M664.961 1115.97L696.448 1084.49L653.44 1072.97L664.961 1115.97Z" fill="#E62B1E"/>
<path d="M580.446 1026.81L617.094 1036.63L607.275 999.987L580.446 1026.81Z" fill="#E62B1E"/>
<path d="M561.653 1004.62L585.069 981.198L553.081 972.626L561.653 1004.62Z" fill="#E62B1E"/>
<path d="M482.417 919.945L506.968 926.523L500.39 901.973L482.417 919.945Z" fill="#E62B1E"/>
<path d="M458.172 893.892L474.337 877.728L452.257 871.816L458.172 893.892Z" fill="#E62B1E"/>
<path d="M462.468 836.531L483.141 842.067L477.604 821.4L462.468 836.531Z" fill="#E62B1E"/>
<path d="M497.505 747.125L509.451 735.183L493.134 730.814L497.505 747.125Z" fill="#E62B1E"/>
<path d="M504.462 692.142L518.984 696.036L515.092 681.508L504.462 692.142Z" fill="#E62B1E"/>
<path d="M536.735 600.774L544.985 592.529L533.716 589.506L536.735 600.774Z" fill="#E62B1E"/>
<path d="M545.396 548.032L555.608 550.772L552.872 540.561L545.396 548.032Z" fill="#E62B1E"/>
<path d="M597.533 539.539L605.012 532.059L594.797 529.328L597.533 539.539Z" fill="#E62B1E"/>
<path d="M689.052 509.539L698.921 512.181L696.278 502.317L689.052 509.539Z" fill="#E62B1E"/>
<path d="M740.996 501.068L748.435 493.628L738.274 490.908L740.996 501.068Z" fill="#E62B1E"/>
<path d="M831.901 471.263L842.823 474.189L839.897 463.272L831.901 471.263Z" fill="#E62B1E"/>
<path d="M884.226 463.477L892.739 454.962L881.112 451.853L884.226 463.477Z" fill="#E62B1E"/>
<path d="M913.298 493.839L926.694 497.426L923.104 484.026L913.298 493.839Z" fill="#E62B1E"/>
<path d="M988.452 571.423L1000.71 559.175L983.97 554.694L988.452 571.423Z" fill="#E62B1E"/>
<path d="M1015.34 599.631L1033.88 604.599L1028.92 586.055L1015.34 599.631Z" fill="#E62B1E"/>
<path d="M1092.8 678.909L1108.2 663.508L1087.16 657.872L1092.8 678.909Z" fill="#E62B1E"/>
<path d="M1118.95 705.004L1139.92 710.628L1134.3 689.65L1118.95 705.004Z" fill="#E62B1E"/>
<path d="M1114.51 763.498L1132.17 745.844L1108.05 739.383L1114.51 763.498Z" fill="#E62B1E"/>
<path d="M1072.84 850.499L1107.09 859.673L1097.91 825.433L1072.84 850.499Z" fill="#E62B1E"/>
<path d="M1073.58 916.221L1103.01 886.794L1062.81 876.024L1073.58 916.221Z" fill="#E62B1E"/>
<path d="M1026.16 996.147L1074.67 1009.15L1061.68 960.635L1026.16 996.147Z" fill="#E62B1E"/>
<path d="M1046.58 1079.43L1098.16 1093.25L1084.34 1041.68L1046.58 1079.43Z" fill="#E62B1E"/>
<path d="M972.684 1127.06L1010.7 1089.05L958.771 1075.14L972.684 1127.06Z" fill="#E62B1E"/>
<path d="M904.567 1117.49L953.645 1130.63L940.497 1081.56L904.567 1117.49Z" fill="#E62B1E"/>
<path d="M830.239 1161.72L863.463 1128.5L818.08 1116.34L830.239 1161.72Z" fill="#E62B1E"/>
<path d="M762.496 1155.55L809.169 1168.06L796.663 1121.38L762.496 1155.55Z" fill="#E62B1E"/>
<path d="M686.061 1202.84L722.695 1166.22L672.654 1152.81L686.061 1202.84Z" fill="#E62B1E"/>
<path d="M598.189 1110.82L642.538 1122.7L630.655 1078.35L598.189 1110.82Z" fill="#E62B1E"/>
<path d="M582.581 1092.13L611.963 1062.75L571.828 1052L582.581 1092.13Z" fill="#E62B1E"/>
<path d="M501.344 1003.63L531.545 1011.73L523.453 981.526L501.344 1003.63Z" fill="#E62B1E"/>
<path d="M479.718 979.106L498.926 959.903L472.689 952.872L479.718 979.106Z" fill="#E62B1E"/>
<path d="M402.077 897.088L422.327 902.513L416.902 882.269L402.077 897.088Z" fill="#E62B1E"/>
<path d="M436.527 809.042L450.107 795.465L431.558 790.497L436.527 809.042Z" fill="#E62B1E"/>
<path d="M442.588 753.099L459.261 757.567L454.793 740.893L442.588 753.099Z" fill="#E62B1E"/>
<path d="M475.872 662.25L485.203 652.925L472.457 649.506L475.872 662.25Z" fill="#E62B1E"/>
<path d="M484.151 608.83L495.419 611.845L492.399 600.577L484.151 608.83Z" fill="#E62B1E"/>
<path d="M514.876 516.717L521.543 510.046L512.435 507.607L514.876 516.717Z" fill="#E62B1E"/>
<path d="M606.635 487.246L615.799 489.701L613.344 480.539L606.635 487.246Z" fill="#E62B1E"/>
<path d="M658.34 478.276L665.007 471.605L655.899 469.166L658.34 478.276Z" fill="#E62B1E"/>
<path d="M750.091 448.807L759.258 451.261L756.803 442.099L750.091 448.807Z" fill="#E62B1E"/>
<path d="M801.688 440.24L808.87 433.06L799.06 430.432L801.688 440.24Z" fill="#E62B1E"/>
<path d="M892.741 410.584L903.308 413.415L900.477 402.849L892.741 410.584Z" fill="#E62B1E"/>
<path d="M966.771 486.718L976.619 476.874L963.166 473.264L966.771 486.718Z" fill="#E62B1E"/>
<path d="M995.263 516.256L1010.14 520.24L1006.16 505.361L995.263 516.256Z" fill="#E62B1E"/>
<path d="M1071.06 594.413L1084.33 581.145L1066.21 576.291L1071.06 594.413Z" fill="#E62B1E"/>
<path d="M1097.95 621.876L1116.86 626.941L1111.79 608.034L1097.95 621.876Z" fill="#E62B1E"/>
<path d="M1176.09 699.374L1189.31 686.151L1171.25 681.312L1176.09 699.374Z" fill="#E62B1E"/>
<path d="M1139.79 788.184L1163.1 794.429L1156.86 771.119L1139.79 788.184Z" fill="#E62B1E"/>
<path d="M1136.11 848.513L1156.56 828.068L1128.63 820.587L1136.11 848.513Z" fill="#E62B1E"/>
<path d="M1091.9 934.154L1131.57 944.776L1120.95 905.112L1091.9 934.154Z" fill="#E62B1E"/>
<path d="M1095.08 1001.59L1127.75 968.923L1083.13 956.971L1095.08 1001.59Z" fill="#E62B1E"/>
<path d="M1054.95 1151.32L1095.61 1110.68L1040.07 1095.8L1054.95 1151.32Z" fill="#E62B1E"/>
<path d="M982.92 1140.87L1039.74 1156.09L1024.52 1099.28L982.92 1140.87Z" fill="#E62B1E"/>
<path d="M912.191 1187.16L949.543 1149.81L898.523 1136.15L912.191 1187.16Z" fill="#E62B1E"/>
<path d="M844.011 1178.09L892.952 1191.2L879.839 1142.26L844.011 1178.09Z" fill="#E62B1E"/>
<path d="M768.799 1225.36L805.847 1188.32L755.242 1174.76L768.799 1225.36Z" fill="#E62B1E"/>
<path d="M698.582 1217.06L750.935 1231.08L736.911 1178.74L698.582 1217.06Z" fill="#E62B1E"/>
<path d="M616.775 1194.6L667.367 1208.15L653.812 1157.56L616.775 1194.6Z" fill="#E62B1E"/>
<path d="M603.749 1178.75L637.96 1144.54L591.228 1132.02L603.749 1178.75Z" fill="#E62B1E"/>
<path d="M519.515 1087.52L556.679 1097.48L546.721 1060.31L519.515 1087.52Z" fill="#E62B1E"/>
<path d="M501.029 1065.2L524.399 1041.83L492.475 1033.28L501.029 1065.2Z" fill="#E62B1E"/>
<path d="M422.675 980.335L445.681 986.498L439.518 963.495L422.675 980.335Z" fill="#E62B1E"/>
<path d="M397.889 953.212L412.396 938.706L392.579 933.397L397.889 953.212Z" fill="#E62B1E"/>
<path d="M376.015 869.211L389.014 856.213L371.258 851.456L376.015 869.211Z" fill="#E62B1E"/>
<path d="M381.534 813.839L398.931 818.498L394.27 801.102L381.534 813.839Z" fill="#E62B1E"/>
<path d="M414.964 723.909L425.598 713.274L411.071 709.381L414.964 723.909Z" fill="#E62B1E"/>
<path d="M422.667 669.681L435.411 673.092L431.996 660.347L422.667 669.681Z" fill="#E62B1E"/>
<path d="M454.128 577.773L461.35 570.552L451.485 567.909L454.128 577.773Z" fill="#E62B1E"/>
<path d="M463.376 525.631L472.193 527.993L469.831 519.178L463.376 525.631Z" fill="#E62B1E"/>
<path d="M524.446 464.891L532.508 467.053L530.348 458.992L524.446 464.891Z" fill="#E62B1E"/>
<path d="M575.665 455.514L581.606 449.575L573.49 447.398L575.665 455.514Z" fill="#E62B1E"/>
<path d="M667.906 426.452L675.967 428.613L673.808 420.553L667.906 426.452Z" fill="#E62B1E"/>
<path d="M719.124 417.074L725.065 411.135L716.949 408.958L719.124 417.074Z" fill="#E62B1E"/>
<path d="M810.931 388.127L819.743 390.485L817.382 381.675L810.931 388.127Z" fill="#E62B1E"/>
<path d="M862.42 379.241L869.129 372.533L859.966 370.079L862.42 379.241Z" fill="#E62B1E"/>
<path d="M945.023 402.238L952.762 394.502L942.192 391.672L945.023 402.238Z" fill="#E62B1E"/>
<path d="M974.953 432.933L986.582 436.05L983.468 424.427L974.953 432.933Z" fill="#E62B1E"/>
<path d="M1049.43 509.523L1060.06 498.892L1045.54 494.999L1049.43 509.523Z" fill="#E62B1E"/>
<path d="M1077.47 538.606L1093.42 542.877L1089.15 526.925L1077.47 538.606Z" fill="#E62B1E"/>
<path d="M1154.05 615.969L1166.52 603.501L1149.49 598.936L1154.05 615.969Z" fill="#E62B1E"/>
<path d="M1182.06 643.715L1198.74 648.186L1194.27 631.508L1182.06 643.715Z" fill="#E62B1E"/>
<path d="M1203.7 726.677L1221.34 731.406L1216.61 713.761L1203.7 726.677Z" fill="#E62B1E"/>
<path d="M1198.02 783.137L1212.45 768.715L1192.74 763.436L1198.02 783.137Z" fill="#E62B1E"/>
<path d="M1159.6 871.631L1187.03 878.975L1179.68 851.553L1159.6 871.631Z" fill="#E62B1E"/>
<path d="M1157.59 933.965L1181.39 910.173L1148.88 901.466L1157.59 933.965Z" fill="#E62B1E"/>
<path d="M1112.2 1017.47L1155.15 1028.98L1143.64 986.035L1112.2 1017.47Z" fill="#E62B1E"/>
<path d="M1116.87 1085.9L1151.44 1051.34L1104.22 1038.69L1116.87 1085.9Z" fill="#E62B1E"/>
<path d="M1138.4 1171.19L1176.11 1133.48L1124.6 1119.68L1138.4 1171.19Z" fill="#E62B1E"/>
<path d="M1065.82 1163.04L1122.5 1178.22L1107.32 1121.55L1065.82 1163.04Z" fill="#E62B1E"/>
<path d="M993.763 1214.03L1037.05 1170.75L977.921 1154.91L993.763 1214.03Z" fill="#E62B1E"/>
<path d="M922.865 1201.34L978.682 1216.29L963.727 1160.48L922.865 1201.34Z" fill="#E62B1E"/>
<path d="M851.527 1247.91L889.034 1210.41L837.8 1196.68L851.527 1247.91Z" fill="#E62B1E"/>
<path d="M780.873 1239.39L834.148 1253.66L819.876 1200.39L780.873 1239.39Z" fill="#E62B1E"/>
<path d="M707.328 1289.11L748.341 1248.1L692.317 1233.09L707.328 1289.11Z" fill="#E62B1E"/>
<path d="M636.442 1278.09L691.4 1292.81L676.675 1237.86L636.442 1278.09Z" fill="#E62B1E"/>
<path d="M625.276 1264.03L662.625 1226.7L611.61 1213.03L625.276 1264.03Z" fill="#E62B1E"/>
<path d="M538.607 1171.16L581.135 1182.56L569.739 1140.03L538.607 1171.16Z" fill="#E62B1E"/>
<path d="M522.354 1151.23L549.804 1123.78L512.308 1113.74L522.354 1151.23Z" fill="#E62B1E"/>
<path d="M442.854 1063.68L469.341 1070.78L462.245 1044.29L442.854 1063.68Z" fill="#E62B1E"/>
<path d="M419.648 1037.62L436.18 1021.09L413.597 1015.04L419.648 1037.62Z" fill="#E62B1E"/>
<path d="M343.33 957.213L360.313 961.763L355.763 944.781L343.33 957.213Z" fill="#E62B1E"/>
<path d="M315.836 928.145L326.687 917.291L311.864 913.321L315.836 928.145Z" fill="#E62B1E"/>
<path d="M322.352 874.076L337.234 878.063L333.247 863.185L322.352 874.076Z" fill="#E62B1E"/>
<path d="M354.273 784.736L365.167 773.842L350.285 769.854L354.273 784.736Z" fill="#E62B1E"/>
<path d="M361.417 730.472L375.224 734.172L371.523 720.363L361.417 730.472Z" fill="#E62B1E"/>
<path d="M393.272 639.215L401.526 630.969L390.253 627.947L393.272 639.215Z" fill="#E62B1E"/>
<path d="M402.137 586.418L412.002 589.06L409.359 579.197L402.137 586.418Z" fill="#E62B1E"/>
<path d="M432.271 493.721L437.915 488.077L430.205 486.011L432.271 493.721Z" fill="#E62B1E"/>
<path d="M442.426 442.486L449.097 444.276L447.31 437.604L442.426 442.486Z" fill="#E62B1E"/>
<path d="M493.011 432.696L498.151 427.555L491.13 425.677L493.011 432.696Z" fill="#E62B1E"/>
<path d="M585.483 404.155L592.848 406.132L590.874 398.765L585.483 404.155Z" fill="#E62B1E"/>
<path d="M636.417 394.457L641.811 389.062L634.443 387.09L636.417 394.457Z" fill="#E62B1E"/>
<path d="M728.942 365.715L736.307 367.692L734.333 360.325L728.942 365.715Z" fill="#E62B1E"/>
<path d="M779.822 356.219L785.468 350.57L777.755 348.506L779.822 356.219Z" fill="#E62B1E"/>
<path d="M871.999 327.382L880.056 329.545L877.896 321.484L871.999 327.382Z" fill="#E62B1E"/>
<path d="M923.224 317.979L929.124 312.076L921.064 309.918L923.224 317.979Z" fill="#E62B1E"/>
<path d="M954.216 349.734L963.324 352.169L960.885 343.067L954.216 349.734Z" fill="#E62B1E"/>
<path d="M1027.74 424.832L1035.99 416.578L1024.72 413.563L1027.74 424.832Z" fill="#E62B1E"/>
<path d="M1057.37 455.237L1069.7 458.537L1066.4 446.204L1057.37 455.237Z" fill="#E62B1E"/>
<path d="M1132.26 531.71L1142.89 521.077L1128.36 517.183L1132.26 531.71Z" fill="#E62B1E"/>
<path d="M1160.91 560.624L1175.8 564.611L1171.81 549.728L1160.91 560.624Z" fill="#E62B1E"/>
<path d="M1237.22 636.879L1248.07 626.028L1233.25 622.055L1237.22 636.879Z" fill="#E62B1E"/>
<path d="M1266.13 665.568L1280.66 669.461L1276.76 654.941L1266.13 665.568Z" fill="#E62B1E"/>
<path d="M1259.24 720.312L1270.88 708.676L1254.98 704.415L1259.24 720.312Z" fill="#E62B1E"/>
<path d="M1224.7 809.81L1244.4 815.086L1239.12 795.39L1224.7 809.81Z" fill="#E62B1E"/>
<path d="M1219.68 867.932L1236.62 850.994L1213.48 844.795L1219.68 867.932Z" fill="#E62B1E"/>
<path d="M1179.08 955.169L1211.21 963.777L1202.6 931.656L1179.08 955.169Z" fill="#E62B1E"/>
<path d="M1179.1 1019.32L1206.13 992.301L1169.21 982.418L1179.1 1019.32Z" fill="#E62B1E"/>
<path d="M1132.39 1100.82L1178.8 1113.24L1166.37 1066.86L1132.39 1100.82Z" fill="#E62B1E"/>
<path d="M1152.32 1184.24L1202.64 1197.72L1189.16 1147.4L1152.32 1184.24Z" fill="#E62B1E"/>
<path d="M1076.27 1237.39L1121.05 1192.61L1059.88 1176.23L1076.27 1237.39Z" fill="#E62B1E"/>
<path d="M1001.41 1224.67L1064.64 1241.62L1047.7 1178.38L1001.41 1224.67Z" fill="#E62B1E"/>
<path d="M933.472 1273.37L975.129 1231.71L918.228 1216.47L933.472 1273.37Z" fill="#E62B1E"/>
<path d="M863.294 1261.68L917.268 1276.14L902.806 1222.17L863.294 1261.68Z" fill="#E62B1E"/>
<path d="M790.145 1311.31L831.173 1270.29L775.132 1255.27L790.145 1311.31Z" fill="#E62B1E"/>
<path d="M717.858 1300.65L775.257 1316.03L759.879 1258.63L717.858 1300.65Z" fill="#E62B1E"/>
<path d="M647.248 1347.66L685.623 1309.29L633.204 1295.25L647.248 1347.66Z" fill="#E62B1E"/>
<path d="M559.038 1254.45L604.611 1266.65L592.402 1221.09L559.038 1254.45Z" fill="#E62B1E"/>
<path d="M544.064 1235.84L573.786 1206.12L533.187 1195.24L544.064 1235.84Z" fill="#E62B1E"/>
<path d="M462.787 1147.1L493.185 1155.24L485.041 1124.85L462.787 1147.1Z" fill="#E62B1E"/>
<path d="M441.359 1122.22L460.161 1103.43L434.48 1096.55L441.359 1122.22Z" fill="#E62B1E"/>
<path d="M364.332 1040.35L383.369 1045.44L378.27 1026.41L364.332 1040.35Z" fill="#E62B1E"/>
<path d="M337.745 1011.99L349.915 999.83L333.292 995.374L337.745 1011.99Z" fill="#E62B1E"/>
<path d="M262.782 934.414L275.823 937.909L272.329 924.869L262.782 934.414Z" fill="#E62B1E"/>
<path d="M293.967 844.129L303.298 834.804L290.553 831.389L293.967 844.129Z" fill="#E62B1E"/>
<path d="M301.393 790.932L314.141 794.345L310.728 781.605L301.393 790.932Z" fill="#E62B1E"/>
<path d="M332.531 700.249L341.301 691.484L329.321 688.271L332.531 700.249Z" fill="#E62B1E"/>
<path d="M340.897 647.213L351.813 650.133L348.889 639.219L340.897 647.213Z" fill="#E62B1E"/>
<path d="M371.475 554.95L377.886 548.538L369.129 546.195L371.475 554.95Z" fill="#E62B1E"/>
<path d="M381.358 503.232L388.782 505.222L386.793 497.801L381.358 503.232Z" fill="#E62B1E"/>
<path d="M410.403 409.709L414.529 405.584L408.893 404.075L410.403 409.709Z" fill="#E62B1E"/>
<path d="M503.294 381.799L509.564 383.477L507.885 377.211L503.294 381.799Z" fill="#E62B1E"/>
<path d="M553.754 371.669L558.383 367.037L552.058 365.341L553.754 371.669Z" fill="#E62B1E"/>
<path d="M646.718 343.369L653.043 345.065L651.348 338.737L646.718 343.369Z" fill="#E62B1E"/>
<path d="M697.209 333.231L701.842 328.598L695.513 326.903L697.209 333.231Z" fill="#E62B1E"/>
<path d="M789.976 304.982L796.647 306.772L794.859 300.1L789.976 304.982Z" fill="#E62B1E"/>
<path d="M840.57 295.156L845.664 290.061L838.706 288.196L840.57 295.156Z" fill="#E62B1E"/>
<path d="M933.467 266.535L940.082 268.306L938.311 261.693L933.467 266.535Z" fill="#E62B1E"/>
<path d="M1005.98 340.396L1012.19 334.201L1003.72 331.933L1005.98 340.396Z" fill="#E62B1E"/>
<path d="M1036.8 371.983L1046.32 374.533L1043.77 365.016L1036.8 371.983Z" fill="#E62B1E"/>
<path d="M1110.57 447.018L1118.82 438.77L1107.55 435.749L1110.57 447.018Z" fill="#E62B1E"/>
<path d="M1140.36 477.375L1152.4 480.598L1149.18 468.56L1140.36 477.375Z" fill="#E62B1E"/>
<path d="M1215.29 553.072L1224.88 543.482L1211.79 539.977L1215.29 553.072Z" fill="#E62B1E"/>
<path d="M1244.59 582.585L1257.99 586.171L1254.4 572.776L1244.59 582.585Z" fill="#E62B1E"/>
<path d="M1281.06 804.515L1294.47 791.115L1276.15 786.211L1281.06 804.515Z" fill="#E62B1E"/>
<path d="M1244.69 893.213L1268.2 899.508L1261.9 876.008L1244.69 893.213Z" fill="#E62B1E"/>
<path d="M1241.15 953.407L1261.47 933.096L1233.72 925.665L1241.15 953.407Z" fill="#E62B1E"/>
<path d="M1198.32 1038.77L1235.56 1048.75L1225.58 1011.51L1198.32 1038.77Z" fill="#E62B1E"/>
<path d="M1200.58 1104.76L1230.95 1074.41L1189.48 1063.3L1200.58 1104.76Z" fill="#E62B1E"/>
<path d="M1160.11 1255.79L1200.09 1215.82L1145.48 1201.19L1160.11 1255.79Z" fill="#E62B1E"/>
<path d="M1085.71 1246.46L1146.38 1262.71L1130.12 1202.06L1085.71 1246.46Z" fill="#E62B1E"/>
<path d="M1015.14 1299.85L1062.26 1252.75L997.904 1235.51L1015.14 1299.85Z" fill="#E62B1E"/>
<path d="M942.127 1284.94L1003.01 1301.25L986.703 1240.37L942.127 1284.94Z" fill="#E62B1E"/>
<path d="M873.19 1332.67L913.177 1292.69L858.557 1278.06L873.19 1332.67Z" fill="#E62B1E"/>
<path d="M801.133 1322.72L857.753 1337.88L842.583 1281.27L801.133 1322.72Z" fill="#E62B1E"/>
<path d="M729.244 1372.92L771.53 1330.65L713.771 1315.18L729.244 1372.92Z" fill="#E62B1E"/>
<path d="M658.59 1360.91L713.624 1375.65L698.879 1320.62L658.59 1360.91Z" fill="#E62B1E"/>
<path d="M580.678 1337.41L627.21 1349.87L614.743 1303.35L580.678 1337.41Z" fill="#E62B1E"/>
<path d="M565.925 1319.88L597.207 1288.6L554.475 1277.15L565.925 1319.88Z" fill="#E62B1E"/>
<path d="M483.497 1230.31L516.458 1239.13L507.63 1206.19L483.497 1230.31Z" fill="#E62B1E"/>
<path d="M463.159 1206.48L483.794 1185.85L455.607 1178.3L463.159 1206.48Z" fill="#E62B1E"/>
<path d="M385.329 1123.48L406.435 1129.13L400.78 1108.02L385.329 1123.48Z" fill="#E62B1E"/>
<path d="M359.629 1095.95L373.257 1082.33L354.643 1077.35L359.629 1095.95Z" fill="#E62B1E"/>
<path d="M283.907 1017.52L298.789 1021.5L294.802 1006.62L283.907 1017.52Z" fill="#E62B1E"/>
<path d="M255.412 987.98L265.262 978.13L251.808 974.53L255.412 987.98Z" fill="#E62B1E"/>
<path d="M233.51 904.109L242.015 895.601L230.395 892.486L233.51 904.109Z" fill="#E62B1E"/>
<path d="M241.611 851.332L252.884 854.35L249.863 843.078L241.611 851.332Z" fill="#E62B1E"/>
<path d="M272.062 760.266L280.054 752.272L269.136 749.344L272.062 760.266Z" fill="#E62B1E"/>
<path d="M280.464 707.785L291.034 710.615L288.203 700.049L280.464 707.785Z" fill="#E62B1E"/>
<path d="M310.73 615.982L317.659 609.055L308.196 606.524L310.73 615.982Z" fill="#E62B1E"/>
<path d="M320.155 564.008L328.566 566.262L326.313 557.854L320.155 564.008Z" fill="#E62B1E"/>
<path d="M349.664 470.734L354.289 466.103L347.969 464.41L349.664 470.734Z" fill="#E62B1E"/>
<path d="M360.233 420.131L365.81 421.626L364.315 416.047L360.233 420.131Z" fill="#E62B1E"/>
<path d="M421.268 359.401L426.153 360.71L424.844 355.825L421.268 359.401Z" fill="#E62B1E"/>
<path d="M471.099 348.853L474.932 345.023L469.697 343.622L471.099 348.853Z" fill="#E62B1E"/>
<path d="M564.329 321.068L569.905 322.559L568.411 316.984L564.329 321.068Z" fill="#E62B1E"/>
<path d="M614.505 310.608L618.588 306.528L613.011 305.033L614.505 310.608Z" fill="#E62B1E"/>
<path d="M707.783 282.628L713.359 284.12L711.865 278.545L707.783 282.628Z" fill="#E62B1E"/>
<path d="M757.96 272.169L762.043 268.09L756.466 266.594L757.96 272.169Z" fill="#E62B1E"/>
<path d="M851.211 244.198L856.848 245.707L855.338 240.073L851.211 244.198Z" fill="#E62B1E"/>
<path d="M901.419 233.729L905.502 229.65L899.925 228.154L901.419 233.729Z" fill="#E62B1E"/>
<path d="M984.192 256.119L988.524 251.782L982.605 250.197L984.192 256.119Z" fill="#E62B1E"/>
<path d="M1016.06 288.782L1023.08 290.665L1021.2 283.646L1016.06 288.782Z" fill="#E62B1E"/>
<path d="M1088.76 362.755L1095.18 356.342L1086.42 353.999L1088.76 362.755Z" fill="#E62B1E"/>
<path d="M1119.66 394.158L1129.12 396.694L1126.58 387.237L1119.66 394.158Z" fill="#E62B1E"/>
<path d="M1193.5 468.8L1201.24 461.064L1190.67 458.234L1193.5 468.8Z" fill="#E62B1E"/>
<path d="M1223.63 499.443L1234.91 502.464L1231.89 491.187L1223.63 499.443Z" fill="#E62B1E"/>
<path d="M1263.78 976.852L1292.65 984.588L1284.92 955.714L1263.78 976.852Z" fill="#E62B1E"/>
<path d="M1262.44 1039.6L1287.04 1015L1253.43 1006L1262.44 1039.6Z" fill="#E62B1E"/>
<path d="M1217.83 1122.3L1259.7 1133.52L1248.48 1091.66L1217.83 1122.3Z" fill="#E62B1E"/>
<path d="M1222.24 1189.56L1255.12 1156.69L1210.21 1144.67L1222.24 1189.56Z" fill="#E62B1E"/>
<path d="M1244.52 1272.06L1277 1239.59L1232.63 1227.71L1244.52 1272.06Z" fill="#E62B1E"/>
<path d="M1174.62 1267.02L1224.74 1280.45L1211.32 1230.33L1174.62 1267.02Z" fill="#E62B1E"/>
<path d="M1098.24 1321.02L1144.05 1275.21L1081.48 1258.45L1098.24 1321.02Z" fill="#E62B1E"/>
<path d="M1022.52 1307.78L1087.62 1325.22L1070.17 1260.12L1022.52 1307.78Z" fill="#E62B1E"/>
<path d="M955.34 1357.39L998.528 1314.2L939.534 1298.4L955.34 1357.39Z" fill="#E62B1E"/>
<path d="M884.739 1344.69L940.001 1359.5L925.195 1304.24L884.739 1344.69Z" fill="#E62B1E"/>
<path d="M812.382 1393.96L853.202 1353.14L797.443 1338.21L812.382 1393.96Z" fill="#E62B1E"/>
<path d="M740.704 1383.29L796.967 1398.36L781.895 1342.1L740.704 1383.29Z" fill="#E62B1E"/>
<path d="M669.858 1428.9L706.249 1392.52L656.542 1379.21L669.858 1428.9Z" fill="#E62B1E"/>
<path d="M604.347 1419.82L648.308 1431.59L636.531 1387.64L604.347 1419.82Z" fill="#E62B1E"/>
<path d="M588.197 1402.39L619.093 1371.5L576.888 1360.18L588.197 1402.39Z" fill="#E62B1E"/>
<path d="M504.459 1313.45L539.549 1322.85L530.147 1287.76L504.459 1313.45Z" fill="#E62B1E"/>
<path d="M484.961 1290.75L507.449 1268.27L476.732 1260.04L484.961 1290.75Z" fill="#E62B1E"/>
<path d="M406.13 1206.66L429.638 1212.96L423.34 1189.45L406.13 1206.66Z" fill="#E62B1E"/>
<path d="M381.488 1180L396.673 1164.82L375.931 1159.26L381.488 1180Z" fill="#E62B1E"/>
<path d="M304.884 1100.65L321.866 1105.2L317.317 1088.22L304.884 1100.65Z" fill="#E62B1E"/>
<path d="M277.281 1072L288.66 1060.62L273.118 1056.46L277.281 1072Z" fill="#E62B1E"/>
<path d="M202.143 995.043L215.185 998.538L211.689 985.494L202.143 995.043Z" fill="#E62B1E"/>
<path d="M172.809 964.976L181.621 956.161L169.583 952.938L172.809 964.976Z" fill="#E62B1E"/>
<path d="M180.98 911.955L192.25 914.979L189.229 903.706L180.98 911.955Z" fill="#E62B1E"/>
<path d="M211.598 820.248L218.78 813.068L208.971 810.444L211.598 820.248Z" fill="#E62B1E"/>
<path d="M220.472 768.238L229.927 770.771L227.394 761.318L220.472 768.238Z" fill="#E62B1E"/>
<path d="M250.15 676.406L256.82 669.743L247.71 667.3L250.15 676.406Z" fill="#E62B1E"/>
<path d="M259.483 624.642L267.954 626.914L265.686 618.447L259.483 624.642Z" fill="#E62B1E"/>
<path d="M288.919 531.759L294.056 526.623L287.039 524.744L288.919 531.759Z" fill="#E62B1E"/>
<path d="M299.365 480.819L305.348 482.421L303.746 476.444L299.365 480.819Z" fill="#E62B1E"/>
<path d="M327.747 386.891L331.074 383.569L326.53 382.35L327.747 386.891Z" fill="#E62B1E"/>
<path d="M339.04 337.058L342.894 338.089L341.86 334.23L339.04 337.058Z" fill="#E62B1E"/>
<path d="M388.436 326.068L391.513 322.998L387.311 321.87L388.436 326.068Z" fill="#E62B1E"/>
<path d="M482.103 298.721L486.646 299.936L485.428 295.391L482.103 298.721Z" fill="#E62B1E"/>
<path d="M531.842 287.826L535.169 284.503L530.624 283.281L531.842 287.826Z" fill="#E62B1E"/>
<path d="M625.559 260.283L630.102 261.497L628.884 256.952L625.559 260.283Z" fill="#E62B1E"/>
<path d="M675.296 249.387L678.623 246.064L674.078 244.842L675.296 249.387Z" fill="#E62B1E"/>
<path d="M769.018 221.843L773.561 223.057L772.343 218.512L769.018 221.843Z" fill="#E62B1E"/>
<path d="M818.756 210.948L822.083 207.625L817.538 206.402L818.756 210.948Z" fill="#E62B1E"/>
<path d="M912.676 183.352L916.872 184.474L915.747 180.276L912.676 183.352Z" fill="#E62B1E"/>
<path d="M962.321 172.113L965.144 169.293L961.288 168.254L962.321 172.113Z" fill="#E62B1E"/>
<path d="M995.299 205.59L999.841 206.804L998.624 202.263L995.299 205.59Z" fill="#E62B1E"/>
<path d="M1066.96 278.505L1071.55 273.914L1065.28 272.236L1066.96 278.505Z" fill="#E62B1E"/>
<path d="M1098.88 310.971L1105.9 312.85L1104.02 305.835L1098.88 310.971Z" fill="#E62B1E"/>
<path d="M1171.68 384.57L1177.63 378.626L1169.51 376.454L1171.68 384.57Z" fill="#E62B1E"/>
<path d="M1202.89 416.244L1211.65 418.587L1209.3 409.828L1202.89 416.244Z" fill="#E62B1E"/>
<path d="M1276.43 490.58L1283.65 483.358L1273.79 480.716L1276.43 490.58Z" fill="#E62B1E"/>
<path d="M1282.76 1060.53L1317.2 1069.75L1307.97 1035.32L1282.76 1060.53Z" fill="#E62B1E"/>
<path d="M1283.86 1125.26L1312.08 1097.05L1273.53 1086.72L1283.86 1125.26Z" fill="#E62B1E"/>
<path d="M1239.17 1205.35L1282.52 1216.96L1270.9 1173.61L1239.17 1205.35Z" fill="#E62B1E"/>
<path d="M1263.05 1287.7L1303.47 1298.53L1292.64 1258.12L1263.05 1287.7Z" fill="#E62B1E"/>
<path d="M1182.84 1336.58L1220.25 1299.17L1169.15 1285.48L1182.84 1336.58Z" fill="#E62B1E"/>
<path d="M1109.54 1328.84L1167.37 1344.33L1151.88 1286.5L1109.54 1328.84Z" fill="#E62B1E"/>
<path d="M1037.53 1381.94L1083.72 1335.75L1020.62 1318.85L1037.53 1381.94Z" fill="#E62B1E"/>
<path d="M964.773 1367.63L1024.87 1383.73L1008.77 1323.64L964.773 1367.63Z" fill="#E62B1E"/>
<path d="M895.564 1414.8L934.68 1375.69L881.251 1361.38L895.564 1414.8Z" fill="#E62B1E"/>
<path d="M824.881 1405.11L878.803 1419.55L864.357 1365.64L824.881 1405.11Z" fill="#E62B1E"/>
<path d="M752.107 1453.23L791.212 1414.13L737.796 1399.82L752.107 1453.23Z" fill="#E62B1E"/>
<path d="M683.735 1442.93L733.648 1456.3L720.274 1406.39L683.735 1442.93Z" fill="#E62B1E"/>
<path d="M610.897 1483.29L639.368 1454.82L600.479 1444.4L610.897 1483.29Z" fill="#E62B1E"/>
<path d="M526.082 1396.42L562.15 1406.08L552.488 1370.02L526.082 1396.42Z" fill="#E62B1E"/>
<path d="M506.76 1375.01L531.078 1350.7L497.861 1341.8L506.76 1375.01Z" fill="#E62B1E"/>
<path d="M426.489 1289.97L453.167 1297.11L446.02 1270.44L426.489 1289.97Z" fill="#E62B1E"/>
<path d="M403.247 1264.41L420.461 1247.2L396.949 1240.9L403.247 1264.41Z" fill="#E62B1E"/>
<path d="M325.89 1183.78L344.919 1188.88L339.819 1169.85L325.89 1183.78Z" fill="#E62B1E"/>
<path d="M299.145 1156.02L312.062 1143.11L294.419 1138.38L299.145 1156.02Z" fill="#E62B1E"/>
<path d="M223.477 1078.09L238.008 1081.98L234.115 1067.45L223.477 1078.09Z" fill="#E62B1E"/>
<path d="M194.782 1048.61L204.629 1038.76L191.177 1035.15L194.782 1048.61Z" fill="#E62B1E"/>
<path d="M150.899 881.11L158.383 873.632L148.162 870.895L150.899 881.11Z" fill="#E62B1E"/>
<path d="M160.006 828.815L169.169 831.27L166.714 822.108L160.006 828.815Z" fill="#E62B1E"/>
<path d="M189.676 736.43L195.581 730.53L187.516 728.369L189.676 736.43Z" fill="#E62B1E"/>
<path d="M199.29 685.159L207.002 687.22L204.937 679.51L199.29 685.159Z" fill="#E62B1E"/>
<path d="M228.284 592.384L233.421 587.248L226.404 585.368L228.284 592.384Z" fill="#E62B1E"/>
<path d="M238.569 541.491L244.834 543.17L243.154 536.901L238.569 541.491Z" fill="#E62B1E"/>
<path d="M267.056 447.718L270.64 444.14L265.747 442.833L267.056 447.718Z" fill="#E62B1E"/>
<path d="M278.206 397.733L282.407 398.858L281.282 394.659L278.206 397.733Z" fill="#E62B1E"/>
<path d="M305.769 303.289L308.089 300.963L304.919 300.117L305.769 303.289Z" fill="#E62B1E"/>
<path d="M399.869 276.371L403.383 277.316L402.441 273.8L399.869 276.371Z" fill="#E62B1E"/>
<path d="M449.175 265.046L451.746 262.471L448.233 261.531L449.175 265.046Z" fill="#E62B1E"/>
<path d="M543.129 237.985L546.989 239.023L545.955 235.164L543.129 237.985Z" fill="#E62B1E"/>
<path d="M592.578 226.807L595.403 223.978L591.544 222.948L592.578 226.807Z" fill="#E62B1E"/>
<path d="M686.588 199.546L690.444 200.584L689.41 196.726L686.588 199.546Z" fill="#E62B1E"/>
<path d="M736.037 188.367L738.862 185.538L735.003 184.508L736.037 188.367Z" fill="#E62B1E"/>
<path d="M830.048 161.106L833.908 162.144L832.874 158.285L830.048 161.106Z" fill="#E62B1E"/>
<path d="M879.55 149.728L882.121 147.153L878.608 146.213L879.55 149.728Z" fill="#E62B1E"/>
<path d="M973.901 122.56L977.074 123.414L976.224 120.242L973.901 122.56Z" fill="#E62B1E"/>
<path d="M1045.09 194.497L1048.16 191.424L1043.97 190.298L1045.09 194.497Z" fill="#E62B1E"/>
<path d="M1077.93 227.829L1082.81 229.138L1081.5 224.253L1077.93 227.829Z" fill="#E62B1E"/>
<path d="M1149.78 300.69L1154.37 296.103L1148.1 294.42L1149.78 300.69Z" fill="#E62B1E"/>
<path d="M1181.91 333.101L1188.58 334.887L1186.79 328.223L1181.91 333.101Z" fill="#E62B1E"/>
<path d="M1254.57 406.523L1260.22 400.882L1252.51 398.814L1254.57 406.523Z" fill="#E62B1E"/>
<path d="M1267.34 1352.52L1296.83 1323.03L1256.55 1312.24L1267.34 1352.52Z" fill="#E62B1E"/>
<path d="M1199.66 1349.06L1244.85 1361.17L1232.75 1315.99L1199.66 1349.06Z" fill="#E62B1E"/>
<path d="M1121.19 1400.97L1163.38 1358.79L1105.76 1343.35L1121.19 1400.97Z" fill="#E62B1E"/>
<path d="M1047.14 1389.93L1108.03 1406.25L1091.72 1345.36L1047.14 1389.93Z" fill="#E62B1E"/>
<path d="M977.948 1438.62L1019.14 1397.44L962.873 1382.36L977.948 1438.62Z" fill="#E62B1E"/>
<path d="M908.518 1427.08L961.029 1441.15L946.959 1388.64L908.518 1427.08Z" fill="#E62B1E"/>
<path d="M835.234 1474.29L872.908 1436.62L821.448 1422.84L835.234 1474.29Z" fill="#E62B1E"/>
<path d="M765.828 1465.31L817.009 1479.02L803.297 1427.85L765.828 1465.31Z" fill="#E62B1E"/>
<path d="M692.872 1508.64L725.356 1476.15L680.984 1464.27L692.872 1508.64Z" fill="#E62B1E"/>
<path d="M629.121 1501.94L668.609 1512.52L658.03 1473.04L629.121 1501.94Z" fill="#E62B1E"/>
<path d="M549.173 1478.98L583.681 1488.23L574.435 1453.72L549.173 1478.98Z" fill="#E62B1E"/>
<path d="M528.913 1457.97L553.418 1433.47L519.946 1424.51L528.913 1457.97Z" fill="#E62B1E"/>
<path d="M447.005 1373.23L476.581 1381.15L468.658 1351.58L447.005 1373.23Z" fill="#E62B1E"/>
<path d="M424.95 1349.05L444.478 1329.52L417.803 1322.38L424.95 1349.05Z" fill="#E62B1E"/>
<path d="M346.672 1266.97L368.143 1272.73L362.39 1251.26L346.672 1266.97Z" fill="#E62B1E"/>
<path d="M321.006 1240.06L335.473 1225.59L315.713 1220.3L321.006 1240.06Z" fill="#E62B1E"/>
<path d="M244.254 1161.28L261.231 1165.82L256.684 1148.85L244.254 1161.28Z" fill="#E62B1E"/>
<path d="M216.694 1132.45L227.851 1121.29L212.61 1117.21L216.694 1132.45Z" fill="#E62B1E"/>
<path d="M129.044 797.053L134.946 791.154L126.884 788.992L129.044 797.053Z" fill="#E62B1E"/>
<path d="M138.854 745.728L146.221 747.695L144.248 740.333L138.854 745.728Z" fill="#E62B1E"/>
<path d="M167.754 652.613L172.388 647.98L166.061 646.292L167.754 652.613Z" fill="#E62B1E"/>
<path d="M178.1 602.072L184.075 603.677L182.473 597.695L178.1 602.072Z" fill="#E62B1E"/>
<path d="M206.429 508.34L210.005 504.764L205.12 503.456L206.429 508.34Z" fill="#E62B1E"/>
<path d="M217.402 458.404L221.893 459.602L220.692 455.12L217.402 458.404Z" fill="#E62B1E"/>
<path d="M245.084 364.109L247.657 361.542L244.143 360.598L245.084 364.109Z" fill="#E62B1E"/>
<path d="M256.612 314.757L259.781 315.612L258.931 312.44L256.612 314.757Z" fill="#E62B1E"/>
<path d="M317.44 254.081L320.271 254.841L319.513 252.012L317.44 254.081Z" fill="#E62B1E"/>
<path d="M366.411 242.628L368.693 240.346L365.577 239.515L366.411 242.628Z" fill="#E62B1E"/>
<path d="M460.703 215.694L463.874 216.544L463.025 213.375L460.703 215.694Z" fill="#E62B1E"/>
<path d="M509.859 204.222L512.185 201.899L509.01 201.054L509.859 204.222Z" fill="#E62B1E"/>
<path d="M604.158 177.255L607.333 178.104L606.484 174.935L604.158 177.255Z" fill="#E62B1E"/>
<path d="M653.318 165.783L655.64 163.461L652.469 162.615L653.318 165.783Z" fill="#E62B1E"/>
<path d="M747.617 138.815L750.788 139.665L749.939 136.497L747.617 138.815Z" fill="#E62B1E"/>
<path d="M796.777 127.343L799.099 125.021L795.928 124.174L796.777 127.343Z" fill="#E62B1E"/>
<path d="M891.107 100.365L894.224 101.2L893.39 98.0874L891.107 100.365Z" fill="#E62B1E"/>
<path d="M940.29 88.7072L942.361 86.6341L939.532 85.8782L940.29 88.7072Z" fill="#E62B1E"/>
<path d="M1023.06 111.092L1025.38 108.766L1022.21 107.919L1023.06 111.092Z" fill="#E62B1E"/>
<path d="M1056.56 144.796L1060.02 145.718L1059.09 142.261L1056.56 144.796Z" fill="#E62B1E"/>
<path d="M1127.87 216.847L1131.16 213.564L1126.67 212.365L1127.87 216.847Z" fill="#E62B1E"/>
<path d="M1160.75 250.013L1165.63 251.322L1164.33 246.437L1160.75 250.013Z" fill="#E62B1E"/>
<path d="M1232.65 322.71L1237.03 318.332L1231.05 316.729L1232.65 322.71Z" fill="#E62B1E"/>
<path d="M1264.93 355.234L1271.26 356.931L1269.56 350.61L1264.93 355.234Z" fill="#E62B1E"/>
<path d="M551.292 1540.08L574.909 1516.47L542.649 1507.83L551.292 1540.08Z" fill="#E62B1E"/>
<path d="M468.571 1456.21L499.227 1464.42L491.014 1433.76L468.571 1456.21Z" fill="#E62B1E"/>
<path d="M446.798 1433.13L467.942 1412L439.062 1404.26L446.798 1433.13Z" fill="#E62B1E"/>
<path d="M367.258 1350.21L391.503 1356.71L385.007 1332.46L367.258 1350.21Z" fill="#E62B1E"/>
<path d="M342.824 1324.25L359.045 1308.04L336.891 1302.1L342.824 1324.25Z" fill="#E62B1E"/>
<path d="M265.219 1244.42L284.315 1249.53L279.2 1230.44L265.219 1244.42Z" fill="#E62B1E"/>
<path d="M238.494 1216.71L251.493 1203.72L233.735 1198.96L238.494 1216.71Z" fill="#E62B1E"/>
<path d="M107.135 713.204L111.723 708.621L105.457 706.938L107.135 713.204Z" fill="#E62B1E"/>
<path d="M117.698 662.635L123.271 664.131L121.777 658.556L117.698 662.635Z" fill="#E62B1E"/>
<path d="M145.79 568.97L149.37 565.393L144.482 564.085L145.79 568.97Z" fill="#E62B1E"/>
<path d="M156.775 519.027L161.259 520.228L160.058 515.746L156.775 519.027Z" fill="#E62B1E"/>
<path d="M184.446 424.739L187.022 422.167L183.504 421.223L184.446 424.739Z" fill="#E62B1E"/>
<path d="M195.979 375.391L199.146 376.238L198.296 373.066L195.979 375.391Z" fill="#E62B1E"/>
<path d="M223.001 280.904L225.072 278.831L222.243 278.075L223.001 280.904Z" fill="#E62B1E"/>
<path d="M1034.73 61.8832L1037.56 62.6431L1036.81 59.8141L1034.73 61.8832Z" fill="#E62B1E"/>
<path d="M1105.88 133.278L1108.21 130.959L1105.03 130.106L1105.88 133.278Z" fill="#E62B1E"/>
<path d="M1139.35 166.991L1142.86 167.932L1141.92 164.417L1139.35 166.991Z" fill="#E62B1E"/>
<path d="M1210.68 239.068L1214.01 235.741L1209.47 234.526L1210.68 239.068Z" fill="#E62B1E"/>
<path d="M1243.57 272.203L1248.46 273.51L1247.15 268.626L1243.57 272.203Z" fill="#E62B1E"/>
<path d="M491.017 1538.95L521.232 1547.04L513.138 1516.83L491.017 1538.95Z" fill="#E62B1E"/>
<path d="M468.88 1516.35L490.53 1494.7L460.957 1486.78L468.88 1516.35Z" fill="#E62B1E"/>
<path d="M387.973 1433.42L414.778 1440.6L407.599 1413.8L387.973 1433.42Z" fill="#E62B1E"/>
<path d="M364.624 1408.52L382.695 1390.46L358.012 1383.85L364.624 1408.52Z" fill="#E62B1E"/>
<path d="M286.602 1327.45L307.097 1332.94L301.606 1312.45L286.602 1327.45Z" fill="#E62B1E"/>
<path d="M260.422 1300.51L274.666 1286.27L255.209 1281.06L260.422 1300.51Z" fill="#E62B1E"/>
<path d="M85.1685 629.566L88.7037 626.026L83.8734 624.732L85.1685 629.566Z" fill="#E62B1E"/>
<path d="M96.3068 579.612L100.503 580.733L99.3789 576.539L96.3068 579.612Z" fill="#E62B1E"/>
<path d="M123.816 485.363L126.387 482.792L122.875 481.852L123.816 485.363Z" fill="#E62B1E"/>
<path d="M135.338 436.015L138.513 436.86L137.664 433.691L135.338 436.015Z" fill="#E62B1E"/>
<path d="M162.362 341.53L164.433 339.457L161.604 338.701L162.362 341.53Z" fill="#E62B1E"/>
<path d="M173.985 292.52L176.816 293.28L176.058 290.451L173.985 292.52Z" fill="#E62B1E"/>
<path d="M1083.75 50.2671L1085.82 48.194L1082.99 47.4381L1083.75 50.2671Z" fill="#E62B1E"/>
<path d="M1117.55 84.0685L1120.39 84.8273L1119.63 81.9983L1117.55 84.0685Z" fill="#E62B1E"/>
<path d="M1188.71 155.462L1191.03 153.142L1187.86 152.293L1188.71 155.462Z" fill="#E62B1E"/>
<path d="M1222.18 189.176L1225.69 190.118L1224.75 186.606L1222.18 189.176Z" fill="#E62B1E"/>
<path d="M409.329 1516.46L437.575 1524.02L430.008 1495.78L409.329 1516.46Z" fill="#E62B1E"/>
<path d="M386.476 1492.6L406.144 1472.93L379.279 1465.74L386.476 1492.6Z" fill="#E62B1E"/>
<path d="M307.377 1410.64L330.319 1416.78L324.173 1393.84L307.377 1410.64Z" fill="#E62B1E"/>
<path d="M282.388 1384.13L297.659 1368.86L276.799 1363.27L282.388 1384.13Z" fill="#E62B1E"/>
<path d="M63.1798 545.987L65.7517 543.416L62.2388 542.475L63.1798 545.987Z" fill="#E62B1E"/>
<path d="M74.7047 496.64L77.8791 497.485L77.0312 494.321L74.7047 496.64Z" fill="#E62B1E"/>
<path d="M101.731 402.157L103.8 400.089L100.972 399.324L101.731 402.157Z" fill="#E62B1E"/>
<path d="M113.35 353.144L116.18 353.904L115.422 351.075L113.35 353.144Z" fill="#E62B1E"/>
<path d="M1166.57 72.4518L1168.64 70.3798L1165.82 69.6229L1166.57 72.4518Z" fill="#E62B1E"/>
<path d="M1200.38 106.261L1203.21 107.017L1202.45 104.184L1200.38 106.261Z" fill="#E62B1E"/>
<path d="M1271.49 177.815L1274.02 175.285L1270.56 174.355L1271.49 177.815Z" fill="#E62B1E"/>
<path d="M408.443 1576.24L429.164 1555.52L400.86 1547.94L408.443 1576.24Z" fill="#E62B1E"/>
<path d="M327.846 1493.91L353.768 1500.85L346.824 1474.94L327.846 1493.91Z" fill="#E62B1E"/>
<path d="M304.08 1468.83L321.737 1451.17L297.618 1444.71L304.08 1468.83Z" fill="#E62B1E"/>
<path d="M41.0963 462.781L43.1686 460.712L40.3383 459.952L41.0963 462.781Z" fill="#E62B1E"/>
<path d="M52.7171 413.777L55.5423 414.534L54.7832 411.701L52.7171 413.777Z" fill="#E62B1E"/>
<path d="M79.5418 319.343L81.609 317.271L78.7838 316.514L79.5418 319.343Z" fill="#E62B1E"/>
<path d="M1178.22 23.4332L1181 24.1791L1180.25 21.4054L1178.22 23.4332Z" fill="#E62B1E"/>
<path d="M1249.39 94.6421L1251.47 92.573L1248.64 91.8092L1249.39 94.6421Z" fill="#E62B1E"/>
<path d="M348.955 1577.01L376.751 1584.46L369.304 1556.67L348.955 1577.01Z" fill="#E62B1E"/>
<path d="M325.805 1553.36L345.645 1533.52L318.543 1526.26L325.805 1553.36Z" fill="#E62B1E"/>
<path d="M18.9069 379.968L20.9781 377.895L18.1489 377.139L18.9069 379.968Z" fill="#E62B1E"/>
<path d="M30.5256 330.96L33.3518 331.721L32.5938 328.892L30.5256 330.96Z" fill="#E62B1E"/>
<path d="M1227.26 11.6326L1229.08 9.80743L1226.59 9.14295L1227.26 11.6326Z" fill="#E62B1E"/>
<path d="M1261.01 45.629L1263.84 46.3888L1263.08 43.5598L1261.01 45.629Z" fill="#E62B1E"/>
</g>
</svg>
