<svg width="1835" height="1892" viewBox="0 0 1835 1892" fill="none" xmlns="http://www.w3.org/2000/svg">
<g opacity="0.87">
<path opacity="0.57" d="M-907.198 113.452C-634.161 381.06 20.9686 293.989 152.34 506.728C287.941 726.315 372.827 1146.73 642.444 1253.22C912.06 1359.71 1202.38 1249.4 1508.89 1891.28" stroke="#FF3219" stroke-width="0.25" stroke-miterlimit="10"/>
<path opacity="0.57" d="M-897.092 122.991C-623.512 404.22 30.5632 316.492 171.169 522.21C315.801 734.449 403.033 1138.71 665.618 1250.57C928.202 1362.44 1221.82 1262.4 1513.73 1873.72" stroke="#FF3219" stroke-width="0.25" stroke-miterlimit="10"/>
<path opacity="0.57" d="M-886.986 132.53C-612.864 427.38 40.1575 338.995 189.997 537.692C343.662 742.584 433.24 1130.69 688.792 1247.92C944.343 1365.16 1241.26 1275.41 1518.58 1856.16" stroke="#FF3219" stroke-width="0.25" stroke-miterlimit="10"/>
<path opacity="0.57" d="M-876.879 142.069C-602.216 450.54 49.7522 361.498 208.825 553.173C371.523 750.718 463.446 1122.67 711.965 1245.27C960.485 1367.88 1260.7 1288.41 1523.42 1838.6" stroke="#FF3219" stroke-width="0.25" stroke-miterlimit="10"/>
<path opacity="0.57" d="M-866.773 151.608C-591.568 473.7 59.781 383.607 227.653 568.655C399.83 758.448 493.652 1114.65 735.139 1242.62C976.626 1370.6 1280.14 1301.42 1528.26 1821.04" stroke="#FF3219" stroke-width="0.25" stroke-miterlimit="10"/>
<path opacity="0.57" d="M-856.667 161.147C-580.919 496.86 69.4287 406.019 246.482 584.137C427.744 766.49 523.859 1106.63 758.313 1239.98C992.768 1373.32 1299.58 1314.42 1533.11 1803.48" stroke="#FF3219" stroke-width="0.25" stroke-miterlimit="10"/>
<path opacity="0.57" d="M-846.561 170.685C-570.271 520.02 79.0561 428.44 265.31 599.618C455.638 774.542 554.065 1098.61 781.487 1237.33C1008.91 1376.05 1319.02 1327.43 1537.95 1785.92" stroke="#FF3219" stroke-width="0.25" stroke-miterlimit="10"/>
<path opacity="0.57" d="M-836.455 180.224C-559.623 543.18 88.6648 450.872 284.138 615.1C483.512 782.605 584.271 1090.58 804.661 1234.68C1025.05 1378.77 1338.46 1340.43 1542.79 1768.36" stroke="#FF3219" stroke-width="0.25" stroke-miterlimit="10"/>
<path opacity="0.57" d="M-826.348 189.763C-548.974 566.34 98.2571 473.319 302.966 630.582C511.37 790.683 614.478 1082.56 827.835 1232.03C1041.19 1381.49 1357.9 1353.44 1547.64 1750.8" stroke="#FF3219" stroke-width="0.25" stroke-miterlimit="10"/>
<path opacity="0.57" d="M-816.242 199.302C-538.326 589.5 107.835 495.78 321.794 646.063C539.212 798.776 644.684 1074.54 851.009 1229.38C1057.33 1384.21 1377.33 1366.44 1552.48 1733.23" stroke="#FF3219" stroke-width="0.25" stroke-miterlimit="10"/>
<path opacity="0.57" d="M-806.136 208.84C-527.678 612.66 117.401 518.258 340.623 661.545C567.043 806.886 674.89 1066.52 874.183 1226.73C1073.48 1386.94 1396.77 1379.45 1557.33 1715.67" stroke="#FF3219" stroke-width="0.25" stroke-miterlimit="10"/>
<path opacity="0.57" d="M-796.03 218.379C-517.029 635.82 126.958 540.753 359.451 677.027C594.865 815.013 705.096 1058.5 897.357 1224.08C1089.62 1389.66 1416.21 1392.45 1562.17 1698.11" stroke="#FF3219" stroke-width="0.25" stroke-miterlimit="10"/>
<path opacity="0.57" d="M-785.924 227.918C-506.381 658.98 136.508 563.265 378.279 692.509C622.68 823.158 735.302 1050.48 920.531 1221.43C1105.76 1392.38 1435.65 1405.46 1567.01 1680.55" stroke="#FF3219" stroke-width="0.25" stroke-miterlimit="10"/>
<path opacity="0.57" d="M-775.818 237.457C-495.733 682.14 146.054 585.795 397.108 707.99C650.49 831.32 765.509 1042.46 943.705 1218.78C1121.9 1395.1 1455.09 1418.46 1571.86 1662.99" stroke="#FF3219" stroke-width="0.25" stroke-miterlimit="10"/>
<path opacity="0.57" d="M-765.712 246.996C-485.085 705.301 155.597 608.341 415.936 723.472C678.298 839.498 795.715 1034.44 966.879 1216.13C1138.04 1397.83 1474.53 1431.47 1576.7 1645.43" stroke="#FF3219" stroke-width="0.25" stroke-miterlimit="10"/>
<path opacity="0.57" d="M-755.605 256.534C-474.436 728.46 165.139 630.903 434.764 738.954C706.105 847.692 825.921 1026.42 990.052 1213.48C1154.18 1400.55 1493.97 1444.47 1581.54 1627.87" stroke="#FF3219" stroke-width="0.25" stroke-miterlimit="10"/>
<path opacity="0.57" d="M-745.499 266.073C-463.788 751.621 174.683 653.48 453.592 754.435C733.913 855.902 856.127 1018.4 1013.23 1210.83C1170.33 1403.27 1513.41 1457.48 1586.39 1610.31" stroke="#FF3219" stroke-width="0.25" stroke-miterlimit="10"/>
<path opacity="0.57" d="M-735.393 275.612C-453.14 774.781 184.076 676.542 472.42 769.917C761.57 864.597 886.333 1010.38 1036.4 1208.19C1186.47 1405.99 1532.85 1470.48 1591.23 1592.75" stroke="#FF3219" stroke-width="0.25" stroke-miterlimit="10"/>
<path opacity="0.57" d="M-725.287 285.151C-442.492 797.941 193.67 699.045 491.249 785.399C789.431 872.731 916.54 1002.36 1059.57 1205.54C1202.61 1408.72 1552.29 1483.49 1596.08 1575.19" stroke="#FF3219" stroke-width="0.25" stroke-miterlimit="10"/>
<path opacity="0.57" d="M-715.181 294.69C-431.843 821.101 203.265 721.548 510.077 800.881C817.291 880.865 946.746 994.335 1082.75 1202.89C1218.75 1411.44 1571.73 1496.49 1600.92 1557.62" stroke="#FF3219" stroke-width="0.25" stroke-miterlimit="10"/>
<path opacity="0.57" d="M-705.075 304.228C-421.195 844.261 212.859 744.051 528.905 816.362C845.152 888.999 976.952 986.315 1105.92 1200.24C1234.89 1414.16 1591.17 1509.5 1605.76 1540.06" stroke="#FF3219" stroke-width="0.25" stroke-miterlimit="10"/>
<path opacity="0.57" d="M-694.969 313.767C-410.547 867.421 222.454 766.554 547.733 831.844C873.013 897.133 1007.16 978.294 1129.1 1197.59C1251.03 1416.88 1610.61 1522.5 1610.61 1522.5" stroke="#FF3219" stroke-width="0.25" stroke-miterlimit="10"/>
<path opacity="0.57" d="M-692.164 306.216C-631.238 416.694 -559.391 504.757 -478.821 572.491C-373.913 660.189 -253.479 714.227 -129.122 748.686C-59.6561 767.647 11.1585 781.268 82.702 789.431C162.251 798.75 240 801.939 312.466 805.198C397.889 809.04 476.293 812.925 543.022 824.299C614.033 836.532 678.199 849.589 732.792 868.143C834.471 902.698 905.486 947.697 967.54 1005.2C1021.2 1055.19 1067.92 1115.56 1114.2 1189.37C1116.5 1193.03 1118.81 1196.73 1121.12 1200.45C1168.46 1276.97 1245.9 1335.83 1325.36 1383.64C1464.2 1467.2 1610.87 1511.43 1616.16 1515.44" stroke="#FF3219" stroke-width="0.25" stroke-miterlimit="10"/>
<path opacity="0.57" d="M-689.359 298.665C-625.908 405.937 -555.497 496.184 -476.286 565.846C-373.99 655.81 -255.554 712.889 -132.228 750.214C-63.2366 771.007 7.48481 785.554 79.0818 793.681C158.614 802.69 236.346 803.624 308.657 804.698C393.271 805.956 471.092 807.302 538.31 816.753C609.596 827.022 676.228 838.167 730.918 858.338C831.398 895.396 896.355 946.127 956.365 1006.5C1008.59 1059.05 1056.6 1120.97 1105.73 1192.54C1108.18 1196.12 1110.67 1199.7 1113.14 1203.31C1163.98 1277.49 1244.25 1331.08 1325.68 1376.86C1465.18 1455.28 1611.13 1500.35 1621.71 1508.38" stroke="#FF3219" stroke-width="0.25" stroke-miterlimit="10"/>
<path opacity="0.57" d="M-686.554 291.113C-620.579 395.181 -551.505 487.485 -473.751 559.201C-373.937 651.265 -257.629 711.552 -135.334 751.743C-66.849 774.365 3.79202 789.843 75.4616 797.931C154.977 806.629 232.682 805.323 304.848 804.198C388.642 802.892 465.909 801.517 533.598 809.208C605.179 817.341 674.255 826.726 729.044 848.533C828.328 888.051 887.143 944.655 945.189 1007.81C995.912 1063 1045.3 1126.38 1097.25 1195.72C1099.86 1199.21 1102.52 1202.67 1105.16 1206.17C1159.5 1278.02 1242.54 1326.36 1325.99 1370.08C1466.06 1443.44 1611.39 1489.28 1627.26 1501.32" stroke="#FF3219" stroke-width="0.25" stroke-miterlimit="10"/>
<path opacity="0.57" d="M-683.749 283.562C-615.249 384.424 -547.507 478.772 -471.216 552.557C-373.875 646.701 -259.704 710.214 -138.44 753.272C-70.486 777.191 0.37921 794.734 71.8414 802.182C151.34 810.569 229.01 807.04 301.038 803.698C384.004 799.85 460.707 795.852 528.886 801.663C600.741 807.787 672.282 815.264 727.17 838.728C825.261 880.662 877.925 943.195 934.014 1009.12C983.227 1066.96 1034.03 1131.79 1088.77 1198.89C1091.55 1202.29 1094.38 1205.65 1097.18 1209.03C1155.01 1278.55 1240.79 1321.68 1326.31 1363.29C1466.85 1431.68 1611.65 1478.21 1632.82 1494.25" stroke="#FF3219" stroke-width="0.25" stroke-miterlimit="10"/>
<path opacity="0.57" d="M-680.944 276.011C-609.92 373.667 -543.501 470.045 -468.681 545.912C-373.802 642.118 -261.779 708.877 -141.546 754.801C-74.2714 780.248 -3.57394 799.245 68.2213 806.432C147.704 814.509 225.33 808.774 297.229 803.199C379.358 796.831 455.502 790.193 524.174 794.118C596.3 798.24 670.312 803.782 725.296 828.924C822.201 873.234 868.7 941.749 922.838 1010.42C970.535 1070.93 1022.78 1137.19 1080.3 1202.07C1083.23 1205.38 1086.23 1208.62 1089.2 1211.89C1150.53 1279.07 1238.99 1317.02 1326.63 1356.51C1467.57 1420.01 1611.91 1467.13 1638.37 1487.19" stroke="#FF3219" stroke-width="0.25" stroke-miterlimit="10"/>
<path opacity="0.57" d="M-678.139 268.459C-604.59 362.911 -539.488 461.304 -466.146 539.267C-373.719 637.517 -263.854 707.54 -144.652 756.329C-78.057 783.305 -7.52714 803.755 64.6011 810.682C144.067 818.449 221.645 810.526 293.42 802.699C374.707 793.835 450.295 784.54 519.462 786.572C591.857 788.7 668.345 792.281 723.422 819.119C819.149 865.766 859.466 940.313 911.663 1011.73C957.836 1074.91 1011.56 1142.58 1071.82 1205.25C1074.92 1208.46 1078.09 1211.6 1081.22 1214.75C1146.05 1279.6 1237.15 1312.41 1326.95 1349.73C1468.21 1408.42 1612.17 1456.06 1643.92 1480.13" stroke="#FF3219" stroke-width="0.25" stroke-miterlimit="10"/>
<path opacity="0.77" d="M-675.334 260.908C-599.26 352.154 -535.466 452.551 -463.611 532.622C-373.624 632.9 -265.93 706.202 -147.758 757.858C-81.8426 786.362 -11.4804 808.266 60.9809 814.933C140.43 822.388 217.957 812.298 289.611 802.199C370.052 790.862 445.087 778.894 514.75 779.027C587.413 779.166 666.383 780.76 721.548 809.315C816.109 858.262 850.224 938.887 900.487 1013.04C945.129 1078.89 1000.37 1147.95 1063.35 1208.42C1066.61 1211.55 1069.94 1214.57 1073.25 1217.61C1141.57 1280.13 1235.28 1307.85 1327.27 1342.94C1468.79 1396.93 1612.43 1444.98 1649.47 1473.07" stroke="#E62B1E" stroke-width="0.25" stroke-miterlimit="10"/>
<path opacity="0.57" d="M-672.529 253.357C-593.931 341.397 -531.433 443.786 -461.076 525.978C-373.515 628.268 -268.118 705.109 -150.864 759.386C-85.691 789.555 -15.4336 812.776 57.3607 819.183C136.794 826.328 214.267 814.09 285.801 801.699C365.396 787.913 439.878 773.254 510.038 771.482C582.967 769.64 664.429 769.22 719.674 799.51C813.082 850.724 840.971 937.468 889.312 1014.34C932.414 1082.89 989.188 1153.31 1054.87 1211.6C1058.29 1214.63 1061.79 1217.55 1065.27 1220.47C1137.09 1280.65 1233.37 1303.34 1327.59 1336.16C1469.31 1385.53 1612.69 1433.91 1655.02 1466" stroke="#FF3219" stroke-width="0.25" stroke-miterlimit="10"/>
<path opacity="0.57" d="M-669.724 245.806C-588.601 330.64 -527.39 435.009 -458.541 519.333C-375.696 620.952 -271.78 703.377 -153.97 760.915C-89.482 792.615 -19.3868 817.287 53.7405 823.433C133.157 830.268 210.577 815.902 281.992 801.2C360.741 784.988 434.668 767.621 505.326 763.937C578.521 760.12 661.495 759.431 717.8 789.705C811.717 840.203 831.71 936.057 878.136 1015.65C919.69 1086.89 978.028 1158.66 1046.4 1214.77C1049.98 1217.72 1053.65 1220.52 1057.29 1223.33C1132.61 1281.18 1231.43 1298.88 1327.91 1329.38C1469.79 1374.23 1612.95 1422.84 1660.58 1458.94" stroke="#FF3219" stroke-width="0.25" stroke-miterlimit="10"/>
<path opacity="0.57" d="M-666.919 238.254C-583.272 319.883 -523.335 426.222 -456.006 512.688C-375.591 616.573 -273.604 701.783 -157.076 762.443C-93.272 795.672 -23.3401 821.797 50.1203 827.684C129.52 834.207 206.89 817.734 278.183 800.7C356.088 782.085 429.458 761.994 500.615 756.391C574.075 750.608 660.545 746.087 715.926 779.901C807.073 835.553 822.438 934.652 866.961 1016.96C906.957 1090.89 966.883 1163.98 1037.92 1217.95C1041.67 1220.8 1045.5 1223.5 1049.31 1226.2C1128.12 1281.71 1229.47 1294.49 1328.23 1322.6C1470.24 1363.01 1613.21 1411.76 1666.13 1451.88" stroke="#FF3219" stroke-width="0.25" stroke-miterlimit="10"/>
<path opacity="0.57" d="M-664.114 230.703C-577.942 309.127 -519.268 417.425 -453.471 506.043C-373.103 614.288 -274.367 701.101 -160.182 763.972C-97.0604 798.727 -27.2932 826.307 46.5003 831.934C125.884 838.147 203.207 819.587 274.374 800.2C351.44 779.205 424.249 756.373 495.903 748.846C569.631 741.101 658.619 734.495 714.052 770.096C804.094 827.925 813.156 933.25 855.785 1018.26C894.216 1094.9 955.751 1169.29 1029.45 1221.12C1033.36 1223.88 1037.36 1226.47 1041.33 1229.06C1123.64 1282.23 1227.49 1290.15 1328.55 1315.81C1470.66 1351.89 1613.48 1400.69 1671.68 1444.82" stroke="#FF3219" stroke-width="0.25" stroke-miterlimit="10"/>
<path opacity="0.57" d="M-661.31 223.152C-572.613 298.37 -515.188 408.62 -450.936 499.399C-372.935 609.605 -276.445 699.756 -163.288 765.501C-100.847 801.779 -31.2465 830.818 42.88 836.184C122.247 842.087 199.531 821.46 270.564 799.7C346.799 776.347 419.041 750.759 491.191 741.301C565.186 731.601 656.704 722.887 712.178 760.292C801.133 820.273 803.865 931.852 844.61 1019.57C881.466 1098.91 944.628 1174.58 1020.97 1224.3C1025.05 1226.96 1029.21 1229.45 1033.35 1231.92C1119.16 1282.76 1225.5 1285.89 1328.87 1309.03C1471.06 1340.86 1613.74 1389.61 1677.23 1437.75" stroke="#FF3219" stroke-width="0.25" stroke-miterlimit="10"/>
<path opacity="0.57" d="M-658.505 215.6C-567.283 287.613 -511.094 399.806 -448.401 492.754C-372.751 604.913 -278.52 698.406 -166.394 767.03C-104.633 804.829 -35.1995 835.328 39.2599 840.435C118.61 846.027 195.863 823.352 266.755 799.2C342.167 773.509 413.834 745.15 486.479 733.756C560.744 722.107 654.802 711.264 710.304 750.487C798.192 812.598 794.565 930.456 833.434 1020.87C868.707 1102.93 933.513 1179.85 1012.49 1227.47C1016.75 1230.04 1021.06 1232.43 1025.37 1234.78C1114.68 1283.29 1223.5 1281.69 1329.19 1302.25C1471.45 1329.92 1614 1378.54 1682.78 1430.69" stroke="#FF3219" stroke-width="0.25" stroke-miterlimit="10"/>
<path opacity="0.57" d="M-655.7 208.049C-561.954 276.857 -506.987 390.985 -445.867 486.109C-372.551 600.213 -280.455 696.84 -169.5 768.558C-108.342 807.76 -39.1529 839.839 35.6395 844.685C114.973 849.967 192.204 825.263 262.946 798.7C337.545 770.689 408.629 739.547 481.767 726.21C556.303 712.619 652.913 699.627 708.429 740.682C795.27 804.903 785.256 929.061 822.259 1022.18C855.94 1106.94 922.402 1185.1 1004.02 1230.65C1008.44 1233.12 1012.92 1235.4 1017.39 1237.64C1110.2 1283.82 1221.5 1277.56 1329.51 1295.46C1471.84 1319.05 1614.26 1367.46 1688.34 1423.63" stroke="#FF3219" stroke-width="0.25" stroke-miterlimit="10"/>
<path opacity="0.57" d="M-652.895 200.498C-556.624 266.1 -502.865 382.159 -443.332 479.464C-372.334 595.507 -282.531 695.503 -172.606 770.087C-112.127 810.816 -43.1061 844.349 32.0195 848.935C111.337 853.906 188.558 827.192 259.136 798.201C332.935 767.887 403.427 733.95 477.055 718.665C551.864 703.135 651.039 687.976 706.556 730.877C792.369 797.19 775.938 927.667 811.083 1023.49C843.165 1110.96 911.295 1190.34 995.544 1233.83C1000.13 1236.19 1004.77 1238.38 1009.42 1240.5C1105.72 1284.34 1219.5 1273.51 1329.83 1288.68C1472.24 1308.27 1614.52 1356.39 1693.89 1416.57" stroke="#FF3219" stroke-width="0.25" stroke-miterlimit="10"/>
<path opacity="0.57" d="M-650.09 192.947C-551.295 255.343 -498.729 373.328 -440.797 472.82C-372.101 590.794 -284.606 694.165 -175.712 771.615C-115.913 813.873 -47.0594 848.859 28.3992 853.185C107.7 857.846 184.924 829.137 255.327 797.701C328.337 765.101 398.227 728.357 472.343 711.12C547.428 693.657 649.178 676.314 704.681 721.073C789.487 789.462 766.613 926.272 799.908 1024.79C830.383 1114.97 900.188 1195.55 987.068 1237C991.821 1239.27 996.627 1241.35 1001.44 1243.36C1101.23 1284.87 1217.51 1269.52 1330.15 1281.9C1472.65 1297.56 1614.78 1345.32 1699.44 1409.5" stroke="#FF3219" stroke-width="0.25" stroke-miterlimit="10"/>
<path opacity="0.57" d="M-647.285 185.395C-545.965 244.586 -494.579 364.492 -438.262 466.175C-371.853 586.078 -286.681 692.828 -178.817 773.144C-119.698 816.93 -51.0126 853.37 24.7789 857.436C104.063 861.786 181.304 831.097 251.518 797.201C323.754 762.328 393.029 722.77 467.631 703.575C542.995 684.184 647.332 664.641 702.807 711.268C786.627 781.72 757.28 924.876 788.732 1026.1C817.594 1118.99 889.08 1200.76 978.592 1240.18C983.513 1242.34 988.481 1244.33 993.458 1246.22C1096.75 1285.4 1215.53 1265.6 1330.47 1275.12C1473.08 1286.92 1615.04 1334.24 1704.99 1402.44" stroke="#FF3219" stroke-width="0.25" stroke-miterlimit="10"/>
<path opacity="0.57" d="M-644.48 177.844C-540.635 233.83 -490.414 355.653 -435.727 459.53C-371.588 581.359 -288.756 691.49 -181.923 774.673C-123.484 819.987 -54.9658 857.88 21.1588 861.686C100.426 865.725 177.7 833.071 247.709 796.701C319.186 759.568 387.876 717.33 462.92 696.03C538.606 674.859 645.502 652.957 700.933 701.464C783.787 773.967 747.941 923.48 777.557 1027.41C804.799 1123 877.97 1205.94 970.117 1243.35C975.205 1245.42 980.336 1247.3 985.48 1249.08C1092.27 1285.92 1213.56 1261.75 1330.79 1268.33C1473.54 1276.35 1615.3 1323.17 1710.54 1395.38" stroke="#FF3219" stroke-width="0.25" stroke-miterlimit="10"/>
<path opacity="0.57" d="M-641.675 170.293C-535.306 223.073 -486.235 346.812 -433.192 452.885C-371.307 576.638 -290.831 690.153 -185.029 776.201C-127.269 823.044 -58.9189 862.391 17.5388 865.936C96.7899 869.665 174.111 835.058 243.899 796.201C314.634 756.818 382.675 711.706 458.208 688.484C534.169 665.348 643.687 641.264 699.059 691.659C780.968 766.204 738.447 922.12 766.381 1028.71C791.86 1127.05 866.857 1211.11 961.641 1246.53C966.897 1248.49 972.19 1250.28 977.501 1251.94C1087.79 1286.45 1211.62 1257.97 1331.11 1261.55C1474.03 1265.83 1615.56 1312.09 1716.1 1388.32" stroke="#FF3219" stroke-width="0.25" stroke-miterlimit="10"/>
<path opacity="0.57" d="M-638.87 162.742C-529.976 212.316 -481.912 337.909 -430.657 446.241C-370.861 571.846 -292.906 688.815 -188.135 777.73C-131.055 826.101 -62.8722 866.901 13.9184 870.187C93.153 873.605 170.539 837.056 240.09 795.702C310.098 754.076 377.474 706.083 453.496 680.939C529.732 655.838 641.887 629.564 697.185 681.854C778.169 758.434 729.167 920.699 755.206 1030.02C779.118 1131.04 855.792 1216.12 953.166 1249.7C958.591 1251.56 964.043 1253.26 969.522 1254.8C1083.31 1286.98 1209.7 1254.25 1331.43 1254.77C1474.56 1255.37 1615.82 1301.02 1721.65 1381.25" stroke="#FF3219" stroke-width="0.25" stroke-miterlimit="10"/>
<path opacity="0.57" d="M-636.065 155.19C-524.647 201.559 -477.834 329.127 -428.122 439.596C-370.7 567.196 -294.981 687.478 -191.241 779.259C-134.84 829.158 -66.8254 871.412 10.2983 874.437C89.5163 877.545 166.983 839.062 236.281 795.202C305.578 751.341 372.273 700.46 448.784 673.394C525.295 646.328 640.103 617.855 695.311 672.05C775.389 750.657 719.887 919.278 744.03 1031.33C766.377 1135.04 844.618 1221.42 944.69 1252.88C1066.4 1291.14 1201.84 1250.73 1331.75 1247.98C1475.12 1244.96 1616.08 1289.95 1727.2 1374.19" stroke="#FF3219" stroke-width="0.25" stroke-miterlimit="10"/>
</g>
</svg>
