<svg width="78" height="23" viewBox="0 0 78 23" fill="none" xmlns="http://www.w3.org/2000/svg">
<path d="M6.34343 5.84474H0V0.0432739H19.6539V5.84474H13.3128V22.6784H6.34343V5.84474Z" fill="#E62B1E"/>
<path d="M20.7371 0.0432739H39.8161V5.84474H27.711V8.66536H39.8161V14.0564H27.711V16.8773H39.8194V22.6784H20.7371V0.0432739Z" fill="#E62B1E"/>
<path d="M40.9897 0.0432739H52.434C59.9777 0.0432739 62.6438 5.623 62.6438 11.3276C62.6438 18.2724 58.9664 22.6784 51.0722 22.6784H40.9897V0.0432739ZM47.9632 16.8773H50.6905C55.0349 16.8773 55.67 13.3572 55.67 11.2308C55.67 9.80697 55.2238 5.84474 50.1827 5.84474H47.9632V16.8773Z" fill="#E62B1E"/>
<path d="M72.6647 13.956L70.5373 10.4283L68.4628 13.956H63.3531L68.2039 6.82295L63.5331 0H68.6444L70.5373 3.37263L72.4844 0H77.5943L72.9249 6.82295L77.7757 13.956H72.6647Z" fill="#E62B1E"/>
</svg>
